%TF.GenerationSoftware,KiCad,Pcbnew,(5.1.12)-1*%
%TF.CreationDate,2021-11-21T15:36:10-08:00*%
%TF.ProjectId,VCF,5643462e-6b69-4636-9164-5f7063625858,rev?*%
%TF.SameCoordinates,Original*%
%TF.FileFunction,Legend,Top*%
%TF.FilePolarity,Positive*%
%FSLAX46Y46*%
G04 Gerber Fmt 4.6, Leading zero omitted, Abs format (unit mm)*
G04 Created by KiCad (PCBNEW (5.1.12)-1) date 2021-11-21 15:36:10*
%MOMM*%
%LPD*%
G01*
G04 APERTURE LIST*
%ADD10C,0.150000*%
%ADD11C,0.120000*%
%ADD12O,2.400000X1.600000*%
%ADD13R,2.400000X1.600000*%
%ADD14C,1.440000*%
%ADD15O,1.600000X1.600000*%
%ADD16C,1.600000*%
%ADD17C,2.130000*%
%ADD18R,1.930000X1.830000*%
%ADD19O,1.700000X1.700000*%
%ADD20R,1.700000X1.700000*%
G04 APERTURE END LIST*
D10*
X92638571Y-67428571D02*
X92638571Y-67761904D01*
X93162380Y-67761904D02*
X92162380Y-67761904D01*
X92162380Y-67285714D01*
X93162380Y-66904761D02*
X92495714Y-66904761D01*
X92162380Y-66904761D02*
X92210000Y-66952380D01*
X92257619Y-66904761D01*
X92210000Y-66857142D01*
X92162380Y-66904761D01*
X92257619Y-66904761D01*
X92495714Y-66428571D02*
X93162380Y-66428571D01*
X92590952Y-66428571D02*
X92543333Y-66380952D01*
X92495714Y-66285714D01*
X92495714Y-66142857D01*
X92543333Y-66047619D01*
X92638571Y-66000000D01*
X93162380Y-66000000D01*
X93114761Y-65142857D02*
X93162380Y-65238095D01*
X93162380Y-65428571D01*
X93114761Y-65523809D01*
X93019523Y-65571428D01*
X92638571Y-65571428D01*
X92543333Y-65523809D01*
X92495714Y-65428571D01*
X92495714Y-65238095D01*
X92543333Y-65142857D01*
X92638571Y-65095238D01*
X92733809Y-65095238D01*
X92829047Y-65571428D01*
X92162380Y-64047619D02*
X92162380Y-63476190D01*
X93162380Y-63761904D02*
X92162380Y-63761904D01*
X92495714Y-62714285D02*
X93162380Y-62714285D01*
X92495714Y-63142857D02*
X93019523Y-63142857D01*
X93114761Y-63095238D01*
X93162380Y-63000000D01*
X93162380Y-62857142D01*
X93114761Y-62761904D01*
X93067142Y-62714285D01*
X92495714Y-62238095D02*
X93162380Y-62238095D01*
X92590952Y-62238095D02*
X92543333Y-62190476D01*
X92495714Y-62095238D01*
X92495714Y-61952380D01*
X92543333Y-61857142D01*
X92638571Y-61809523D01*
X93162380Y-61809523D01*
X93114761Y-60952380D02*
X93162380Y-61047619D01*
X93162380Y-61238095D01*
X93114761Y-61333333D01*
X93019523Y-61380952D01*
X92638571Y-61380952D01*
X92543333Y-61333333D01*
X92495714Y-61238095D01*
X92495714Y-61047619D01*
X92543333Y-60952380D01*
X92638571Y-60904761D01*
X92733809Y-60904761D01*
X92829047Y-61380952D01*
X93162380Y-59190476D02*
X93162380Y-59761904D01*
X93162380Y-59476190D02*
X92162380Y-59476190D01*
X92305238Y-59571428D01*
X92400476Y-59666666D01*
X92448095Y-59761904D01*
X96401428Y-126928571D02*
X96068095Y-126928571D01*
X96068095Y-127452380D02*
X96068095Y-126452380D01*
X96544285Y-126452380D01*
X96925238Y-127452380D02*
X96925238Y-126785714D01*
X96925238Y-126452380D02*
X96877619Y-126500000D01*
X96925238Y-126547619D01*
X96972857Y-126500000D01*
X96925238Y-126452380D01*
X96925238Y-126547619D01*
X97401428Y-126785714D02*
X97401428Y-127452380D01*
X97401428Y-126880952D02*
X97449047Y-126833333D01*
X97544285Y-126785714D01*
X97687142Y-126785714D01*
X97782380Y-126833333D01*
X97830000Y-126928571D01*
X97830000Y-127452380D01*
X98687142Y-127404761D02*
X98591904Y-127452380D01*
X98401428Y-127452380D01*
X98306190Y-127404761D01*
X98258571Y-127309523D01*
X98258571Y-126928571D01*
X98306190Y-126833333D01*
X98401428Y-126785714D01*
X98591904Y-126785714D01*
X98687142Y-126833333D01*
X98734761Y-126928571D01*
X98734761Y-127023809D01*
X98258571Y-127119047D01*
X99782380Y-126452380D02*
X100353809Y-126452380D01*
X100068095Y-127452380D02*
X100068095Y-126452380D01*
X101115714Y-126785714D02*
X101115714Y-127452380D01*
X100687142Y-126785714D02*
X100687142Y-127309523D01*
X100734761Y-127404761D01*
X100830000Y-127452380D01*
X100972857Y-127452380D01*
X101068095Y-127404761D01*
X101115714Y-127357142D01*
X101591904Y-126785714D02*
X101591904Y-127452380D01*
X101591904Y-126880952D02*
X101639523Y-126833333D01*
X101734761Y-126785714D01*
X101877619Y-126785714D01*
X101972857Y-126833333D01*
X102020476Y-126928571D01*
X102020476Y-127452380D01*
X102877619Y-127404761D02*
X102782380Y-127452380D01*
X102591904Y-127452380D01*
X102496666Y-127404761D01*
X102449047Y-127309523D01*
X102449047Y-126928571D01*
X102496666Y-126833333D01*
X102591904Y-126785714D01*
X102782380Y-126785714D01*
X102877619Y-126833333D01*
X102925238Y-126928571D01*
X102925238Y-127023809D01*
X102449047Y-127119047D01*
X104068095Y-126547619D02*
X104115714Y-126500000D01*
X104210952Y-126452380D01*
X104449047Y-126452380D01*
X104544285Y-126500000D01*
X104591904Y-126547619D01*
X104639523Y-126642857D01*
X104639523Y-126738095D01*
X104591904Y-126880952D01*
X104020476Y-127452380D01*
X104639523Y-127452380D01*
X89717619Y-128555714D02*
X89670000Y-128508095D01*
X89622380Y-128412857D01*
X89622380Y-128174761D01*
X89670000Y-128079523D01*
X89717619Y-128031904D01*
X89812857Y-127984285D01*
X89908095Y-127984285D01*
X90050952Y-128031904D01*
X90622380Y-128603333D01*
X90622380Y-127984285D01*
X88082380Y-127984285D02*
X88082380Y-128555714D01*
X88082380Y-128270000D02*
X87082380Y-128270000D01*
X87225238Y-128365238D01*
X87320476Y-128460476D01*
X87368095Y-128555714D01*
X109609523Y-70207142D02*
X109561904Y-70254761D01*
X109419047Y-70302380D01*
X109323809Y-70302380D01*
X109180952Y-70254761D01*
X109085714Y-70159523D01*
X109038095Y-70064285D01*
X108990476Y-69873809D01*
X108990476Y-69730952D01*
X109038095Y-69540476D01*
X109085714Y-69445238D01*
X109180952Y-69350000D01*
X109323809Y-69302380D01*
X109419047Y-69302380D01*
X109561904Y-69350000D01*
X109609523Y-69397619D01*
X110180952Y-70302380D02*
X110085714Y-70254761D01*
X110038095Y-70207142D01*
X109990476Y-70111904D01*
X109990476Y-69826190D01*
X110038095Y-69730952D01*
X110085714Y-69683333D01*
X110180952Y-69635714D01*
X110323809Y-69635714D01*
X110419047Y-69683333D01*
X110466666Y-69730952D01*
X110514285Y-69826190D01*
X110514285Y-70111904D01*
X110466666Y-70207142D01*
X110419047Y-70254761D01*
X110323809Y-70302380D01*
X110180952Y-70302380D01*
X111371428Y-70302380D02*
X111371428Y-69778571D01*
X111323809Y-69683333D01*
X111228571Y-69635714D01*
X111038095Y-69635714D01*
X110942857Y-69683333D01*
X111371428Y-70254761D02*
X111276190Y-70302380D01*
X111038095Y-70302380D01*
X110942857Y-70254761D01*
X110895238Y-70159523D01*
X110895238Y-70064285D01*
X110942857Y-69969047D01*
X111038095Y-69921428D01*
X111276190Y-69921428D01*
X111371428Y-69873809D01*
X111847619Y-70302380D02*
X111847619Y-69635714D01*
X111847619Y-69826190D02*
X111895238Y-69730952D01*
X111942857Y-69683333D01*
X112038095Y-69635714D01*
X112133333Y-69635714D01*
X112419047Y-70254761D02*
X112514285Y-70302380D01*
X112704761Y-70302380D01*
X112800000Y-70254761D01*
X112847619Y-70159523D01*
X112847619Y-70111904D01*
X112800000Y-70016666D01*
X112704761Y-69969047D01*
X112561904Y-69969047D01*
X112466666Y-69921428D01*
X112419047Y-69826190D01*
X112419047Y-69778571D01*
X112466666Y-69683333D01*
X112561904Y-69635714D01*
X112704761Y-69635714D01*
X112800000Y-69683333D01*
X113657142Y-70254761D02*
X113561904Y-70302380D01*
X113371428Y-70302380D01*
X113276190Y-70254761D01*
X113228571Y-70159523D01*
X113228571Y-69778571D01*
X113276190Y-69683333D01*
X113371428Y-69635714D01*
X113561904Y-69635714D01*
X113657142Y-69683333D01*
X113704761Y-69778571D01*
X113704761Y-69873809D01*
X113228571Y-69969047D01*
X114752380Y-69302380D02*
X115323809Y-69302380D01*
X115038095Y-70302380D02*
X115038095Y-69302380D01*
X116085714Y-69635714D02*
X116085714Y-70302380D01*
X115657142Y-69635714D02*
X115657142Y-70159523D01*
X115704761Y-70254761D01*
X115800000Y-70302380D01*
X115942857Y-70302380D01*
X116038095Y-70254761D01*
X116085714Y-70207142D01*
X116561904Y-69635714D02*
X116561904Y-70302380D01*
X116561904Y-69730952D02*
X116609523Y-69683333D01*
X116704761Y-69635714D01*
X116847619Y-69635714D01*
X116942857Y-69683333D01*
X116990476Y-69778571D01*
X116990476Y-70302380D01*
X117847619Y-70254761D02*
X117752380Y-70302380D01*
X117561904Y-70302380D01*
X117466666Y-70254761D01*
X117419047Y-70159523D01*
X117419047Y-69778571D01*
X117466666Y-69683333D01*
X117561904Y-69635714D01*
X117752380Y-69635714D01*
X117847619Y-69683333D01*
X117895238Y-69778571D01*
X117895238Y-69873809D01*
X117419047Y-69969047D01*
X119038095Y-69397619D02*
X119085714Y-69350000D01*
X119180952Y-69302380D01*
X119419047Y-69302380D01*
X119514285Y-69350000D01*
X119561904Y-69397619D01*
X119609523Y-69492857D01*
X119609523Y-69588095D01*
X119561904Y-69730952D01*
X118990476Y-70302380D01*
X119609523Y-70302380D01*
X94369523Y-70207142D02*
X94321904Y-70254761D01*
X94179047Y-70302380D01*
X94083809Y-70302380D01*
X93940952Y-70254761D01*
X93845714Y-70159523D01*
X93798095Y-70064285D01*
X93750476Y-69873809D01*
X93750476Y-69730952D01*
X93798095Y-69540476D01*
X93845714Y-69445238D01*
X93940952Y-69350000D01*
X94083809Y-69302380D01*
X94179047Y-69302380D01*
X94321904Y-69350000D01*
X94369523Y-69397619D01*
X94940952Y-70302380D02*
X94845714Y-70254761D01*
X94798095Y-70207142D01*
X94750476Y-70111904D01*
X94750476Y-69826190D01*
X94798095Y-69730952D01*
X94845714Y-69683333D01*
X94940952Y-69635714D01*
X95083809Y-69635714D01*
X95179047Y-69683333D01*
X95226666Y-69730952D01*
X95274285Y-69826190D01*
X95274285Y-70111904D01*
X95226666Y-70207142D01*
X95179047Y-70254761D01*
X95083809Y-70302380D01*
X94940952Y-70302380D01*
X96131428Y-70302380D02*
X96131428Y-69778571D01*
X96083809Y-69683333D01*
X95988571Y-69635714D01*
X95798095Y-69635714D01*
X95702857Y-69683333D01*
X96131428Y-70254761D02*
X96036190Y-70302380D01*
X95798095Y-70302380D01*
X95702857Y-70254761D01*
X95655238Y-70159523D01*
X95655238Y-70064285D01*
X95702857Y-69969047D01*
X95798095Y-69921428D01*
X96036190Y-69921428D01*
X96131428Y-69873809D01*
X96607619Y-70302380D02*
X96607619Y-69635714D01*
X96607619Y-69826190D02*
X96655238Y-69730952D01*
X96702857Y-69683333D01*
X96798095Y-69635714D01*
X96893333Y-69635714D01*
X97179047Y-70254761D02*
X97274285Y-70302380D01*
X97464761Y-70302380D01*
X97560000Y-70254761D01*
X97607619Y-70159523D01*
X97607619Y-70111904D01*
X97560000Y-70016666D01*
X97464761Y-69969047D01*
X97321904Y-69969047D01*
X97226666Y-69921428D01*
X97179047Y-69826190D01*
X97179047Y-69778571D01*
X97226666Y-69683333D01*
X97321904Y-69635714D01*
X97464761Y-69635714D01*
X97560000Y-69683333D01*
X98417142Y-70254761D02*
X98321904Y-70302380D01*
X98131428Y-70302380D01*
X98036190Y-70254761D01*
X97988571Y-70159523D01*
X97988571Y-69778571D01*
X98036190Y-69683333D01*
X98131428Y-69635714D01*
X98321904Y-69635714D01*
X98417142Y-69683333D01*
X98464761Y-69778571D01*
X98464761Y-69873809D01*
X97988571Y-69969047D01*
X99512380Y-69302380D02*
X100083809Y-69302380D01*
X99798095Y-70302380D02*
X99798095Y-69302380D01*
X100845714Y-69635714D02*
X100845714Y-70302380D01*
X100417142Y-69635714D02*
X100417142Y-70159523D01*
X100464761Y-70254761D01*
X100560000Y-70302380D01*
X100702857Y-70302380D01*
X100798095Y-70254761D01*
X100845714Y-70207142D01*
X101321904Y-69635714D02*
X101321904Y-70302380D01*
X101321904Y-69730952D02*
X101369523Y-69683333D01*
X101464761Y-69635714D01*
X101607619Y-69635714D01*
X101702857Y-69683333D01*
X101750476Y-69778571D01*
X101750476Y-70302380D01*
X102607619Y-70254761D02*
X102512380Y-70302380D01*
X102321904Y-70302380D01*
X102226666Y-70254761D01*
X102179047Y-70159523D01*
X102179047Y-69778571D01*
X102226666Y-69683333D01*
X102321904Y-69635714D01*
X102512380Y-69635714D01*
X102607619Y-69683333D01*
X102655238Y-69778571D01*
X102655238Y-69873809D01*
X102179047Y-69969047D01*
X104369523Y-70302380D02*
X103798095Y-70302380D01*
X104083809Y-70302380D02*
X104083809Y-69302380D01*
X103988571Y-69445238D01*
X103893333Y-69540476D01*
X103798095Y-69588095D01*
X61634761Y-87987142D02*
X61587142Y-88034761D01*
X61444285Y-88082380D01*
X61349047Y-88082380D01*
X61206190Y-88034761D01*
X61110952Y-87939523D01*
X61063333Y-87844285D01*
X61015714Y-87653809D01*
X61015714Y-87510952D01*
X61063333Y-87320476D01*
X61110952Y-87225238D01*
X61206190Y-87130000D01*
X61349047Y-87082380D01*
X61444285Y-87082380D01*
X61587142Y-87130000D01*
X61634761Y-87177619D01*
X61920476Y-87082380D02*
X62253809Y-88082380D01*
X62587142Y-87082380D01*
X63349047Y-87082380D02*
X63158571Y-87082380D01*
X63063333Y-87130000D01*
X63015714Y-87177619D01*
X62920476Y-87320476D01*
X62872857Y-87510952D01*
X62872857Y-87891904D01*
X62920476Y-87987142D01*
X62968095Y-88034761D01*
X63063333Y-88082380D01*
X63253809Y-88082380D01*
X63349047Y-88034761D01*
X63396666Y-87987142D01*
X63444285Y-87891904D01*
X63444285Y-87653809D01*
X63396666Y-87558571D01*
X63349047Y-87510952D01*
X63253809Y-87463333D01*
X63063333Y-87463333D01*
X62968095Y-87510952D01*
X62920476Y-87558571D01*
X62872857Y-87653809D01*
X61634761Y-103227142D02*
X61587142Y-103274761D01*
X61444285Y-103322380D01*
X61349047Y-103322380D01*
X61206190Y-103274761D01*
X61110952Y-103179523D01*
X61063333Y-103084285D01*
X61015714Y-102893809D01*
X61015714Y-102750952D01*
X61063333Y-102560476D01*
X61110952Y-102465238D01*
X61206190Y-102370000D01*
X61349047Y-102322380D01*
X61444285Y-102322380D01*
X61587142Y-102370000D01*
X61634761Y-102417619D01*
X61920476Y-102322380D02*
X62253809Y-103322380D01*
X62587142Y-102322380D01*
X63396666Y-102322380D02*
X62920476Y-102322380D01*
X62872857Y-102798571D01*
X62920476Y-102750952D01*
X63015714Y-102703333D01*
X63253809Y-102703333D01*
X63349047Y-102750952D01*
X63396666Y-102798571D01*
X63444285Y-102893809D01*
X63444285Y-103131904D01*
X63396666Y-103227142D01*
X63349047Y-103274761D01*
X63253809Y-103322380D01*
X63015714Y-103322380D01*
X62920476Y-103274761D01*
X62872857Y-103227142D01*
X61634761Y-118467142D02*
X61587142Y-118514761D01*
X61444285Y-118562380D01*
X61349047Y-118562380D01*
X61206190Y-118514761D01*
X61110952Y-118419523D01*
X61063333Y-118324285D01*
X61015714Y-118133809D01*
X61015714Y-117990952D01*
X61063333Y-117800476D01*
X61110952Y-117705238D01*
X61206190Y-117610000D01*
X61349047Y-117562380D01*
X61444285Y-117562380D01*
X61587142Y-117610000D01*
X61634761Y-117657619D01*
X61920476Y-117562380D02*
X62253809Y-118562380D01*
X62587142Y-117562380D01*
X63349047Y-117895714D02*
X63349047Y-118562380D01*
X63110952Y-117514761D02*
X62872857Y-118229047D01*
X63491904Y-118229047D01*
X61634761Y-72747142D02*
X61587142Y-72794761D01*
X61444285Y-72842380D01*
X61349047Y-72842380D01*
X61206190Y-72794761D01*
X61110952Y-72699523D01*
X61063333Y-72604285D01*
X61015714Y-72413809D01*
X61015714Y-72270952D01*
X61063333Y-72080476D01*
X61110952Y-71985238D01*
X61206190Y-71890000D01*
X61349047Y-71842380D01*
X61444285Y-71842380D01*
X61587142Y-71890000D01*
X61634761Y-71937619D01*
X61920476Y-71842380D02*
X62253809Y-72842380D01*
X62587142Y-71842380D01*
X62825238Y-71842380D02*
X63444285Y-71842380D01*
X63110952Y-72223333D01*
X63253809Y-72223333D01*
X63349047Y-72270952D01*
X63396666Y-72318571D01*
X63444285Y-72413809D01*
X63444285Y-72651904D01*
X63396666Y-72747142D01*
X63349047Y-72794761D01*
X63253809Y-72842380D01*
X62968095Y-72842380D01*
X62872857Y-72794761D01*
X62825238Y-72747142D01*
X61634761Y-56237142D02*
X61587142Y-56284761D01*
X61444285Y-56332380D01*
X61349047Y-56332380D01*
X61206190Y-56284761D01*
X61110952Y-56189523D01*
X61063333Y-56094285D01*
X61015714Y-55903809D01*
X61015714Y-55760952D01*
X61063333Y-55570476D01*
X61110952Y-55475238D01*
X61206190Y-55380000D01*
X61349047Y-55332380D01*
X61444285Y-55332380D01*
X61587142Y-55380000D01*
X61634761Y-55427619D01*
X61920476Y-55332380D02*
X62253809Y-56332380D01*
X62587142Y-55332380D01*
X62872857Y-55427619D02*
X62920476Y-55380000D01*
X63015714Y-55332380D01*
X63253809Y-55332380D01*
X63349047Y-55380000D01*
X63396666Y-55427619D01*
X63444285Y-55522857D01*
X63444285Y-55618095D01*
X63396666Y-55760952D01*
X62825238Y-56332380D01*
X63444285Y-56332380D01*
X61634761Y-44807142D02*
X61587142Y-44854761D01*
X61444285Y-44902380D01*
X61349047Y-44902380D01*
X61206190Y-44854761D01*
X61110952Y-44759523D01*
X61063333Y-44664285D01*
X61015714Y-44473809D01*
X61015714Y-44330952D01*
X61063333Y-44140476D01*
X61110952Y-44045238D01*
X61206190Y-43950000D01*
X61349047Y-43902380D01*
X61444285Y-43902380D01*
X61587142Y-43950000D01*
X61634761Y-43997619D01*
X61920476Y-43902380D02*
X62253809Y-44902380D01*
X62587142Y-43902380D01*
X63444285Y-44902380D02*
X62872857Y-44902380D01*
X63158571Y-44902380D02*
X63158571Y-43902380D01*
X63063333Y-44045238D01*
X62968095Y-44140476D01*
X62872857Y-44188095D01*
X88543333Y-33838571D02*
X88876666Y-33838571D01*
X89019523Y-34362380D02*
X88543333Y-34362380D01*
X88543333Y-33362380D01*
X89019523Y-33362380D01*
X90257619Y-34362380D02*
X90210000Y-34362380D01*
X90114761Y-34314761D01*
X89971904Y-34171904D01*
X89733809Y-33886190D01*
X89638571Y-33743333D01*
X89590952Y-33600476D01*
X89590952Y-33505238D01*
X89638571Y-33410000D01*
X89733809Y-33362380D01*
X89781428Y-33362380D01*
X89876666Y-33410000D01*
X89924285Y-33505238D01*
X89924285Y-33552857D01*
X89876666Y-33648095D01*
X89829047Y-33695714D01*
X89543333Y-33886190D01*
X89495714Y-33933809D01*
X89448095Y-34029047D01*
X89448095Y-34171904D01*
X89495714Y-34267142D01*
X89543333Y-34314761D01*
X89638571Y-34362380D01*
X89781428Y-34362380D01*
X89876666Y-34314761D01*
X89924285Y-34267142D01*
X90067142Y-34076666D01*
X90114761Y-33933809D01*
X90114761Y-33838571D01*
X90686190Y-34362380D02*
X90686190Y-33362380D01*
X90924285Y-33362380D01*
X91067142Y-33410000D01*
X91162380Y-33505238D01*
X91210000Y-33600476D01*
X91257619Y-33790952D01*
X91257619Y-33933809D01*
X91210000Y-34124285D01*
X91162380Y-34219523D01*
X91067142Y-34314761D01*
X90924285Y-34362380D01*
X90686190Y-34362380D01*
X92400476Y-34314761D02*
X92543333Y-34362380D01*
X92781428Y-34362380D01*
X92876666Y-34314761D01*
X92924285Y-34267142D01*
X92971904Y-34171904D01*
X92971904Y-34076666D01*
X92924285Y-33981428D01*
X92876666Y-33933809D01*
X92781428Y-33886190D01*
X92590952Y-33838571D01*
X92495714Y-33790952D01*
X92448095Y-33743333D01*
X92400476Y-33648095D01*
X92400476Y-33552857D01*
X92448095Y-33457619D01*
X92495714Y-33410000D01*
X92590952Y-33362380D01*
X92829047Y-33362380D01*
X92971904Y-33410000D01*
X93305238Y-33695714D02*
X93543333Y-34362380D01*
X93781428Y-33695714D02*
X93543333Y-34362380D01*
X93448095Y-34600476D01*
X93400476Y-34648095D01*
X93305238Y-34695714D01*
X94162380Y-33695714D02*
X94162380Y-34362380D01*
X94162380Y-33790952D02*
X94210000Y-33743333D01*
X94305238Y-33695714D01*
X94448095Y-33695714D01*
X94543333Y-33743333D01*
X94590952Y-33838571D01*
X94590952Y-34362380D01*
X94924285Y-33695714D02*
X95305238Y-33695714D01*
X95067142Y-33362380D02*
X95067142Y-34219523D01*
X95114761Y-34314761D01*
X95210000Y-34362380D01*
X95305238Y-34362380D01*
X95638571Y-34362380D02*
X95638571Y-33362380D01*
X96067142Y-34362380D02*
X96067142Y-33838571D01*
X96019523Y-33743333D01*
X95924285Y-33695714D01*
X95781428Y-33695714D01*
X95686190Y-33743333D01*
X95638571Y-33790952D01*
X96495714Y-34314761D02*
X96590952Y-34362380D01*
X96781428Y-34362380D01*
X96876666Y-34314761D01*
X96924285Y-34219523D01*
X96924285Y-34171904D01*
X96876666Y-34076666D01*
X96781428Y-34029047D01*
X96638571Y-34029047D01*
X96543333Y-33981428D01*
X96495714Y-33886190D01*
X96495714Y-33838571D01*
X96543333Y-33743333D01*
X96638571Y-33695714D01*
X96781428Y-33695714D01*
X96876666Y-33743333D01*
X84329047Y-36012380D02*
X83757619Y-36012380D01*
X84043333Y-36012380D02*
X84043333Y-35012380D01*
X83948095Y-35155238D01*
X83852857Y-35250476D01*
X83757619Y-35298095D01*
X84614761Y-35012380D02*
X84948095Y-36012380D01*
X85281428Y-35012380D01*
X86329047Y-34964761D02*
X85471904Y-36250476D01*
X86852857Y-35012380D02*
X87043333Y-35012380D01*
X87138571Y-35060000D01*
X87233809Y-35155238D01*
X87281428Y-35345714D01*
X87281428Y-35679047D01*
X87233809Y-35869523D01*
X87138571Y-35964761D01*
X87043333Y-36012380D01*
X86852857Y-36012380D01*
X86757619Y-35964761D01*
X86662380Y-35869523D01*
X86614761Y-35679047D01*
X86614761Y-35345714D01*
X86662380Y-35155238D01*
X86757619Y-35060000D01*
X86852857Y-35012380D01*
X88138571Y-35964761D02*
X88043333Y-36012380D01*
X87852857Y-36012380D01*
X87757619Y-35964761D01*
X87710000Y-35917142D01*
X87662380Y-35821904D01*
X87662380Y-35536190D01*
X87710000Y-35440952D01*
X87757619Y-35393333D01*
X87852857Y-35345714D01*
X88043333Y-35345714D01*
X88138571Y-35393333D01*
X88424285Y-35345714D02*
X88805238Y-35345714D01*
X88567142Y-35012380D02*
X88567142Y-35869523D01*
X88614761Y-35964761D01*
X88710000Y-36012380D01*
X88805238Y-36012380D01*
X89757619Y-35012380D02*
X90090952Y-36012380D01*
X90424285Y-35012380D01*
X91376666Y-35345714D02*
X91757619Y-35345714D01*
X91519523Y-35012380D02*
X91519523Y-35869523D01*
X91567142Y-35964761D01*
X91662380Y-36012380D01*
X91757619Y-36012380D01*
X92233809Y-36012380D02*
X92138571Y-35964761D01*
X92090952Y-35917142D01*
X92043333Y-35821904D01*
X92043333Y-35536190D01*
X92090952Y-35440952D01*
X92138571Y-35393333D01*
X92233809Y-35345714D01*
X92376666Y-35345714D01*
X92471904Y-35393333D01*
X92519523Y-35440952D01*
X92567142Y-35536190D01*
X92567142Y-35821904D01*
X92519523Y-35917142D01*
X92471904Y-35964761D01*
X92376666Y-36012380D01*
X92233809Y-36012380D01*
X93757619Y-36012380D02*
X93757619Y-35012380D01*
X95567142Y-35917142D02*
X95519523Y-35964761D01*
X95376666Y-36012380D01*
X95281428Y-36012380D01*
X95138571Y-35964761D01*
X95043333Y-35869523D01*
X94995714Y-35774285D01*
X94948095Y-35583809D01*
X94948095Y-35440952D01*
X94995714Y-35250476D01*
X95043333Y-35155238D01*
X95138571Y-35060000D01*
X95281428Y-35012380D01*
X95376666Y-35012380D01*
X95519523Y-35060000D01*
X95567142Y-35107619D01*
X96138571Y-36012380D02*
X96043333Y-35964761D01*
X95995714Y-35917142D01*
X95948095Y-35821904D01*
X95948095Y-35536190D01*
X95995714Y-35440952D01*
X96043333Y-35393333D01*
X96138571Y-35345714D01*
X96281428Y-35345714D01*
X96376666Y-35393333D01*
X96424285Y-35440952D01*
X96471904Y-35536190D01*
X96471904Y-35821904D01*
X96424285Y-35917142D01*
X96376666Y-35964761D01*
X96281428Y-36012380D01*
X96138571Y-36012380D01*
X96900476Y-35345714D02*
X96900476Y-36012380D01*
X96900476Y-35440952D02*
X96948095Y-35393333D01*
X97043333Y-35345714D01*
X97186190Y-35345714D01*
X97281428Y-35393333D01*
X97329047Y-35488571D01*
X97329047Y-36012380D01*
X97710000Y-35345714D02*
X97948095Y-36012380D01*
X98186190Y-35345714D01*
X98948095Y-35964761D02*
X98852857Y-36012380D01*
X98662380Y-36012380D01*
X98567142Y-35964761D01*
X98519523Y-35869523D01*
X98519523Y-35488571D01*
X98567142Y-35393333D01*
X98662380Y-35345714D01*
X98852857Y-35345714D01*
X98948095Y-35393333D01*
X98995714Y-35488571D01*
X98995714Y-35583809D01*
X98519523Y-35679047D01*
X99424285Y-36012380D02*
X99424285Y-35345714D01*
X99424285Y-35536190D02*
X99471904Y-35440952D01*
X99519523Y-35393333D01*
X99614761Y-35345714D01*
X99709999Y-35345714D01*
X99900476Y-35345714D02*
X100281428Y-35345714D01*
X100043333Y-35012380D02*
X100043333Y-35869523D01*
X100090952Y-35964761D01*
X100186190Y-36012380D01*
X100281428Y-36012380D01*
X100995714Y-35964761D02*
X100900476Y-36012380D01*
X100709999Y-36012380D01*
X100614761Y-35964761D01*
X100567142Y-35869523D01*
X100567142Y-35488571D01*
X100614761Y-35393333D01*
X100709999Y-35345714D01*
X100900476Y-35345714D01*
X100995714Y-35393333D01*
X101043333Y-35488571D01*
X101043333Y-35583809D01*
X100567142Y-35679047D01*
X101471904Y-36012380D02*
X101471904Y-35345714D01*
X101471904Y-35536190D02*
X101519523Y-35440952D01*
X101567142Y-35393333D01*
X101662380Y-35345714D01*
X101757619Y-35345714D01*
X86781428Y-37567142D02*
X86733809Y-37614761D01*
X86590952Y-37662380D01*
X86495714Y-37662380D01*
X86352857Y-37614761D01*
X86257619Y-37519523D01*
X86210000Y-37424285D01*
X86162380Y-37233809D01*
X86162380Y-37090952D01*
X86210000Y-36900476D01*
X86257619Y-36805238D01*
X86352857Y-36710000D01*
X86495714Y-36662380D01*
X86590952Y-36662380D01*
X86733809Y-36710000D01*
X86781428Y-36757619D01*
X87210000Y-36662380D02*
X87210000Y-37471904D01*
X87257619Y-37567142D01*
X87305238Y-37614761D01*
X87400476Y-37662380D01*
X87590952Y-37662380D01*
X87686190Y-37614761D01*
X87733809Y-37567142D01*
X87781428Y-37471904D01*
X87781428Y-36662380D01*
X88829047Y-37662380D02*
X88495714Y-37186190D01*
X88257619Y-37662380D02*
X88257619Y-36662380D01*
X88638571Y-36662380D01*
X88733809Y-36710000D01*
X88781428Y-36757619D01*
X88829047Y-36852857D01*
X88829047Y-36995714D01*
X88781428Y-37090952D01*
X88733809Y-37138571D01*
X88638571Y-37186190D01*
X88257619Y-37186190D01*
X89829047Y-37662380D02*
X89495714Y-37186190D01*
X89257619Y-37662380D02*
X89257619Y-36662380D01*
X89638571Y-36662380D01*
X89733809Y-36710000D01*
X89781428Y-36757619D01*
X89829047Y-36852857D01*
X89829047Y-36995714D01*
X89781428Y-37090952D01*
X89733809Y-37138571D01*
X89638571Y-37186190D01*
X89257619Y-37186190D01*
X90257619Y-37138571D02*
X90590952Y-37138571D01*
X90733809Y-37662380D02*
X90257619Y-37662380D01*
X90257619Y-36662380D01*
X90733809Y-36662380D01*
X91162380Y-37662380D02*
X91162380Y-36662380D01*
X91733809Y-37662380D01*
X91733809Y-36662380D01*
X92067142Y-36662380D02*
X92638571Y-36662380D01*
X92352857Y-37662380D02*
X92352857Y-36662380D01*
X93686190Y-37614761D02*
X93829047Y-37662380D01*
X94067142Y-37662380D01*
X94162380Y-37614761D01*
X94210000Y-37567142D01*
X94257619Y-37471904D01*
X94257619Y-37376666D01*
X94210000Y-37281428D01*
X94162380Y-37233809D01*
X94067142Y-37186190D01*
X93876666Y-37138571D01*
X93781428Y-37090952D01*
X93733809Y-37043333D01*
X93686190Y-36948095D01*
X93686190Y-36852857D01*
X93733809Y-36757619D01*
X93781428Y-36710000D01*
X93876666Y-36662380D01*
X94114761Y-36662380D01*
X94257619Y-36710000D01*
X94876666Y-36662380D02*
X95067142Y-36662380D01*
X95162380Y-36710000D01*
X95257619Y-36805238D01*
X95305238Y-36995714D01*
X95305238Y-37329047D01*
X95257619Y-37519523D01*
X95162380Y-37614761D01*
X95067142Y-37662380D01*
X94876666Y-37662380D01*
X94781428Y-37614761D01*
X94686190Y-37519523D01*
X94638571Y-37329047D01*
X94638571Y-36995714D01*
X94686190Y-36805238D01*
X94781428Y-36710000D01*
X94876666Y-36662380D01*
X95733809Y-36662380D02*
X95733809Y-37471904D01*
X95781428Y-37567142D01*
X95829047Y-37614761D01*
X95924285Y-37662380D01*
X96114761Y-37662380D01*
X96210000Y-37614761D01*
X96257619Y-37567142D01*
X96305238Y-37471904D01*
X96305238Y-36662380D01*
X97352857Y-37662380D02*
X97019523Y-37186190D01*
X96781428Y-37662380D02*
X96781428Y-36662380D01*
X97162380Y-36662380D01*
X97257619Y-36710000D01*
X97305238Y-36757619D01*
X97352857Y-36852857D01*
X97352857Y-36995714D01*
X97305238Y-37090952D01*
X97257619Y-37138571D01*
X97162380Y-37186190D01*
X96781428Y-37186190D01*
X98352857Y-37567142D02*
X98305238Y-37614761D01*
X98162380Y-37662380D01*
X98067142Y-37662380D01*
X97924285Y-37614761D01*
X97829047Y-37519523D01*
X97781428Y-37424285D01*
X97733809Y-37233809D01*
X97733809Y-37090952D01*
X97781428Y-36900476D01*
X97829047Y-36805238D01*
X97924285Y-36710000D01*
X98067142Y-36662380D01*
X98162380Y-36662380D01*
X98305238Y-36710000D01*
X98352857Y-36757619D01*
X98781428Y-37138571D02*
X99114761Y-37138571D01*
X99257619Y-37662380D02*
X98781428Y-37662380D01*
X98781428Y-36662380D01*
X99257619Y-36662380D01*
D11*
%TO.C,U2*%
X114030000Y-102810000D02*
G75*
G02*
X112030000Y-102810000I-1000000J0D01*
G01*
X112030000Y-102810000D02*
X110780000Y-102810000D01*
X110780000Y-102810000D02*
X110780000Y-120710000D01*
X110780000Y-120710000D02*
X115280000Y-120710000D01*
X115280000Y-120710000D02*
X115280000Y-102810000D01*
X115280000Y-102810000D02*
X114030000Y-102810000D01*
X107780000Y-102750000D02*
X107780000Y-120770000D01*
X107780000Y-120770000D02*
X118280000Y-120770000D01*
X118280000Y-120770000D02*
X118280000Y-102750000D01*
X118280000Y-102750000D02*
X107780000Y-102750000D01*
%TO.C,U1*%
X114030000Y-41850000D02*
G75*
G02*
X112030000Y-41850000I-1000000J0D01*
G01*
X112030000Y-41850000D02*
X110780000Y-41850000D01*
X110780000Y-41850000D02*
X110780000Y-59750000D01*
X110780000Y-59750000D02*
X115280000Y-59750000D01*
X115280000Y-59750000D02*
X115280000Y-41850000D01*
X115280000Y-41850000D02*
X114030000Y-41850000D01*
X107780000Y-41790000D02*
X107780000Y-59810000D01*
X107780000Y-59810000D02*
X118280000Y-59810000D01*
X118280000Y-59810000D02*
X118280000Y-41790000D01*
X118280000Y-41790000D02*
X107780000Y-41790000D01*
%TO.C,RV10*%
X77480000Y-95055000D02*
X77480000Y-85285000D01*
X82550000Y-95055000D02*
X82550000Y-85285000D01*
X77480000Y-95055000D02*
X82550000Y-95055000D01*
X77480000Y-85285000D02*
X82550000Y-85285000D01*
%TO.C,RV9*%
X77480000Y-110295000D02*
X77480000Y-100525000D01*
X82550000Y-110295000D02*
X82550000Y-100525000D01*
X77480000Y-110295000D02*
X82550000Y-110295000D01*
X77480000Y-100525000D02*
X82550000Y-100525000D01*
%TO.C,RV8*%
X77480000Y-124265000D02*
X77480000Y-114495000D01*
X82550000Y-124265000D02*
X82550000Y-114495000D01*
X77480000Y-124265000D02*
X82550000Y-124265000D01*
X77480000Y-114495000D02*
X82550000Y-114495000D01*
%TO.C,RV7*%
X95445000Y-120660000D02*
X105215000Y-120660000D01*
X95445000Y-125730000D02*
X105215000Y-125730000D01*
X95445000Y-120660000D02*
X95445000Y-125730000D01*
X105215000Y-120660000D02*
X105215000Y-125730000D01*
%TO.C,RV6*%
X117915000Y-76190000D02*
X108145000Y-76190000D01*
X117915000Y-71120000D02*
X108145000Y-71120000D01*
X117915000Y-76190000D02*
X117915000Y-71120000D01*
X108145000Y-76190000D02*
X108145000Y-71120000D01*
%TO.C,RV5*%
X94175000Y-71130000D02*
X103945000Y-71130000D01*
X94175000Y-76200000D02*
X103945000Y-76200000D01*
X94175000Y-71130000D02*
X94175000Y-76200000D01*
X103945000Y-71130000D02*
X103945000Y-76200000D01*
%TO.C,RV4*%
X82540000Y-68775000D02*
X82540000Y-78545000D01*
X77470000Y-68775000D02*
X77470000Y-78545000D01*
X82540000Y-68775000D02*
X77470000Y-68775000D01*
X82540000Y-78545000D02*
X77470000Y-78545000D01*
%TO.C,RV3*%
X77480000Y-62035000D02*
X77480000Y-52265000D01*
X82550000Y-62035000D02*
X82550000Y-52265000D01*
X77480000Y-62035000D02*
X82550000Y-62035000D01*
X77480000Y-52265000D02*
X82550000Y-52265000D01*
%TO.C,RV2*%
X77480000Y-48065000D02*
X77480000Y-38295000D01*
X82550000Y-48065000D02*
X82550000Y-38295000D01*
X77480000Y-48065000D02*
X82550000Y-48065000D01*
X77480000Y-38295000D02*
X82550000Y-38295000D01*
%TO.C,RV1*%
X99050000Y-57345000D02*
X99050000Y-67115000D01*
X93980000Y-57345000D02*
X93980000Y-67115000D01*
X99050000Y-57345000D02*
X93980000Y-57345000D01*
X99050000Y-67115000D02*
X93980000Y-67115000D01*
%TO.C,R18*%
X97060000Y-105640000D02*
X97060000Y-105310000D01*
X97060000Y-105310000D02*
X103600000Y-105310000D01*
X103600000Y-105310000D02*
X103600000Y-105640000D01*
X97060000Y-107720000D02*
X97060000Y-108050000D01*
X97060000Y-108050000D02*
X103600000Y-108050000D01*
X103600000Y-108050000D02*
X103600000Y-107720000D01*
%TO.C,R17*%
X103600000Y-116610000D02*
X103600000Y-116940000D01*
X103600000Y-116940000D02*
X97060000Y-116940000D01*
X97060000Y-116940000D02*
X97060000Y-116610000D01*
X103600000Y-114530000D02*
X103600000Y-114200000D01*
X103600000Y-114200000D02*
X97060000Y-114200000D01*
X97060000Y-114200000D02*
X97060000Y-114530000D01*
%TO.C,R16*%
X90900000Y-91210000D02*
X90900000Y-91540000D01*
X90900000Y-91540000D02*
X84360000Y-91540000D01*
X84360000Y-91540000D02*
X84360000Y-91210000D01*
X90900000Y-89130000D02*
X90900000Y-88800000D01*
X90900000Y-88800000D02*
X84360000Y-88800000D01*
X84360000Y-88800000D02*
X84360000Y-89130000D01*
%TO.C,R15*%
X92170000Y-106450000D02*
X92170000Y-106780000D01*
X92170000Y-106780000D02*
X85630000Y-106780000D01*
X85630000Y-106780000D02*
X85630000Y-106450000D01*
X92170000Y-104370000D02*
X92170000Y-104040000D01*
X92170000Y-104040000D02*
X85630000Y-104040000D01*
X85630000Y-104040000D02*
X85630000Y-104370000D01*
%TO.C,R14*%
X92170000Y-120420000D02*
X92170000Y-120750000D01*
X92170000Y-120750000D02*
X85630000Y-120750000D01*
X85630000Y-120750000D02*
X85630000Y-120420000D01*
X92170000Y-118340000D02*
X92170000Y-118010000D01*
X92170000Y-118010000D02*
X85630000Y-118010000D01*
X85630000Y-118010000D02*
X85630000Y-118340000D01*
%TO.C,R13*%
X85630000Y-99290000D02*
X85630000Y-98960000D01*
X85630000Y-98960000D02*
X92170000Y-98960000D01*
X92170000Y-98960000D02*
X92170000Y-99290000D01*
X85630000Y-101370000D02*
X85630000Y-101700000D01*
X85630000Y-101700000D02*
X92170000Y-101700000D01*
X92170000Y-101700000D02*
X92170000Y-101370000D01*
%TO.C,R12*%
X119610000Y-65500000D02*
X119280000Y-65500000D01*
X119280000Y-65500000D02*
X119280000Y-58960000D01*
X119280000Y-58960000D02*
X119610000Y-58960000D01*
X121690000Y-65500000D02*
X122020000Y-65500000D01*
X122020000Y-65500000D02*
X122020000Y-58960000D01*
X122020000Y-58960000D02*
X121690000Y-58960000D01*
%TO.C,R11*%
X103600000Y-101370000D02*
X103600000Y-101700000D01*
X103600000Y-101700000D02*
X97060000Y-101700000D01*
X97060000Y-101700000D02*
X97060000Y-101370000D01*
X103600000Y-99290000D02*
X103600000Y-98960000D01*
X103600000Y-98960000D02*
X97060000Y-98960000D01*
X97060000Y-98960000D02*
X97060000Y-99290000D01*
%TO.C,R10*%
X92170000Y-114070000D02*
X92170000Y-114400000D01*
X92170000Y-114400000D02*
X85630000Y-114400000D01*
X85630000Y-114400000D02*
X85630000Y-114070000D01*
X92170000Y-111990000D02*
X92170000Y-111660000D01*
X92170000Y-111660000D02*
X85630000Y-111660000D01*
X85630000Y-111660000D02*
X85630000Y-111990000D01*
%TO.C,R9*%
X97560000Y-48800000D02*
X97890000Y-48800000D01*
X97890000Y-48800000D02*
X97890000Y-55340000D01*
X97890000Y-55340000D02*
X97560000Y-55340000D01*
X95480000Y-48800000D02*
X95150000Y-48800000D01*
X95150000Y-48800000D02*
X95150000Y-55340000D01*
X95150000Y-55340000D02*
X95480000Y-55340000D01*
%TO.C,R8*%
X97060000Y-94210000D02*
X97060000Y-93880000D01*
X97060000Y-93880000D02*
X103600000Y-93880000D01*
X103600000Y-93880000D02*
X103600000Y-94210000D01*
X97060000Y-96290000D02*
X97060000Y-96620000D01*
X97060000Y-96620000D02*
X103600000Y-96620000D01*
X103600000Y-96620000D02*
X103600000Y-96290000D01*
%TO.C,R7*%
X90900000Y-73430000D02*
X90900000Y-73760000D01*
X90900000Y-73760000D02*
X84360000Y-73760000D01*
X84360000Y-73760000D02*
X84360000Y-73430000D01*
X90900000Y-71350000D02*
X90900000Y-71020000D01*
X90900000Y-71020000D02*
X84360000Y-71020000D01*
X84360000Y-71020000D02*
X84360000Y-71350000D01*
%TO.C,R6*%
X90900000Y-58190000D02*
X90900000Y-58520000D01*
X90900000Y-58520000D02*
X84360000Y-58520000D01*
X84360000Y-58520000D02*
X84360000Y-58190000D01*
X90900000Y-56110000D02*
X90900000Y-55780000D01*
X90900000Y-55780000D02*
X84360000Y-55780000D01*
X84360000Y-55780000D02*
X84360000Y-56110000D01*
%TO.C,R5*%
X90900000Y-44220000D02*
X90900000Y-44550000D01*
X90900000Y-44550000D02*
X84360000Y-44550000D01*
X84360000Y-44550000D02*
X84360000Y-44220000D01*
X90900000Y-42140000D02*
X90900000Y-41810000D01*
X90900000Y-41810000D02*
X84360000Y-41810000D01*
X84360000Y-41810000D02*
X84360000Y-42140000D01*
%TO.C,R4*%
X97060000Y-81510000D02*
X97060000Y-81180000D01*
X97060000Y-81180000D02*
X103600000Y-81180000D01*
X103600000Y-81180000D02*
X103600000Y-81510000D01*
X97060000Y-83590000D02*
X97060000Y-83920000D01*
X97060000Y-83920000D02*
X103600000Y-83920000D01*
X103600000Y-83920000D02*
X103600000Y-83590000D01*
%TO.C,R3*%
X105180000Y-38640000D02*
X105510000Y-38640000D01*
X105510000Y-38640000D02*
X105510000Y-45180000D01*
X105510000Y-45180000D02*
X105180000Y-45180000D01*
X103100000Y-38640000D02*
X102770000Y-38640000D01*
X102770000Y-38640000D02*
X102770000Y-45180000D01*
X102770000Y-45180000D02*
X103100000Y-45180000D01*
%TO.C,R2*%
X103100000Y-65500000D02*
X102770000Y-65500000D01*
X102770000Y-65500000D02*
X102770000Y-58960000D01*
X102770000Y-58960000D02*
X103100000Y-58960000D01*
X105180000Y-65500000D02*
X105510000Y-65500000D01*
X105510000Y-65500000D02*
X105510000Y-58960000D01*
X105510000Y-58960000D02*
X105180000Y-58960000D01*
%TO.C,R1*%
X103100000Y-55340000D02*
X102770000Y-55340000D01*
X102770000Y-55340000D02*
X102770000Y-48800000D01*
X102770000Y-48800000D02*
X103100000Y-48800000D01*
X105180000Y-55340000D02*
X105510000Y-55340000D01*
X105510000Y-55340000D02*
X105510000Y-48800000D01*
X105510000Y-48800000D02*
X105180000Y-48800000D01*
%TO.C,Q1*%
X114030000Y-81220000D02*
G75*
G02*
X112030000Y-81220000I-1000000J0D01*
G01*
X112030000Y-81220000D02*
X110780000Y-81220000D01*
X110780000Y-81220000D02*
X110780000Y-99120000D01*
X110780000Y-99120000D02*
X115280000Y-99120000D01*
X115280000Y-99120000D02*
X115280000Y-81220000D01*
X115280000Y-81220000D02*
X114030000Y-81220000D01*
X107780000Y-81160000D02*
X107780000Y-99180000D01*
X107780000Y-99180000D02*
X118280000Y-99180000D01*
X118280000Y-99180000D02*
X118280000Y-81160000D01*
X118280000Y-81160000D02*
X107780000Y-81160000D01*
%TO.C,J7*%
X65350000Y-84530000D02*
X65350000Y-95030000D01*
X74350000Y-84530000D02*
X74350000Y-95030000D01*
X74350000Y-95030000D02*
X70350000Y-95030000D01*
X69350000Y-95030000D02*
X65350000Y-95030000D01*
X74350000Y-84530000D02*
X70200000Y-84530000D01*
X69500000Y-84530000D02*
X65350000Y-84530000D01*
X71650000Y-89030000D02*
G75*
G03*
X71650000Y-89030000I-1800000J0D01*
G01*
X68790000Y-81550000D02*
X68790000Y-82350000D01*
X68790000Y-81550000D02*
X69650000Y-81550000D01*
%TO.C,J6*%
X65350000Y-99770000D02*
X65350000Y-110270000D01*
X74350000Y-99770000D02*
X74350000Y-110270000D01*
X74350000Y-110270000D02*
X70350000Y-110270000D01*
X69350000Y-110270000D02*
X65350000Y-110270000D01*
X74350000Y-99770000D02*
X70200000Y-99770000D01*
X69500000Y-99770000D02*
X65350000Y-99770000D01*
X71650000Y-104270000D02*
G75*
G03*
X71650000Y-104270000I-1800000J0D01*
G01*
X68790000Y-96790000D02*
X68790000Y-97590000D01*
X68790000Y-96790000D02*
X69650000Y-96790000D01*
%TO.C,J5*%
X65350000Y-115010000D02*
X65350000Y-125510000D01*
X74350000Y-115010000D02*
X74350000Y-125510000D01*
X74350000Y-125510000D02*
X70350000Y-125510000D01*
X69350000Y-125510000D02*
X65350000Y-125510000D01*
X74350000Y-115010000D02*
X70200000Y-115010000D01*
X69500000Y-115010000D02*
X65350000Y-115010000D01*
X71650000Y-119510000D02*
G75*
G03*
X71650000Y-119510000I-1800000J0D01*
G01*
X68790000Y-112030000D02*
X68790000Y-112830000D01*
X68790000Y-112030000D02*
X69650000Y-112030000D01*
%TO.C,J4*%
X86300000Y-124400000D02*
X86300000Y-127060000D01*
X88900000Y-124400000D02*
X86300000Y-124400000D01*
X88900000Y-127060000D02*
X86300000Y-127060000D01*
X88900000Y-124400000D02*
X88900000Y-127060000D01*
X90170000Y-124400000D02*
X91500000Y-124400000D01*
X91500000Y-124400000D02*
X91500000Y-125730000D01*
%TO.C,J3*%
X65350000Y-37540000D02*
X65350000Y-48040000D01*
X74350000Y-37540000D02*
X74350000Y-48040000D01*
X74350000Y-48040000D02*
X70350000Y-48040000D01*
X69350000Y-48040000D02*
X65350000Y-48040000D01*
X74350000Y-37540000D02*
X70200000Y-37540000D01*
X69500000Y-37540000D02*
X65350000Y-37540000D01*
X71650000Y-42040000D02*
G75*
G03*
X71650000Y-42040000I-1800000J0D01*
G01*
X68790000Y-34560000D02*
X68790000Y-35360000D01*
X68790000Y-34560000D02*
X69650000Y-34560000D01*
%TO.C,J2*%
X65350000Y-52970000D02*
X65350000Y-63470000D01*
X74350000Y-52970000D02*
X74350000Y-63470000D01*
X74350000Y-63470000D02*
X70350000Y-63470000D01*
X69350000Y-63470000D02*
X65350000Y-63470000D01*
X74350000Y-52970000D02*
X70200000Y-52970000D01*
X69500000Y-52970000D02*
X65350000Y-52970000D01*
X71650000Y-57470000D02*
G75*
G03*
X71650000Y-57470000I-1800000J0D01*
G01*
X68790000Y-49990000D02*
X68790000Y-50790000D01*
X68790000Y-49990000D02*
X69650000Y-49990000D01*
%TO.C,J1*%
X65350000Y-69290000D02*
X65350000Y-79790000D01*
X74350000Y-69290000D02*
X74350000Y-79790000D01*
X74350000Y-79790000D02*
X70350000Y-79790000D01*
X69350000Y-79790000D02*
X65350000Y-79790000D01*
X74350000Y-69290000D02*
X70200000Y-69290000D01*
X69500000Y-69290000D02*
X65350000Y-69290000D01*
X71650000Y-73790000D02*
G75*
G03*
X71650000Y-73790000I-1800000J0D01*
G01*
X68790000Y-66310000D02*
X68790000Y-67110000D01*
X68790000Y-66310000D02*
X69650000Y-66310000D01*
%TO.C,C2*%
X98330000Y-110340000D02*
X102370000Y-110340000D01*
X98330000Y-113180000D02*
X102370000Y-113180000D01*
X98330000Y-110340000D02*
X98330000Y-110965000D01*
X98330000Y-112555000D02*
X98330000Y-113180000D01*
X102370000Y-110340000D02*
X102370000Y-110965000D01*
X102370000Y-112555000D02*
X102370000Y-113180000D01*
%TO.C,C1*%
X95100000Y-90940000D02*
X95100000Y-86900000D01*
X97940000Y-90940000D02*
X97940000Y-86900000D01*
X95100000Y-90940000D02*
X95725000Y-90940000D01*
X97315000Y-90940000D02*
X97940000Y-90940000D01*
X95100000Y-86900000D02*
X95725000Y-86900000D01*
X97315000Y-86900000D02*
X97940000Y-86900000D01*
%TO.C,U2*%
D10*
X112268095Y-101262380D02*
X112268095Y-102071904D01*
X112315714Y-102167142D01*
X112363333Y-102214761D01*
X112458571Y-102262380D01*
X112649047Y-102262380D01*
X112744285Y-102214761D01*
X112791904Y-102167142D01*
X112839523Y-102071904D01*
X112839523Y-101262380D01*
X113268095Y-101357619D02*
X113315714Y-101310000D01*
X113410952Y-101262380D01*
X113649047Y-101262380D01*
X113744285Y-101310000D01*
X113791904Y-101357619D01*
X113839523Y-101452857D01*
X113839523Y-101548095D01*
X113791904Y-101690952D01*
X113220476Y-102262380D01*
X113839523Y-102262380D01*
%TO.C,U1*%
X112268095Y-40302380D02*
X112268095Y-41111904D01*
X112315714Y-41207142D01*
X112363333Y-41254761D01*
X112458571Y-41302380D01*
X112649047Y-41302380D01*
X112744285Y-41254761D01*
X112791904Y-41207142D01*
X112839523Y-41111904D01*
X112839523Y-40302380D01*
X113839523Y-41302380D02*
X113268095Y-41302380D01*
X113553809Y-41302380D02*
X113553809Y-40302380D01*
X113458571Y-40445238D01*
X113363333Y-40540476D01*
X113268095Y-40588095D01*
%TO.C,RV10*%
X76802380Y-91241428D02*
X76326190Y-91574761D01*
X76802380Y-91812857D02*
X75802380Y-91812857D01*
X75802380Y-91431904D01*
X75850000Y-91336666D01*
X75897619Y-91289047D01*
X75992857Y-91241428D01*
X76135714Y-91241428D01*
X76230952Y-91289047D01*
X76278571Y-91336666D01*
X76326190Y-91431904D01*
X76326190Y-91812857D01*
X75802380Y-90955714D02*
X76802380Y-90622380D01*
X75802380Y-90289047D01*
X76802380Y-89431904D02*
X76802380Y-90003333D01*
X76802380Y-89717619D02*
X75802380Y-89717619D01*
X75945238Y-89812857D01*
X76040476Y-89908095D01*
X76088095Y-90003333D01*
X75802380Y-88812857D02*
X75802380Y-88717619D01*
X75850000Y-88622380D01*
X75897619Y-88574761D01*
X75992857Y-88527142D01*
X76183333Y-88479523D01*
X76421428Y-88479523D01*
X76611904Y-88527142D01*
X76707142Y-88574761D01*
X76754761Y-88622380D01*
X76802380Y-88717619D01*
X76802380Y-88812857D01*
X76754761Y-88908095D01*
X76707142Y-88955714D01*
X76611904Y-89003333D01*
X76421428Y-89050952D01*
X76183333Y-89050952D01*
X75992857Y-89003333D01*
X75897619Y-88955714D01*
X75850000Y-88908095D01*
X75802380Y-88812857D01*
%TO.C,RV9*%
X76802380Y-106005238D02*
X76326190Y-106338571D01*
X76802380Y-106576666D02*
X75802380Y-106576666D01*
X75802380Y-106195714D01*
X75850000Y-106100476D01*
X75897619Y-106052857D01*
X75992857Y-106005238D01*
X76135714Y-106005238D01*
X76230952Y-106052857D01*
X76278571Y-106100476D01*
X76326190Y-106195714D01*
X76326190Y-106576666D01*
X75802380Y-105719523D02*
X76802380Y-105386190D01*
X75802380Y-105052857D01*
X76802380Y-104671904D02*
X76802380Y-104481428D01*
X76754761Y-104386190D01*
X76707142Y-104338571D01*
X76564285Y-104243333D01*
X76373809Y-104195714D01*
X75992857Y-104195714D01*
X75897619Y-104243333D01*
X75850000Y-104290952D01*
X75802380Y-104386190D01*
X75802380Y-104576666D01*
X75850000Y-104671904D01*
X75897619Y-104719523D01*
X75992857Y-104767142D01*
X76230952Y-104767142D01*
X76326190Y-104719523D01*
X76373809Y-104671904D01*
X76421428Y-104576666D01*
X76421428Y-104386190D01*
X76373809Y-104290952D01*
X76326190Y-104243333D01*
X76230952Y-104195714D01*
%TO.C,RV8*%
X76802380Y-119975238D02*
X76326190Y-120308571D01*
X76802380Y-120546666D02*
X75802380Y-120546666D01*
X75802380Y-120165714D01*
X75850000Y-120070476D01*
X75897619Y-120022857D01*
X75992857Y-119975238D01*
X76135714Y-119975238D01*
X76230952Y-120022857D01*
X76278571Y-120070476D01*
X76326190Y-120165714D01*
X76326190Y-120546666D01*
X75802380Y-119689523D02*
X76802380Y-119356190D01*
X75802380Y-119022857D01*
X76230952Y-118546666D02*
X76183333Y-118641904D01*
X76135714Y-118689523D01*
X76040476Y-118737142D01*
X75992857Y-118737142D01*
X75897619Y-118689523D01*
X75850000Y-118641904D01*
X75802380Y-118546666D01*
X75802380Y-118356190D01*
X75850000Y-118260952D01*
X75897619Y-118213333D01*
X75992857Y-118165714D01*
X76040476Y-118165714D01*
X76135714Y-118213333D01*
X76183333Y-118260952D01*
X76230952Y-118356190D01*
X76230952Y-118546666D01*
X76278571Y-118641904D01*
X76326190Y-118689523D01*
X76421428Y-118737142D01*
X76611904Y-118737142D01*
X76707142Y-118689523D01*
X76754761Y-118641904D01*
X76802380Y-118546666D01*
X76802380Y-118356190D01*
X76754761Y-118260952D01*
X76707142Y-118213333D01*
X76611904Y-118165714D01*
X76421428Y-118165714D01*
X76326190Y-118213333D01*
X76278571Y-118260952D01*
X76230952Y-118356190D01*
%TO.C,RV7*%
X99734761Y-119982380D02*
X99401428Y-119506190D01*
X99163333Y-119982380D02*
X99163333Y-118982380D01*
X99544285Y-118982380D01*
X99639523Y-119030000D01*
X99687142Y-119077619D01*
X99734761Y-119172857D01*
X99734761Y-119315714D01*
X99687142Y-119410952D01*
X99639523Y-119458571D01*
X99544285Y-119506190D01*
X99163333Y-119506190D01*
X100020476Y-118982380D02*
X100353809Y-119982380D01*
X100687142Y-118982380D01*
X100925238Y-118982380D02*
X101591904Y-118982380D01*
X101163333Y-119982380D01*
%TO.C,RV6*%
X112434761Y-77772380D02*
X112101428Y-77296190D01*
X111863333Y-77772380D02*
X111863333Y-76772380D01*
X112244285Y-76772380D01*
X112339523Y-76820000D01*
X112387142Y-76867619D01*
X112434761Y-76962857D01*
X112434761Y-77105714D01*
X112387142Y-77200952D01*
X112339523Y-77248571D01*
X112244285Y-77296190D01*
X111863333Y-77296190D01*
X112720476Y-76772380D02*
X113053809Y-77772380D01*
X113387142Y-76772380D01*
X114149047Y-76772380D02*
X113958571Y-76772380D01*
X113863333Y-76820000D01*
X113815714Y-76867619D01*
X113720476Y-77010476D01*
X113672857Y-77200952D01*
X113672857Y-77581904D01*
X113720476Y-77677142D01*
X113768095Y-77724761D01*
X113863333Y-77772380D01*
X114053809Y-77772380D01*
X114149047Y-77724761D01*
X114196666Y-77677142D01*
X114244285Y-77581904D01*
X114244285Y-77343809D01*
X114196666Y-77248571D01*
X114149047Y-77200952D01*
X114053809Y-77153333D01*
X113863333Y-77153333D01*
X113768095Y-77200952D01*
X113720476Y-77248571D01*
X113672857Y-77343809D01*
%TO.C,RV5*%
X98464761Y-77922380D02*
X98131428Y-77446190D01*
X97893333Y-77922380D02*
X97893333Y-76922380D01*
X98274285Y-76922380D01*
X98369523Y-76970000D01*
X98417142Y-77017619D01*
X98464761Y-77112857D01*
X98464761Y-77255714D01*
X98417142Y-77350952D01*
X98369523Y-77398571D01*
X98274285Y-77446190D01*
X97893333Y-77446190D01*
X98750476Y-76922380D02*
X99083809Y-77922380D01*
X99417142Y-76922380D01*
X100226666Y-76922380D02*
X99750476Y-76922380D01*
X99702857Y-77398571D01*
X99750476Y-77350952D01*
X99845714Y-77303333D01*
X100083809Y-77303333D01*
X100179047Y-77350952D01*
X100226666Y-77398571D01*
X100274285Y-77493809D01*
X100274285Y-77731904D01*
X100226666Y-77827142D01*
X100179047Y-77874761D01*
X100083809Y-77922380D01*
X99845714Y-77922380D01*
X99750476Y-77874761D01*
X99702857Y-77827142D01*
%TO.C,RV4*%
X76652380Y-74255238D02*
X76176190Y-74588571D01*
X76652380Y-74826666D02*
X75652380Y-74826666D01*
X75652380Y-74445714D01*
X75700000Y-74350476D01*
X75747619Y-74302857D01*
X75842857Y-74255238D01*
X75985714Y-74255238D01*
X76080952Y-74302857D01*
X76128571Y-74350476D01*
X76176190Y-74445714D01*
X76176190Y-74826666D01*
X75652380Y-73969523D02*
X76652380Y-73636190D01*
X75652380Y-73302857D01*
X75985714Y-72540952D02*
X76652380Y-72540952D01*
X75604761Y-72779047D02*
X76319047Y-73017142D01*
X76319047Y-72398095D01*
%TO.C,RV3*%
X76802380Y-57745238D02*
X76326190Y-58078571D01*
X76802380Y-58316666D02*
X75802380Y-58316666D01*
X75802380Y-57935714D01*
X75850000Y-57840476D01*
X75897619Y-57792857D01*
X75992857Y-57745238D01*
X76135714Y-57745238D01*
X76230952Y-57792857D01*
X76278571Y-57840476D01*
X76326190Y-57935714D01*
X76326190Y-58316666D01*
X75802380Y-57459523D02*
X76802380Y-57126190D01*
X75802380Y-56792857D01*
X75802380Y-56554761D02*
X75802380Y-55935714D01*
X76183333Y-56269047D01*
X76183333Y-56126190D01*
X76230952Y-56030952D01*
X76278571Y-55983333D01*
X76373809Y-55935714D01*
X76611904Y-55935714D01*
X76707142Y-55983333D01*
X76754761Y-56030952D01*
X76802380Y-56126190D01*
X76802380Y-56411904D01*
X76754761Y-56507142D01*
X76707142Y-56554761D01*
%TO.C,RV2*%
X76802380Y-43775238D02*
X76326190Y-44108571D01*
X76802380Y-44346666D02*
X75802380Y-44346666D01*
X75802380Y-43965714D01*
X75850000Y-43870476D01*
X75897619Y-43822857D01*
X75992857Y-43775238D01*
X76135714Y-43775238D01*
X76230952Y-43822857D01*
X76278571Y-43870476D01*
X76326190Y-43965714D01*
X76326190Y-44346666D01*
X75802380Y-43489523D02*
X76802380Y-43156190D01*
X75802380Y-42822857D01*
X75897619Y-42537142D02*
X75850000Y-42489523D01*
X75802380Y-42394285D01*
X75802380Y-42156190D01*
X75850000Y-42060952D01*
X75897619Y-42013333D01*
X75992857Y-41965714D01*
X76088095Y-41965714D01*
X76230952Y-42013333D01*
X76802380Y-42584761D01*
X76802380Y-41965714D01*
%TO.C,RV1*%
X100632380Y-62825238D02*
X100156190Y-63158571D01*
X100632380Y-63396666D02*
X99632380Y-63396666D01*
X99632380Y-63015714D01*
X99680000Y-62920476D01*
X99727619Y-62872857D01*
X99822857Y-62825238D01*
X99965714Y-62825238D01*
X100060952Y-62872857D01*
X100108571Y-62920476D01*
X100156190Y-63015714D01*
X100156190Y-63396666D01*
X99632380Y-62539523D02*
X100632380Y-62206190D01*
X99632380Y-61872857D01*
X100632380Y-61015714D02*
X100632380Y-61587142D01*
X100632380Y-61301428D02*
X99632380Y-61301428D01*
X99775238Y-61396666D01*
X99870476Y-61491904D01*
X99918095Y-61587142D01*
%TO.C,R18*%
X99687142Y-104762380D02*
X99353809Y-104286190D01*
X99115714Y-104762380D02*
X99115714Y-103762380D01*
X99496666Y-103762380D01*
X99591904Y-103810000D01*
X99639523Y-103857619D01*
X99687142Y-103952857D01*
X99687142Y-104095714D01*
X99639523Y-104190952D01*
X99591904Y-104238571D01*
X99496666Y-104286190D01*
X99115714Y-104286190D01*
X100639523Y-104762380D02*
X100068095Y-104762380D01*
X100353809Y-104762380D02*
X100353809Y-103762380D01*
X100258571Y-103905238D01*
X100163333Y-104000476D01*
X100068095Y-104048095D01*
X101210952Y-104190952D02*
X101115714Y-104143333D01*
X101068095Y-104095714D01*
X101020476Y-104000476D01*
X101020476Y-103952857D01*
X101068095Y-103857619D01*
X101115714Y-103810000D01*
X101210952Y-103762380D01*
X101401428Y-103762380D01*
X101496666Y-103810000D01*
X101544285Y-103857619D01*
X101591904Y-103952857D01*
X101591904Y-104000476D01*
X101544285Y-104095714D01*
X101496666Y-104143333D01*
X101401428Y-104190952D01*
X101210952Y-104190952D01*
X101115714Y-104238571D01*
X101068095Y-104286190D01*
X101020476Y-104381428D01*
X101020476Y-104571904D01*
X101068095Y-104667142D01*
X101115714Y-104714761D01*
X101210952Y-104762380D01*
X101401428Y-104762380D01*
X101496666Y-104714761D01*
X101544285Y-104667142D01*
X101591904Y-104571904D01*
X101591904Y-104381428D01*
X101544285Y-104286190D01*
X101496666Y-104238571D01*
X101401428Y-104190952D01*
%TO.C,R17*%
X99687142Y-118392380D02*
X99353809Y-117916190D01*
X99115714Y-118392380D02*
X99115714Y-117392380D01*
X99496666Y-117392380D01*
X99591904Y-117440000D01*
X99639523Y-117487619D01*
X99687142Y-117582857D01*
X99687142Y-117725714D01*
X99639523Y-117820952D01*
X99591904Y-117868571D01*
X99496666Y-117916190D01*
X99115714Y-117916190D01*
X100639523Y-118392380D02*
X100068095Y-118392380D01*
X100353809Y-118392380D02*
X100353809Y-117392380D01*
X100258571Y-117535238D01*
X100163333Y-117630476D01*
X100068095Y-117678095D01*
X100972857Y-117392380D02*
X101639523Y-117392380D01*
X101210952Y-118392380D01*
%TO.C,R16*%
X86987142Y-92992380D02*
X86653809Y-92516190D01*
X86415714Y-92992380D02*
X86415714Y-91992380D01*
X86796666Y-91992380D01*
X86891904Y-92040000D01*
X86939523Y-92087619D01*
X86987142Y-92182857D01*
X86987142Y-92325714D01*
X86939523Y-92420952D01*
X86891904Y-92468571D01*
X86796666Y-92516190D01*
X86415714Y-92516190D01*
X87939523Y-92992380D02*
X87368095Y-92992380D01*
X87653809Y-92992380D02*
X87653809Y-91992380D01*
X87558571Y-92135238D01*
X87463333Y-92230476D01*
X87368095Y-92278095D01*
X88796666Y-91992380D02*
X88606190Y-91992380D01*
X88510952Y-92040000D01*
X88463333Y-92087619D01*
X88368095Y-92230476D01*
X88320476Y-92420952D01*
X88320476Y-92801904D01*
X88368095Y-92897142D01*
X88415714Y-92944761D01*
X88510952Y-92992380D01*
X88701428Y-92992380D01*
X88796666Y-92944761D01*
X88844285Y-92897142D01*
X88891904Y-92801904D01*
X88891904Y-92563809D01*
X88844285Y-92468571D01*
X88796666Y-92420952D01*
X88701428Y-92373333D01*
X88510952Y-92373333D01*
X88415714Y-92420952D01*
X88368095Y-92468571D01*
X88320476Y-92563809D01*
%TO.C,R15*%
X88257142Y-108232380D02*
X87923809Y-107756190D01*
X87685714Y-108232380D02*
X87685714Y-107232380D01*
X88066666Y-107232380D01*
X88161904Y-107280000D01*
X88209523Y-107327619D01*
X88257142Y-107422857D01*
X88257142Y-107565714D01*
X88209523Y-107660952D01*
X88161904Y-107708571D01*
X88066666Y-107756190D01*
X87685714Y-107756190D01*
X89209523Y-108232380D02*
X88638095Y-108232380D01*
X88923809Y-108232380D02*
X88923809Y-107232380D01*
X88828571Y-107375238D01*
X88733333Y-107470476D01*
X88638095Y-107518095D01*
X90114285Y-107232380D02*
X89638095Y-107232380D01*
X89590476Y-107708571D01*
X89638095Y-107660952D01*
X89733333Y-107613333D01*
X89971428Y-107613333D01*
X90066666Y-107660952D01*
X90114285Y-107708571D01*
X90161904Y-107803809D01*
X90161904Y-108041904D01*
X90114285Y-108137142D01*
X90066666Y-108184761D01*
X89971428Y-108232380D01*
X89733333Y-108232380D01*
X89638095Y-108184761D01*
X89590476Y-108137142D01*
%TO.C,R14*%
X88257142Y-122202380D02*
X87923809Y-121726190D01*
X87685714Y-122202380D02*
X87685714Y-121202380D01*
X88066666Y-121202380D01*
X88161904Y-121250000D01*
X88209523Y-121297619D01*
X88257142Y-121392857D01*
X88257142Y-121535714D01*
X88209523Y-121630952D01*
X88161904Y-121678571D01*
X88066666Y-121726190D01*
X87685714Y-121726190D01*
X89209523Y-122202380D02*
X88638095Y-122202380D01*
X88923809Y-122202380D02*
X88923809Y-121202380D01*
X88828571Y-121345238D01*
X88733333Y-121440476D01*
X88638095Y-121488095D01*
X90066666Y-121535714D02*
X90066666Y-122202380D01*
X89828571Y-121154761D02*
X89590476Y-121869047D01*
X90209523Y-121869047D01*
%TO.C,R13*%
X88257142Y-98412380D02*
X87923809Y-97936190D01*
X87685714Y-98412380D02*
X87685714Y-97412380D01*
X88066666Y-97412380D01*
X88161904Y-97460000D01*
X88209523Y-97507619D01*
X88257142Y-97602857D01*
X88257142Y-97745714D01*
X88209523Y-97840952D01*
X88161904Y-97888571D01*
X88066666Y-97936190D01*
X87685714Y-97936190D01*
X89209523Y-98412380D02*
X88638095Y-98412380D01*
X88923809Y-98412380D02*
X88923809Y-97412380D01*
X88828571Y-97555238D01*
X88733333Y-97650476D01*
X88638095Y-97698095D01*
X89542857Y-97412380D02*
X90161904Y-97412380D01*
X89828571Y-97793333D01*
X89971428Y-97793333D01*
X90066666Y-97840952D01*
X90114285Y-97888571D01*
X90161904Y-97983809D01*
X90161904Y-98221904D01*
X90114285Y-98317142D01*
X90066666Y-98364761D01*
X89971428Y-98412380D01*
X89685714Y-98412380D01*
X89590476Y-98364761D01*
X89542857Y-98317142D01*
%TO.C,R12*%
X118732380Y-62872857D02*
X118256190Y-63206190D01*
X118732380Y-63444285D02*
X117732380Y-63444285D01*
X117732380Y-63063333D01*
X117780000Y-62968095D01*
X117827619Y-62920476D01*
X117922857Y-62872857D01*
X118065714Y-62872857D01*
X118160952Y-62920476D01*
X118208571Y-62968095D01*
X118256190Y-63063333D01*
X118256190Y-63444285D01*
X118732380Y-61920476D02*
X118732380Y-62491904D01*
X118732380Y-62206190D02*
X117732380Y-62206190D01*
X117875238Y-62301428D01*
X117970476Y-62396666D01*
X118018095Y-62491904D01*
X117827619Y-61539523D02*
X117780000Y-61491904D01*
X117732380Y-61396666D01*
X117732380Y-61158571D01*
X117780000Y-61063333D01*
X117827619Y-61015714D01*
X117922857Y-60968095D01*
X118018095Y-60968095D01*
X118160952Y-61015714D01*
X118732380Y-61587142D01*
X118732380Y-60968095D01*
%TO.C,R11*%
X99687142Y-103152380D02*
X99353809Y-102676190D01*
X99115714Y-103152380D02*
X99115714Y-102152380D01*
X99496666Y-102152380D01*
X99591904Y-102200000D01*
X99639523Y-102247619D01*
X99687142Y-102342857D01*
X99687142Y-102485714D01*
X99639523Y-102580952D01*
X99591904Y-102628571D01*
X99496666Y-102676190D01*
X99115714Y-102676190D01*
X100639523Y-103152380D02*
X100068095Y-103152380D01*
X100353809Y-103152380D02*
X100353809Y-102152380D01*
X100258571Y-102295238D01*
X100163333Y-102390476D01*
X100068095Y-102438095D01*
X101591904Y-103152380D02*
X101020476Y-103152380D01*
X101306190Y-103152380D02*
X101306190Y-102152380D01*
X101210952Y-102295238D01*
X101115714Y-102390476D01*
X101020476Y-102438095D01*
%TO.C,R10*%
X88257142Y-115852380D02*
X87923809Y-115376190D01*
X87685714Y-115852380D02*
X87685714Y-114852380D01*
X88066666Y-114852380D01*
X88161904Y-114900000D01*
X88209523Y-114947619D01*
X88257142Y-115042857D01*
X88257142Y-115185714D01*
X88209523Y-115280952D01*
X88161904Y-115328571D01*
X88066666Y-115376190D01*
X87685714Y-115376190D01*
X89209523Y-115852380D02*
X88638095Y-115852380D01*
X88923809Y-115852380D02*
X88923809Y-114852380D01*
X88828571Y-114995238D01*
X88733333Y-115090476D01*
X88638095Y-115138095D01*
X89828571Y-114852380D02*
X89923809Y-114852380D01*
X90019047Y-114900000D01*
X90066666Y-114947619D01*
X90114285Y-115042857D01*
X90161904Y-115233333D01*
X90161904Y-115471428D01*
X90114285Y-115661904D01*
X90066666Y-115757142D01*
X90019047Y-115804761D01*
X89923809Y-115852380D01*
X89828571Y-115852380D01*
X89733333Y-115804761D01*
X89685714Y-115757142D01*
X89638095Y-115661904D01*
X89590476Y-115471428D01*
X89590476Y-115233333D01*
X89638095Y-115042857D01*
X89685714Y-114947619D01*
X89733333Y-114900000D01*
X89828571Y-114852380D01*
%TO.C,R9*%
X99342380Y-52236666D02*
X98866190Y-52570000D01*
X99342380Y-52808095D02*
X98342380Y-52808095D01*
X98342380Y-52427142D01*
X98390000Y-52331904D01*
X98437619Y-52284285D01*
X98532857Y-52236666D01*
X98675714Y-52236666D01*
X98770952Y-52284285D01*
X98818571Y-52331904D01*
X98866190Y-52427142D01*
X98866190Y-52808095D01*
X99342380Y-51760476D02*
X99342380Y-51570000D01*
X99294761Y-51474761D01*
X99247142Y-51427142D01*
X99104285Y-51331904D01*
X98913809Y-51284285D01*
X98532857Y-51284285D01*
X98437619Y-51331904D01*
X98390000Y-51379523D01*
X98342380Y-51474761D01*
X98342380Y-51665238D01*
X98390000Y-51760476D01*
X98437619Y-51808095D01*
X98532857Y-51855714D01*
X98770952Y-51855714D01*
X98866190Y-51808095D01*
X98913809Y-51760476D01*
X98961428Y-51665238D01*
X98961428Y-51474761D01*
X98913809Y-51379523D01*
X98866190Y-51331904D01*
X98770952Y-51284285D01*
%TO.C,R8*%
X100163333Y-93332380D02*
X99830000Y-92856190D01*
X99591904Y-93332380D02*
X99591904Y-92332380D01*
X99972857Y-92332380D01*
X100068095Y-92380000D01*
X100115714Y-92427619D01*
X100163333Y-92522857D01*
X100163333Y-92665714D01*
X100115714Y-92760952D01*
X100068095Y-92808571D01*
X99972857Y-92856190D01*
X99591904Y-92856190D01*
X100734761Y-92760952D02*
X100639523Y-92713333D01*
X100591904Y-92665714D01*
X100544285Y-92570476D01*
X100544285Y-92522857D01*
X100591904Y-92427619D01*
X100639523Y-92380000D01*
X100734761Y-92332380D01*
X100925238Y-92332380D01*
X101020476Y-92380000D01*
X101068095Y-92427619D01*
X101115714Y-92522857D01*
X101115714Y-92570476D01*
X101068095Y-92665714D01*
X101020476Y-92713333D01*
X100925238Y-92760952D01*
X100734761Y-92760952D01*
X100639523Y-92808571D01*
X100591904Y-92856190D01*
X100544285Y-92951428D01*
X100544285Y-93141904D01*
X100591904Y-93237142D01*
X100639523Y-93284761D01*
X100734761Y-93332380D01*
X100925238Y-93332380D01*
X101020476Y-93284761D01*
X101068095Y-93237142D01*
X101115714Y-93141904D01*
X101115714Y-92951428D01*
X101068095Y-92856190D01*
X101020476Y-92808571D01*
X100925238Y-92760952D01*
%TO.C,R7*%
X87463333Y-75212380D02*
X87130000Y-74736190D01*
X86891904Y-75212380D02*
X86891904Y-74212380D01*
X87272857Y-74212380D01*
X87368095Y-74260000D01*
X87415714Y-74307619D01*
X87463333Y-74402857D01*
X87463333Y-74545714D01*
X87415714Y-74640952D01*
X87368095Y-74688571D01*
X87272857Y-74736190D01*
X86891904Y-74736190D01*
X87796666Y-74212380D02*
X88463333Y-74212380D01*
X88034761Y-75212380D01*
%TO.C,R6*%
X87463333Y-59972380D02*
X87130000Y-59496190D01*
X86891904Y-59972380D02*
X86891904Y-58972380D01*
X87272857Y-58972380D01*
X87368095Y-59020000D01*
X87415714Y-59067619D01*
X87463333Y-59162857D01*
X87463333Y-59305714D01*
X87415714Y-59400952D01*
X87368095Y-59448571D01*
X87272857Y-59496190D01*
X86891904Y-59496190D01*
X88320476Y-58972380D02*
X88130000Y-58972380D01*
X88034761Y-59020000D01*
X87987142Y-59067619D01*
X87891904Y-59210476D01*
X87844285Y-59400952D01*
X87844285Y-59781904D01*
X87891904Y-59877142D01*
X87939523Y-59924761D01*
X88034761Y-59972380D01*
X88225238Y-59972380D01*
X88320476Y-59924761D01*
X88368095Y-59877142D01*
X88415714Y-59781904D01*
X88415714Y-59543809D01*
X88368095Y-59448571D01*
X88320476Y-59400952D01*
X88225238Y-59353333D01*
X88034761Y-59353333D01*
X87939523Y-59400952D01*
X87891904Y-59448571D01*
X87844285Y-59543809D01*
%TO.C,R5*%
X87463333Y-46002380D02*
X87130000Y-45526190D01*
X86891904Y-46002380D02*
X86891904Y-45002380D01*
X87272857Y-45002380D01*
X87368095Y-45050000D01*
X87415714Y-45097619D01*
X87463333Y-45192857D01*
X87463333Y-45335714D01*
X87415714Y-45430952D01*
X87368095Y-45478571D01*
X87272857Y-45526190D01*
X86891904Y-45526190D01*
X88368095Y-45002380D02*
X87891904Y-45002380D01*
X87844285Y-45478571D01*
X87891904Y-45430952D01*
X87987142Y-45383333D01*
X88225238Y-45383333D01*
X88320476Y-45430952D01*
X88368095Y-45478571D01*
X88415714Y-45573809D01*
X88415714Y-45811904D01*
X88368095Y-45907142D01*
X88320476Y-45954761D01*
X88225238Y-46002380D01*
X87987142Y-46002380D01*
X87891904Y-45954761D01*
X87844285Y-45907142D01*
%TO.C,R4*%
X100163333Y-80632380D02*
X99830000Y-80156190D01*
X99591904Y-80632380D02*
X99591904Y-79632380D01*
X99972857Y-79632380D01*
X100068095Y-79680000D01*
X100115714Y-79727619D01*
X100163333Y-79822857D01*
X100163333Y-79965714D01*
X100115714Y-80060952D01*
X100068095Y-80108571D01*
X99972857Y-80156190D01*
X99591904Y-80156190D01*
X101020476Y-79965714D02*
X101020476Y-80632380D01*
X100782380Y-79584761D02*
X100544285Y-80299047D01*
X101163333Y-80299047D01*
%TO.C,R3*%
X106962380Y-42076666D02*
X106486190Y-42410000D01*
X106962380Y-42648095D02*
X105962380Y-42648095D01*
X105962380Y-42267142D01*
X106010000Y-42171904D01*
X106057619Y-42124285D01*
X106152857Y-42076666D01*
X106295714Y-42076666D01*
X106390952Y-42124285D01*
X106438571Y-42171904D01*
X106486190Y-42267142D01*
X106486190Y-42648095D01*
X105962380Y-41743333D02*
X105962380Y-41124285D01*
X106343333Y-41457619D01*
X106343333Y-41314761D01*
X106390952Y-41219523D01*
X106438571Y-41171904D01*
X106533809Y-41124285D01*
X106771904Y-41124285D01*
X106867142Y-41171904D01*
X106914761Y-41219523D01*
X106962380Y-41314761D01*
X106962380Y-41600476D01*
X106914761Y-41695714D01*
X106867142Y-41743333D01*
%TO.C,R2*%
X102222380Y-62396666D02*
X101746190Y-62730000D01*
X102222380Y-62968095D02*
X101222380Y-62968095D01*
X101222380Y-62587142D01*
X101270000Y-62491904D01*
X101317619Y-62444285D01*
X101412857Y-62396666D01*
X101555714Y-62396666D01*
X101650952Y-62444285D01*
X101698571Y-62491904D01*
X101746190Y-62587142D01*
X101746190Y-62968095D01*
X101317619Y-62015714D02*
X101270000Y-61968095D01*
X101222380Y-61872857D01*
X101222380Y-61634761D01*
X101270000Y-61539523D01*
X101317619Y-61491904D01*
X101412857Y-61444285D01*
X101508095Y-61444285D01*
X101650952Y-61491904D01*
X102222380Y-62063333D01*
X102222380Y-61444285D01*
%TO.C,R1*%
X102222380Y-52236666D02*
X101746190Y-52570000D01*
X102222380Y-52808095D02*
X101222380Y-52808095D01*
X101222380Y-52427142D01*
X101270000Y-52331904D01*
X101317619Y-52284285D01*
X101412857Y-52236666D01*
X101555714Y-52236666D01*
X101650952Y-52284285D01*
X101698571Y-52331904D01*
X101746190Y-52427142D01*
X101746190Y-52808095D01*
X102222380Y-51284285D02*
X102222380Y-51855714D01*
X102222380Y-51570000D02*
X101222380Y-51570000D01*
X101365238Y-51665238D01*
X101460476Y-51760476D01*
X101508095Y-51855714D01*
%TO.C,Q1*%
X112934761Y-80767619D02*
X112839523Y-80720000D01*
X112744285Y-80624761D01*
X112601428Y-80481904D01*
X112506190Y-80434285D01*
X112410952Y-80434285D01*
X112458571Y-80672380D02*
X112363333Y-80624761D01*
X112268095Y-80529523D01*
X112220476Y-80339047D01*
X112220476Y-80005714D01*
X112268095Y-79815238D01*
X112363333Y-79720000D01*
X112458571Y-79672380D01*
X112649047Y-79672380D01*
X112744285Y-79720000D01*
X112839523Y-79815238D01*
X112887142Y-80005714D01*
X112887142Y-80339047D01*
X112839523Y-80529523D01*
X112744285Y-80624761D01*
X112649047Y-80672380D01*
X112458571Y-80672380D01*
X113839523Y-80672380D02*
X113268095Y-80672380D01*
X113553809Y-80672380D02*
X113553809Y-79672380D01*
X113458571Y-79815238D01*
X113363333Y-79910476D01*
X113268095Y-79958095D01*
%TO.C,J7*%
X65486666Y-83082380D02*
X65486666Y-83796666D01*
X65439047Y-83939523D01*
X65343809Y-84034761D01*
X65200952Y-84082380D01*
X65105714Y-84082380D01*
X65867619Y-83082380D02*
X66534285Y-83082380D01*
X66105714Y-84082380D01*
%TO.C,J6*%
X65486666Y-98322380D02*
X65486666Y-99036666D01*
X65439047Y-99179523D01*
X65343809Y-99274761D01*
X65200952Y-99322380D01*
X65105714Y-99322380D01*
X66391428Y-98322380D02*
X66200952Y-98322380D01*
X66105714Y-98370000D01*
X66058095Y-98417619D01*
X65962857Y-98560476D01*
X65915238Y-98750952D01*
X65915238Y-99131904D01*
X65962857Y-99227142D01*
X66010476Y-99274761D01*
X66105714Y-99322380D01*
X66296190Y-99322380D01*
X66391428Y-99274761D01*
X66439047Y-99227142D01*
X66486666Y-99131904D01*
X66486666Y-98893809D01*
X66439047Y-98798571D01*
X66391428Y-98750952D01*
X66296190Y-98703333D01*
X66105714Y-98703333D01*
X66010476Y-98750952D01*
X65962857Y-98798571D01*
X65915238Y-98893809D01*
%TO.C,J5*%
X65486666Y-113562380D02*
X65486666Y-114276666D01*
X65439047Y-114419523D01*
X65343809Y-114514761D01*
X65200952Y-114562380D01*
X65105714Y-114562380D01*
X66439047Y-113562380D02*
X65962857Y-113562380D01*
X65915238Y-114038571D01*
X65962857Y-113990952D01*
X66058095Y-113943333D01*
X66296190Y-113943333D01*
X66391428Y-113990952D01*
X66439047Y-114038571D01*
X66486666Y-114133809D01*
X66486666Y-114371904D01*
X66439047Y-114467142D01*
X66391428Y-114514761D01*
X66296190Y-114562380D01*
X66058095Y-114562380D01*
X65962857Y-114514761D01*
X65915238Y-114467142D01*
%TO.C,J4*%
X91952380Y-126063333D02*
X92666666Y-126063333D01*
X92809523Y-126110952D01*
X92904761Y-126206190D01*
X92952380Y-126349047D01*
X92952380Y-126444285D01*
X92285714Y-125158571D02*
X92952380Y-125158571D01*
X91904761Y-125396666D02*
X92619047Y-125634761D01*
X92619047Y-125015714D01*
%TO.C,J3*%
X65486666Y-36092380D02*
X65486666Y-36806666D01*
X65439047Y-36949523D01*
X65343809Y-37044761D01*
X65200952Y-37092380D01*
X65105714Y-37092380D01*
X65867619Y-36092380D02*
X66486666Y-36092380D01*
X66153333Y-36473333D01*
X66296190Y-36473333D01*
X66391428Y-36520952D01*
X66439047Y-36568571D01*
X66486666Y-36663809D01*
X66486666Y-36901904D01*
X66439047Y-36997142D01*
X66391428Y-37044761D01*
X66296190Y-37092380D01*
X66010476Y-37092380D01*
X65915238Y-37044761D01*
X65867619Y-36997142D01*
%TO.C,J2*%
X66006666Y-51522380D02*
X66006666Y-52236666D01*
X65959047Y-52379523D01*
X65863809Y-52474761D01*
X65720952Y-52522380D01*
X65625714Y-52522380D01*
X66435238Y-51617619D02*
X66482857Y-51570000D01*
X66578095Y-51522380D01*
X66816190Y-51522380D01*
X66911428Y-51570000D01*
X66959047Y-51617619D01*
X67006666Y-51712857D01*
X67006666Y-51808095D01*
X66959047Y-51950952D01*
X66387619Y-52522380D01*
X67006666Y-52522380D01*
%TO.C,J1*%
X65486666Y-67842380D02*
X65486666Y-68556666D01*
X65439047Y-68699523D01*
X65343809Y-68794761D01*
X65200952Y-68842380D01*
X65105714Y-68842380D01*
X66486666Y-68842380D02*
X65915238Y-68842380D01*
X66200952Y-68842380D02*
X66200952Y-67842380D01*
X66105714Y-67985238D01*
X66010476Y-68080476D01*
X65915238Y-68128095D01*
%TO.C,C2*%
X100183333Y-109567142D02*
X100135714Y-109614761D01*
X99992857Y-109662380D01*
X99897619Y-109662380D01*
X99754761Y-109614761D01*
X99659523Y-109519523D01*
X99611904Y-109424285D01*
X99564285Y-109233809D01*
X99564285Y-109090952D01*
X99611904Y-108900476D01*
X99659523Y-108805238D01*
X99754761Y-108710000D01*
X99897619Y-108662380D01*
X99992857Y-108662380D01*
X100135714Y-108710000D01*
X100183333Y-108757619D01*
X100564285Y-108757619D02*
X100611904Y-108710000D01*
X100707142Y-108662380D01*
X100945238Y-108662380D01*
X101040476Y-108710000D01*
X101088095Y-108757619D01*
X101135714Y-108852857D01*
X101135714Y-108948095D01*
X101088095Y-109090952D01*
X100516666Y-109662380D01*
X101135714Y-109662380D01*
%TO.C,C1*%
X94327142Y-89086666D02*
X94374761Y-89134285D01*
X94422380Y-89277142D01*
X94422380Y-89372380D01*
X94374761Y-89515238D01*
X94279523Y-89610476D01*
X94184285Y-89658095D01*
X93993809Y-89705714D01*
X93850952Y-89705714D01*
X93660476Y-89658095D01*
X93565238Y-89610476D01*
X93470000Y-89515238D01*
X93422380Y-89372380D01*
X93422380Y-89277142D01*
X93470000Y-89134285D01*
X93517619Y-89086666D01*
X94422380Y-88134285D02*
X94422380Y-88705714D01*
X94422380Y-88420000D02*
X93422380Y-88420000D01*
X93565238Y-88515238D01*
X93660476Y-88610476D01*
X93708095Y-88705714D01*
%TD*%
%LPC*%
D12*
%TO.C,U2*%
X116840000Y-104140000D03*
X109220000Y-119380000D03*
X116840000Y-106680000D03*
X109220000Y-116840000D03*
X116840000Y-109220000D03*
X109220000Y-114300000D03*
X116840000Y-111760000D03*
X109220000Y-111760000D03*
X116840000Y-114300000D03*
X109220000Y-109220000D03*
X116840000Y-116840000D03*
X109220000Y-106680000D03*
X116840000Y-119380000D03*
D13*
X109220000Y-104140000D03*
%TD*%
D12*
%TO.C,U1*%
X116840000Y-43180000D03*
X109220000Y-58420000D03*
X116840000Y-45720000D03*
X109220000Y-55880000D03*
X116840000Y-48260000D03*
X109220000Y-53340000D03*
X116840000Y-50800000D03*
X109220000Y-50800000D03*
X116840000Y-53340000D03*
X109220000Y-48260000D03*
X116840000Y-55880000D03*
X109220000Y-45720000D03*
X116840000Y-58420000D03*
D13*
X109220000Y-43180000D03*
%TD*%
D14*
%TO.C,RV10*%
X80010000Y-92710000D03*
X80010000Y-90170000D03*
X80010000Y-87630000D03*
%TD*%
%TO.C,RV9*%
X80010000Y-107950000D03*
X80010000Y-105410000D03*
X80010000Y-102870000D03*
%TD*%
%TO.C,RV8*%
X80010000Y-121920000D03*
X80010000Y-119380000D03*
X80010000Y-116840000D03*
%TD*%
%TO.C,RV7*%
X97790000Y-123190000D03*
X100330000Y-123190000D03*
X102870000Y-123190000D03*
%TD*%
%TO.C,RV6*%
X115570000Y-73660000D03*
X113030000Y-73660000D03*
X110490000Y-73660000D03*
%TD*%
%TO.C,RV5*%
X96520000Y-73660000D03*
X99060000Y-73660000D03*
X101600000Y-73660000D03*
%TD*%
%TO.C,RV4*%
X80010000Y-71120000D03*
X80010000Y-73660000D03*
X80010000Y-76200000D03*
%TD*%
%TO.C,RV3*%
X80010000Y-59690000D03*
X80010000Y-57150000D03*
X80010000Y-54610000D03*
%TD*%
%TO.C,RV2*%
X80010000Y-45720000D03*
X80010000Y-43180000D03*
X80010000Y-40640000D03*
%TD*%
%TO.C,RV1*%
X96520000Y-59690000D03*
X96520000Y-62230000D03*
X96520000Y-64770000D03*
%TD*%
D15*
%TO.C,R18*%
X104140000Y-106680000D03*
D16*
X96520000Y-106680000D03*
%TD*%
D15*
%TO.C,R17*%
X96520000Y-115570000D03*
D16*
X104140000Y-115570000D03*
%TD*%
D15*
%TO.C,R16*%
X83820000Y-90170000D03*
D16*
X91440000Y-90170000D03*
%TD*%
D15*
%TO.C,R15*%
X85090000Y-105410000D03*
D16*
X92710000Y-105410000D03*
%TD*%
D15*
%TO.C,R14*%
X85090000Y-119380000D03*
D16*
X92710000Y-119380000D03*
%TD*%
D15*
%TO.C,R13*%
X92710000Y-100330000D03*
D16*
X85090000Y-100330000D03*
%TD*%
D15*
%TO.C,R12*%
X120650000Y-58420000D03*
D16*
X120650000Y-66040000D03*
%TD*%
D15*
%TO.C,R11*%
X96520000Y-100330000D03*
D16*
X104140000Y-100330000D03*
%TD*%
D15*
%TO.C,R10*%
X85090000Y-113030000D03*
D16*
X92710000Y-113030000D03*
%TD*%
D15*
%TO.C,R9*%
X96520000Y-55880000D03*
D16*
X96520000Y-48260000D03*
%TD*%
D15*
%TO.C,R8*%
X104140000Y-95250000D03*
D16*
X96520000Y-95250000D03*
%TD*%
D15*
%TO.C,R7*%
X83820000Y-72390000D03*
D16*
X91440000Y-72390000D03*
%TD*%
D15*
%TO.C,R6*%
X83820000Y-57150000D03*
D16*
X91440000Y-57150000D03*
%TD*%
D15*
%TO.C,R5*%
X83820000Y-43180000D03*
D16*
X91440000Y-43180000D03*
%TD*%
D15*
%TO.C,R4*%
X104140000Y-82550000D03*
D16*
X96520000Y-82550000D03*
%TD*%
D15*
%TO.C,R3*%
X104140000Y-45720000D03*
D16*
X104140000Y-38100000D03*
%TD*%
D15*
%TO.C,R2*%
X104140000Y-58420000D03*
D16*
X104140000Y-66040000D03*
%TD*%
D15*
%TO.C,R1*%
X104140000Y-48260000D03*
D16*
X104140000Y-55880000D03*
%TD*%
D12*
%TO.C,Q1*%
X116840000Y-82550000D03*
X109220000Y-97790000D03*
X116840000Y-85090000D03*
X109220000Y-95250000D03*
X116840000Y-87630000D03*
X109220000Y-92710000D03*
X116840000Y-90170000D03*
X109220000Y-90170000D03*
X116840000Y-92710000D03*
X109220000Y-87630000D03*
X116840000Y-95250000D03*
X109220000Y-85090000D03*
X116840000Y-97790000D03*
D13*
X109220000Y-82550000D03*
%TD*%
D17*
%TO.C,J7*%
X69850000Y-93950000D03*
D18*
X69850000Y-82550000D03*
D17*
X69850000Y-85650000D03*
%TD*%
%TO.C,J6*%
X69850000Y-109190000D03*
D18*
X69850000Y-97790000D03*
D17*
X69850000Y-100890000D03*
%TD*%
%TO.C,J5*%
X69850000Y-124430000D03*
D18*
X69850000Y-113030000D03*
D17*
X69850000Y-116130000D03*
%TD*%
D19*
%TO.C,J4*%
X87630000Y-125730000D03*
D20*
X90170000Y-125730000D03*
%TD*%
D17*
%TO.C,J3*%
X69850000Y-46960000D03*
D18*
X69850000Y-35560000D03*
D17*
X69850000Y-38660000D03*
%TD*%
%TO.C,J2*%
X69850000Y-62390000D03*
D18*
X69850000Y-50990000D03*
D17*
X69850000Y-54090000D03*
%TD*%
%TO.C,J1*%
X69850000Y-78710000D03*
D18*
X69850000Y-67310000D03*
D17*
X69850000Y-70410000D03*
%TD*%
D16*
%TO.C,C2*%
X101600000Y-111760000D03*
X99100000Y-111760000D03*
%TD*%
%TO.C,C1*%
X96520000Y-87670000D03*
X96520000Y-90170000D03*
%TD*%
M02*
