%TF.GenerationSoftware,KiCad,Pcbnew,(5.1.12)-1*%
%TF.CreationDate,2021-11-21T15:36:10-08:00*%
%TF.ProjectId,VCF,5643462e-6b69-4636-9164-5f7063625858,rev?*%
%TF.SameCoordinates,Original*%
%TF.FileFunction,Soldermask,Bot*%
%TF.FilePolarity,Negative*%
%FSLAX46Y46*%
G04 Gerber Fmt 4.6, Leading zero omitted, Abs format (unit mm)*
G04 Created by KiCad (PCBNEW (5.1.12)-1) date 2021-11-21 15:36:10*
%MOMM*%
%LPD*%
G01*
G04 APERTURE LIST*
%ADD10O,2.400000X1.600000*%
%ADD11R,2.400000X1.600000*%
%ADD12C,1.440000*%
%ADD13O,1.600000X1.600000*%
%ADD14C,1.600000*%
%ADD15C,2.130000*%
%ADD16R,1.930000X1.830000*%
%ADD17O,1.700000X1.700000*%
%ADD18R,1.700000X1.700000*%
G04 APERTURE END LIST*
D10*
%TO.C,U2*%
X116840000Y-104140000D03*
X109220000Y-119380000D03*
X116840000Y-106680000D03*
X109220000Y-116840000D03*
X116840000Y-109220000D03*
X109220000Y-114300000D03*
X116840000Y-111760000D03*
X109220000Y-111760000D03*
X116840000Y-114300000D03*
X109220000Y-109220000D03*
X116840000Y-116840000D03*
X109220000Y-106680000D03*
X116840000Y-119380000D03*
D11*
X109220000Y-104140000D03*
%TD*%
D10*
%TO.C,U1*%
X116840000Y-43180000D03*
X109220000Y-58420000D03*
X116840000Y-45720000D03*
X109220000Y-55880000D03*
X116840000Y-48260000D03*
X109220000Y-53340000D03*
X116840000Y-50800000D03*
X109220000Y-50800000D03*
X116840000Y-53340000D03*
X109220000Y-48260000D03*
X116840000Y-55880000D03*
X109220000Y-45720000D03*
X116840000Y-58420000D03*
D11*
X109220000Y-43180000D03*
%TD*%
D12*
%TO.C,RV10*%
X80010000Y-92710000D03*
X80010000Y-90170000D03*
X80010000Y-87630000D03*
%TD*%
%TO.C,RV9*%
X80010000Y-107950000D03*
X80010000Y-105410000D03*
X80010000Y-102870000D03*
%TD*%
%TO.C,RV8*%
X80010000Y-121920000D03*
X80010000Y-119380000D03*
X80010000Y-116840000D03*
%TD*%
%TO.C,RV7*%
X97790000Y-123190000D03*
X100330000Y-123190000D03*
X102870000Y-123190000D03*
%TD*%
%TO.C,RV6*%
X115570000Y-73660000D03*
X113030000Y-73660000D03*
X110490000Y-73660000D03*
%TD*%
%TO.C,RV5*%
X96520000Y-73660000D03*
X99060000Y-73660000D03*
X101600000Y-73660000D03*
%TD*%
%TO.C,RV4*%
X80010000Y-71120000D03*
X80010000Y-73660000D03*
X80010000Y-76200000D03*
%TD*%
%TO.C,RV3*%
X80010000Y-59690000D03*
X80010000Y-57150000D03*
X80010000Y-54610000D03*
%TD*%
%TO.C,RV2*%
X80010000Y-45720000D03*
X80010000Y-43180000D03*
X80010000Y-40640000D03*
%TD*%
%TO.C,RV1*%
X96520000Y-59690000D03*
X96520000Y-62230000D03*
X96520000Y-64770000D03*
%TD*%
D13*
%TO.C,R18*%
X104140000Y-106680000D03*
D14*
X96520000Y-106680000D03*
%TD*%
D13*
%TO.C,R17*%
X96520000Y-115570000D03*
D14*
X104140000Y-115570000D03*
%TD*%
D13*
%TO.C,R16*%
X83820000Y-90170000D03*
D14*
X91440000Y-90170000D03*
%TD*%
D13*
%TO.C,R15*%
X85090000Y-105410000D03*
D14*
X92710000Y-105410000D03*
%TD*%
D13*
%TO.C,R14*%
X85090000Y-119380000D03*
D14*
X92710000Y-119380000D03*
%TD*%
D13*
%TO.C,R13*%
X92710000Y-100330000D03*
D14*
X85090000Y-100330000D03*
%TD*%
D13*
%TO.C,R12*%
X120650000Y-58420000D03*
D14*
X120650000Y-66040000D03*
%TD*%
D13*
%TO.C,R11*%
X96520000Y-100330000D03*
D14*
X104140000Y-100330000D03*
%TD*%
D13*
%TO.C,R10*%
X85090000Y-113030000D03*
D14*
X92710000Y-113030000D03*
%TD*%
D13*
%TO.C,R9*%
X96520000Y-55880000D03*
D14*
X96520000Y-48260000D03*
%TD*%
D13*
%TO.C,R8*%
X104140000Y-95250000D03*
D14*
X96520000Y-95250000D03*
%TD*%
D13*
%TO.C,R7*%
X83820000Y-72390000D03*
D14*
X91440000Y-72390000D03*
%TD*%
D13*
%TO.C,R6*%
X83820000Y-57150000D03*
D14*
X91440000Y-57150000D03*
%TD*%
D13*
%TO.C,R5*%
X83820000Y-43180000D03*
D14*
X91440000Y-43180000D03*
%TD*%
D13*
%TO.C,R4*%
X104140000Y-82550000D03*
D14*
X96520000Y-82550000D03*
%TD*%
D13*
%TO.C,R3*%
X104140000Y-45720000D03*
D14*
X104140000Y-38100000D03*
%TD*%
D13*
%TO.C,R2*%
X104140000Y-58420000D03*
D14*
X104140000Y-66040000D03*
%TD*%
D13*
%TO.C,R1*%
X104140000Y-48260000D03*
D14*
X104140000Y-55880000D03*
%TD*%
D10*
%TO.C,Q1*%
X116840000Y-82550000D03*
X109220000Y-97790000D03*
X116840000Y-85090000D03*
X109220000Y-95250000D03*
X116840000Y-87630000D03*
X109220000Y-92710000D03*
X116840000Y-90170000D03*
X109220000Y-90170000D03*
X116840000Y-92710000D03*
X109220000Y-87630000D03*
X116840000Y-95250000D03*
X109220000Y-85090000D03*
X116840000Y-97790000D03*
D11*
X109220000Y-82550000D03*
%TD*%
D15*
%TO.C,J7*%
X69850000Y-93950000D03*
D16*
X69850000Y-82550000D03*
D15*
X69850000Y-85650000D03*
%TD*%
%TO.C,J6*%
X69850000Y-109190000D03*
D16*
X69850000Y-97790000D03*
D15*
X69850000Y-100890000D03*
%TD*%
%TO.C,J5*%
X69850000Y-124430000D03*
D16*
X69850000Y-113030000D03*
D15*
X69850000Y-116130000D03*
%TD*%
D17*
%TO.C,J4*%
X87630000Y-125730000D03*
D18*
X90170000Y-125730000D03*
%TD*%
D15*
%TO.C,J3*%
X69850000Y-46960000D03*
D16*
X69850000Y-35560000D03*
D15*
X69850000Y-38660000D03*
%TD*%
%TO.C,J2*%
X69850000Y-62390000D03*
D16*
X69850000Y-50990000D03*
D15*
X69850000Y-54090000D03*
%TD*%
%TO.C,J1*%
X69850000Y-78710000D03*
D16*
X69850000Y-67310000D03*
D15*
X69850000Y-70410000D03*
%TD*%
D14*
%TO.C,C2*%
X101600000Y-111760000D03*
X99100000Y-111760000D03*
%TD*%
%TO.C,C1*%
X96520000Y-87670000D03*
X96520000Y-90170000D03*
%TD*%
M02*
