M48
; DRILL file {KiCad (5.1.12)-1} date 11/21/21 15:37:27
; FORMAT={-:-/ absolute / metric / decimal}
; #@! TF.CreationDate,2021-11-21T15:37:27-08:00
; #@! TF.GenerationSoftware,Kicad,Pcbnew,(5.1.12)-1
; #@! TF.FileFunction,Plated,1,2,PTH
FMAT,2
METRIC
T1C0.800
T2C1.000
T3C1.220
T4C1.420
T5C1.430
%
G90
G05
T1
X80.01Y-40.64
X80.01Y-43.18
X80.01Y-45.72
X80.01Y-54.61
X80.01Y-57.15
X80.01Y-59.69
X80.01Y-71.12
X80.01Y-73.66
X80.01Y-76.2
X80.01Y-87.63
X80.01Y-90.17
X80.01Y-92.71
X80.01Y-102.87
X80.01Y-105.41
X80.01Y-107.95
X80.01Y-116.84
X80.01Y-119.38
X80.01Y-121.92
X83.82Y-43.18
X83.82Y-57.15
X83.82Y-72.39
X83.82Y-90.17
X85.09Y-100.33
X85.09Y-105.41
X85.09Y-113.03
X85.09Y-119.38
X91.44Y-43.18
X91.44Y-57.15
X91.44Y-72.39
X91.44Y-90.17
X92.71Y-100.33
X92.71Y-105.41
X92.71Y-113.03
X92.71Y-119.38
X96.52Y-48.26
X96.52Y-55.88
X96.52Y-59.69
X96.52Y-62.23
X96.52Y-64.77
X96.52Y-73.66
X96.52Y-82.55
X96.52Y-87.67
X96.52Y-90.17
X96.52Y-95.25
X96.52Y-100.33
X96.52Y-106.68
X96.52Y-115.57
X97.79Y-123.19
X99.06Y-73.66
X99.1Y-111.76
X100.33Y-123.19
X101.6Y-73.66
X101.6Y-111.76
X102.87Y-123.19
X104.14Y-38.1
X104.14Y-45.72
X104.14Y-48.26
X104.14Y-55.88
X104.14Y-58.42
X104.14Y-66.04
X104.14Y-82.55
X104.14Y-95.25
X104.14Y-100.33
X104.14Y-106.68
X104.14Y-115.57
X109.22Y-43.18
X109.22Y-45.72
X109.22Y-48.26
X109.22Y-50.8
X109.22Y-53.34
X109.22Y-55.88
X109.22Y-58.42
X109.22Y-82.55
X109.22Y-85.09
X109.22Y-87.63
X109.22Y-90.17
X109.22Y-92.71
X109.22Y-95.25
X109.22Y-97.79
X109.22Y-104.14
X109.22Y-106.68
X109.22Y-109.22
X109.22Y-111.76
X109.22Y-114.3
X109.22Y-116.84
X109.22Y-119.38
X110.49Y-73.66
X113.03Y-73.66
X115.57Y-73.66
X116.84Y-43.18
X116.84Y-45.72
X116.84Y-48.26
X116.84Y-50.8
X116.84Y-53.34
X116.84Y-55.88
X116.84Y-58.42
X116.84Y-82.55
X116.84Y-85.09
X116.84Y-87.63
X116.84Y-90.17
X116.84Y-92.71
X116.84Y-95.25
X116.84Y-97.79
X116.84Y-104.14
X116.84Y-106.68
X116.84Y-109.22
X116.84Y-111.76
X116.84Y-114.3
X116.84Y-116.84
X116.84Y-119.38
X120.65Y-58.42
X120.65Y-66.04
T2
X87.63Y-125.73
X90.17Y-125.73
T3
X69.85Y-35.56
X69.85Y-50.99
X69.85Y-67.31
X69.85Y-82.55
X69.85Y-97.79
X69.85Y-113.03
T4
X69.85Y-38.66
X69.85Y-54.09
X69.85Y-70.41
X69.85Y-85.65
X69.85Y-100.89
X69.85Y-116.13
T5
X69.85Y-46.96
X69.85Y-62.39
X69.85Y-78.71
X69.85Y-93.95
X69.85Y-109.19
X69.85Y-124.43
T0
M30
