%TF.GenerationSoftware,KiCad,Pcbnew,(5.1.12)-1*%
%TF.CreationDate,2021-11-26T16:38:02-08:00*%
%TF.ProjectId,ADSR Front Pannel,41445352-2046-4726-9f6e-742050616e6e,rev?*%
%TF.SameCoordinates,Original*%
%TF.FileFunction,Legend,Bot*%
%TF.FilePolarity,Positive*%
%FSLAX46Y46*%
G04 Gerber Fmt 4.6, Leading zero omitted, Abs format (unit mm)*
G04 Created by KiCad (PCBNEW (5.1.12)-1) date 2021-11-26 16:38:02*
%MOMM*%
%LPD*%
G01*
G04 APERTURE LIST*
%ADD10C,0.150000*%
G04 APERTURE END LIST*
D10*
X64309047Y-150582380D02*
X64309047Y-151296666D01*
X64356666Y-151439523D01*
X64451904Y-151534761D01*
X64594761Y-151582380D01*
X64690000Y-151582380D01*
X63356666Y-151582380D02*
X63832857Y-151582380D01*
X63832857Y-150582380D01*
X62451904Y-151487142D02*
X62499523Y-151534761D01*
X62642380Y-151582380D01*
X62737619Y-151582380D01*
X62880476Y-151534761D01*
X62975714Y-151439523D01*
X63023333Y-151344285D01*
X63070952Y-151153809D01*
X63070952Y-151010952D01*
X63023333Y-150820476D01*
X62975714Y-150725238D01*
X62880476Y-150630000D01*
X62737619Y-150582380D01*
X62642380Y-150582380D01*
X62499523Y-150630000D01*
X62451904Y-150677619D01*
X61737619Y-150582380D02*
X61737619Y-151296666D01*
X61785238Y-151439523D01*
X61880476Y-151534761D01*
X62023333Y-151582380D01*
X62118571Y-151582380D01*
X60785238Y-151582380D02*
X61261428Y-151582380D01*
X61261428Y-150582380D01*
X59880476Y-151487142D02*
X59928095Y-151534761D01*
X60070952Y-151582380D01*
X60166190Y-151582380D01*
X60309047Y-151534761D01*
X60404285Y-151439523D01*
X60451904Y-151344285D01*
X60499523Y-151153809D01*
X60499523Y-151010952D01*
X60451904Y-150820476D01*
X60404285Y-150725238D01*
X60309047Y-150630000D01*
X60166190Y-150582380D01*
X60070952Y-150582380D01*
X59928095Y-150630000D01*
X59880476Y-150677619D01*
X59166190Y-150582380D02*
X59166190Y-151296666D01*
X59213809Y-151439523D01*
X59309047Y-151534761D01*
X59451904Y-151582380D01*
X59547142Y-151582380D01*
X58213809Y-151582380D02*
X58690000Y-151582380D01*
X58690000Y-150582380D01*
X57309047Y-151487142D02*
X57356666Y-151534761D01*
X57499523Y-151582380D01*
X57594761Y-151582380D01*
X57737619Y-151534761D01*
X57832857Y-151439523D01*
X57880476Y-151344285D01*
X57928095Y-151153809D01*
X57928095Y-151010952D01*
X57880476Y-150820476D01*
X57832857Y-150725238D01*
X57737619Y-150630000D01*
X57594761Y-150582380D01*
X57499523Y-150582380D01*
X57356666Y-150630000D01*
X57309047Y-150677619D01*
X56594761Y-150582380D02*
X56594761Y-151296666D01*
X56642380Y-151439523D01*
X56737619Y-151534761D01*
X56880476Y-151582380D01*
X56975714Y-151582380D01*
X55642380Y-151582380D02*
X56118571Y-151582380D01*
X56118571Y-150582380D01*
X54737619Y-151487142D02*
X54785238Y-151534761D01*
X54928095Y-151582380D01*
X55023333Y-151582380D01*
X55166190Y-151534761D01*
X55261428Y-151439523D01*
X55309047Y-151344285D01*
X55356666Y-151153809D01*
X55356666Y-151010952D01*
X55309047Y-150820476D01*
X55261428Y-150725238D01*
X55166190Y-150630000D01*
X55023333Y-150582380D01*
X54928095Y-150582380D01*
X54785238Y-150630000D01*
X54737619Y-150677619D01*
%LPC*%
M02*
