M48
; DRILL file {KiCad (5.1.12)-1} date 11/26/21 16:20:26
; FORMAT={-:-/ absolute / metric / decimal}
; #@! TF.CreationDate,2021-11-26T16:20:26-08:00
; #@! TF.GenerationSoftware,Kicad,Pcbnew,(5.1.12)-1
; #@! TF.FileFunction,Plated,1,2,PTH
FMAT,2
METRIC
T1C0.750
T2C0.800
T3C0.900
T4C1.000
%
G90
G05
T1
X43.18Y-57.15
X44.45Y-55.88
X45.72Y-57.15
X54.61Y-55.88
X54.61Y-58.42
X54.61Y-64.77
X54.61Y-67.31
X55.88Y-57.15
X55.88Y-66.04
T2
X22.634Y-37.877
X22.634Y-45.496
X27.94Y-107.95
X29.21Y-48.26
X30.48Y-97.79
X32.98Y-97.79
X35.56Y-107.95
X36.83Y-48.26
X39.37Y-107.95
X40.64Y-40.64
X40.64Y-48.26
X40.64Y-114.3
X41.91Y-74.93
X41.91Y-86.36
X41.91Y-97.79
X44.41Y-74.93
X44.41Y-86.36
X44.41Y-97.79
X46.99Y-107.95
X48.26Y-40.64
X48.26Y-48.26
X48.26Y-114.3
X50.8Y-107.95
X50.8Y-114.3
X52.07Y-88.9
X52.07Y-99.06
X54.57Y-88.9
X54.57Y-99.06
X54.61Y-39.37
X54.61Y-41.91
X54.61Y-44.45
X54.61Y-46.99
X54.61Y-72.39
X54.61Y-74.93
X54.61Y-77.47
X54.61Y-80.01
X58.42Y-107.95
X58.42Y-114.3
X60.96Y-88.9
X60.96Y-99.06
X62.23Y-39.37
X62.23Y-41.91
X62.23Y-44.45
X62.23Y-46.99
X62.23Y-55.88
X62.23Y-63.5
X62.23Y-72.39
X62.23Y-74.93
X62.23Y-77.47
X62.23Y-80.01
X63.46Y-88.9
X63.46Y-99.06
X63.5Y-106.68
X63.5Y-114.3
X67.31Y-38.1
X67.31Y-44.45
X67.31Y-50.8
X67.31Y-71.12
X67.31Y-83.82
X68.58Y-57.15
X68.58Y-77.47
X69.85Y-101.6
X69.85Y-104.14
X69.85Y-106.68
X69.85Y-109.22
X69.85Y-111.76
X69.85Y-114.3
X69.85Y-116.84
X73.58Y-57.15
X73.58Y-77.47
X74.93Y-38.1
X74.93Y-44.45
X74.93Y-50.8
X74.93Y-71.12
X74.93Y-83.82
X77.47Y-101.6
X77.47Y-104.14
X77.47Y-106.68
X77.47Y-109.22
X77.47Y-111.76
X77.47Y-114.3
X77.47Y-116.84
X78.74Y-50.8
X78.74Y-80.01
X81.28Y-113.03
X86.36Y-50.8
X86.36Y-80.01
X88.9Y-113.03
X91.44Y-41.91
X91.44Y-44.45
X91.44Y-46.99
X91.44Y-49.53
X91.44Y-52.07
X91.44Y-54.61
X91.44Y-57.15
X91.44Y-63.5
X91.44Y-69.85
X91.44Y-77.47
X99.06Y-41.91
X99.06Y-44.45
X99.06Y-46.99
X99.06Y-49.53
X99.06Y-52.07
X99.06Y-54.61
X99.06Y-57.15
X99.06Y-63.5
X99.06Y-69.85
X99.06Y-77.47
T3
X21.316Y-50.919
X23.856Y-50.919
X30.48Y-40.64
X34.29Y-114.3
X36.83Y-114.3
X38.1Y-40.64
X39.37Y-64.77
X46.99Y-64.77
X67.31Y-64.77
X74.93Y-64.77
X78.74Y-57.15
X78.74Y-64.77
X82.55Y-105.41
X85.09Y-105.41
X86.36Y-57.15
X86.36Y-64.77
T4
X30.48Y-31.75
X31.75Y-55.88
X31.75Y-66.04
X31.75Y-68.58
X31.75Y-71.12
X31.75Y-73.66
X31.75Y-76.2
X31.75Y-78.74
X31.75Y-81.28
X31.75Y-83.82
X31.75Y-86.36
X31.75Y-88.9
X32.98Y-31.75
X34.25Y-55.88
X35.48Y-31.75
X36.75Y-55.88
X41.91Y-31.75
X44.41Y-31.75
X46.91Y-31.75
X55.88Y-31.75
X58.42Y-31.75
X60.96Y-31.75
X68.58Y-31.75
X68.66Y-90.17
X71.12Y-31.75
X71.16Y-90.17
X73.66Y-31.75
X73.66Y-90.17
X76.2Y-31.75
X80.01Y-40.64
X80.01Y-95.25
X80.09Y-71.12
X80.09Y-86.36
X82.51Y-40.64
X82.51Y-95.25
X82.59Y-71.12
X82.59Y-86.36
X85.01Y-40.64
X85.01Y-95.25
X85.09Y-71.12
X85.09Y-86.36
X91.44Y-95.25
X92.71Y-85.09
X93.94Y-95.25
X95.21Y-85.09
X96.44Y-95.25
X97.71Y-85.09
T0
M30
