%TF.GenerationSoftware,KiCad,Pcbnew,(5.1.12)-1*%
%TF.CreationDate,2021-11-26T16:20:00-08:00*%
%TF.ProjectId,adsr_envelope,61647372-5f65-46e7-9665-6c6f70652e6b,rev?*%
%TF.SameCoordinates,Original*%
%TF.FileFunction,Copper,L1,Top*%
%TF.FilePolarity,Positive*%
%FSLAX46Y46*%
G04 Gerber Fmt 4.6, Leading zero omitted, Abs format (unit mm)*
G04 Created by KiCad (PCBNEW (5.1.12)-1) date 2021-11-26 16:20:00*
%MOMM*%
%LPD*%
G01*
G04 APERTURE LIST*
%TA.AperFunction,ComponentPad*%
%ADD10O,1.600000X1.600000*%
%TD*%
%TA.AperFunction,ComponentPad*%
%ADD11C,1.600000*%
%TD*%
%TA.AperFunction,ComponentPad*%
%ADD12C,1.800000*%
%TD*%
%TA.AperFunction,ComponentPad*%
%ADD13R,1.800000X1.800000*%
%TD*%
%TA.AperFunction,ComponentPad*%
%ADD14O,2.400000X1.600000*%
%TD*%
%TA.AperFunction,ComponentPad*%
%ADD15R,2.400000X1.600000*%
%TD*%
%TA.AperFunction,ComponentPad*%
%ADD16O,1.700000X1.700000*%
%TD*%
%TA.AperFunction,ComponentPad*%
%ADD17R,1.700000X1.700000*%
%TD*%
%TA.AperFunction,ComponentPad*%
%ADD18C,1.700000*%
%TD*%
%TA.AperFunction,ComponentPad*%
%ADD19R,1.800000X1.100000*%
%TD*%
%TA.AperFunction,ComponentPad*%
%ADD20R,1.100000X1.800000*%
%TD*%
%TA.AperFunction,ComponentPad*%
%ADD21O,1.800000X1.800000*%
%TD*%
%TA.AperFunction,ComponentPad*%
%ADD22R,1.600000X1.600000*%
%TD*%
%TA.AperFunction,Conductor*%
%ADD23C,0.304800*%
%TD*%
G04 APERTURE END LIST*
D10*
%TO.P,R22,2*%
%TO.N,Net-(D8-Pad2)*%
X22633900Y-45496500D03*
D11*
%TO.P,R22,1*%
%TO.N,Net-(D3-Pad1)*%
X22633900Y-37876500D03*
%TD*%
D12*
%TO.P,D8,2*%
%TO.N,Net-(D8-Pad2)*%
X23855700Y-50919400D03*
D13*
%TO.P,D8,1*%
%TO.N,GND*%
X21315700Y-50919400D03*
%TD*%
D14*
%TO.P,U4,8*%
%TO.N,+12V*%
X62230000Y-72390000D03*
%TO.P,U4,4*%
%TO.N,Net-(C1-Pad1)*%
X54610000Y-80010000D03*
%TO.P,U4,7*%
%TO.N,Net-(RV4-Pad1)*%
X62230000Y-74930000D03*
%TO.P,U4,3*%
%TO.N,Net-(R19-Pad1)*%
X54610000Y-77470000D03*
%TO.P,U4,6*%
%TO.N,Net-(D5-Pad2)*%
X62230000Y-77470000D03*
%TO.P,U4,2*%
%TO.N,Net-(Q3-Pad2)*%
X54610000Y-74930000D03*
%TO.P,U4,5*%
%TO.N,Net-(C2-Pad2)*%
X62230000Y-80010000D03*
D15*
%TO.P,U4,1*%
%TO.N,GND*%
X54610000Y-72390000D03*
%TD*%
D14*
%TO.P,U3,14*%
%TO.N,Net-(R13-Pad2)*%
X99060000Y-41910000D03*
%TO.P,U3,7*%
%TO.N,Net-(R11-Pad1)*%
X91440000Y-57150000D03*
%TO.P,U3,13*%
%TO.N,Net-(R13-Pad1)*%
X99060000Y-44450000D03*
%TO.P,U3,6*%
%TO.N,Net-(R11-Pad1)*%
X91440000Y-54610000D03*
%TO.P,U3,12*%
%TO.N,Net-(R11-Pad2)*%
X99060000Y-46990000D03*
%TO.P,U3,5*%
%TO.N,Net-(D5-Pad2)*%
X91440000Y-52070000D03*
%TO.P,U3,11*%
%TO.N,-12V*%
X99060000Y-49530000D03*
%TO.P,U3,4*%
%TO.N,+12V*%
X91440000Y-49530000D03*
%TO.P,U3,10*%
%TO.N,Net-(R11-Pad1)*%
X99060000Y-52070000D03*
%TO.P,U3,3*%
%TO.N,Net-(RV4-Pad2)*%
X91440000Y-46990000D03*
%TO.P,U3,9*%
%TO.N,Net-(R15-Pad1)*%
X99060000Y-54610000D03*
%TO.P,U3,2*%
%TO.N,Net-(R21-Pad1)*%
X91440000Y-44450000D03*
%TO.P,U3,8*%
%TO.N,Net-(R15-Pad1)*%
X99060000Y-57150000D03*
D15*
%TO.P,U3,1*%
%TO.N,Net-(R21-Pad1)*%
X91440000Y-41910000D03*
%TD*%
D14*
%TO.P,U2,8*%
%TO.N,+12V*%
X62230000Y-39370000D03*
%TO.P,U2,4*%
%TO.N,-12V*%
X54610000Y-46990000D03*
%TO.P,U2,7*%
%TO.N,N/C*%
X62230000Y-41910000D03*
%TO.P,U2,3*%
%TO.N,Net-(J1-PadTN)*%
X54610000Y-44450000D03*
%TO.P,U2,6*%
%TO.N,N/C*%
X62230000Y-44450000D03*
%TO.P,U2,2*%
%TO.N,Net-(R3-Pad2)*%
X54610000Y-41910000D03*
%TO.P,U2,5*%
%TO.N,N/C*%
X62230000Y-46990000D03*
D15*
%TO.P,U2,1*%
%TO.N,Net-(D3-Pad1)*%
X54610000Y-39370000D03*
%TD*%
D14*
%TO.P,U1,14*%
%TO.N,Net-(R2-Pad1)*%
X77470000Y-101600000D03*
%TO.P,U1,7*%
%TO.N,Net-(J4-PadTN)*%
X69850000Y-116840000D03*
%TO.P,U1,13*%
%TO.N,Net-(R5-Pad1)*%
X77470000Y-104140000D03*
%TO.P,U1,6*%
%TO.N,Net-(R16-Pad2)*%
X69850000Y-114300000D03*
%TO.P,U1,12*%
%TO.N,GND*%
X77470000Y-106680000D03*
%TO.P,U1,5*%
X69850000Y-111760000D03*
%TO.P,U1,11*%
%TO.N,-12V*%
X77470000Y-109220000D03*
%TO.P,U1,4*%
%TO.N,+12V*%
X69850000Y-109220000D03*
%TO.P,U1,10*%
%TO.N,GND*%
X77470000Y-111760000D03*
%TO.P,U1,3*%
X69850000Y-106680000D03*
%TO.P,U1,9*%
%TO.N,Net-(R4-Pad1)*%
X77470000Y-114300000D03*
%TO.P,U1,2*%
%TO.N,Net-(R15-Pad2)*%
X69850000Y-104140000D03*
%TO.P,U1,8*%
%TO.N,Net-(R1-Pad1)*%
X77470000Y-116840000D03*
D15*
%TO.P,U1,1*%
%TO.N,Net-(J3-PadTN)*%
X69850000Y-101600000D03*
%TD*%
D16*
%TO.P,SW2,10*%
%TO.N,Net-(SW1-Pad3)*%
X31750000Y-88900000D03*
%TO.P,SW2,9*%
%TO.N,Net-(SW1-Pad1)*%
X31750000Y-86360000D03*
%TO.P,SW2,8*%
%TO.N,Net-(C3-Pad1)*%
X31750000Y-83820000D03*
%TO.P,SW2,7*%
%TO.N,Net-(C4-Pad1)*%
X31750000Y-81280000D03*
%TO.P,SW2,6*%
%TO.N,Net-(C5-Pad1)*%
X31750000Y-78740000D03*
%TO.P,SW2,5*%
%TO.N,Net-(C6-Pad1)*%
X31750000Y-76200000D03*
%TO.P,SW2,4*%
%TO.N,Net-(C7-Pad1)*%
X31750000Y-73660000D03*
%TO.P,SW2,3*%
%TO.N,Net-(C8-Pad1)*%
X31750000Y-71120000D03*
%TO.P,SW2,2*%
%TO.N,Net-(C9-Pad1)*%
X31750000Y-68580000D03*
D17*
%TO.P,SW2,1*%
%TO.N,Net-(C10-Pad1)*%
X31750000Y-66040000D03*
%TD*%
D16*
%TO.P,SW1,3*%
%TO.N,Net-(SW1-Pad3)*%
X60960000Y-31750000D03*
%TO.P,SW1,2*%
%TO.N,Net-(D5-Pad2)*%
X58420000Y-31750000D03*
D17*
%TO.P,SW1,1*%
%TO.N,Net-(SW1-Pad1)*%
X55880000Y-31750000D03*
%TD*%
D18*
%TO.P,RV7,3*%
%TO.N,Net-(RV7-Pad3)*%
X85090000Y-71120000D03*
%TO.P,RV7,2*%
%TO.N,Net-(D7-Pad1)*%
X82590000Y-71120000D03*
%TO.P,RV7,1*%
%TO.N,Net-(R21-Pad2)*%
X80090000Y-71120000D03*
%TD*%
%TO.P,RV6,3*%
%TO.N,Net-(RV6-Pad3)*%
X36750000Y-55880000D03*
%TO.P,RV6,2*%
%TO.N,Net-(D6-Pad2)*%
X34250000Y-55880000D03*
%TO.P,RV6,1*%
%TO.N,Net-(R19-Pad2)*%
X31750000Y-55880000D03*
%TD*%
%TO.P,RV5,3*%
%TO.N,Net-(RV5-Pad3)*%
X85010000Y-40640000D03*
%TO.P,RV5,2*%
%TO.N,Net-(D5-Pad1)*%
X82510000Y-40640000D03*
%TO.P,RV5,1*%
%TO.N,Net-(R18-Pad2)*%
X80010000Y-40640000D03*
%TD*%
%TO.P,RV4,3*%
%TO.N,Net-(R20-Pad2)*%
X73660000Y-90170000D03*
%TO.P,RV4,2*%
%TO.N,Net-(RV4-Pad2)*%
X71160000Y-90170000D03*
%TO.P,RV4,1*%
%TO.N,Net-(RV4-Pad1)*%
X68660000Y-90170000D03*
%TD*%
%TO.P,RV3,3*%
%TO.N,Net-(RV3-Pad3)*%
X97710000Y-85090000D03*
%TO.P,RV3,2*%
%TO.N,Net-(J4-PadTN)*%
X95210000Y-85090000D03*
%TO.P,RV3,1*%
%TO.N,Net-(R16-Pad2)*%
X92710000Y-85090000D03*
%TD*%
%TO.P,RV2,3*%
%TO.N,Net-(RV2-Pad3)*%
X85090000Y-86360000D03*
%TO.P,RV2,2*%
%TO.N,Net-(J3-PadTN)*%
X82590000Y-86360000D03*
%TO.P,RV2,1*%
%TO.N,Net-(R15-Pad2)*%
X80090000Y-86360000D03*
%TD*%
%TO.P,RV1,3*%
%TO.N,Net-(RV1-Pad3)*%
X46910000Y-31750000D03*
%TO.P,RV1,2*%
%TO.N,Net-(D3-Pad1)*%
X44410000Y-31750000D03*
%TO.P,RV1,1*%
%TO.N,Net-(R3-Pad2)*%
X41910000Y-31750000D03*
%TD*%
D10*
%TO.P,R21,2*%
%TO.N,Net-(R21-Pad2)*%
X86360000Y-80010000D03*
D11*
%TO.P,R21,1*%
%TO.N,Net-(R21-Pad1)*%
X78740000Y-80010000D03*
%TD*%
D10*
%TO.P,R20,2*%
%TO.N,Net-(R20-Pad2)*%
X74930000Y-83820000D03*
D11*
%TO.P,R20,1*%
%TO.N,+12V*%
X67310000Y-83820000D03*
%TD*%
D10*
%TO.P,R19,2*%
%TO.N,Net-(R19-Pad2)*%
X36830000Y-48260000D03*
D11*
%TO.P,R19,1*%
%TO.N,Net-(R19-Pad1)*%
X29210000Y-48260000D03*
%TD*%
D10*
%TO.P,R18,2*%
%TO.N,Net-(R18-Pad2)*%
X86360000Y-50800000D03*
D11*
%TO.P,R18,1*%
%TO.N,Net-(C1-Pad1)*%
X78740000Y-50800000D03*
%TD*%
D10*
%TO.P,R17,2*%
%TO.N,Net-(Q3-Pad2)*%
X62230000Y-63500000D03*
D11*
%TO.P,R17,1*%
%TO.N,+12V*%
X62230000Y-55880000D03*
%TD*%
D10*
%TO.P,R16,2*%
%TO.N,Net-(R16-Pad2)*%
X99060000Y-77470000D03*
D11*
%TO.P,R16,1*%
%TO.N,Net-(R13-Pad2)*%
X91440000Y-77470000D03*
%TD*%
D10*
%TO.P,R15,2*%
%TO.N,Net-(R15-Pad2)*%
X58420000Y-107950000D03*
D11*
%TO.P,R15,1*%
%TO.N,Net-(R15-Pad1)*%
X50800000Y-107950000D03*
%TD*%
D10*
%TO.P,R14,2*%
%TO.N,Net-(C1-Pad2)*%
X67310000Y-71120000D03*
D11*
%TO.P,R14,1*%
%TO.N,Net-(Q3-Pad1)*%
X74930000Y-71120000D03*
%TD*%
D10*
%TO.P,R13,2*%
%TO.N,Net-(R13-Pad2)*%
X99060000Y-69850000D03*
D11*
%TO.P,R13,1*%
%TO.N,Net-(R13-Pad1)*%
X91440000Y-69850000D03*
%TD*%
D10*
%TO.P,R12,2*%
%TO.N,Net-(C1-Pad1)*%
X74930000Y-50800000D03*
D11*
%TO.P,R12,1*%
%TO.N,+12V*%
X67310000Y-50800000D03*
%TD*%
D10*
%TO.P,R11,2*%
%TO.N,Net-(R11-Pad2)*%
X99060000Y-63500000D03*
D11*
%TO.P,R11,1*%
%TO.N,Net-(R11-Pad1)*%
X91440000Y-63500000D03*
%TD*%
D10*
%TO.P,R10,2*%
%TO.N,Net-(Q2-Pad1)*%
X74930000Y-44450000D03*
D11*
%TO.P,R10,1*%
%TO.N,Net-(Q1-Pad2)*%
X67310000Y-44450000D03*
%TD*%
D10*
%TO.P,R9,2*%
%TO.N,Net-(Q1-Pad2)*%
X74930000Y-38100000D03*
D11*
%TO.P,R9,1*%
%TO.N,+12V*%
X67310000Y-38100000D03*
%TD*%
D10*
%TO.P,R8,2*%
%TO.N,Net-(R5-Pad1)*%
X81280000Y-113030000D03*
D11*
%TO.P,R8,1*%
%TO.N,Net-(R13-Pad2)*%
X88900000Y-113030000D03*
%TD*%
D10*
%TO.P,R7,2*%
%TO.N,Net-(R4-Pad1)*%
X40640000Y-114300000D03*
D11*
%TO.P,R7,1*%
%TO.N,Net-(R11-Pad1)*%
X48260000Y-114300000D03*
%TD*%
D10*
%TO.P,R6,2*%
%TO.N,Net-(D3-Pad1)*%
X48260000Y-48260000D03*
D11*
%TO.P,R6,1*%
%TO.N,Net-(Q1-Pad1)*%
X40640000Y-48260000D03*
%TD*%
D10*
%TO.P,R5,2*%
%TO.N,Net-(R2-Pad1)*%
X58420000Y-114300000D03*
D11*
%TO.P,R5,1*%
%TO.N,Net-(R5-Pad1)*%
X50800000Y-114300000D03*
%TD*%
D10*
%TO.P,R4,2*%
%TO.N,Net-(R1-Pad1)*%
X39370000Y-107950000D03*
D11*
%TO.P,R4,1*%
%TO.N,Net-(R4-Pad1)*%
X46990000Y-107950000D03*
%TD*%
D10*
%TO.P,R3,2*%
%TO.N,Net-(R3-Pad2)*%
X48260000Y-40640000D03*
D11*
%TO.P,R3,1*%
%TO.N,GND*%
X40640000Y-40640000D03*
%TD*%
D10*
%TO.P,R2,2*%
%TO.N,Net-(D2-Pad2)*%
X63500000Y-114300000D03*
D11*
%TO.P,R2,1*%
%TO.N,Net-(R2-Pad1)*%
X63500000Y-106680000D03*
%TD*%
D10*
%TO.P,R1,2*%
%TO.N,Net-(D1-Pad1)*%
X27940000Y-107950000D03*
D11*
%TO.P,R1,1*%
%TO.N,Net-(R1-Pad1)*%
X35560000Y-107950000D03*
%TD*%
D19*
%TO.P,Q3,1*%
%TO.N,Net-(Q3-Pad1)*%
X54210000Y-64770000D03*
%TO.P,Q3,3*%
%TO.N,GND*%
%TA.AperFunction,ComponentPad*%
G36*
G01*
X53585000Y-66760000D02*
X54835000Y-66760000D01*
G75*
G02*
X55110000Y-67035000I0J-275000D01*
G01*
X55110000Y-67585000D01*
G75*
G02*
X54835000Y-67860000I-275000J0D01*
G01*
X53585000Y-67860000D01*
G75*
G02*
X53310000Y-67585000I0J275000D01*
G01*
X53310000Y-67035000D01*
G75*
G02*
X53585000Y-66760000I275000J0D01*
G01*
G37*
%TD.AperFunction*%
%TO.P,Q3,2*%
%TO.N,Net-(Q3-Pad2)*%
%TA.AperFunction,ComponentPad*%
G36*
G01*
X55655000Y-65490000D02*
X56905000Y-65490000D01*
G75*
G02*
X57180000Y-65765000I0J-275000D01*
G01*
X57180000Y-66315000D01*
G75*
G02*
X56905000Y-66590000I-275000J0D01*
G01*
X55655000Y-66590000D01*
G75*
G02*
X55380000Y-66315000I0J275000D01*
G01*
X55380000Y-65765000D01*
G75*
G02*
X55655000Y-65490000I275000J0D01*
G01*
G37*
%TD.AperFunction*%
%TD*%
%TO.P,Q2,1*%
%TO.N,Net-(Q2-Pad1)*%
X54210000Y-55880000D03*
%TO.P,Q2,3*%
%TO.N,GND*%
%TA.AperFunction,ComponentPad*%
G36*
G01*
X53585000Y-57870000D02*
X54835000Y-57870000D01*
G75*
G02*
X55110000Y-58145000I0J-275000D01*
G01*
X55110000Y-58695000D01*
G75*
G02*
X54835000Y-58970000I-275000J0D01*
G01*
X53585000Y-58970000D01*
G75*
G02*
X53310000Y-58695000I0J275000D01*
G01*
X53310000Y-58145000D01*
G75*
G02*
X53585000Y-57870000I275000J0D01*
G01*
G37*
%TD.AperFunction*%
%TO.P,Q2,2*%
%TO.N,Net-(C1-Pad1)*%
%TA.AperFunction,ComponentPad*%
G36*
G01*
X55655000Y-56600000D02*
X56905000Y-56600000D01*
G75*
G02*
X57180000Y-56875000I0J-275000D01*
G01*
X57180000Y-57425000D01*
G75*
G02*
X56905000Y-57700000I-275000J0D01*
G01*
X55655000Y-57700000D01*
G75*
G02*
X55380000Y-57425000I0J275000D01*
G01*
X55380000Y-56875000D01*
G75*
G02*
X55655000Y-56600000I275000J0D01*
G01*
G37*
%TD.AperFunction*%
%TD*%
D20*
%TO.P,Q1,1*%
%TO.N,Net-(Q1-Pad1)*%
X43180000Y-57550000D03*
%TO.P,Q1,3*%
%TO.N,GND*%
%TA.AperFunction,ComponentPad*%
G36*
G01*
X45170000Y-58175000D02*
X45170000Y-56925000D01*
G75*
G02*
X45445000Y-56650000I275000J0D01*
G01*
X45995000Y-56650000D01*
G75*
G02*
X46270000Y-56925000I0J-275000D01*
G01*
X46270000Y-58175000D01*
G75*
G02*
X45995000Y-58450000I-275000J0D01*
G01*
X45445000Y-58450000D01*
G75*
G02*
X45170000Y-58175000I0J275000D01*
G01*
G37*
%TD.AperFunction*%
%TO.P,Q1,2*%
%TO.N,Net-(Q1-Pad2)*%
%TA.AperFunction,ComponentPad*%
G36*
G01*
X43900000Y-56105000D02*
X43900000Y-54855000D01*
G75*
G02*
X44175000Y-54580000I275000J0D01*
G01*
X44725000Y-54580000D01*
G75*
G02*
X45000000Y-54855000I0J-275000D01*
G01*
X45000000Y-56105000D01*
G75*
G02*
X44725000Y-56380000I-275000J0D01*
G01*
X44175000Y-56380000D01*
G75*
G02*
X43900000Y-56105000I0J275000D01*
G01*
G37*
%TD.AperFunction*%
%TD*%
D18*
%TO.P,J4,TN*%
%TO.N,Net-(J4-PadTN)*%
X96440000Y-95250000D03*
%TO.P,J4,T*%
%TO.N,GND*%
X93940000Y-95250000D03*
%TO.P,J4,S*%
X91440000Y-95250000D03*
%TD*%
%TO.P,J3,TN*%
%TO.N,Net-(J3-PadTN)*%
X85010000Y-95250000D03*
%TO.P,J3,T*%
%TO.N,GND*%
X82510000Y-95250000D03*
%TO.P,J3,S*%
X80010000Y-95250000D03*
%TD*%
D16*
%TO.P,J2,4*%
%TO.N,+5V*%
X76200000Y-31750000D03*
%TO.P,J2,3*%
%TO.N,+12V*%
X73660000Y-31750000D03*
%TO.P,J2,2*%
%TO.N,GND*%
X71120000Y-31750000D03*
D17*
%TO.P,J2,1*%
%TO.N,-12V*%
X68580000Y-31750000D03*
%TD*%
D18*
%TO.P,J1,TN*%
%TO.N,Net-(J1-PadTN)*%
X35480000Y-31750000D03*
%TO.P,J1,T*%
%TO.N,GND*%
X32980000Y-31750000D03*
%TO.P,J1,S*%
X30480000Y-31750000D03*
%TD*%
D21*
%TO.P,D7,2*%
%TO.N,Net-(D5-Pad2)*%
X86360000Y-64770000D03*
D13*
%TO.P,D7,1*%
%TO.N,Net-(D7-Pad1)*%
X78740000Y-64770000D03*
%TD*%
D21*
%TO.P,D6,2*%
%TO.N,Net-(D6-Pad2)*%
X39370000Y-64770000D03*
D13*
%TO.P,D6,1*%
%TO.N,Net-(D5-Pad2)*%
X46990000Y-64770000D03*
%TD*%
D21*
%TO.P,D5,2*%
%TO.N,Net-(D5-Pad2)*%
X86360000Y-57150000D03*
D13*
%TO.P,D5,1*%
%TO.N,Net-(D5-Pad1)*%
X78740000Y-57150000D03*
%TD*%
D21*
%TO.P,D4,2*%
%TO.N,GND*%
X67310000Y-64770000D03*
D13*
%TO.P,D4,1*%
%TO.N,Net-(C1-Pad2)*%
X74930000Y-64770000D03*
%TD*%
D21*
%TO.P,D3,2*%
%TO.N,GND*%
X38100000Y-40640000D03*
D13*
%TO.P,D3,1*%
%TO.N,Net-(D3-Pad1)*%
X30480000Y-40640000D03*
%TD*%
D12*
%TO.P,D2,2*%
%TO.N,Net-(D2-Pad2)*%
X82550000Y-105410000D03*
D13*
%TO.P,D2,1*%
%TO.N,GND*%
X85090000Y-105410000D03*
%TD*%
D12*
%TO.P,D1,2*%
%TO.N,GND*%
X34290000Y-114300000D03*
D13*
%TO.P,D1,1*%
%TO.N,Net-(D1-Pad1)*%
X36830000Y-114300000D03*
%TD*%
D11*
%TO.P,C10,2*%
%TO.N,GND*%
X63460000Y-99060000D03*
D22*
%TO.P,C10,1*%
%TO.N,Net-(C10-Pad1)*%
X60960000Y-99060000D03*
%TD*%
D11*
%TO.P,C9,2*%
%TO.N,GND*%
X54570000Y-99060000D03*
D22*
%TO.P,C9,1*%
%TO.N,Net-(C9-Pad1)*%
X52070000Y-99060000D03*
%TD*%
D11*
%TO.P,C8,2*%
%TO.N,GND*%
X63460000Y-88900000D03*
D22*
%TO.P,C8,1*%
%TO.N,Net-(C8-Pad1)*%
X60960000Y-88900000D03*
%TD*%
D11*
%TO.P,C7,2*%
%TO.N,GND*%
X54570000Y-88900000D03*
D22*
%TO.P,C7,1*%
%TO.N,Net-(C7-Pad1)*%
X52070000Y-88900000D03*
%TD*%
D11*
%TO.P,C6,2*%
%TO.N,GND*%
X32980000Y-97790000D03*
D22*
%TO.P,C6,1*%
%TO.N,Net-(C6-Pad1)*%
X30480000Y-97790000D03*
%TD*%
D11*
%TO.P,C5,2*%
%TO.N,GND*%
X44410000Y-97790000D03*
D22*
%TO.P,C5,1*%
%TO.N,Net-(C5-Pad1)*%
X41910000Y-97790000D03*
%TD*%
D11*
%TO.P,C4,2*%
%TO.N,GND*%
X44410000Y-86360000D03*
D22*
%TO.P,C4,1*%
%TO.N,Net-(C4-Pad1)*%
X41910000Y-86360000D03*
%TD*%
D11*
%TO.P,C3,2*%
%TO.N,GND*%
X44410000Y-74930000D03*
D22*
%TO.P,C3,1*%
%TO.N,Net-(C3-Pad1)*%
X41910000Y-74930000D03*
%TD*%
D11*
%TO.P,C2,2*%
%TO.N,Net-(C2-Pad2)*%
X73580000Y-77470000D03*
%TO.P,C2,1*%
%TO.N,GND*%
X68580000Y-77470000D03*
%TD*%
%TO.P,C1,2*%
%TO.N,Net-(C1-Pad2)*%
X73580000Y-57150000D03*
%TO.P,C1,1*%
%TO.N,Net-(C1-Pad1)*%
X68580000Y-57150000D03*
%TD*%
D23*
%TO.N,Net-(C1-Pad2)*%
X74930000Y-64770000D02*
X74930000Y-63412500D01*
X73580000Y-57150000D02*
X73580000Y-62062500D01*
X73580000Y-62062500D02*
X74930000Y-63412500D01*
%TO.N,Net-(C1-Pad1)*%
X54610000Y-80010000D02*
X56267500Y-80010000D01*
X55880000Y-57150000D02*
X57652300Y-58922300D01*
X57652300Y-58922300D02*
X57652300Y-78625200D01*
X57652300Y-78625200D02*
X56267500Y-80010000D01*
%TO.N,GND*%
X54610000Y-72390000D02*
X56267500Y-72390000D01*
X56267500Y-72390000D02*
X56267500Y-68967500D01*
X56267500Y-68967500D02*
X54610000Y-67310000D01*
X54610000Y-58420000D02*
X52852400Y-60177600D01*
X52852400Y-60177600D02*
X52852400Y-65552400D01*
X52852400Y-65552400D02*
X54610000Y-67310000D01*
X82510000Y-95250000D02*
X80010000Y-95250000D01*
X82510000Y-95250000D02*
X82510000Y-103993100D01*
X32980000Y-31750000D02*
X34287600Y-30442400D01*
X34287600Y-30442400D02*
X69812400Y-30442400D01*
X69812400Y-30442400D02*
X71120000Y-31750000D01*
X32980000Y-40640000D02*
X32980000Y-31750000D01*
X21315700Y-50919400D02*
X30237600Y-41997500D01*
X30237600Y-41997500D02*
X31622500Y-41997500D01*
X31622500Y-41997500D02*
X32980000Y-40640000D01*
X36742500Y-40640000D02*
X32980000Y-40640000D01*
X82510000Y-103993100D02*
X83673100Y-103993100D01*
X83673100Y-103993100D02*
X85090000Y-105410000D01*
X79127500Y-106680000D02*
X81814400Y-103993100D01*
X81814400Y-103993100D02*
X82510000Y-103993100D01*
X77470000Y-106680000D02*
X79127500Y-106680000D01*
X38100000Y-40640000D02*
X36742500Y-40640000D01*
X54570000Y-97790000D02*
X54570000Y-99060000D01*
X54570000Y-88900000D02*
X54570000Y-97790000D01*
X54570000Y-97790000D02*
X44410000Y-97790000D01*
X34290000Y-99056100D02*
X34246100Y-99056100D01*
X34246100Y-99056100D02*
X32980000Y-97790000D01*
X44410000Y-97790000D02*
X43143900Y-99056100D01*
X43143900Y-99056100D02*
X34290000Y-99056100D01*
X34290000Y-99056100D02*
X34290000Y-114300000D01*
X45720000Y-57150000D02*
X45720000Y-45720000D01*
X45720000Y-45720000D02*
X40640000Y-40640000D01*
X69850000Y-111760000D02*
X68192500Y-111760000D01*
X68192500Y-111760000D02*
X66700000Y-110267500D01*
X66700000Y-110267500D02*
X66700000Y-102300000D01*
X66700000Y-102300000D02*
X63460000Y-99060000D01*
X63460000Y-88900000D02*
X63460000Y-99060000D01*
X44410000Y-74930000D02*
X44410000Y-86360000D01*
X67310000Y-64770000D02*
X67310000Y-66127500D01*
X68580000Y-77470000D02*
X68580000Y-67397500D01*
X68580000Y-67397500D02*
X67310000Y-66127500D01*
%TO.N,Net-(C4-Pad1)*%
X41910000Y-86360000D02*
X40652500Y-86360000D01*
X40652500Y-86360000D02*
X35572500Y-81280000D01*
X35572500Y-81280000D02*
X31750000Y-81280000D01*
%TO.N,Net-(C5-Pad1)*%
X41910000Y-97790000D02*
X38757000Y-97790000D01*
X38757000Y-97790000D02*
X30427400Y-89460400D01*
X30427400Y-89460400D02*
X30427400Y-80062600D01*
X30427400Y-80062600D02*
X31750000Y-78740000D01*
%TO.N,Net-(C6-Pad1)*%
X30480000Y-97790000D02*
X30480000Y-96532500D01*
X30480000Y-96532500D02*
X29790200Y-95842700D01*
X29790200Y-95842700D02*
X29790200Y-78159800D01*
X29790200Y-78159800D02*
X31750000Y-76200000D01*
%TO.N,Net-(C7-Pad1)*%
X31750000Y-73660000D02*
X44941200Y-73660000D01*
X44941200Y-73660000D02*
X46902400Y-75621200D01*
X46902400Y-75621200D02*
X46902400Y-82475000D01*
X46902400Y-82475000D02*
X46902500Y-82475000D01*
X46902500Y-82475000D02*
X52070000Y-87642500D01*
X52070000Y-88900000D02*
X52070000Y-87642500D01*
%TO.N,Net-(C9-Pad1)*%
X52070000Y-99060000D02*
X53332600Y-100322600D01*
X53332600Y-100322600D02*
X55107000Y-100322600D01*
X55107000Y-100322600D02*
X55891400Y-99538200D01*
X55891400Y-99538200D02*
X55891400Y-88386900D01*
X55891400Y-88386900D02*
X48805300Y-81300800D01*
X48805300Y-81300800D02*
X48805300Y-76592000D01*
X48805300Y-76592000D02*
X40793300Y-68580000D01*
X40793300Y-68580000D02*
X31750000Y-68580000D01*
%TO.N,Net-(C10-Pad1)*%
X33057500Y-66040000D02*
X34974800Y-67957300D01*
X34974800Y-67957300D02*
X41033300Y-67957300D01*
X41033300Y-67957300D02*
X49415300Y-76339300D01*
X49415300Y-76339300D02*
X49415300Y-79352900D01*
X49415300Y-79352900D02*
X59702500Y-89640100D01*
X59702500Y-89640100D02*
X59702500Y-96545000D01*
X59702500Y-96545000D02*
X60960000Y-97802500D01*
X31750000Y-66040000D02*
X33057500Y-66040000D01*
X60960000Y-99060000D02*
X60960000Y-97802500D01*
%TO.N,Net-(D3-Pad1)*%
X48260000Y-48260000D02*
X48260000Y-47002500D01*
X50730000Y-39370000D02*
X50730000Y-44532500D01*
X50730000Y-44532500D02*
X48260000Y-47002500D01*
X44410000Y-31750000D02*
X50730000Y-38070000D01*
X50730000Y-38070000D02*
X50730000Y-39370000D01*
X50730000Y-39370000D02*
X52952500Y-39370000D01*
X54610000Y-39370000D02*
X52952500Y-39370000D01*
%TO.N,Net-(D5-Pad2)*%
X58420000Y-31750000D02*
X58420000Y-33057500D01*
X46990000Y-64770000D02*
X46990000Y-52429400D01*
X46990000Y-52429400D02*
X53699400Y-45720000D01*
X53699400Y-45720000D02*
X55545300Y-45720000D01*
X55545300Y-45720000D02*
X56267500Y-44997800D01*
X56267500Y-44997800D02*
X56267500Y-35210000D01*
X56267500Y-35210000D02*
X58420000Y-33057500D01*
X91440000Y-52070000D02*
X89782500Y-52070000D01*
X86360000Y-57150000D02*
X87717500Y-57150000D01*
X87717500Y-57150000D02*
X87717500Y-54135000D01*
X87717500Y-54135000D02*
X89782500Y-52070000D01*
X86360000Y-64770000D02*
X86360000Y-57150000D01*
%TO.N,Net-(D5-Pad1)*%
X78740000Y-57150000D02*
X78740000Y-55792500D01*
X78740000Y-55792500D02*
X82510000Y-52022500D01*
X82510000Y-52022500D02*
X82510000Y-40640000D01*
%TO.N,Net-(D6-Pad2)*%
X39370000Y-64770000D02*
X39370000Y-61000000D01*
X39370000Y-61000000D02*
X34250000Y-55880000D01*
%TO.N,Net-(D7-Pad1)*%
X78740000Y-64770000D02*
X78740000Y-66127500D01*
X78740000Y-66127500D02*
X82590000Y-69977500D01*
X82590000Y-69977500D02*
X82590000Y-71120000D01*
%TO.N,+12V*%
X62230000Y-55880000D02*
X60572500Y-57537500D01*
X60572500Y-57537500D02*
X60572500Y-72390000D01*
X67310000Y-50800000D02*
X62230000Y-55880000D01*
X67310000Y-38100000D02*
X65157500Y-38100000D01*
X65157500Y-38100000D02*
X63887500Y-39370000D01*
X73660000Y-33057500D02*
X72352500Y-33057500D01*
X72352500Y-33057500D02*
X67310000Y-38100000D01*
X62230000Y-39370000D02*
X63887500Y-39370000D01*
X63887500Y-39370000D02*
X63887500Y-47377500D01*
X63887500Y-47377500D02*
X67310000Y-50800000D01*
X67310000Y-83820000D02*
X67310000Y-108337500D01*
X67310000Y-108337500D02*
X68192500Y-109220000D01*
X67310000Y-83820000D02*
X67310000Y-80304200D01*
X67310000Y-80304200D02*
X63205800Y-76200000D01*
X63205800Y-76200000D02*
X61270100Y-76200000D01*
X61270100Y-76200000D02*
X60572500Y-75502400D01*
X60572500Y-75502400D02*
X60572500Y-72390000D01*
X62230000Y-72390000D02*
X60572500Y-72390000D01*
X69850000Y-109220000D02*
X68192500Y-109220000D01*
X73660000Y-31750000D02*
X73660000Y-33057500D01*
%TO.N,-12V*%
X97402500Y-49530000D02*
X97402500Y-67476700D01*
X97402500Y-67476700D02*
X88048200Y-76831000D01*
X88048200Y-76831000D02*
X88048200Y-104931600D01*
X88048200Y-104931600D02*
X83759800Y-109220000D01*
X83759800Y-109220000D02*
X79127500Y-109220000D01*
X56267500Y-46990000D02*
X57032500Y-46225000D01*
X57032500Y-46225000D02*
X57032500Y-41990000D01*
X57032500Y-41990000D02*
X67272500Y-31750000D01*
X77470000Y-109220000D02*
X79127500Y-109220000D01*
X99060000Y-49530000D02*
X97402500Y-49530000D01*
X54610000Y-46990000D02*
X56267500Y-46990000D01*
X68580000Y-31750000D02*
X67272500Y-31750000D01*
%TO.N,Net-(J3-PadTN)*%
X85010000Y-95250000D02*
X85010000Y-88780000D01*
X85010000Y-88780000D02*
X82590000Y-86360000D01*
%TO.N,Net-(J4-PadTN)*%
X69850000Y-116840000D02*
X71507500Y-116840000D01*
X96440000Y-95250000D02*
X96440000Y-98398100D01*
X96440000Y-98398100D02*
X83451900Y-111386200D01*
X83451900Y-111386200D02*
X81100000Y-111386200D01*
X81100000Y-111386200D02*
X79456200Y-113030000D01*
X79456200Y-113030000D02*
X75317500Y-113030000D01*
X75317500Y-113030000D02*
X71507500Y-116840000D01*
X95210000Y-85090000D02*
X96440000Y-86320000D01*
X96440000Y-86320000D02*
X96440000Y-95250000D01*
%TO.N,Net-(Q1-Pad1)*%
X43180000Y-57150000D02*
X43180000Y-56192500D01*
X43180000Y-56192500D02*
X40640000Y-53652500D01*
X40640000Y-53652500D02*
X40640000Y-48260000D01*
%TO.N,Net-(Q3-Pad2)*%
X55880000Y-66040000D02*
X56878000Y-67038000D01*
X56878000Y-67038000D02*
X56878000Y-74319500D01*
X56878000Y-74319500D02*
X56267500Y-74930000D01*
X54610000Y-74930000D02*
X56267500Y-74930000D01*
%TO.N,Net-(R2-Pad1)*%
X58420000Y-114300000D02*
X58420000Y-113042500D01*
X63500000Y-106680000D02*
X63500000Y-107962500D01*
X63500000Y-107962500D02*
X58420000Y-113042500D01*
%TO.N,Net-(R3-Pad2)*%
X48260000Y-40640000D02*
X48260000Y-39382500D01*
X41910000Y-31750000D02*
X41910000Y-33032500D01*
X41910000Y-33032500D02*
X48260000Y-39382500D01*
%TO.N,Net-(R4-Pad1)*%
X40640000Y-114300000D02*
X41897500Y-114300000D01*
X46990000Y-107950000D02*
X41897500Y-113042500D01*
X41897500Y-113042500D02*
X41897500Y-114300000D01*
%TO.N,Net-(R13-Pad2)*%
X99060000Y-69850000D02*
X99060000Y-68592500D01*
X99060000Y-41910000D02*
X100717500Y-41910000D01*
X100717500Y-41910000D02*
X101348100Y-42540600D01*
X101348100Y-42540600D02*
X101348100Y-66304400D01*
X101348100Y-66304400D02*
X99060000Y-68592500D01*
%TO.N,Net-(R13-Pad1)*%
X91440000Y-69850000D02*
X94501200Y-66788800D01*
X94501200Y-66788800D02*
X94501200Y-47351300D01*
X94501200Y-47351300D02*
X97402500Y-44450000D01*
X99060000Y-44450000D02*
X97402500Y-44450000D01*
%TO.N,Net-(R15-Pad2)*%
X69850000Y-104140000D02*
X71507500Y-104140000D01*
X80090000Y-86360000D02*
X71507500Y-94942500D01*
X71507500Y-94942500D02*
X71507500Y-104140000D01*
%TO.N,Net-(R15-Pad1)*%
X99060000Y-54610000D02*
X100717500Y-54610000D01*
X99060000Y-57150000D02*
X100717500Y-57150000D01*
X100717500Y-57150000D02*
X100717500Y-54610000D01*
%TO.N,Net-(R16-Pad2)*%
X92710000Y-85090000D02*
X89268000Y-88532000D01*
X89268000Y-88532000D02*
X89268000Y-104650100D01*
X89268000Y-104650100D02*
X83428100Y-110490000D01*
X83428100Y-110490000D02*
X75317500Y-110490000D01*
X75317500Y-110490000D02*
X71507500Y-114300000D01*
X69850000Y-114300000D02*
X71507500Y-114300000D01*
X99060000Y-77470000D02*
X99060000Y-78727500D01*
X92710000Y-85090000D02*
X92710000Y-85077500D01*
X92710000Y-85077500D02*
X99060000Y-78727500D01*
%TO.N,Net-(R19-Pad2)*%
X36830000Y-48260000D02*
X36830000Y-49517500D01*
X31750000Y-55880000D02*
X31750000Y-54597500D01*
X31750000Y-54597500D02*
X36830000Y-49517500D01*
%TO.N,Net-(R19-Pad1)*%
X54610000Y-77470000D02*
X52952500Y-77470000D01*
X52952500Y-77470000D02*
X42435700Y-66953200D01*
X42435700Y-66953200D02*
X39621000Y-66953200D01*
X39621000Y-66953200D02*
X29210000Y-56542200D01*
X29210000Y-56542200D02*
X29210000Y-48260000D01*
%TO.N,Net-(R21-Pad2)*%
X86360000Y-80010000D02*
X86360000Y-78752500D01*
X80090000Y-71120000D02*
X80090000Y-72482500D01*
X80090000Y-72482500D02*
X86360000Y-78752500D01*
%TO.N,Net-(R21-Pad1)*%
X93097500Y-44450000D02*
X93097500Y-47558200D01*
X93097500Y-47558200D02*
X92395700Y-48260000D01*
X92395700Y-48260000D02*
X90510700Y-48260000D01*
X90510700Y-48260000D02*
X88915800Y-49854900D01*
X88915800Y-49854900D02*
X88915800Y-50109000D01*
X88915800Y-50109000D02*
X84561900Y-54462900D01*
X84561900Y-54462900D02*
X84561900Y-56437500D01*
X84561900Y-56437500D02*
X77324100Y-63675300D01*
X77324100Y-63675300D02*
X77324100Y-78594100D01*
X77324100Y-78594100D02*
X78740000Y-80010000D01*
X92945000Y-44450000D02*
X93097500Y-44450000D01*
X91440000Y-44450000D02*
X92945000Y-44450000D01*
X91440000Y-41910000D02*
X93097500Y-41910000D01*
X93097500Y-41910000D02*
X93097500Y-44450000D01*
%TO.N,Net-(RV4-Pad2)*%
X71160000Y-90170000D02*
X76500800Y-84829200D01*
X76500800Y-84829200D02*
X76500800Y-62006200D01*
X76500800Y-62006200D02*
X83895400Y-54611600D01*
X83895400Y-54611600D02*
X83895400Y-51485100D01*
X83895400Y-51485100D02*
X88390500Y-46990000D01*
X88390500Y-46990000D02*
X91440000Y-46990000D01*
%TO.N,Net-(RV4-Pad1)*%
X62230000Y-74930000D02*
X63887500Y-74930000D01*
X68660000Y-90170000D02*
X68660000Y-79702500D01*
X68660000Y-79702500D02*
X63887500Y-74930000D01*
%TO.N,Net-(D2-Pad2)*%
X82550000Y-105410000D02*
X80010000Y-107950000D01*
X80010000Y-107950000D02*
X76493100Y-107950000D01*
X76493100Y-107950000D02*
X71413200Y-113029900D01*
X71413200Y-113029900D02*
X66027600Y-113029900D01*
X66027600Y-113029900D02*
X64757500Y-114300000D01*
X63500000Y-114300000D02*
X64757500Y-114300000D01*
%TD*%
M02*
