%TF.GenerationSoftware,KiCad,Pcbnew,(5.1.12)-1*%
%TF.CreationDate,2021-11-26T16:20:00-08:00*%
%TF.ProjectId,adsr_envelope,61647372-5f65-46e7-9665-6c6f70652e6b,rev?*%
%TF.SameCoordinates,Original*%
%TF.FileFunction,Soldermask,Top*%
%TF.FilePolarity,Negative*%
%FSLAX46Y46*%
G04 Gerber Fmt 4.6, Leading zero omitted, Abs format (unit mm)*
G04 Created by KiCad (PCBNEW (5.1.12)-1) date 2021-11-26 16:20:00*
%MOMM*%
%LPD*%
G01*
G04 APERTURE LIST*
%ADD10O,1.600000X1.600000*%
%ADD11C,1.600000*%
%ADD12C,1.800000*%
%ADD13R,1.800000X1.800000*%
%ADD14O,2.400000X1.600000*%
%ADD15R,2.400000X1.600000*%
%ADD16O,1.700000X1.700000*%
%ADD17R,1.700000X1.700000*%
%ADD18C,1.700000*%
%ADD19R,1.800000X1.100000*%
%ADD20R,1.100000X1.800000*%
%ADD21O,1.800000X1.800000*%
%ADD22R,1.600000X1.600000*%
G04 APERTURE END LIST*
D10*
%TO.C,R22*%
X22633900Y-45496500D03*
D11*
X22633900Y-37876500D03*
%TD*%
D12*
%TO.C,D8*%
X23855700Y-50919400D03*
D13*
X21315700Y-50919400D03*
%TD*%
D14*
%TO.C,U4*%
X62230000Y-72390000D03*
X54610000Y-80010000D03*
X62230000Y-74930000D03*
X54610000Y-77470000D03*
X62230000Y-77470000D03*
X54610000Y-74930000D03*
X62230000Y-80010000D03*
D15*
X54610000Y-72390000D03*
%TD*%
D14*
%TO.C,U3*%
X99060000Y-41910000D03*
X91440000Y-57150000D03*
X99060000Y-44450000D03*
X91440000Y-54610000D03*
X99060000Y-46990000D03*
X91440000Y-52070000D03*
X99060000Y-49530000D03*
X91440000Y-49530000D03*
X99060000Y-52070000D03*
X91440000Y-46990000D03*
X99060000Y-54610000D03*
X91440000Y-44450000D03*
X99060000Y-57150000D03*
D15*
X91440000Y-41910000D03*
%TD*%
D14*
%TO.C,U2*%
X62230000Y-39370000D03*
X54610000Y-46990000D03*
X62230000Y-41910000D03*
X54610000Y-44450000D03*
X62230000Y-44450000D03*
X54610000Y-41910000D03*
X62230000Y-46990000D03*
D15*
X54610000Y-39370000D03*
%TD*%
D14*
%TO.C,U1*%
X77470000Y-101600000D03*
X69850000Y-116840000D03*
X77470000Y-104140000D03*
X69850000Y-114300000D03*
X77470000Y-106680000D03*
X69850000Y-111760000D03*
X77470000Y-109220000D03*
X69850000Y-109220000D03*
X77470000Y-111760000D03*
X69850000Y-106680000D03*
X77470000Y-114300000D03*
X69850000Y-104140000D03*
X77470000Y-116840000D03*
D15*
X69850000Y-101600000D03*
%TD*%
D16*
%TO.C,SW2*%
X31750000Y-88900000D03*
X31750000Y-86360000D03*
X31750000Y-83820000D03*
X31750000Y-81280000D03*
X31750000Y-78740000D03*
X31750000Y-76200000D03*
X31750000Y-73660000D03*
X31750000Y-71120000D03*
X31750000Y-68580000D03*
D17*
X31750000Y-66040000D03*
%TD*%
D16*
%TO.C,SW1*%
X60960000Y-31750000D03*
X58420000Y-31750000D03*
D17*
X55880000Y-31750000D03*
%TD*%
D18*
%TO.C,RV7*%
X85090000Y-71120000D03*
X82590000Y-71120000D03*
X80090000Y-71120000D03*
%TD*%
%TO.C,RV6*%
X36750000Y-55880000D03*
X34250000Y-55880000D03*
X31750000Y-55880000D03*
%TD*%
%TO.C,RV5*%
X85010000Y-40640000D03*
X82510000Y-40640000D03*
X80010000Y-40640000D03*
%TD*%
%TO.C,RV4*%
X73660000Y-90170000D03*
X71160000Y-90170000D03*
X68660000Y-90170000D03*
%TD*%
%TO.C,RV3*%
X97710000Y-85090000D03*
X95210000Y-85090000D03*
X92710000Y-85090000D03*
%TD*%
%TO.C,RV2*%
X85090000Y-86360000D03*
X82590000Y-86360000D03*
X80090000Y-86360000D03*
%TD*%
%TO.C,RV1*%
X46910000Y-31750000D03*
X44410000Y-31750000D03*
X41910000Y-31750000D03*
%TD*%
D10*
%TO.C,R21*%
X86360000Y-80010000D03*
D11*
X78740000Y-80010000D03*
%TD*%
D10*
%TO.C,R20*%
X74930000Y-83820000D03*
D11*
X67310000Y-83820000D03*
%TD*%
D10*
%TO.C,R19*%
X36830000Y-48260000D03*
D11*
X29210000Y-48260000D03*
%TD*%
D10*
%TO.C,R18*%
X86360000Y-50800000D03*
D11*
X78740000Y-50800000D03*
%TD*%
D10*
%TO.C,R17*%
X62230000Y-63500000D03*
D11*
X62230000Y-55880000D03*
%TD*%
D10*
%TO.C,R16*%
X99060000Y-77470000D03*
D11*
X91440000Y-77470000D03*
%TD*%
D10*
%TO.C,R15*%
X58420000Y-107950000D03*
D11*
X50800000Y-107950000D03*
%TD*%
D10*
%TO.C,R14*%
X67310000Y-71120000D03*
D11*
X74930000Y-71120000D03*
%TD*%
D10*
%TO.C,R13*%
X99060000Y-69850000D03*
D11*
X91440000Y-69850000D03*
%TD*%
D10*
%TO.C,R12*%
X74930000Y-50800000D03*
D11*
X67310000Y-50800000D03*
%TD*%
D10*
%TO.C,R11*%
X99060000Y-63500000D03*
D11*
X91440000Y-63500000D03*
%TD*%
D10*
%TO.C,R10*%
X74930000Y-44450000D03*
D11*
X67310000Y-44450000D03*
%TD*%
D10*
%TO.C,R9*%
X74930000Y-38100000D03*
D11*
X67310000Y-38100000D03*
%TD*%
D10*
%TO.C,R8*%
X81280000Y-113030000D03*
D11*
X88900000Y-113030000D03*
%TD*%
D10*
%TO.C,R7*%
X40640000Y-114300000D03*
D11*
X48260000Y-114300000D03*
%TD*%
D10*
%TO.C,R6*%
X48260000Y-48260000D03*
D11*
X40640000Y-48260000D03*
%TD*%
D10*
%TO.C,R5*%
X58420000Y-114300000D03*
D11*
X50800000Y-114300000D03*
%TD*%
D10*
%TO.C,R4*%
X39370000Y-107950000D03*
D11*
X46990000Y-107950000D03*
%TD*%
D10*
%TO.C,R3*%
X48260000Y-40640000D03*
D11*
X40640000Y-40640000D03*
%TD*%
D10*
%TO.C,R2*%
X63500000Y-114300000D03*
D11*
X63500000Y-106680000D03*
%TD*%
D10*
%TO.C,R1*%
X27940000Y-107950000D03*
D11*
X35560000Y-107950000D03*
%TD*%
D19*
%TO.C,Q3*%
X54210000Y-64770000D03*
G36*
G01*
X53585000Y-66760000D02*
X54835000Y-66760000D01*
G75*
G02*
X55110000Y-67035000I0J-275000D01*
G01*
X55110000Y-67585000D01*
G75*
G02*
X54835000Y-67860000I-275000J0D01*
G01*
X53585000Y-67860000D01*
G75*
G02*
X53310000Y-67585000I0J275000D01*
G01*
X53310000Y-67035000D01*
G75*
G02*
X53585000Y-66760000I275000J0D01*
G01*
G37*
G36*
G01*
X55655000Y-65490000D02*
X56905000Y-65490000D01*
G75*
G02*
X57180000Y-65765000I0J-275000D01*
G01*
X57180000Y-66315000D01*
G75*
G02*
X56905000Y-66590000I-275000J0D01*
G01*
X55655000Y-66590000D01*
G75*
G02*
X55380000Y-66315000I0J275000D01*
G01*
X55380000Y-65765000D01*
G75*
G02*
X55655000Y-65490000I275000J0D01*
G01*
G37*
%TD*%
%TO.C,Q2*%
X54210000Y-55880000D03*
G36*
G01*
X53585000Y-57870000D02*
X54835000Y-57870000D01*
G75*
G02*
X55110000Y-58145000I0J-275000D01*
G01*
X55110000Y-58695000D01*
G75*
G02*
X54835000Y-58970000I-275000J0D01*
G01*
X53585000Y-58970000D01*
G75*
G02*
X53310000Y-58695000I0J275000D01*
G01*
X53310000Y-58145000D01*
G75*
G02*
X53585000Y-57870000I275000J0D01*
G01*
G37*
G36*
G01*
X55655000Y-56600000D02*
X56905000Y-56600000D01*
G75*
G02*
X57180000Y-56875000I0J-275000D01*
G01*
X57180000Y-57425000D01*
G75*
G02*
X56905000Y-57700000I-275000J0D01*
G01*
X55655000Y-57700000D01*
G75*
G02*
X55380000Y-57425000I0J275000D01*
G01*
X55380000Y-56875000D01*
G75*
G02*
X55655000Y-56600000I275000J0D01*
G01*
G37*
%TD*%
D20*
%TO.C,Q1*%
X43180000Y-57550000D03*
G36*
G01*
X45170000Y-58175000D02*
X45170000Y-56925000D01*
G75*
G02*
X45445000Y-56650000I275000J0D01*
G01*
X45995000Y-56650000D01*
G75*
G02*
X46270000Y-56925000I0J-275000D01*
G01*
X46270000Y-58175000D01*
G75*
G02*
X45995000Y-58450000I-275000J0D01*
G01*
X45445000Y-58450000D01*
G75*
G02*
X45170000Y-58175000I0J275000D01*
G01*
G37*
G36*
G01*
X43900000Y-56105000D02*
X43900000Y-54855000D01*
G75*
G02*
X44175000Y-54580000I275000J0D01*
G01*
X44725000Y-54580000D01*
G75*
G02*
X45000000Y-54855000I0J-275000D01*
G01*
X45000000Y-56105000D01*
G75*
G02*
X44725000Y-56380000I-275000J0D01*
G01*
X44175000Y-56380000D01*
G75*
G02*
X43900000Y-56105000I0J275000D01*
G01*
G37*
%TD*%
D18*
%TO.C,J4*%
X96440000Y-95250000D03*
X93940000Y-95250000D03*
X91440000Y-95250000D03*
%TD*%
%TO.C,J3*%
X85010000Y-95250000D03*
X82510000Y-95250000D03*
X80010000Y-95250000D03*
%TD*%
D16*
%TO.C,J2*%
X76200000Y-31750000D03*
X73660000Y-31750000D03*
X71120000Y-31750000D03*
D17*
X68580000Y-31750000D03*
%TD*%
D18*
%TO.C,J1*%
X35480000Y-31750000D03*
X32980000Y-31750000D03*
X30480000Y-31750000D03*
%TD*%
D21*
%TO.C,D7*%
X86360000Y-64770000D03*
D13*
X78740000Y-64770000D03*
%TD*%
D21*
%TO.C,D6*%
X39370000Y-64770000D03*
D13*
X46990000Y-64770000D03*
%TD*%
D21*
%TO.C,D5*%
X86360000Y-57150000D03*
D13*
X78740000Y-57150000D03*
%TD*%
D21*
%TO.C,D4*%
X67310000Y-64770000D03*
D13*
X74930000Y-64770000D03*
%TD*%
D21*
%TO.C,D3*%
X38100000Y-40640000D03*
D13*
X30480000Y-40640000D03*
%TD*%
D12*
%TO.C,D2*%
X82550000Y-105410000D03*
D13*
X85090000Y-105410000D03*
%TD*%
D12*
%TO.C,D1*%
X34290000Y-114300000D03*
D13*
X36830000Y-114300000D03*
%TD*%
D11*
%TO.C,C10*%
X63460000Y-99060000D03*
D22*
X60960000Y-99060000D03*
%TD*%
D11*
%TO.C,C9*%
X54570000Y-99060000D03*
D22*
X52070000Y-99060000D03*
%TD*%
D11*
%TO.C,C8*%
X63460000Y-88900000D03*
D22*
X60960000Y-88900000D03*
%TD*%
D11*
%TO.C,C7*%
X54570000Y-88900000D03*
D22*
X52070000Y-88900000D03*
%TD*%
D11*
%TO.C,C6*%
X32980000Y-97790000D03*
D22*
X30480000Y-97790000D03*
%TD*%
D11*
%TO.C,C5*%
X44410000Y-97790000D03*
D22*
X41910000Y-97790000D03*
%TD*%
D11*
%TO.C,C4*%
X44410000Y-86360000D03*
D22*
X41910000Y-86360000D03*
%TD*%
D11*
%TO.C,C3*%
X44410000Y-74930000D03*
D22*
X41910000Y-74930000D03*
%TD*%
D11*
%TO.C,C2*%
X73580000Y-77470000D03*
X68580000Y-77470000D03*
%TD*%
%TO.C,C1*%
X73580000Y-57150000D03*
X68580000Y-57150000D03*
%TD*%
M02*
