%TF.GenerationSoftware,KiCad,Pcbnew,(5.1.12)-1*%
%TF.CreationDate,2021-11-26T16:42:30-08:00*%
%TF.ProjectId,VCF,5643462e-6b69-4636-9164-5f7063625858,rev?*%
%TF.SameCoordinates,Original*%
%TF.FileFunction,Soldermask,Bot*%
%TF.FilePolarity,Negative*%
%FSLAX46Y46*%
G04 Gerber Fmt 4.6, Leading zero omitted, Abs format (unit mm)*
G04 Created by KiCad (PCBNEW (5.1.12)-1) date 2021-11-26 16:42:30*
%MOMM*%
%LPD*%
G01*
G04 APERTURE LIST*
%ADD10C,1.700000*%
%ADD11O,1.600000X1.600000*%
%ADD12C,1.600000*%
%ADD13O,1.700000X1.700000*%
%ADD14R,1.700000X1.700000*%
%ADD15O,2.400000X1.600000*%
%ADD16R,2.400000X1.600000*%
G04 APERTURE END LIST*
D10*
%TO.C,RV12*%
X65960000Y-74930000D03*
X63460000Y-74930000D03*
X60960000Y-74930000D03*
%TD*%
%TO.C,RV11*%
X66000000Y-44450000D03*
X63500000Y-44450000D03*
X61000000Y-44450000D03*
%TD*%
%TO.C,RV10*%
X77390000Y-97790000D03*
X74890000Y-97790000D03*
X72390000Y-97790000D03*
%TD*%
%TO.C,RV9*%
X77390000Y-90170000D03*
X74890000Y-90170000D03*
X72390000Y-90170000D03*
%TD*%
%TO.C,RV8*%
X77390000Y-82550000D03*
X74890000Y-82550000D03*
X72390000Y-82550000D03*
%TD*%
%TO.C,RV7*%
X66040000Y-106680000D03*
X63540000Y-106680000D03*
X61040000Y-106680000D03*
%TD*%
%TO.C,RV6*%
X107870000Y-69850000D03*
X105370000Y-69850000D03*
X102870000Y-69850000D03*
%TD*%
%TO.C,RV5*%
X98980000Y-69850000D03*
X96480000Y-69850000D03*
X93980000Y-69850000D03*
%TD*%
%TO.C,RV4*%
X77390000Y-66040000D03*
X74890000Y-66040000D03*
X72390000Y-66040000D03*
%TD*%
%TO.C,RV3*%
X77390000Y-58420000D03*
X74890000Y-58420000D03*
X72390000Y-58420000D03*
%TD*%
%TO.C,RV2*%
X77390000Y-50800000D03*
X74890000Y-50800000D03*
X72390000Y-50800000D03*
%TD*%
%TO.C,Fine Tune 1*%
X88820000Y-73660000D03*
X86320000Y-73660000D03*
X83820000Y-73660000D03*
%TD*%
%TO.C,J7*%
X65960000Y-97790000D03*
X63460000Y-97790000D03*
X60960000Y-97790000D03*
%TD*%
%TO.C,J6*%
X65960000Y-90170000D03*
X63460000Y-90170000D03*
X60960000Y-90170000D03*
%TD*%
%TO.C,J5*%
X66000000Y-82550000D03*
X63500000Y-82550000D03*
X61000000Y-82550000D03*
%TD*%
%TO.C,J3*%
X65960000Y-52070000D03*
X63460000Y-52070000D03*
X60960000Y-52070000D03*
%TD*%
%TO.C,J2*%
X66000000Y-59690000D03*
X63500000Y-59690000D03*
X61000000Y-59690000D03*
%TD*%
%TO.C,J1*%
X66000000Y-67310000D03*
X63500000Y-67310000D03*
X61000000Y-67310000D03*
%TD*%
D11*
%TO.C,R20*%
X78740000Y-74930000D03*
D12*
X71120000Y-74930000D03*
%TD*%
D11*
%TO.C,R19*%
X78740000Y-44450000D03*
D12*
X71120000Y-44450000D03*
%TD*%
D13*
%TO.C,J8*%
X120650000Y-53340000D03*
X120650000Y-50800000D03*
X120650000Y-48260000D03*
D14*
X120650000Y-45720000D03*
%TD*%
D15*
%TO.C,U2*%
X111760000Y-107950000D03*
X104140000Y-123190000D03*
X111760000Y-110490000D03*
X104140000Y-120650000D03*
X111760000Y-113030000D03*
X104140000Y-118110000D03*
X111760000Y-115570000D03*
X104140000Y-115570000D03*
X111760000Y-118110000D03*
X104140000Y-113030000D03*
X111760000Y-120650000D03*
X104140000Y-110490000D03*
X111760000Y-123190000D03*
D16*
X104140000Y-107950000D03*
%TD*%
D15*
%TO.C,U1*%
X111760000Y-44450000D03*
X104140000Y-59690000D03*
X111760000Y-46990000D03*
X104140000Y-57150000D03*
X111760000Y-49530000D03*
X104140000Y-54610000D03*
X111760000Y-52070000D03*
X104140000Y-52070000D03*
X111760000Y-54610000D03*
X104140000Y-49530000D03*
X111760000Y-57150000D03*
X104140000Y-46990000D03*
X111760000Y-59690000D03*
D16*
X104140000Y-44450000D03*
%TD*%
D11*
%TO.C,R18*%
X90170000Y-105410000D03*
D12*
X82550000Y-105410000D03*
%TD*%
D11*
%TO.C,R17*%
X82550000Y-113030000D03*
D12*
X90170000Y-113030000D03*
%TD*%
D11*
%TO.C,R16*%
X82550000Y-97790000D03*
D12*
X90170000Y-97790000D03*
%TD*%
D11*
%TO.C,R15*%
X82550000Y-90170000D03*
D12*
X90170000Y-90170000D03*
%TD*%
D11*
%TO.C,R14*%
X82550000Y-82550000D03*
D12*
X90170000Y-82550000D03*
%TD*%
D11*
%TO.C,R13*%
X90170000Y-66040000D03*
D12*
X82550000Y-66040000D03*
%TD*%
D11*
%TO.C,R12*%
X116840000Y-63500000D03*
D12*
X116840000Y-71120000D03*
%TD*%
D11*
%TO.C,R11*%
X93980000Y-97790000D03*
D12*
X101600000Y-97790000D03*
%TD*%
D11*
%TO.C,R10*%
X71120000Y-105410000D03*
D12*
X78740000Y-105410000D03*
%TD*%
D11*
%TO.C,R9*%
X100330000Y-50800000D03*
D12*
X92710000Y-50800000D03*
%TD*%
D11*
%TO.C,R8*%
X101600000Y-85090000D03*
D12*
X93980000Y-85090000D03*
%TD*%
D11*
%TO.C,R7*%
X82550000Y-57150000D03*
D12*
X90170000Y-57150000D03*
%TD*%
D11*
%TO.C,R6*%
X82550000Y-50800000D03*
D12*
X90170000Y-50800000D03*
%TD*%
D11*
%TO.C,R5*%
X82550000Y-44450000D03*
D12*
X90170000Y-44450000D03*
%TD*%
D11*
%TO.C,R4*%
X101600000Y-78740000D03*
D12*
X93980000Y-78740000D03*
%TD*%
D11*
%TO.C,R3*%
X92710000Y-44450000D03*
D12*
X100330000Y-44450000D03*
%TD*%
D11*
%TO.C,R2*%
X100330000Y-63500000D03*
D12*
X92710000Y-63500000D03*
%TD*%
D11*
%TO.C,R1*%
X92710000Y-57150000D03*
D12*
X100330000Y-57150000D03*
%TD*%
D15*
%TO.C,Q1*%
X114300000Y-83820000D03*
X106680000Y-99060000D03*
X114300000Y-86360000D03*
X106680000Y-96520000D03*
X114300000Y-88900000D03*
X106680000Y-93980000D03*
X114300000Y-91440000D03*
X106680000Y-91440000D03*
X114300000Y-93980000D03*
X106680000Y-88900000D03*
X114300000Y-96520000D03*
X106680000Y-86360000D03*
X114300000Y-99060000D03*
D16*
X106680000Y-83820000D03*
%TD*%
D13*
%TO.C,J4*%
X113030000Y-74930000D03*
D14*
X115570000Y-74930000D03*
%TD*%
D12*
%TO.C,C2*%
X76160000Y-113030000D03*
X73660000Y-113030000D03*
%TD*%
%TO.C,C1*%
X96520000Y-90210000D03*
X96520000Y-92710000D03*
%TD*%
M02*
