M48
METRIC
T1C0.800
T2C1.000
%
G90
G05
T1
X71.12Y-44.45
X71.12Y-74.93
X71.12Y-105.41
X73.66Y-113.03
X76.16Y-113.03
X78.74Y-44.45
X78.74Y-74.93
X78.74Y-105.41
X82.55Y-44.45
X82.55Y-50.8
X82.55Y-57.15
X82.55Y-66.04
X82.55Y-82.55
X82.55Y-90.17
X82.55Y-97.79
X82.55Y-105.41
X82.55Y-113.03
X90.17Y-44.45
X90.17Y-50.8
X90.17Y-57.15
X90.17Y-66.04
X90.17Y-82.55
X90.17Y-90.17
X90.17Y-97.79
X90.17Y-105.41
X90.17Y-113.03
X92.71Y-44.45
X92.71Y-50.8
X92.71Y-57.15
X92.71Y-63.5
X93.98Y-78.74
X93.98Y-85.09
X93.98Y-97.79
X96.52Y-90.21
X96.52Y-92.71
X100.33Y-44.45
X100.33Y-50.8
X100.33Y-57.15
X100.33Y-63.5
X101.6Y-78.74
X101.6Y-85.09
X101.6Y-97.79
X104.14Y-44.45
X104.14Y-46.99
X104.14Y-49.53
X104.14Y-52.07
X104.14Y-54.61
X104.14Y-57.15
X104.14Y-59.69
X104.14Y-107.95
X104.14Y-110.49
X104.14Y-113.03
X104.14Y-115.57
X104.14Y-118.11
X104.14Y-120.65
X104.14Y-123.19
X106.68Y-83.82
X106.68Y-86.36
X106.68Y-88.9
X106.68Y-91.44
X106.68Y-93.98
X106.68Y-96.52
X106.68Y-99.06
X111.76Y-44.45
X111.76Y-46.99
X111.76Y-49.53
X111.76Y-52.07
X111.76Y-54.61
X111.76Y-57.15
X111.76Y-59.69
X111.76Y-107.95
X111.76Y-110.49
X111.76Y-113.03
X111.76Y-115.57
X111.76Y-118.11
X111.76Y-120.65
X111.76Y-123.19
X114.3Y-83.82
X114.3Y-86.36
X114.3Y-88.9
X114.3Y-91.44
X114.3Y-93.98
X114.3Y-96.52
X114.3Y-99.06
X116.84Y-63.5
X116.84Y-71.12
T2
X60.96Y-52.07
X60.96Y-74.93
X60.96Y-90.17
X60.96Y-97.79
X61.0Y-44.45
X61.0Y-59.69
X61.0Y-67.31
X61.0Y-82.55
X61.04Y-106.68
X63.46Y-52.07
X63.46Y-74.93
X63.46Y-90.17
X63.46Y-97.79
X63.5Y-44.45
X63.5Y-59.69
X63.5Y-67.31
X63.5Y-82.55
X63.54Y-106.68
X65.96Y-52.07
X65.96Y-74.93
X65.96Y-90.17
X65.96Y-97.79
X66.0Y-44.45
X66.0Y-59.69
X66.0Y-67.31
X66.0Y-82.55
X66.04Y-106.68
X72.39Y-50.8
X72.39Y-58.42
X72.39Y-66.04
X72.39Y-82.55
X72.39Y-90.17
X72.39Y-97.79
X74.89Y-50.8
X74.89Y-58.42
X74.89Y-66.04
X74.89Y-82.55
X74.89Y-90.17
X74.89Y-97.79
X77.39Y-50.8
X77.39Y-58.42
X77.39Y-66.04
X77.39Y-82.55
X77.39Y-90.17
X77.39Y-97.79
X83.82Y-73.66
X86.32Y-73.66
X88.82Y-73.66
X93.98Y-69.85
X96.48Y-69.85
X98.98Y-69.85
X102.87Y-69.85
X105.37Y-69.85
X107.87Y-69.85
X113.03Y-74.93
X115.57Y-74.93
X120.65Y-45.72
X120.65Y-48.26
X120.65Y-50.8
X120.65Y-53.34
T0
M30
