%TF.GenerationSoftware,KiCad,Pcbnew,(5.1.12)-1*%
%TF.CreationDate,2021-11-26T16:15:13-08:00*%
%TF.ProjectId,VCF,5643462e-6b69-4636-9164-5f7063625858,rev?*%
%TF.SameCoordinates,Original*%
%TF.FileFunction,Copper,L2,Bot*%
%TF.FilePolarity,Positive*%
%FSLAX46Y46*%
G04 Gerber Fmt 4.6, Leading zero omitted, Abs format (unit mm)*
G04 Created by KiCad (PCBNEW (5.1.12)-1) date 2021-11-26 16:15:13*
%MOMM*%
%LPD*%
G01*
G04 APERTURE LIST*
%TA.AperFunction,ComponentPad*%
%ADD10C,1.700000*%
%TD*%
%TA.AperFunction,ComponentPad*%
%ADD11O,1.600000X1.600000*%
%TD*%
%TA.AperFunction,ComponentPad*%
%ADD12C,1.600000*%
%TD*%
%TA.AperFunction,ComponentPad*%
%ADD13O,1.700000X1.700000*%
%TD*%
%TA.AperFunction,ComponentPad*%
%ADD14R,1.700000X1.700000*%
%TD*%
%TA.AperFunction,ComponentPad*%
%ADD15O,2.400000X1.600000*%
%TD*%
%TA.AperFunction,ComponentPad*%
%ADD16R,2.400000X1.600000*%
%TD*%
%TA.AperFunction,Conductor*%
%ADD17C,0.304800*%
%TD*%
G04 APERTURE END LIST*
D10*
%TO.P,RV12,3*%
%TO.N,GND*%
X65960000Y-74930000D03*
%TO.P,RV12,2*%
%TO.N,Net-(R20-Pad1)*%
X63460000Y-74930000D03*
%TO.P,RV12,1*%
%TO.N,+12V*%
X60960000Y-74930000D03*
%TD*%
%TO.P,RV11,3*%
%TO.N,GND*%
X66000000Y-44450000D03*
%TO.P,RV11,2*%
%TO.N,Net-(R19-Pad1)*%
X63500000Y-44450000D03*
%TO.P,RV11,1*%
%TO.N,+12V*%
X61000000Y-44450000D03*
%TD*%
%TO.P,RV10,3*%
%TO.N,GND*%
X77390000Y-97790000D03*
%TO.P,RV10,2*%
%TO.N,Net-(R16-Pad2)*%
X74890000Y-97790000D03*
%TO.P,RV10,1*%
%TO.N,Net-(J7-PadTN)*%
X72390000Y-97790000D03*
%TD*%
%TO.P,RV9,3*%
%TO.N,GND*%
X77390000Y-90170000D03*
%TO.P,RV9,2*%
%TO.N,Net-(R15-Pad2)*%
X74890000Y-90170000D03*
%TO.P,RV9,1*%
%TO.N,Net-(J6-PadTN)*%
X72390000Y-90170000D03*
%TD*%
%TO.P,RV8,3*%
%TO.N,GND*%
X77390000Y-82550000D03*
%TO.P,RV8,2*%
%TO.N,Net-(R14-Pad2)*%
X74890000Y-82550000D03*
%TO.P,RV8,1*%
%TO.N,Net-(J5-PadTN)*%
X72390000Y-82550000D03*
%TD*%
%TO.P,RV7,3*%
%TO.N,Net-(R13-Pad2)*%
X66040000Y-106680000D03*
%TO.P,RV7,2*%
%TO.N,Net-(Q1-Pad13)*%
X63540000Y-106680000D03*
%TO.P,RV7,1*%
%TO.N,Net-(R17-Pad1)*%
X61040000Y-106680000D03*
%TD*%
%TO.P,RV6,3*%
%TO.N,-12V*%
X107870000Y-69850000D03*
%TO.P,RV6,2*%
%TO.N,Net-(R12-Pad2)*%
X105370000Y-69850000D03*
%TO.P,RV6,1*%
%TO.N,GND*%
X102870000Y-69850000D03*
%TD*%
%TO.P,RV5,3*%
%TO.N,-12V*%
X98980000Y-69850000D03*
%TO.P,RV5,2*%
%TO.N,Net-(R4-Pad2)*%
X96480000Y-69850000D03*
%TO.P,RV5,1*%
%TO.N,GND*%
X93980000Y-69850000D03*
%TD*%
%TO.P,RV4,3*%
%TO.N,GND*%
X77390000Y-66040000D03*
%TO.P,RV4,2*%
%TO.N,Net-(R7-Pad2)*%
X74890000Y-66040000D03*
%TO.P,RV4,1*%
%TO.N,Net-(J1-PadTN)*%
X72390000Y-66040000D03*
%TD*%
%TO.P,RV3,3*%
%TO.N,GND*%
X77390000Y-58420000D03*
%TO.P,RV3,2*%
%TO.N,Net-(R6-Pad2)*%
X74890000Y-58420000D03*
%TO.P,RV3,1*%
%TO.N,Net-(J2-PadTN)*%
X72390000Y-58420000D03*
%TD*%
%TO.P,RV2,3*%
%TO.N,GND*%
X77390000Y-50800000D03*
%TO.P,RV2,2*%
%TO.N,Net-(R5-Pad2)*%
X74890000Y-50800000D03*
%TO.P,RV2,1*%
%TO.N,Net-(J3-PadTN)*%
X72390000Y-50800000D03*
%TD*%
%TO.P,Fine Tune 1,3*%
%TO.N,Net-(R3-Pad2)*%
X88820000Y-73660000D03*
%TO.P,Fine Tune 1,2*%
%TO.N,Net-(Q1-Pad2)*%
X86320000Y-73660000D03*
%TO.P,Fine Tune 1,1*%
%TO.N,Net-(R2-Pad1)*%
X83820000Y-73660000D03*
%TD*%
%TO.P,J7,TN*%
%TO.N,Net-(J7-PadTN)*%
X65960000Y-97790000D03*
%TO.P,J7,T*%
%TO.N,GND*%
X63460000Y-97790000D03*
%TO.P,J7,S*%
X60960000Y-97790000D03*
%TD*%
%TO.P,J6,TN*%
%TO.N,Net-(J6-PadTN)*%
X65960000Y-90170000D03*
%TO.P,J6,T*%
%TO.N,GND*%
X63460000Y-90170000D03*
%TO.P,J6,S*%
X60960000Y-90170000D03*
%TD*%
%TO.P,J5,TN*%
%TO.N,Net-(J5-PadTN)*%
X66000000Y-82550000D03*
%TO.P,J5,T*%
%TO.N,GND*%
X63500000Y-82550000D03*
%TO.P,J5,S*%
X61000000Y-82550000D03*
%TD*%
%TO.P,J3,TN*%
%TO.N,Net-(J3-PadTN)*%
X65960000Y-52070000D03*
%TO.P,J3,T*%
%TO.N,GND*%
X63460000Y-52070000D03*
%TO.P,J3,S*%
X60960000Y-52070000D03*
%TD*%
%TO.P,J2,TN*%
%TO.N,Net-(J2-PadTN)*%
X66000000Y-59690000D03*
%TO.P,J2,T*%
%TO.N,GND*%
X63500000Y-59690000D03*
%TO.P,J2,S*%
X61000000Y-59690000D03*
%TD*%
%TO.P,J1,TN*%
%TO.N,Net-(J1-PadTN)*%
X66000000Y-67310000D03*
%TO.P,J1,T*%
%TO.N,GND*%
X63500000Y-67310000D03*
%TO.P,J1,S*%
X61000000Y-67310000D03*
%TD*%
D11*
%TO.P,R20,2*%
%TO.N,Net-(R11-Pad2)*%
X78740000Y-74930000D03*
D12*
%TO.P,R20,1*%
%TO.N,Net-(R20-Pad1)*%
X71120000Y-74930000D03*
%TD*%
D11*
%TO.P,R19,2*%
%TO.N,Net-(R19-Pad2)*%
X78740000Y-44450000D03*
D12*
%TO.P,R19,1*%
%TO.N,Net-(R19-Pad1)*%
X71120000Y-44450000D03*
%TD*%
D13*
%TO.P,J8,4*%
%TO.N,+5V*%
X120650000Y-53340000D03*
%TO.P,J8,3*%
%TO.N,+12V*%
X120650000Y-50800000D03*
%TO.P,J8,2*%
%TO.N,GND*%
X120650000Y-48260000D03*
D14*
%TO.P,J8,1*%
%TO.N,-12V*%
X120650000Y-45720000D03*
%TD*%
D15*
%TO.P,U2,14*%
%TO.N,N/C*%
X111760000Y-107950000D03*
%TO.P,U2,7*%
%TO.N,Net-(R17-Pad1)*%
X104140000Y-123190000D03*
%TO.P,U2,13*%
%TO.N,N/C*%
X111760000Y-110490000D03*
%TO.P,U2,6*%
%TO.N,Net-(R17-Pad2)*%
X104140000Y-120650000D03*
%TO.P,U2,12*%
%TO.N,N/C*%
X111760000Y-113030000D03*
%TO.P,U2,5*%
%TO.N,GND*%
X104140000Y-118110000D03*
%TO.P,U2,11*%
%TO.N,-12V*%
X111760000Y-115570000D03*
%TO.P,U2,4*%
%TO.N,+12V*%
X104140000Y-115570000D03*
%TO.P,U2,10*%
%TO.N,GND*%
X111760000Y-118110000D03*
%TO.P,U2,3*%
X104140000Y-113030000D03*
%TO.P,U2,9*%
%TO.N,Net-(C2-Pad2)*%
X111760000Y-120650000D03*
%TO.P,U2,2*%
%TO.N,Net-(R11-Pad2)*%
X104140000Y-110490000D03*
%TO.P,U2,8*%
%TO.N,Net-(C2-Pad1)*%
X111760000Y-123190000D03*
D16*
%TO.P,U2,1*%
%TO.N,Net-(R11-Pad1)*%
X104140000Y-107950000D03*
%TD*%
D15*
%TO.P,U1,14*%
%TO.N,N/C*%
X111760000Y-44450000D03*
%TO.P,U1,7*%
%TO.N,Net-(R2-Pad1)*%
X104140000Y-59690000D03*
%TO.P,U1,13*%
%TO.N,N/C*%
X111760000Y-46990000D03*
%TO.P,U1,6*%
%TO.N,Net-(R1-Pad1)*%
X104140000Y-57150000D03*
%TO.P,U1,12*%
%TO.N,N/C*%
X111760000Y-49530000D03*
%TO.P,U1,5*%
%TO.N,GND*%
X104140000Y-54610000D03*
%TO.P,U1,11*%
%TO.N,-12V*%
X111760000Y-52070000D03*
%TO.P,U1,4*%
%TO.N,+12V*%
X104140000Y-52070000D03*
%TO.P,U1,10*%
%TO.N,GND*%
X111760000Y-54610000D03*
%TO.P,U1,3*%
X104140000Y-49530000D03*
%TO.P,U1,9*%
%TO.N,Net-(C1-Pad2)*%
X111760000Y-57150000D03*
%TO.P,U1,2*%
%TO.N,Net-(R19-Pad2)*%
X104140000Y-46990000D03*
%TO.P,U1,8*%
%TO.N,Net-(C1-Pad1)*%
X111760000Y-59690000D03*
D16*
%TO.P,U1,1*%
%TO.N,Net-(R1-Pad2)*%
X104140000Y-44450000D03*
%TD*%
D11*
%TO.P,R18,2*%
%TO.N,Net-(R11-Pad1)*%
X90170000Y-105410000D03*
D12*
%TO.P,R18,1*%
%TO.N,Net-(R17-Pad2)*%
X82550000Y-105410000D03*
%TD*%
D11*
%TO.P,R17,2*%
%TO.N,Net-(R17-Pad2)*%
X82550000Y-113030000D03*
D12*
%TO.P,R17,1*%
%TO.N,Net-(R17-Pad1)*%
X90170000Y-113030000D03*
%TD*%
D11*
%TO.P,R16,2*%
%TO.N,Net-(R16-Pad2)*%
X82550000Y-97790000D03*
D12*
%TO.P,R16,1*%
%TO.N,Net-(R11-Pad2)*%
X90170000Y-97790000D03*
%TD*%
D11*
%TO.P,R15,2*%
%TO.N,Net-(R15-Pad2)*%
X82550000Y-90170000D03*
D12*
%TO.P,R15,1*%
%TO.N,Net-(R11-Pad2)*%
X90170000Y-90170000D03*
%TD*%
D11*
%TO.P,R14,2*%
%TO.N,Net-(R14-Pad2)*%
X82550000Y-82550000D03*
D12*
%TO.P,R14,1*%
%TO.N,Net-(R11-Pad2)*%
X90170000Y-82550000D03*
%TD*%
D11*
%TO.P,R13,2*%
%TO.N,Net-(R13-Pad2)*%
X90170000Y-66040000D03*
D12*
%TO.P,R13,1*%
%TO.N,GND*%
X82550000Y-66040000D03*
%TD*%
D11*
%TO.P,R12,2*%
%TO.N,Net-(R12-Pad2)*%
X116840000Y-63500000D03*
D12*
%TO.P,R12,1*%
%TO.N,Net-(C2-Pad2)*%
X116840000Y-71120000D03*
%TD*%
D11*
%TO.P,R11,2*%
%TO.N,Net-(R11-Pad2)*%
X93980000Y-97790000D03*
D12*
%TO.P,R11,1*%
%TO.N,Net-(R11-Pad1)*%
X101600000Y-97790000D03*
%TD*%
D11*
%TO.P,R10,2*%
%TO.N,Net-(Q1-Pad10)*%
X71120000Y-105410000D03*
D12*
%TO.P,R10,1*%
%TO.N,Net-(C2-Pad1)*%
X78740000Y-105410000D03*
%TD*%
D11*
%TO.P,R9,2*%
%TO.N,Net-(R19-Pad2)*%
X100330000Y-50800000D03*
D12*
%TO.P,R9,1*%
%TO.N,Net-(R1-Pad2)*%
X92710000Y-50800000D03*
%TD*%
D11*
%TO.P,R8,2*%
%TO.N,Net-(Q1-Pad3)*%
X101600000Y-85090000D03*
D12*
%TO.P,R8,1*%
%TO.N,Net-(C1-Pad1)*%
X93980000Y-85090000D03*
%TD*%
D11*
%TO.P,R7,2*%
%TO.N,Net-(R7-Pad2)*%
X82550000Y-57150000D03*
D12*
%TO.P,R7,1*%
%TO.N,Net-(R19-Pad2)*%
X90170000Y-57150000D03*
%TD*%
D11*
%TO.P,R6,2*%
%TO.N,Net-(R6-Pad2)*%
X82550000Y-50800000D03*
D12*
%TO.P,R6,1*%
%TO.N,Net-(R19-Pad2)*%
X90170000Y-50800000D03*
%TD*%
D11*
%TO.P,R5,2*%
%TO.N,Net-(R5-Pad2)*%
X82550000Y-44450000D03*
D12*
%TO.P,R5,1*%
%TO.N,Net-(R19-Pad2)*%
X90170000Y-44450000D03*
%TD*%
D11*
%TO.P,R4,2*%
%TO.N,Net-(R4-Pad2)*%
X101600000Y-78740000D03*
D12*
%TO.P,R4,1*%
%TO.N,Net-(C1-Pad2)*%
X93980000Y-78740000D03*
%TD*%
D11*
%TO.P,R3,2*%
%TO.N,Net-(R3-Pad2)*%
X92710000Y-44450000D03*
D12*
%TO.P,R3,1*%
%TO.N,GND*%
X100330000Y-44450000D03*
%TD*%
D11*
%TO.P,R2,2*%
%TO.N,Net-(R1-Pad1)*%
X100330000Y-63500000D03*
D12*
%TO.P,R2,1*%
%TO.N,Net-(R2-Pad1)*%
X92710000Y-63500000D03*
%TD*%
D11*
%TO.P,R1,2*%
%TO.N,Net-(R1-Pad2)*%
X92710000Y-57150000D03*
D12*
%TO.P,R1,1*%
%TO.N,Net-(R1-Pad1)*%
X100330000Y-57150000D03*
%TD*%
D15*
%TO.P,Q1,14*%
%TO.N,Net-(C2-Pad2)*%
X114300000Y-83820000D03*
%TO.P,Q1,7*%
%TO.N,Net-(J4-Pad2)*%
X106680000Y-99060000D03*
%TO.P,Q1,13*%
%TO.N,Net-(Q1-Pad13)*%
X114300000Y-86360000D03*
%TO.P,Q1,6*%
%TO.N,GND*%
X106680000Y-96520000D03*
%TO.P,Q1,12*%
%TO.N,Net-(Q1-Pad10)*%
X114300000Y-88900000D03*
%TO.P,Q1,5*%
%TO.N,Net-(Q1-Pad3)*%
X106680000Y-93980000D03*
%TO.P,Q1,11*%
%TO.N,Net-(Q1-Pad11)*%
X114300000Y-91440000D03*
%TO.P,Q1,4*%
%TO.N,Net-(Q1-Pad4)*%
X106680000Y-91440000D03*
%TO.P,Q1,10*%
%TO.N,Net-(Q1-Pad10)*%
X114300000Y-93980000D03*
%TO.P,Q1,3*%
%TO.N,Net-(Q1-Pad3)*%
X106680000Y-88900000D03*
%TO.P,Q1,9*%
%TO.N,GND*%
X114300000Y-96520000D03*
%TO.P,Q1,2*%
%TO.N,Net-(Q1-Pad2)*%
X106680000Y-86360000D03*
%TO.P,Q1,8*%
%TO.N,Net-(J4-Pad1)*%
X114300000Y-99060000D03*
D16*
%TO.P,Q1,1*%
%TO.N,Net-(C1-Pad2)*%
X106680000Y-83820000D03*
%TD*%
D13*
%TO.P,J4,2*%
%TO.N,Net-(J4-Pad2)*%
X113030000Y-74930000D03*
D14*
%TO.P,J4,1*%
%TO.N,Net-(J4-Pad1)*%
X115570000Y-74930000D03*
%TD*%
D12*
%TO.P,C2,2*%
%TO.N,Net-(C2-Pad2)*%
X76160000Y-113030000D03*
%TO.P,C2,1*%
%TO.N,Net-(C2-Pad1)*%
X73660000Y-113030000D03*
%TD*%
%TO.P,C1,2*%
%TO.N,Net-(C1-Pad2)*%
X96520000Y-90210000D03*
%TO.P,C1,1*%
%TO.N,Net-(C1-Pad1)*%
X96520000Y-92710000D03*
%TD*%
D17*
%TO.N,Net-(C1-Pad2)*%
X106680000Y-83820000D02*
X105022500Y-83820000D01*
X96520000Y-90210000D02*
X98632500Y-90210000D01*
X98632500Y-90210000D02*
X105022500Y-83820000D01*
%TO.N,Net-(C1-Pad1)*%
X96520000Y-92710000D02*
X93980000Y-90170000D01*
X93980000Y-90170000D02*
X93980000Y-85090000D01*
X111760000Y-59690000D02*
X110102500Y-59690000D01*
X93980000Y-85090000D02*
X93980000Y-83790000D01*
X93980000Y-83790000D02*
X100925100Y-76844900D01*
X100925100Y-76844900D02*
X100925100Y-68867400D01*
X100925100Y-68867400D02*
X110102500Y-59690000D01*
%TO.N,GND*%
X114300000Y-96520000D02*
X108337500Y-96520000D01*
X105797500Y-113030000D02*
X108337500Y-110490000D01*
X108337500Y-110490000D02*
X108337500Y-96520000D01*
X105797500Y-113030000D02*
X105797500Y-118110000D01*
X106680000Y-96520000D02*
X108337500Y-96520000D01*
X111760000Y-118110000D02*
X105797500Y-118110000D01*
X104140000Y-118110000D02*
X105797500Y-118110000D01*
X104140000Y-49530000D02*
X102482500Y-49530000D01*
X100330000Y-44450000D02*
X100330000Y-47377500D01*
X100330000Y-47377500D02*
X102482500Y-49530000D01*
X62835000Y-97790000D02*
X63460000Y-97790000D01*
X60960000Y-97790000D02*
X62835000Y-97790000D01*
X62835000Y-90170000D02*
X63460000Y-90170000D01*
X62210000Y-90170000D02*
X62835000Y-90170000D01*
X62835000Y-90170000D02*
X62835000Y-97790000D01*
X62250000Y-59690000D02*
X63500000Y-59690000D01*
X61000000Y-59690000D02*
X62250000Y-59690000D01*
X62250000Y-52070000D02*
X63460000Y-52070000D01*
X60960000Y-52070000D02*
X62250000Y-52070000D01*
X62250000Y-59690000D02*
X62250000Y-52070000D01*
X62210000Y-82550000D02*
X63500000Y-82550000D01*
X61000000Y-82550000D02*
X62210000Y-82550000D01*
X60960000Y-90170000D02*
X62210000Y-90170000D01*
X62210000Y-90170000D02*
X62210000Y-82550000D01*
X104140000Y-113030000D02*
X105797500Y-113030000D01*
X111760000Y-54610000D02*
X104140000Y-54610000D01*
X61000000Y-67310000D02*
X63500000Y-67310000D01*
X82550000Y-66040000D02*
X77390000Y-66040000D01*
%TO.N,Net-(Q1-Pad13)*%
X114300000Y-86360000D02*
X112642500Y-86360000D01*
X112642500Y-86360000D02*
X108844900Y-90157600D01*
X108844900Y-90157600D02*
X100900400Y-90157600D01*
X100900400Y-90157600D02*
X96544800Y-94513200D01*
X96544800Y-94513200D02*
X87629600Y-94513200D01*
X87629600Y-94513200D02*
X79630200Y-102512600D01*
X79630200Y-102512600D02*
X72112200Y-102512600D01*
X72112200Y-102512600D02*
X66585600Y-108039200D01*
X66585600Y-108039200D02*
X64899200Y-108039200D01*
X64899200Y-108039200D02*
X63540000Y-106680000D01*
%TO.N,Net-(Q1-Pad10)*%
X112642500Y-93980000D02*
X112642500Y-88900000D01*
X72377500Y-105410000D02*
X73635000Y-104152500D01*
X73635000Y-104152500D02*
X79081400Y-104152500D01*
X79081400Y-104152500D02*
X87984000Y-95249900D01*
X87984000Y-95249900D02*
X111372600Y-95249900D01*
X111372600Y-95249900D02*
X112642500Y-93980000D01*
X114300000Y-88900000D02*
X112642500Y-88900000D01*
X71120000Y-105410000D02*
X72377500Y-105410000D01*
X114300000Y-93980000D02*
X112642500Y-93980000D01*
%TO.N,Net-(R1-Pad1)*%
X100330000Y-57150000D02*
X104140000Y-57150000D01*
%TO.N,Net-(R2-Pad1)*%
X92710000Y-63500000D02*
X90882000Y-63500000D01*
X90882000Y-63500000D02*
X83820000Y-70562000D01*
X83820000Y-70562000D02*
X83820000Y-73660000D01*
X92710000Y-63500000D02*
X96520000Y-59690000D01*
X96520000Y-59690000D02*
X104140000Y-59690000D01*
%TO.N,Net-(R5-Pad2)*%
X82550000Y-44450000D02*
X81240000Y-44450000D01*
X81240000Y-44450000D02*
X74890000Y-50800000D01*
%TO.N,Net-(R6-Pad2)*%
X82550000Y-50800000D02*
X81292500Y-50800000D01*
X81292500Y-50800000D02*
X81292500Y-52017500D01*
X81292500Y-52017500D02*
X74890000Y-58420000D01*
%TO.N,Net-(R7-Pad2)*%
X82550000Y-57150000D02*
X82550000Y-58407500D01*
X82550000Y-58407500D02*
X82522500Y-58407500D01*
X82522500Y-58407500D02*
X74890000Y-66040000D01*
%TO.N,-12V*%
X111760000Y-115570000D02*
X113417500Y-115570000D01*
X107870000Y-69850000D02*
X107870000Y-79585800D01*
X107870000Y-79585800D02*
X113374100Y-85089900D01*
X113374100Y-85089900D02*
X115278300Y-85089900D01*
X115278300Y-85089900D02*
X116038300Y-85849900D01*
X116038300Y-85849900D02*
X116038300Y-112949200D01*
X116038300Y-112949200D02*
X113417500Y-115570000D01*
%TO.N,+12V*%
X104140000Y-52070000D02*
X105797500Y-52070000D01*
X105797500Y-52070000D02*
X107067500Y-50800000D01*
X107067500Y-50800000D02*
X120650000Y-50800000D01*
X103311300Y-52070000D02*
X104140000Y-52070000D01*
X103311300Y-52070000D02*
X102482500Y-52070000D01*
X102482500Y-52070000D02*
X102482500Y-51137700D01*
X102482500Y-51137700D02*
X93881900Y-42537100D01*
X93881900Y-42537100D02*
X62912900Y-42537100D01*
X62912900Y-42537100D02*
X61000000Y-44450000D01*
%TO.N,Net-(C2-Pad2)*%
X111760000Y-120650000D02*
X110102500Y-120650000D01*
X76160000Y-113030000D02*
X77465400Y-111724600D01*
X77465400Y-111724600D02*
X84920400Y-111724600D01*
X84920400Y-111724600D02*
X92563400Y-119367600D01*
X92563400Y-119367600D02*
X108820100Y-119367600D01*
X108820100Y-119367600D02*
X110102500Y-120650000D01*
X114300000Y-83820000D02*
X115957500Y-83820000D01*
X116840000Y-71120000D02*
X116877600Y-71157600D01*
X116877600Y-71157600D02*
X116877600Y-82899900D01*
X116877600Y-82899900D02*
X115957500Y-83820000D01*
%TO.N,Net-(C2-Pad1)*%
X111760000Y-123190000D02*
X110102500Y-123190000D01*
X73660000Y-113030000D02*
X82550000Y-121920000D01*
X82550000Y-121920000D02*
X108832500Y-121920000D01*
X108832500Y-121920000D02*
X110102500Y-123190000D01*
%TO.N,Net-(R11-Pad2)*%
X93980000Y-97790000D02*
X90170000Y-97790000D01*
%TO.N,Net-(R11-Pad1)*%
X99942500Y-105410000D02*
X102482500Y-107950000D01*
X90170000Y-105410000D02*
X99942500Y-105410000D01*
X101600000Y-97790000D02*
X101600000Y-103752500D01*
X101600000Y-103752500D02*
X99942500Y-105410000D01*
X104140000Y-107950000D02*
X102482500Y-107950000D01*
%TO.N,Net-(R12-Pad2)*%
X116840000Y-63500000D02*
X111720000Y-63500000D01*
X111720000Y-63500000D02*
X105370000Y-69850000D01*
%TO.N,Net-(R13-Pad2)*%
X90170000Y-66040000D02*
X90170000Y-79997800D01*
X90170000Y-79997800D02*
X85052700Y-85115100D01*
X85052700Y-85115100D02*
X85052700Y-89480200D01*
X85052700Y-89480200D02*
X79523000Y-95009900D01*
X79523000Y-95009900D02*
X73280500Y-95009900D01*
X73280500Y-95009900D02*
X66040000Y-102250400D01*
X66040000Y-102250400D02*
X66040000Y-106680000D01*
%TO.N,Net-(R14-Pad2)*%
X82550000Y-82550000D02*
X81292500Y-82550000D01*
X81292500Y-82550000D02*
X79983700Y-83858800D01*
X79983700Y-83858800D02*
X76198800Y-83858800D01*
X76198800Y-83858800D02*
X74890000Y-82550000D01*
%TO.N,Net-(R15-Pad2)*%
X82550000Y-90170000D02*
X81292500Y-90170000D01*
X81292500Y-90170000D02*
X79935300Y-91527200D01*
X79935300Y-91527200D02*
X76247200Y-91527200D01*
X76247200Y-91527200D02*
X74890000Y-90170000D01*
%TO.N,Net-(R16-Pad2)*%
X82550000Y-97790000D02*
X81292500Y-97790000D01*
X81292500Y-97790000D02*
X79955500Y-99127000D01*
X79955500Y-99127000D02*
X76227000Y-99127000D01*
X76227000Y-99127000D02*
X74890000Y-97790000D01*
%TO.N,Net-(R17-Pad2)*%
X82550000Y-113030000D02*
X83807500Y-113030000D01*
X83807500Y-113030000D02*
X91427500Y-120650000D01*
X91427500Y-120650000D02*
X104140000Y-120650000D01*
%TO.N,Net-(R17-Pad1)*%
X90170000Y-113030000D02*
X86346000Y-109206000D01*
X86346000Y-109206000D02*
X63566000Y-109206000D01*
X63566000Y-109206000D02*
X61040000Y-106680000D01*
%TO.N,Net-(J1-PadTN)*%
X66000000Y-67310000D02*
X71120000Y-67310000D01*
X71120000Y-67310000D02*
X72390000Y-66040000D01*
%TO.N,Net-(J2-PadTN)*%
X66000000Y-59690000D02*
X71120000Y-59690000D01*
X71120000Y-59690000D02*
X72390000Y-58420000D01*
%TO.N,Net-(J5-PadTN)*%
X66000000Y-82550000D02*
X72390000Y-82550000D01*
%TO.N,Net-(J6-PadTN)*%
X65960000Y-90170000D02*
X72390000Y-90170000D01*
%TO.N,Net-(R19-Pad2)*%
X90170000Y-49512800D02*
X90170000Y-50800000D01*
X90170000Y-44450000D02*
X90170000Y-49512800D01*
X90170000Y-49512800D02*
X97785300Y-49512800D01*
X97785300Y-49512800D02*
X99072500Y-50800000D01*
X100330000Y-50800000D02*
X99072500Y-50800000D01*
X79997500Y-44450000D02*
X81280400Y-43167100D01*
X81280400Y-43167100D02*
X88887100Y-43167100D01*
X88887100Y-43167100D02*
X90170000Y-44450000D01*
X78740000Y-44450000D02*
X79997500Y-44450000D01*
%TO.N,Net-(R19-Pad1)*%
X71120000Y-44450000D02*
X69800000Y-45770000D01*
X69800000Y-45770000D02*
X64820000Y-45770000D01*
X64820000Y-45770000D02*
X63500000Y-44450000D01*
%TO.N,Net-(R20-Pad1)*%
X71120000Y-74930000D02*
X69734400Y-76315600D01*
X69734400Y-76315600D02*
X64845600Y-76315600D01*
X64845600Y-76315600D02*
X63460000Y-74930000D01*
%TD*%
M02*
