M48
INCH,TZ
T1C0.0315
T2C0.0394
%
G90
G05
T1
X28000Y-17500
X28000Y-29500
X28000Y-41500
X29000Y-44500
X29984Y-44500
X31000Y-17500
X31000Y-29500
X31000Y-41500
X32500Y-17500
X32500Y-20000
X32500Y-22500
X32500Y-26000
X32500Y-32500
X32500Y-35500
X32500Y-38500
X32500Y-41500
X32500Y-44500
X35500Y-17500
X35500Y-20000
X35500Y-22500
X35500Y-26000
X35500Y-32500
X35500Y-35500
X35500Y-38500
X35500Y-41500
X35500Y-44500
X36500Y-17500
X36500Y-20000
X36500Y-22500
X36500Y-25000
X37000Y-31000
X37000Y-33500
X37000Y-38500
X38000Y-35516
X38000Y-36500
X39500Y-17500
X39500Y-20000
X39500Y-22500
X39500Y-25000
X40000Y-31000
X40000Y-33500
X40000Y-38500
X41000Y-17500
X41000Y-18500
X41000Y-19500
X41000Y-20500
X41000Y-21500
X41000Y-22500
X41000Y-23500
X41000Y-42500
X41000Y-43500
X41000Y-44500
X41000Y-45500
X41000Y-46500
X41000Y-47500
X41000Y-48500
X42000Y-33000
X42000Y-34000
X42000Y-35000
X42000Y-36000
X42000Y-37000
X42000Y-38000
X42000Y-39000
X44000Y-17500
X44000Y-18500
X44000Y-19500
X44000Y-20500
X44000Y-21500
X44000Y-22500
X44000Y-23500
X44000Y-42500
X44000Y-43500
X44000Y-44500
X44000Y-45500
X44000Y-46500
X44000Y-47500
X44000Y-48500
X45000Y-33000
X45000Y-34000
X45000Y-35000
X45000Y-36000
X45000Y-37000
X45000Y-38000
X45000Y-39000
X46000Y-25000
X46000Y-28000
T2
X24000Y-20500
X24000Y-29500
X24000Y-35500
X24000Y-38500
X24016Y-17500
X24016Y-23500
X24016Y-26500
X24016Y-32500
X24031Y-42000
X24984Y-20500
X24984Y-29500
X24984Y-35500
X24984Y-38500
X25000Y-17500
X25000Y-23500
X25000Y-26500
X25000Y-32500
X25016Y-42000
X25969Y-20500
X25969Y-29500
X25969Y-35500
X25969Y-38500
X25984Y-17500
X25984Y-23500
X25984Y-26500
X25984Y-32500
X26000Y-42000
X28500Y-20000
X28500Y-23000
X28500Y-26000
X28500Y-32500
X28500Y-35500
X28500Y-38500
X29484Y-20000
X29484Y-23000
X29484Y-26000
X29484Y-32500
X29484Y-35500
X29484Y-38500
X30469Y-20000
X30469Y-23000
X30469Y-26000
X30469Y-32500
X30469Y-35500
X30469Y-38500
X33000Y-29000
X33984Y-29000
X34969Y-29000
X37000Y-27500
X37984Y-27500
X38969Y-27500
X40500Y-27500
X41484Y-27500
X42469Y-27500
X44500Y-29500
X45500Y-29500
X47500Y-18000
X47500Y-19000
X47500Y-20000
X47500Y-21000
T0
M30
