%TF.GenerationSoftware,KiCad,Pcbnew,(5.1.12)-1*%
%TF.CreationDate,2021-11-26T16:38:57-08:00*%
%TF.ProjectId,VCA_2.0,5643415f-322e-4302-9e6b-696361645f70,rev?*%
%TF.SameCoordinates,Original*%
%TF.FileFunction,Copper,L2,Bot*%
%TF.FilePolarity,Positive*%
%FSLAX46Y46*%
G04 Gerber Fmt 4.6, Leading zero omitted, Abs format (unit mm)*
G04 Created by KiCad (PCBNEW (5.1.12)-1) date 2021-11-26 16:38:57*
%MOMM*%
%LPD*%
G01*
G04 APERTURE LIST*
%TA.AperFunction,ComponentPad*%
%ADD10C,1.700000*%
%TD*%
%TA.AperFunction,ComponentPad*%
%ADD11R,1.700000X1.700000*%
%TD*%
%TA.AperFunction,ComponentPad*%
%ADD12O,1.700000X1.700000*%
%TD*%
%TA.AperFunction,ComponentPad*%
%ADD13C,1.600000*%
%TD*%
%TA.AperFunction,ComponentPad*%
%ADD14O,1.600000X1.600000*%
%TD*%
%TA.AperFunction,ComponentPad*%
%ADD15R,1.600000X2.400000*%
%TD*%
%TA.AperFunction,ComponentPad*%
%ADD16O,1.600000X2.400000*%
%TD*%
%TA.AperFunction,Conductor*%
%ADD17C,0.304800*%
%TD*%
G04 APERTURE END LIST*
D10*
%TO.P,J2,S*%
%TO.N,GND*%
X139700000Y-49530000D03*
%TO.P,J2,T*%
X142200000Y-49530000D03*
%TO.P,J2,TN*%
%TO.N,Net-(J2-PadTN)*%
X144700000Y-49530000D03*
%TD*%
%TO.P,J3,TN*%
%TO.N,Net-(J3-PadTN)*%
X131627000Y-49376000D03*
%TO.P,J3,T*%
%TO.N,GND*%
X129127000Y-49376000D03*
%TO.P,J3,S*%
X126627000Y-49376000D03*
%TD*%
%TO.P,J4,TN*%
%TO.N,Net-(J4-PadTN)*%
X149606000Y-137166000D03*
%TO.P,J4,T*%
%TO.N,GND*%
X147106000Y-137166000D03*
%TO.P,J4,S*%
X144606000Y-137166000D03*
%TD*%
%TO.P,J5,S*%
%TO.N,GND*%
X135462000Y-137166000D03*
%TO.P,J5,T*%
X137962000Y-137166000D03*
%TO.P,J5,TN*%
%TO.N,Net-(J5-PadTN)*%
X140462000Y-137166000D03*
%TD*%
%TO.P,J10,TN*%
%TO.N,Net-(J10-PadTN)*%
X119380000Y-57070000D03*
%TO.P,J10,T*%
%TO.N,GND*%
X119380000Y-54570000D03*
%TO.P,J10,S*%
X119380000Y-52070000D03*
%TD*%
%TO.P,J11,S*%
%TO.N,GND*%
X128040000Y-130890000D03*
%TO.P,J11,T*%
X128040000Y-133390000D03*
%TO.P,J11,TN*%
%TO.N,Net-(J11-PadTN)*%
X128040000Y-135890000D03*
%TD*%
D11*
%TO.P,J14,1*%
%TO.N,-12V*%
X153670000Y-64770000D03*
D12*
%TO.P,J14,2*%
%TO.N,GND*%
X153670000Y-67310000D03*
%TO.P,J14,3*%
%TO.N,+12V*%
X153670000Y-69850000D03*
%TO.P,J14,4*%
%TO.N,+5V*%
X153670000Y-72390000D03*
%TD*%
D13*
%TO.P,R3,1*%
%TO.N,Net-(R3-Pad1)*%
X146050000Y-65226000D03*
D14*
%TO.P,R3,2*%
%TO.N,Net-(R3-Pad2)*%
X138430000Y-65226000D03*
%TD*%
%TO.P,R4,2*%
%TO.N,Net-(R4-Pad2)*%
X125154000Y-65226000D03*
D13*
%TO.P,R4,1*%
%TO.N,Net-(R3-Pad1)*%
X132774000Y-65226000D03*
%TD*%
%TO.P,R5,1*%
%TO.N,Net-(R5-Pad1)*%
X138430000Y-71965000D03*
D14*
%TO.P,R5,2*%
%TO.N,Net-(R3-Pad1)*%
X146050000Y-71965000D03*
%TD*%
D13*
%TO.P,R6,1*%
%TO.N,Net-(IC1-Pad3)*%
X125020000Y-72050000D03*
D14*
%TO.P,R6,2*%
%TO.N,Net-(R5-Pad1)*%
X132640000Y-72050000D03*
%TD*%
D13*
%TO.P,R7,1*%
%TO.N,GND*%
X132460000Y-78350000D03*
D14*
%TO.P,R7,2*%
%TO.N,Net-(IC1-Pad3)*%
X124840000Y-78350000D03*
%TD*%
%TO.P,R8,2*%
%TO.N,Net-(IC1-Pad5)*%
X146050000Y-78740000D03*
D13*
%TO.P,R8,1*%
%TO.N,GND*%
X138430000Y-78740000D03*
%TD*%
%TO.P,R9,1*%
%TO.N,Net-(R9-Pad1)*%
X119380000Y-78740000D03*
D14*
%TO.P,R9,2*%
%TO.N,Net-(R9-Pad2)*%
X119380000Y-71120000D03*
%TD*%
%TO.P,R10,2*%
%TO.N,Net-(R10-Pad2)*%
X145550000Y-121850000D03*
D13*
%TO.P,R10,1*%
%TO.N,Net-(R10-Pad1)*%
X153170000Y-121850000D03*
%TD*%
%TO.P,R11,1*%
%TO.N,Net-(R11-Pad1)*%
X134050000Y-122050000D03*
D14*
%TO.P,R11,2*%
%TO.N,Net-(R10-Pad2)*%
X141670000Y-122050000D03*
%TD*%
D13*
%TO.P,R12,1*%
%TO.N,Net-(R10-Pad2)*%
X145500000Y-115350000D03*
D14*
%TO.P,R12,2*%
%TO.N,Net-(R12-Pad2)*%
X153120000Y-115350000D03*
%TD*%
%TO.P,R13,2*%
%TO.N,Net-(IC1-Pad14)*%
X133610000Y-115260000D03*
D13*
%TO.P,R13,1*%
%TO.N,Net-(R12-Pad2)*%
X141230000Y-115260000D03*
%TD*%
%TO.P,R14,1*%
%TO.N,GND*%
X140940000Y-108170000D03*
D14*
%TO.P,R14,2*%
%TO.N,Net-(IC1-Pad14)*%
X133320000Y-108170000D03*
%TD*%
%TO.P,R15,2*%
%TO.N,Net-(IC1-Pad12)*%
X153610000Y-108950000D03*
D13*
%TO.P,R15,1*%
%TO.N,GND*%
X145990000Y-108950000D03*
%TD*%
D14*
%TO.P,R16,2*%
%TO.N,Net-(R16-Pad2)*%
X128230000Y-108130000D03*
D13*
%TO.P,R16,1*%
%TO.N,Net-(R16-Pad1)*%
X128230000Y-115750000D03*
%TD*%
D10*
%TO.P,RV1,1*%
%TO.N,Net-(J2-PadTN)*%
X144780000Y-58876000D03*
%TO.P,RV1,2*%
%TO.N,Net-(R3-Pad2)*%
X142280000Y-58876000D03*
%TO.P,RV1,3*%
%TO.N,GND*%
X139780000Y-58876000D03*
%TD*%
%TO.P,RV2,3*%
%TO.N,GND*%
X126910000Y-58978000D03*
%TO.P,RV2,2*%
%TO.N,Net-(R4-Pad2)*%
X129410000Y-58978000D03*
%TO.P,RV2,1*%
%TO.N,Net-(J3-PadTN)*%
X131910000Y-58978000D03*
%TD*%
%TO.P,RV3,1*%
%TO.N,Net-(R9-Pad2)*%
X119380000Y-62210000D03*
%TO.P,RV3,2*%
%TO.N,Net-(J10-PadTN)*%
X119380000Y-64710000D03*
%TO.P,RV3,3*%
X119380000Y-67210000D03*
%TD*%
%TO.P,RV4,1*%
%TO.N,Net-(J4-PadTN)*%
X149686000Y-130054000D03*
%TO.P,RV4,2*%
%TO.N,Net-(R10-Pad1)*%
X147186000Y-130054000D03*
%TO.P,RV4,3*%
%TO.N,GND*%
X144686000Y-130054000D03*
%TD*%
%TO.P,RV5,1*%
%TO.N,Net-(J5-PadTN)*%
X140542000Y-130054000D03*
%TO.P,RV5,2*%
%TO.N,Net-(R11-Pad1)*%
X138042000Y-130054000D03*
%TO.P,RV5,3*%
%TO.N,GND*%
X135542000Y-130054000D03*
%TD*%
%TO.P,RV6,3*%
%TO.N,Net-(J11-PadTN)*%
X128040000Y-125500000D03*
%TO.P,RV6,2*%
X128040000Y-123000000D03*
%TO.P,RV6,1*%
%TO.N,Net-(R16-Pad1)*%
X128040000Y-120500000D03*
%TD*%
D15*
%TO.P,U1,1*%
%TO.N,Net-(R5-Pad1)*%
X148590000Y-88900000D03*
D16*
%TO.P,U1,8*%
%TO.N,Net-(R12-Pad2)*%
X133350000Y-96520000D03*
%TO.P,U1,2*%
%TO.N,Net-(R3-Pad1)*%
X146050000Y-88900000D03*
%TO.P,U1,9*%
%TO.N,Net-(R10-Pad2)*%
X135890000Y-96520000D03*
%TO.P,U1,3*%
%TO.N,GND*%
X143510000Y-88900000D03*
%TO.P,U1,10*%
X138430000Y-96520000D03*
%TO.P,U1,4*%
%TO.N,+12V*%
X140970000Y-88900000D03*
%TO.P,U1,11*%
%TO.N,-12V*%
X140970000Y-96520000D03*
%TO.P,U1,5*%
%TO.N,Net-(IC1-Pad5)*%
X138430000Y-88900000D03*
%TO.P,U1,12*%
%TO.N,Net-(IC1-Pad12)*%
X143510000Y-96520000D03*
%TO.P,U1,6*%
%TO.N,Net-(R9-Pad1)*%
X135890000Y-88900000D03*
%TO.P,U1,13*%
%TO.N,Net-(R16-Pad2)*%
X146050000Y-96520000D03*
%TO.P,U1,7*%
%TO.N,Net-(R9-Pad1)*%
X133350000Y-88900000D03*
%TO.P,U1,14*%
%TO.N,Net-(R16-Pad2)*%
X148590000Y-96520000D03*
%TD*%
%TO.P,U2,14*%
%TO.N,N/C*%
X118110000Y-119380000D03*
%TO.P,U2,7*%
%TO.N,Net-(J11-PadTN)*%
X102870000Y-111760000D03*
%TO.P,U2,13*%
%TO.N,N/C*%
X115570000Y-119380000D03*
%TO.P,U2,6*%
%TO.N,Net-(R16-Pad1)*%
X105410000Y-111760000D03*
%TO.P,U2,12*%
%TO.N,N/C*%
X113030000Y-119380000D03*
%TO.P,U2,5*%
%TO.N,GND*%
X107950000Y-111760000D03*
%TO.P,U2,11*%
%TO.N,-12V*%
X110490000Y-119380000D03*
%TO.P,U2,4*%
%TO.N,+12V*%
X110490000Y-111760000D03*
%TO.P,U2,10*%
%TO.N,N/C*%
X107950000Y-119380000D03*
%TO.P,U2,3*%
%TO.N,GND*%
X113030000Y-111760000D03*
%TO.P,U2,9*%
%TO.N,N/C*%
X105410000Y-119380000D03*
%TO.P,U2,2*%
%TO.N,Net-(R9-Pad2)*%
X115570000Y-111760000D03*
%TO.P,U2,8*%
%TO.N,N/C*%
X102870000Y-119380000D03*
D15*
%TO.P,U2,1*%
%TO.N,Net-(J10-PadTN)*%
X118110000Y-111760000D03*
%TD*%
D11*
%TO.P,J1,1*%
%TO.N,Net-(IC1-Pad1)*%
X116840000Y-132080000D03*
D12*
%TO.P,J1,2*%
%TO.N,Net-(IC1-Pad16)*%
X116840000Y-134620000D03*
%TD*%
D15*
%TO.P,IC1,1*%
%TO.N,Net-(IC1-Pad1)*%
X121920000Y-88900000D03*
D16*
%TO.P,IC1,9*%
%TO.N,Net-(IC1-Pad9)*%
X104140000Y-96520000D03*
%TO.P,IC1,2*%
%TO.N,Net-(IC1-Pad2)*%
X119380000Y-88900000D03*
%TO.P,IC1,10*%
%TO.N,Net-(IC1-Pad10)*%
X106680000Y-96520000D03*
%TO.P,IC1,3*%
%TO.N,Net-(IC1-Pad3)*%
X116840000Y-88900000D03*
%TO.P,IC1,11*%
%TO.N,+12V*%
X109220000Y-96520000D03*
%TO.P,IC1,4*%
%TO.N,GND*%
X114300000Y-88900000D03*
%TO.P,IC1,12*%
%TO.N,Net-(IC1-Pad12)*%
X111760000Y-96520000D03*
%TO.P,IC1,5*%
%TO.N,Net-(IC1-Pad5)*%
X111760000Y-88900000D03*
%TO.P,IC1,13*%
%TO.N,GND*%
X114300000Y-96520000D03*
%TO.P,IC1,6*%
%TO.N,-12V*%
X109220000Y-88900000D03*
%TO.P,IC1,14*%
%TO.N,Net-(IC1-Pad14)*%
X116840000Y-96520000D03*
%TO.P,IC1,7*%
%TO.N,Net-(IC1-Pad7)*%
X106680000Y-88900000D03*
%TO.P,IC1,15*%
%TO.N,Net-(IC1-Pad15)*%
X119380000Y-96520000D03*
%TO.P,IC1,8*%
%TO.N,Net-(IC1-Pad8)*%
X104140000Y-88900000D03*
%TO.P,IC1,16*%
%TO.N,Net-(IC1-Pad16)*%
X121920000Y-96520000D03*
%TD*%
D17*
%TO.N,Net-(IC1-Pad14)*%
X133320000Y-108170000D02*
X132062500Y-108170000D01*
X116840000Y-96520000D02*
X116840000Y-98177500D01*
X116840000Y-98177500D02*
X122070000Y-98177500D01*
X122070000Y-98177500D02*
X132062500Y-108170000D01*
%TO.N,GND*%
X129127000Y-49376000D02*
X126627000Y-49376000D01*
X139700000Y-49530000D02*
X138202400Y-48032400D01*
X138202400Y-48032400D02*
X130470600Y-48032400D01*
X130470600Y-48032400D02*
X129127000Y-49376000D01*
X135462000Y-137166000D02*
X135462000Y-131646000D01*
X135462000Y-131646000D02*
X134706000Y-130890000D01*
X134706000Y-130890000D02*
X128040000Y-130890000D01*
X135542000Y-130054000D02*
X134706000Y-130890000D01*
X137962000Y-137166000D02*
X135462000Y-137166000D01*
X143858500Y-67310000D02*
X143858500Y-62954500D01*
X143858500Y-62954500D02*
X139780000Y-58876000D01*
X138430000Y-78740000D02*
X143858500Y-73311500D01*
X143858500Y-73311500D02*
X143858500Y-67310000D01*
X143858500Y-67310000D02*
X152362500Y-67310000D01*
X153670000Y-67310000D02*
X152362500Y-67310000D01*
X123933000Y-52070000D02*
X126627000Y-49376000D01*
X119380000Y-52070000D02*
X123933000Y-52070000D01*
X126910000Y-58978000D02*
X126910000Y-55047000D01*
X126910000Y-55047000D02*
X123933000Y-52070000D01*
X144606000Y-137166000D02*
X143260000Y-138512000D01*
X143260000Y-138512000D02*
X139308000Y-138512000D01*
X139308000Y-138512000D02*
X137962000Y-137166000D01*
X138430000Y-96520000D02*
X138430000Y-94862500D01*
X114300000Y-96520000D02*
X114300000Y-94862500D01*
X114300000Y-94862500D02*
X138430000Y-94862500D01*
X107950000Y-111760000D02*
X107950000Y-110102500D01*
X113030000Y-111760000D02*
X113030000Y-110102500D01*
X113030000Y-110102500D02*
X107950000Y-110102500D01*
%TO.N,Net-(IC1-Pad12)*%
X143510000Y-94862500D02*
X142900100Y-94252600D01*
X142900100Y-94252600D02*
X112369900Y-94252600D01*
X112369900Y-94252600D02*
X111760000Y-94862500D01*
X143510000Y-96520000D02*
X143510000Y-94862500D01*
X111760000Y-96520000D02*
X111760000Y-94862500D01*
%TO.N,+12V*%
X109220000Y-96520000D02*
X109220000Y-94862500D01*
X109220000Y-94862500D02*
X112891100Y-91191400D01*
X112891100Y-91191400D02*
X139040000Y-91191400D01*
X139040000Y-91191400D02*
X140970000Y-89261400D01*
X140970000Y-89261400D02*
X152240400Y-77991000D01*
X152240400Y-77991000D02*
X152240400Y-71279600D01*
X152240400Y-71279600D02*
X153670000Y-69850000D01*
X140970000Y-88900000D02*
X140970000Y-89261400D01*
%TO.N,-12V*%
X110490000Y-119380000D02*
X110490000Y-117722500D01*
X111180200Y-100728700D02*
X101579300Y-110329600D01*
X101579300Y-110329600D02*
X101579300Y-112989500D01*
X101579300Y-112989500D02*
X106312300Y-117722500D01*
X106312300Y-117722500D02*
X110490000Y-117722500D01*
X111180200Y-100728700D02*
X122948800Y-100728700D01*
X122948800Y-100728700D02*
X131653900Y-109433800D01*
X131653900Y-109433800D02*
X133859900Y-109433800D01*
X133859900Y-109433800D02*
X140970000Y-102323700D01*
X140970000Y-102323700D02*
X140970000Y-96520000D01*
X109220000Y-90557500D02*
X107950000Y-91827500D01*
X107950000Y-91827500D02*
X107950000Y-97498500D01*
X107950000Y-97498500D02*
X111180200Y-100728700D01*
X109220000Y-88900000D02*
X109220000Y-90557500D01*
%TO.N,Net-(IC1-Pad5)*%
X138430000Y-88900000D02*
X138430000Y-90557500D01*
X111760000Y-88900000D02*
X111760000Y-90557500D01*
X111760000Y-90557500D02*
X138430000Y-90557500D01*
X138430000Y-88900000D02*
X138430000Y-87242500D01*
X146050000Y-78740000D02*
X146050000Y-79997500D01*
X138430000Y-87242500D02*
X138805000Y-87242500D01*
X138805000Y-87242500D02*
X146050000Y-79997500D01*
%TO.N,Net-(IC1-Pad3)*%
X124840000Y-78350000D02*
X124840000Y-79607500D01*
X116840000Y-88900000D02*
X116840000Y-87242500D01*
X116840000Y-87242500D02*
X124475000Y-79607500D01*
X124475000Y-79607500D02*
X124840000Y-79607500D01*
%TO.N,Net-(J10-PadTN)*%
X119380000Y-64710000D02*
X120705800Y-63384200D01*
X120705800Y-63384200D02*
X120705800Y-58395800D01*
X120705800Y-58395800D02*
X119380000Y-57070000D01*
%TO.N,Net-(J11-PadTN)*%
X128040000Y-123000000D02*
X121193900Y-116153900D01*
X121193900Y-116153900D02*
X105606400Y-116153900D01*
X105606400Y-116153900D02*
X102870000Y-113417500D01*
X102870000Y-111760000D02*
X102870000Y-113417500D01*
%TO.N,Net-(R4-Pad2)*%
X125154000Y-65226000D02*
X125154000Y-63968500D01*
X129410000Y-58978000D02*
X129410000Y-59712500D01*
X129410000Y-59712500D02*
X125154000Y-63968500D01*
%TO.N,Net-(R5-Pad1)*%
X132640000Y-72050000D02*
X133897500Y-72050000D01*
X133897500Y-72050000D02*
X133982500Y-71965000D01*
X133982500Y-71965000D02*
X138430000Y-71965000D01*
%TO.N,Net-(R9-Pad1)*%
X133350000Y-88900000D02*
X133350000Y-85032900D01*
X133350000Y-85032900D02*
X125358300Y-77041200D01*
X125358300Y-77041200D02*
X121078800Y-77041200D01*
X121078800Y-77041200D02*
X119380000Y-78740000D01*
X133350000Y-88900000D02*
X135890000Y-88900000D01*
%TO.N,Net-(R9-Pad2)*%
X119380000Y-71120000D02*
X119380000Y-69862500D01*
X119380000Y-69862500D02*
X118068800Y-68551300D01*
X118068800Y-68551300D02*
X118068800Y-63521200D01*
X118068800Y-63521200D02*
X119380000Y-62210000D01*
%TO.N,Net-(R10-Pad2)*%
X141670000Y-122050000D02*
X142927500Y-122050000D01*
X145550000Y-121850000D02*
X143127500Y-121850000D01*
X143127500Y-121850000D02*
X142927500Y-122050000D01*
%TO.N,Net-(R10-Pad1)*%
X147186000Y-130054000D02*
X147186000Y-127834000D01*
X147186000Y-127834000D02*
X153170000Y-121850000D01*
%TO.N,Net-(R12-Pad2)*%
X153120000Y-115350000D02*
X151862500Y-115350000D01*
X141230000Y-115260000D02*
X142405100Y-114084900D01*
X142405100Y-114084900D02*
X150597400Y-114084900D01*
X150597400Y-114084900D02*
X151862500Y-115350000D01*
%TO.N,Net-(R16-Pad2)*%
X129487500Y-108130000D02*
X131401200Y-110043700D01*
X131401200Y-110043700D02*
X134183800Y-110043700D01*
X134183800Y-110043700D02*
X146050000Y-98177500D01*
X128230000Y-108130000D02*
X129487500Y-108130000D01*
X146050000Y-98025000D02*
X146050000Y-98177500D01*
X146050000Y-96520000D02*
X146050000Y-98025000D01*
X148590000Y-96520000D02*
X148590000Y-98177500D01*
X148590000Y-98177500D02*
X146050000Y-98177500D01*
%TO.N,Net-(R16-Pad1)*%
X105410000Y-111760000D02*
X105410000Y-113417500D01*
X105410000Y-113417500D02*
X125897500Y-113417500D01*
X125897500Y-113417500D02*
X128230000Y-115750000D01*
%TD*%
M02*
