M48
; DRILL file {KiCad (5.1.12)-1} date 11/26/21 16:40:31
; FORMAT={-:-/ absolute / metric / decimal}
; #@! TF.CreationDate,2021-11-26T16:40:31-08:00
; #@! TF.GenerationSoftware,Kicad,Pcbnew,(5.1.12)-1
; #@! TF.FileFunction,Plated,1,2,PTH
FMAT,2
METRIC
T1C0.800
T2C1.000
%
G90
G05
T1
X102.87Y-111.76
X102.87Y-119.38
X104.14Y-88.9
X104.14Y-96.52
X105.41Y-111.76
X105.41Y-119.38
X106.68Y-88.9
X106.68Y-96.52
X107.95Y-111.76
X107.95Y-119.38
X109.22Y-88.9
X109.22Y-96.52
X110.49Y-111.76
X110.49Y-119.38
X111.76Y-88.9
X111.76Y-96.52
X113.03Y-111.76
X113.03Y-119.38
X114.3Y-88.9
X114.3Y-96.52
X115.57Y-111.76
X115.57Y-119.38
X116.84Y-88.9
X116.84Y-96.52
X118.11Y-111.76
X118.11Y-119.38
X119.38Y-71.12
X119.38Y-78.74
X119.38Y-88.9
X119.38Y-96.52
X121.92Y-88.9
X121.92Y-96.52
X124.84Y-78.35
X125.02Y-72.05
X125.154Y-65.226
X128.23Y-108.13
X128.23Y-115.75
X132.46Y-78.35
X132.64Y-72.05
X132.774Y-65.226
X133.32Y-108.17
X133.35Y-88.9
X133.35Y-96.52
X133.61Y-115.26
X134.05Y-122.05
X135.89Y-88.9
X135.89Y-96.52
X138.43Y-65.226
X138.43Y-71.965
X138.43Y-78.74
X138.43Y-88.9
X138.43Y-96.52
X140.94Y-108.17
X140.97Y-88.9
X140.97Y-96.52
X141.23Y-115.26
X141.67Y-122.05
X143.51Y-88.9
X143.51Y-96.52
X145.5Y-115.35
X145.55Y-121.85
X145.99Y-108.95
X146.05Y-65.226
X146.05Y-71.965
X146.05Y-78.74
X146.05Y-88.9
X146.05Y-96.52
X148.59Y-88.9
X148.59Y-96.52
X153.12Y-115.35
X153.17Y-121.85
X153.61Y-108.95
T2
X116.84Y-132.08
X116.84Y-134.62
X119.38Y-52.07
X119.38Y-54.57
X119.38Y-57.07
X119.38Y-62.21
X119.38Y-64.71
X119.38Y-67.21
X126.627Y-49.376
X126.91Y-58.978
X128.04Y-120.5
X128.04Y-123.0
X128.04Y-125.5
X128.04Y-130.89
X128.04Y-133.39
X128.04Y-135.89
X129.127Y-49.376
X129.41Y-58.978
X131.627Y-49.376
X131.91Y-58.978
X135.462Y-137.166
X135.542Y-130.054
X137.962Y-137.166
X138.042Y-130.054
X139.7Y-49.53
X139.78Y-58.876
X140.462Y-137.166
X140.542Y-130.054
X142.2Y-49.53
X142.28Y-58.876
X144.606Y-137.166
X144.686Y-130.054
X144.7Y-49.53
X144.78Y-58.876
X147.106Y-137.166
X147.186Y-130.054
X149.606Y-137.166
X149.686Y-130.054
X153.67Y-64.77
X153.67Y-67.31
X153.67Y-69.85
X153.67Y-72.39
T0
M30
