%TF.GenerationSoftware,KiCad,Pcbnew,(5.1.12)-1*%
%TF.CreationDate,2021-11-26T16:16:20-08:00*%
%TF.ProjectId,VCF_LowPass,5643465f-4c6f-4775-9061-73732e6b6963,rev?*%
%TF.SameCoordinates,Original*%
%TF.FileFunction,Legend,Top*%
%TF.FilePolarity,Positive*%
%FSLAX46Y46*%
G04 Gerber Fmt 4.6, Leading zero omitted, Abs format (unit mm)*
G04 Created by KiCad (PCBNEW (5.1.12)-1) date 2021-11-26 16:16:20*
%MOMM*%
%LPD*%
G01*
G04 APERTURE LIST*
%ADD10C,0.125000*%
%ADD11C,0.150000*%
%ADD12C,0.127000*%
%ADD13C,0.120000*%
%ADD14C,1.700000*%
%ADD15O,2.400000X1.600000*%
%ADD16R,2.400000X1.600000*%
%ADD17C,1.600000*%
%ADD18R,1.700000X1.700000*%
%ADD19O,1.700000X1.700000*%
%ADD20O,1.600000X1.600000*%
G04 APERTURE END LIST*
D10*
X90540000Y-138480000D02*
X91073333Y-138480000D01*
X90806666Y-138746666D02*
X90806666Y-138213333D01*
X91740000Y-138046666D02*
X91406666Y-138046666D01*
X91373333Y-138380000D01*
X91406666Y-138346666D01*
X91473333Y-138313333D01*
X91640000Y-138313333D01*
X91706666Y-138346666D01*
X91740000Y-138380000D01*
X91773333Y-138446666D01*
X91773333Y-138613333D01*
X91740000Y-138680000D01*
X91706666Y-138713333D01*
X91640000Y-138746666D01*
X91473333Y-138746666D01*
X91406666Y-138713333D01*
X91373333Y-138680000D01*
X91973333Y-138046666D02*
X92206666Y-138746666D01*
X92440000Y-138046666D01*
D11*
X88225428Y-161742380D02*
X88225428Y-160742380D01*
X88701619Y-161075714D02*
X88701619Y-161742380D01*
X88701619Y-161170952D02*
X88749238Y-161123333D01*
X88844476Y-161075714D01*
X88987333Y-161075714D01*
X89082571Y-161123333D01*
X89130190Y-161218571D01*
X89130190Y-161742380D01*
X89511142Y-160742380D02*
X90130190Y-160742380D01*
X89796857Y-161123333D01*
X89939714Y-161123333D01*
X90034952Y-161170952D01*
X90082571Y-161218571D01*
X90130190Y-161313809D01*
X90130190Y-161551904D01*
X90082571Y-161647142D01*
X90034952Y-161694761D01*
X89939714Y-161742380D01*
X89654000Y-161742380D01*
X89558761Y-161694761D01*
X89511142Y-161647142D01*
X77049428Y-161742380D02*
X77049428Y-160742380D01*
X77525619Y-161075714D02*
X77525619Y-161742380D01*
X77525619Y-161170952D02*
X77573238Y-161123333D01*
X77668476Y-161075714D01*
X77811333Y-161075714D01*
X77906571Y-161123333D01*
X77954190Y-161218571D01*
X77954190Y-161742380D01*
X78382761Y-160837619D02*
X78430380Y-160790000D01*
X78525619Y-160742380D01*
X78763714Y-160742380D01*
X78858952Y-160790000D01*
X78906571Y-160837619D01*
X78954190Y-160932857D01*
X78954190Y-161028095D01*
X78906571Y-161170952D01*
X78335142Y-161742380D01*
X78954190Y-161742380D01*
X64857428Y-161742380D02*
X64857428Y-160742380D01*
X65333619Y-161075714D02*
X65333619Y-161742380D01*
X65333619Y-161170952D02*
X65381238Y-161123333D01*
X65476476Y-161075714D01*
X65619333Y-161075714D01*
X65714571Y-161123333D01*
X65762190Y-161218571D01*
X65762190Y-161742380D01*
X66762190Y-161742380D02*
X66190761Y-161742380D01*
X66476476Y-161742380D02*
X66476476Y-160742380D01*
X66381238Y-160885238D01*
X66286000Y-160980476D01*
X66190761Y-161028095D01*
X72684285Y-76542380D02*
X73017619Y-77542380D01*
X73350952Y-76542380D01*
X74255714Y-77447142D02*
X74208095Y-77494761D01*
X74065238Y-77542380D01*
X73970000Y-77542380D01*
X73827142Y-77494761D01*
X73731904Y-77399523D01*
X73684285Y-77304285D01*
X73636666Y-77113809D01*
X73636666Y-76970952D01*
X73684285Y-76780476D01*
X73731904Y-76685238D01*
X73827142Y-76590000D01*
X73970000Y-76542380D01*
X74065238Y-76542380D01*
X74208095Y-76590000D01*
X74255714Y-76637619D01*
X75017619Y-77018571D02*
X74684285Y-77018571D01*
X74684285Y-77542380D02*
X74684285Y-76542380D01*
X75160476Y-76542380D01*
X76779523Y-77542380D02*
X76303333Y-77542380D01*
X76303333Y-76542380D01*
X77255714Y-77542380D02*
X77160476Y-77494761D01*
X77112857Y-77447142D01*
X77065238Y-77351904D01*
X77065238Y-77066190D01*
X77112857Y-76970952D01*
X77160476Y-76923333D01*
X77255714Y-76875714D01*
X77398571Y-76875714D01*
X77493809Y-76923333D01*
X77541428Y-76970952D01*
X77589047Y-77066190D01*
X77589047Y-77351904D01*
X77541428Y-77447142D01*
X77493809Y-77494761D01*
X77398571Y-77542380D01*
X77255714Y-77542380D01*
X77922380Y-76875714D02*
X78112857Y-77542380D01*
X78303333Y-77066190D01*
X78493809Y-77542380D01*
X78684285Y-76875714D01*
X79065238Y-77542380D02*
X79065238Y-76542380D01*
X79446190Y-76542380D01*
X79541428Y-76590000D01*
X79589047Y-76637619D01*
X79636666Y-76732857D01*
X79636666Y-76875714D01*
X79589047Y-76970952D01*
X79541428Y-77018571D01*
X79446190Y-77066190D01*
X79065238Y-77066190D01*
X80493809Y-77542380D02*
X80493809Y-77018571D01*
X80446190Y-76923333D01*
X80350952Y-76875714D01*
X80160476Y-76875714D01*
X80065238Y-76923333D01*
X80493809Y-77494761D02*
X80398571Y-77542380D01*
X80160476Y-77542380D01*
X80065238Y-77494761D01*
X80017619Y-77399523D01*
X80017619Y-77304285D01*
X80065238Y-77209047D01*
X80160476Y-77161428D01*
X80398571Y-77161428D01*
X80493809Y-77113809D01*
X80922380Y-77494761D02*
X81017619Y-77542380D01*
X81208095Y-77542380D01*
X81303333Y-77494761D01*
X81350952Y-77399523D01*
X81350952Y-77351904D01*
X81303333Y-77256666D01*
X81208095Y-77209047D01*
X81065238Y-77209047D01*
X80970000Y-77161428D01*
X80922380Y-77066190D01*
X80922380Y-77018571D01*
X80970000Y-76923333D01*
X81065238Y-76875714D01*
X81208095Y-76875714D01*
X81303333Y-76923333D01*
X81731904Y-77494761D02*
X81827142Y-77542380D01*
X82017619Y-77542380D01*
X82112857Y-77494761D01*
X82160476Y-77399523D01*
X82160476Y-77351904D01*
X82112857Y-77256666D01*
X82017619Y-77209047D01*
X81874761Y-77209047D01*
X81779523Y-77161428D01*
X81731904Y-77066190D01*
X81731904Y-77018571D01*
X81779523Y-76923333D01*
X81874761Y-76875714D01*
X82017619Y-76875714D01*
X82112857Y-76923333D01*
X66017619Y-79192380D02*
X66017619Y-78192380D01*
X66255714Y-78192380D01*
X66398571Y-78240000D01*
X66493809Y-78335238D01*
X66541428Y-78430476D01*
X66589047Y-78620952D01*
X66589047Y-78763809D01*
X66541428Y-78954285D01*
X66493809Y-79049523D01*
X66398571Y-79144761D01*
X66255714Y-79192380D01*
X66017619Y-79192380D01*
X67446190Y-79192380D02*
X67446190Y-78668571D01*
X67398571Y-78573333D01*
X67303333Y-78525714D01*
X67112857Y-78525714D01*
X67017619Y-78573333D01*
X67446190Y-79144761D02*
X67350952Y-79192380D01*
X67112857Y-79192380D01*
X67017619Y-79144761D01*
X66970000Y-79049523D01*
X66970000Y-78954285D01*
X67017619Y-78859047D01*
X67112857Y-78811428D01*
X67350952Y-78811428D01*
X67446190Y-78763809D01*
X67827142Y-78525714D02*
X68065238Y-79192380D01*
X68303333Y-78525714D01*
X68684285Y-79192380D02*
X68684285Y-78525714D01*
X68684285Y-78192380D02*
X68636666Y-78240000D01*
X68684285Y-78287619D01*
X68731904Y-78240000D01*
X68684285Y-78192380D01*
X68684285Y-78287619D01*
X69589047Y-79192380D02*
X69589047Y-78192380D01*
X69589047Y-79144761D02*
X69493809Y-79192380D01*
X69303333Y-79192380D01*
X69208095Y-79144761D01*
X69160476Y-79097142D01*
X69112857Y-79001904D01*
X69112857Y-78716190D01*
X69160476Y-78620952D01*
X69208095Y-78573333D01*
X69303333Y-78525714D01*
X69493809Y-78525714D01*
X69589047Y-78573333D01*
X71398571Y-79097142D02*
X71350952Y-79144761D01*
X71208095Y-79192380D01*
X71112857Y-79192380D01*
X70970000Y-79144761D01*
X70874761Y-79049523D01*
X70827142Y-78954285D01*
X70779523Y-78763809D01*
X70779523Y-78620952D01*
X70827142Y-78430476D01*
X70874761Y-78335238D01*
X70970000Y-78240000D01*
X71112857Y-78192380D01*
X71208095Y-78192380D01*
X71350952Y-78240000D01*
X71398571Y-78287619D01*
X72255714Y-79192380D02*
X72255714Y-78668571D01*
X72208095Y-78573333D01*
X72112857Y-78525714D01*
X71922380Y-78525714D01*
X71827142Y-78573333D01*
X72255714Y-79144761D02*
X72160476Y-79192380D01*
X71922380Y-79192380D01*
X71827142Y-79144761D01*
X71779523Y-79049523D01*
X71779523Y-78954285D01*
X71827142Y-78859047D01*
X71922380Y-78811428D01*
X72160476Y-78811428D01*
X72255714Y-78763809D01*
X72684285Y-79144761D02*
X72779523Y-79192380D01*
X72970000Y-79192380D01*
X73065238Y-79144761D01*
X73112857Y-79049523D01*
X73112857Y-79001904D01*
X73065238Y-78906666D01*
X72970000Y-78859047D01*
X72827142Y-78859047D01*
X72731904Y-78811428D01*
X72684285Y-78716190D01*
X72684285Y-78668571D01*
X72731904Y-78573333D01*
X72827142Y-78525714D01*
X72970000Y-78525714D01*
X73065238Y-78573333D01*
X73398571Y-78525714D02*
X73779523Y-78525714D01*
X73541428Y-78192380D02*
X73541428Y-79049523D01*
X73589047Y-79144761D01*
X73684285Y-79192380D01*
X73779523Y-79192380D01*
X74112857Y-79192380D02*
X74112857Y-78525714D01*
X74112857Y-78716190D02*
X74160476Y-78620952D01*
X74208095Y-78573333D01*
X74303333Y-78525714D01*
X74398571Y-78525714D01*
X74874761Y-79192380D02*
X74779523Y-79144761D01*
X74731904Y-79097142D01*
X74684285Y-79001904D01*
X74684285Y-78716190D01*
X74731904Y-78620952D01*
X74779523Y-78573333D01*
X74874761Y-78525714D01*
X75017619Y-78525714D01*
X75112857Y-78573333D01*
X75160476Y-78620952D01*
X75208095Y-78716190D01*
X75208095Y-79001904D01*
X75160476Y-79097142D01*
X75112857Y-79144761D01*
X75017619Y-79192380D01*
X74874761Y-79192380D01*
X76827142Y-79192380D02*
X76827142Y-78668571D01*
X76779523Y-78573333D01*
X76684285Y-78525714D01*
X76493809Y-78525714D01*
X76398571Y-78573333D01*
X76827142Y-79144761D02*
X76731904Y-79192380D01*
X76493809Y-79192380D01*
X76398571Y-79144761D01*
X76350952Y-79049523D01*
X76350952Y-78954285D01*
X76398571Y-78859047D01*
X76493809Y-78811428D01*
X76731904Y-78811428D01*
X76827142Y-78763809D01*
X77303333Y-78525714D02*
X77303333Y-79192380D01*
X77303333Y-78620952D02*
X77350952Y-78573333D01*
X77446190Y-78525714D01*
X77589047Y-78525714D01*
X77684285Y-78573333D01*
X77731904Y-78668571D01*
X77731904Y-79192380D01*
X78636666Y-79192380D02*
X78636666Y-78192380D01*
X78636666Y-79144761D02*
X78541428Y-79192380D01*
X78350952Y-79192380D01*
X78255714Y-79144761D01*
X78208095Y-79097142D01*
X78160476Y-79001904D01*
X78160476Y-78716190D01*
X78208095Y-78620952D01*
X78255714Y-78573333D01*
X78350952Y-78525714D01*
X78541428Y-78525714D01*
X78636666Y-78573333D01*
X79874761Y-78668571D02*
X80208095Y-78668571D01*
X80350952Y-79192380D02*
X79874761Y-79192380D01*
X79874761Y-78192380D01*
X80350952Y-78192380D01*
X80779523Y-79192380D02*
X80779523Y-78525714D01*
X80779523Y-78716190D02*
X80827142Y-78620952D01*
X80874761Y-78573333D01*
X80970000Y-78525714D01*
X81065238Y-78525714D01*
X81398571Y-79192380D02*
X81398571Y-78525714D01*
X81398571Y-78192380D02*
X81350952Y-78240000D01*
X81398571Y-78287619D01*
X81446190Y-78240000D01*
X81398571Y-78192380D01*
X81398571Y-78287619D01*
X82303333Y-79144761D02*
X82208095Y-79192380D01*
X82017619Y-79192380D01*
X81922380Y-79144761D01*
X81874761Y-79097142D01*
X81827142Y-79001904D01*
X81827142Y-78716190D01*
X81874761Y-78620952D01*
X81922380Y-78573333D01*
X82017619Y-78525714D01*
X82208095Y-78525714D01*
X82303333Y-78573333D01*
X83827142Y-78668571D02*
X83970000Y-78716190D01*
X84017619Y-78763809D01*
X84065238Y-78859047D01*
X84065238Y-79001904D01*
X84017619Y-79097142D01*
X83970000Y-79144761D01*
X83874761Y-79192380D01*
X83493809Y-79192380D01*
X83493809Y-78192380D01*
X83827142Y-78192380D01*
X83922380Y-78240000D01*
X83970000Y-78287619D01*
X84017619Y-78382857D01*
X84017619Y-78478095D01*
X83970000Y-78573333D01*
X83922380Y-78620952D01*
X83827142Y-78668571D01*
X83493809Y-78668571D01*
X84922380Y-78525714D02*
X84922380Y-79192380D01*
X84493809Y-78525714D02*
X84493809Y-79049523D01*
X84541428Y-79144761D01*
X84636666Y-79192380D01*
X84779523Y-79192380D01*
X84874761Y-79144761D01*
X84922380Y-79097142D01*
X85398571Y-79192380D02*
X85398571Y-78525714D01*
X85398571Y-78716190D02*
X85446190Y-78620952D01*
X85493809Y-78573333D01*
X85589047Y-78525714D01*
X85684285Y-78525714D01*
X86446190Y-78525714D02*
X86446190Y-79335238D01*
X86398571Y-79430476D01*
X86350952Y-79478095D01*
X86255714Y-79525714D01*
X86112857Y-79525714D01*
X86017619Y-79478095D01*
X86446190Y-79144761D02*
X86350952Y-79192380D01*
X86160476Y-79192380D01*
X86065238Y-79144761D01*
X86017619Y-79097142D01*
X85970000Y-79001904D01*
X85970000Y-78716190D01*
X86017619Y-78620952D01*
X86065238Y-78573333D01*
X86160476Y-78525714D01*
X86350952Y-78525714D01*
X86446190Y-78573333D01*
X87303333Y-79144761D02*
X87208095Y-79192380D01*
X87017619Y-79192380D01*
X86922380Y-79144761D01*
X86874761Y-79049523D01*
X86874761Y-78668571D01*
X86922380Y-78573333D01*
X87017619Y-78525714D01*
X87208095Y-78525714D01*
X87303333Y-78573333D01*
X87350952Y-78668571D01*
X87350952Y-78763809D01*
X86874761Y-78859047D01*
X87731904Y-79144761D02*
X87827142Y-79192380D01*
X88017619Y-79192380D01*
X88112857Y-79144761D01*
X88160476Y-79049523D01*
X88160476Y-79001904D01*
X88112857Y-78906666D01*
X88017619Y-78859047D01*
X87874761Y-78859047D01*
X87779523Y-78811428D01*
X87731904Y-78716190D01*
X87731904Y-78668571D01*
X87779523Y-78573333D01*
X87874761Y-78525714D01*
X88017619Y-78525714D01*
X88112857Y-78573333D01*
X88541428Y-79144761D02*
X88636666Y-79192380D01*
X88827142Y-79192380D01*
X88922380Y-79144761D01*
X88970000Y-79049523D01*
X88970000Y-79001904D01*
X88922380Y-78906666D01*
X88827142Y-78859047D01*
X88684285Y-78859047D01*
X88589047Y-78811428D01*
X88541428Y-78716190D01*
X88541428Y-78668571D01*
X88589047Y-78573333D01*
X88684285Y-78525714D01*
X88827142Y-78525714D01*
X88922380Y-78573333D01*
X66731904Y-80794761D02*
X66874761Y-80842380D01*
X67112857Y-80842380D01*
X67208095Y-80794761D01*
X67255714Y-80747142D01*
X67303333Y-80651904D01*
X67303333Y-80556666D01*
X67255714Y-80461428D01*
X67208095Y-80413809D01*
X67112857Y-80366190D01*
X66922380Y-80318571D01*
X66827142Y-80270952D01*
X66779523Y-80223333D01*
X66731904Y-80128095D01*
X66731904Y-80032857D01*
X66779523Y-79937619D01*
X66827142Y-79890000D01*
X66922380Y-79842380D01*
X67160476Y-79842380D01*
X67303333Y-79890000D01*
X68112857Y-80794761D02*
X68017619Y-80842380D01*
X67827142Y-80842380D01*
X67731904Y-80794761D01*
X67684285Y-80699523D01*
X67684285Y-80318571D01*
X67731904Y-80223333D01*
X67827142Y-80175714D01*
X68017619Y-80175714D01*
X68112857Y-80223333D01*
X68160476Y-80318571D01*
X68160476Y-80413809D01*
X67684285Y-80509047D01*
X68589047Y-80175714D02*
X68589047Y-80842380D01*
X68589047Y-80270952D02*
X68636666Y-80223333D01*
X68731904Y-80175714D01*
X68874761Y-80175714D01*
X68970000Y-80223333D01*
X69017619Y-80318571D01*
X69017619Y-80842380D01*
X69493809Y-80842380D02*
X69493809Y-80175714D01*
X69493809Y-79842380D02*
X69446190Y-79890000D01*
X69493809Y-79937619D01*
X69541428Y-79890000D01*
X69493809Y-79842380D01*
X69493809Y-79937619D01*
X70112857Y-80842380D02*
X70017619Y-80794761D01*
X69970000Y-80747142D01*
X69922380Y-80651904D01*
X69922380Y-80366190D01*
X69970000Y-80270952D01*
X70017619Y-80223333D01*
X70112857Y-80175714D01*
X70255714Y-80175714D01*
X70350952Y-80223333D01*
X70398571Y-80270952D01*
X70446190Y-80366190D01*
X70446190Y-80651904D01*
X70398571Y-80747142D01*
X70350952Y-80794761D01*
X70255714Y-80842380D01*
X70112857Y-80842380D01*
X70874761Y-80842380D02*
X70874761Y-80175714D01*
X70874761Y-80366190D02*
X70922380Y-80270952D01*
X70970000Y-80223333D01*
X71065238Y-80175714D01*
X71160476Y-80175714D01*
X71446190Y-80794761D02*
X71541428Y-80842380D01*
X71731904Y-80842380D01*
X71827142Y-80794761D01*
X71874761Y-80699523D01*
X71874761Y-80651904D01*
X71827142Y-80556666D01*
X71731904Y-80509047D01*
X71589047Y-80509047D01*
X71493809Y-80461428D01*
X71446190Y-80366190D01*
X71446190Y-80318571D01*
X71493809Y-80223333D01*
X71589047Y-80175714D01*
X71731904Y-80175714D01*
X71827142Y-80223333D01*
X73065238Y-80842380D02*
X73065238Y-79842380D01*
X73303333Y-79842380D01*
X73446190Y-79890000D01*
X73541428Y-79985238D01*
X73589047Y-80080476D01*
X73636666Y-80270952D01*
X73636666Y-80413809D01*
X73589047Y-80604285D01*
X73541428Y-80699523D01*
X73446190Y-80794761D01*
X73303333Y-80842380D01*
X73065238Y-80842380D01*
X74446190Y-80794761D02*
X74350952Y-80842380D01*
X74160476Y-80842380D01*
X74065238Y-80794761D01*
X74017619Y-80699523D01*
X74017619Y-80318571D01*
X74065238Y-80223333D01*
X74160476Y-80175714D01*
X74350952Y-80175714D01*
X74446190Y-80223333D01*
X74493809Y-80318571D01*
X74493809Y-80413809D01*
X74017619Y-80509047D01*
X74874761Y-80794761D02*
X74970000Y-80842380D01*
X75160476Y-80842380D01*
X75255714Y-80794761D01*
X75303333Y-80699523D01*
X75303333Y-80651904D01*
X75255714Y-80556666D01*
X75160476Y-80509047D01*
X75017619Y-80509047D01*
X74922380Y-80461428D01*
X74874761Y-80366190D01*
X74874761Y-80318571D01*
X74922380Y-80223333D01*
X75017619Y-80175714D01*
X75160476Y-80175714D01*
X75255714Y-80223333D01*
X75731904Y-80842380D02*
X75731904Y-80175714D01*
X75731904Y-79842380D02*
X75684285Y-79890000D01*
X75731904Y-79937619D01*
X75779523Y-79890000D01*
X75731904Y-79842380D01*
X75731904Y-79937619D01*
X76636666Y-80175714D02*
X76636666Y-80985238D01*
X76589047Y-81080476D01*
X76541428Y-81128095D01*
X76446190Y-81175714D01*
X76303333Y-81175714D01*
X76208095Y-81128095D01*
X76636666Y-80794761D02*
X76541428Y-80842380D01*
X76350952Y-80842380D01*
X76255714Y-80794761D01*
X76208095Y-80747142D01*
X76160476Y-80651904D01*
X76160476Y-80366190D01*
X76208095Y-80270952D01*
X76255714Y-80223333D01*
X76350952Y-80175714D01*
X76541428Y-80175714D01*
X76636666Y-80223333D01*
X77112857Y-80175714D02*
X77112857Y-80842380D01*
X77112857Y-80270952D02*
X77160476Y-80223333D01*
X77255714Y-80175714D01*
X77398571Y-80175714D01*
X77493809Y-80223333D01*
X77541428Y-80318571D01*
X77541428Y-80842380D01*
X78779523Y-80842380D02*
X78779523Y-79842380D01*
X79160476Y-79842380D01*
X79255714Y-79890000D01*
X79303333Y-79937619D01*
X79350952Y-80032857D01*
X79350952Y-80175714D01*
X79303333Y-80270952D01*
X79255714Y-80318571D01*
X79160476Y-80366190D01*
X78779523Y-80366190D01*
X79779523Y-80842380D02*
X79779523Y-80175714D01*
X79779523Y-80366190D02*
X79827142Y-80270952D01*
X79874761Y-80223333D01*
X79970000Y-80175714D01*
X80065238Y-80175714D01*
X80541428Y-80842380D02*
X80446190Y-80794761D01*
X80398571Y-80747142D01*
X80350952Y-80651904D01*
X80350952Y-80366190D01*
X80398571Y-80270952D01*
X80446190Y-80223333D01*
X80541428Y-80175714D01*
X80684285Y-80175714D01*
X80779523Y-80223333D01*
X80827142Y-80270952D01*
X80874761Y-80366190D01*
X80874761Y-80651904D01*
X80827142Y-80747142D01*
X80779523Y-80794761D01*
X80684285Y-80842380D01*
X80541428Y-80842380D01*
X81303333Y-80175714D02*
X81303333Y-81032857D01*
X81255714Y-81128095D01*
X81160476Y-81175714D01*
X81112857Y-81175714D01*
X81303333Y-79842380D02*
X81255714Y-79890000D01*
X81303333Y-79937619D01*
X81350952Y-79890000D01*
X81303333Y-79842380D01*
X81303333Y-79937619D01*
X82160476Y-80794761D02*
X82065238Y-80842380D01*
X81874761Y-80842380D01*
X81779523Y-80794761D01*
X81731904Y-80699523D01*
X81731904Y-80318571D01*
X81779523Y-80223333D01*
X81874761Y-80175714D01*
X82065238Y-80175714D01*
X82160476Y-80223333D01*
X82208095Y-80318571D01*
X82208095Y-80413809D01*
X81731904Y-80509047D01*
X83065238Y-80794761D02*
X82970000Y-80842380D01*
X82779523Y-80842380D01*
X82684285Y-80794761D01*
X82636666Y-80747142D01*
X82589047Y-80651904D01*
X82589047Y-80366190D01*
X82636666Y-80270952D01*
X82684285Y-80223333D01*
X82779523Y-80175714D01*
X82970000Y-80175714D01*
X83065238Y-80223333D01*
X83350952Y-80175714D02*
X83731904Y-80175714D01*
X83493809Y-79842380D02*
X83493809Y-80699523D01*
X83541428Y-80794761D01*
X83636666Y-80842380D01*
X83731904Y-80842380D01*
X84779523Y-79937619D02*
X84827142Y-79890000D01*
X84922380Y-79842380D01*
X85160476Y-79842380D01*
X85255714Y-79890000D01*
X85303333Y-79937619D01*
X85350952Y-80032857D01*
X85350952Y-80128095D01*
X85303333Y-80270952D01*
X84731904Y-80842380D01*
X85350952Y-80842380D01*
X85970000Y-79842380D02*
X86065238Y-79842380D01*
X86160476Y-79890000D01*
X86208095Y-79937619D01*
X86255714Y-80032857D01*
X86303333Y-80223333D01*
X86303333Y-80461428D01*
X86255714Y-80651904D01*
X86208095Y-80747142D01*
X86160476Y-80794761D01*
X86065238Y-80842380D01*
X85970000Y-80842380D01*
X85874761Y-80794761D01*
X85827142Y-80747142D01*
X85779523Y-80651904D01*
X85731904Y-80461428D01*
X85731904Y-80223333D01*
X85779523Y-80032857D01*
X85827142Y-79937619D01*
X85874761Y-79890000D01*
X85970000Y-79842380D01*
X86684285Y-79937619D02*
X86731904Y-79890000D01*
X86827142Y-79842380D01*
X87065238Y-79842380D01*
X87160476Y-79890000D01*
X87208095Y-79937619D01*
X87255714Y-80032857D01*
X87255714Y-80128095D01*
X87208095Y-80270952D01*
X86636666Y-80842380D01*
X87255714Y-80842380D01*
X88208095Y-80842380D02*
X87636666Y-80842380D01*
X87922380Y-80842380D02*
X87922380Y-79842380D01*
X87827142Y-79985238D01*
X87731904Y-80080476D01*
X87636666Y-80128095D01*
D12*
X97971428Y-139500428D02*
X98552000Y-139500428D01*
X99314000Y-139790714D02*
X98878571Y-139790714D01*
X99096285Y-139790714D02*
X99096285Y-139028714D01*
X99023714Y-139137571D01*
X98951142Y-139210142D01*
X98878571Y-139246428D01*
X99604285Y-139101285D02*
X99640571Y-139065000D01*
X99713142Y-139028714D01*
X99894571Y-139028714D01*
X99967142Y-139065000D01*
X100003428Y-139101285D01*
X100039714Y-139173857D01*
X100039714Y-139246428D01*
X100003428Y-139355285D01*
X99568000Y-139790714D01*
X100039714Y-139790714D01*
X100257428Y-139028714D02*
X100511428Y-139790714D01*
X100765428Y-139028714D01*
X96193428Y-138049000D02*
X96120857Y-138012714D01*
X96012000Y-138012714D01*
X95903142Y-138049000D01*
X95830571Y-138121571D01*
X95794285Y-138194142D01*
X95758000Y-138339285D01*
X95758000Y-138448142D01*
X95794285Y-138593285D01*
X95830571Y-138665857D01*
X95903142Y-138738428D01*
X96012000Y-138774714D01*
X96084571Y-138774714D01*
X96193428Y-138738428D01*
X96229714Y-138702142D01*
X96229714Y-138448142D01*
X96084571Y-138448142D01*
X96556285Y-138774714D02*
X96556285Y-138012714D01*
X96991714Y-138774714D01*
X96991714Y-138012714D01*
X97354571Y-138774714D02*
X97354571Y-138012714D01*
X97536000Y-138012714D01*
X97644857Y-138049000D01*
X97717428Y-138121571D01*
X97753714Y-138194142D01*
X97790000Y-138339285D01*
X97790000Y-138448142D01*
X97753714Y-138593285D01*
X97717428Y-138665857D01*
X97644857Y-138738428D01*
X97536000Y-138774714D01*
X97354571Y-138774714D01*
X92383428Y-139500428D02*
X92964000Y-139500428D01*
X92673714Y-139790714D02*
X92673714Y-139210142D01*
X93726000Y-139790714D02*
X93290571Y-139790714D01*
X93508285Y-139790714D02*
X93508285Y-139028714D01*
X93435714Y-139137571D01*
X93363142Y-139210142D01*
X93290571Y-139246428D01*
X94016285Y-139101285D02*
X94052571Y-139065000D01*
X94125142Y-139028714D01*
X94306571Y-139028714D01*
X94379142Y-139065000D01*
X94415428Y-139101285D01*
X94451714Y-139173857D01*
X94451714Y-139246428D01*
X94415428Y-139355285D01*
X93980000Y-139790714D01*
X94451714Y-139790714D01*
X94669428Y-139028714D02*
X94923428Y-139790714D01*
X95177428Y-139028714D01*
D13*
%TO.C,RV4*%
X99064000Y-125275000D02*
X94564000Y-125275000D01*
X99064000Y-122375000D02*
X94564000Y-122375000D01*
X94564000Y-122375000D02*
G75*
G03*
X94564000Y-125275000I0J-1450000D01*
G01*
X99064000Y-122375000D02*
G75*
G02*
X99064000Y-125275000I0J-1450000D01*
G01*
%TO.C,J5*%
X99064000Y-114628000D02*
X94564000Y-114628000D01*
X99064000Y-117528000D02*
X94564000Y-117528000D01*
X94564000Y-114628000D02*
G75*
G03*
X94564000Y-117528000I0J-1450000D01*
G01*
X99064000Y-114628000D02*
G75*
G02*
X99064000Y-117528000I0J-1450000D01*
G01*
%TO.C,RV1*%
X67949000Y-151310000D02*
X63449000Y-151310000D01*
X67949000Y-148410000D02*
X63449000Y-148410000D01*
X63449000Y-148410000D02*
G75*
G03*
X63449000Y-151310000I0J-1450000D01*
G01*
X67949000Y-148410000D02*
G75*
G02*
X67949000Y-151310000I0J-1450000D01*
G01*
%TO.C,RV3*%
X91444000Y-151564000D02*
X86944000Y-151564000D01*
X91444000Y-148664000D02*
X86944000Y-148664000D01*
X86944000Y-148664000D02*
G75*
G03*
X86944000Y-151564000I0J-1450000D01*
G01*
X91444000Y-148664000D02*
G75*
G02*
X91444000Y-151564000I0J-1450000D01*
G01*
%TO.C,RV2*%
X79934000Y-151310000D02*
X75434000Y-151310000D01*
X79934000Y-148410000D02*
X75434000Y-148410000D01*
X75434000Y-148410000D02*
G75*
G03*
X75434000Y-151310000I0J-1450000D01*
G01*
X79934000Y-148410000D02*
G75*
G02*
X79934000Y-151310000I0J-1450000D01*
G01*
%TO.C,J1*%
X63496000Y-158676000D02*
X67996000Y-158676000D01*
X63496000Y-155776000D02*
X67996000Y-155776000D01*
X67996000Y-158676000D02*
G75*
G03*
X67996000Y-155776000I0J1450000D01*
G01*
X63496000Y-158676000D02*
G75*
G02*
X63496000Y-155776000I0J1450000D01*
G01*
%TO.C,J2*%
X75434000Y-158676000D02*
X79934000Y-158676000D01*
X75434000Y-155776000D02*
X79934000Y-155776000D01*
X79934000Y-158676000D02*
G75*
G03*
X79934000Y-155776000I0J1450000D01*
G01*
X75434000Y-158676000D02*
G75*
G02*
X75434000Y-155776000I0J1450000D01*
G01*
%TO.C,J3*%
X86864000Y-158676000D02*
X91364000Y-158676000D01*
X86864000Y-155776000D02*
X91364000Y-155776000D01*
X91364000Y-158676000D02*
G75*
G03*
X91364000Y-155776000I0J1450000D01*
G01*
X86864000Y-158676000D02*
G75*
G02*
X86864000Y-155776000I0J1450000D01*
G01*
%TO.C,IC1*%
X82974000Y-91955000D02*
X72474000Y-91955000D01*
X82974000Y-112515000D02*
X82974000Y-91955000D01*
X72474000Y-112515000D02*
X82974000Y-112515000D01*
X72474000Y-91955000D02*
X72474000Y-112515000D01*
X79974000Y-92015000D02*
X78724000Y-92015000D01*
X79974000Y-112455000D02*
X79974000Y-92015000D01*
X75474000Y-112455000D02*
X79974000Y-112455000D01*
X75474000Y-92015000D02*
X75474000Y-112455000D01*
X76724000Y-92015000D02*
X75474000Y-92015000D01*
X78724000Y-92015000D02*
G75*
G02*
X76724000Y-92015000I-1000000J0D01*
G01*
%TO.C,C2*%
X98520000Y-109761000D02*
X98520000Y-110386000D01*
X98520000Y-107546000D02*
X98520000Y-108171000D01*
X94480000Y-109761000D02*
X94480000Y-110386000D01*
X94480000Y-107546000D02*
X94480000Y-108171000D01*
X94480000Y-110386000D02*
X98520000Y-110386000D01*
X94480000Y-107546000D02*
X98520000Y-107546000D01*
%TO.C,J4*%
X75124000Y-88325000D02*
X75124000Y-86995000D01*
X76454000Y-88325000D02*
X75124000Y-88325000D01*
X77724000Y-88325000D02*
X77724000Y-85665000D01*
X77724000Y-85665000D02*
X80324000Y-85665000D01*
X77724000Y-88325000D02*
X80324000Y-88325000D01*
X80324000Y-88325000D02*
X80324000Y-85665000D01*
%TO.C,J6*%
X100644000Y-134560000D02*
X100644000Y-135890000D01*
X99314000Y-134560000D02*
X100644000Y-134560000D01*
X98044000Y-134560000D02*
X98044000Y-137220000D01*
X98044000Y-137220000D02*
X90364000Y-137220000D01*
X98044000Y-134560000D02*
X90364000Y-134560000D01*
X90364000Y-134560000D02*
X90364000Y-137220000D01*
%TO.C,R1*%
X62389000Y-142470000D02*
X62389000Y-142140000D01*
X62389000Y-142140000D02*
X68929000Y-142140000D01*
X68929000Y-142140000D02*
X68929000Y-142470000D01*
X62389000Y-144550000D02*
X62389000Y-144880000D01*
X62389000Y-144880000D02*
X68929000Y-144880000D01*
X68929000Y-144880000D02*
X68929000Y-144550000D01*
%TO.C,R2*%
X80994000Y-144880000D02*
X80994000Y-144550000D01*
X74454000Y-144880000D02*
X80994000Y-144880000D01*
X74454000Y-144550000D02*
X74454000Y-144880000D01*
X80994000Y-142140000D02*
X80994000Y-142470000D01*
X74454000Y-142140000D02*
X80994000Y-142140000D01*
X74454000Y-142470000D02*
X74454000Y-142140000D01*
%TO.C,R3*%
X93059000Y-144550000D02*
X93059000Y-144880000D01*
X93059000Y-144880000D02*
X86519000Y-144880000D01*
X86519000Y-144880000D02*
X86519000Y-144550000D01*
X93059000Y-142470000D02*
X93059000Y-142140000D01*
X93059000Y-142140000D02*
X86519000Y-142140000D01*
X86519000Y-142140000D02*
X86519000Y-142470000D01*
%TO.C,R4*%
X59214000Y-136425000D02*
X59214000Y-136755000D01*
X65754000Y-136425000D02*
X59214000Y-136425000D01*
X65754000Y-136755000D02*
X65754000Y-136425000D01*
X59214000Y-139165000D02*
X59214000Y-138835000D01*
X65754000Y-139165000D02*
X59214000Y-139165000D01*
X65754000Y-138835000D02*
X65754000Y-139165000D01*
%TO.C,R5*%
X65754000Y-132815000D02*
X65754000Y-132485000D01*
X59214000Y-132815000D02*
X65754000Y-132815000D01*
X59214000Y-132485000D02*
X59214000Y-132815000D01*
X65754000Y-130075000D02*
X65754000Y-130405000D01*
X59214000Y-130075000D02*
X65754000Y-130075000D01*
X59214000Y-130405000D02*
X59214000Y-130075000D01*
%TO.C,R6*%
X59214000Y-124055000D02*
X59214000Y-123725000D01*
X59214000Y-123725000D02*
X65754000Y-123725000D01*
X65754000Y-123725000D02*
X65754000Y-124055000D01*
X59214000Y-126135000D02*
X59214000Y-126465000D01*
X59214000Y-126465000D02*
X65754000Y-126465000D01*
X65754000Y-126465000D02*
X65754000Y-126135000D01*
%TO.C,R7*%
X65754000Y-88365000D02*
X65754000Y-88035000D01*
X59214000Y-88365000D02*
X65754000Y-88365000D01*
X59214000Y-88035000D02*
X59214000Y-88365000D01*
X65754000Y-85625000D02*
X65754000Y-85955000D01*
X59214000Y-85625000D02*
X65754000Y-85625000D01*
X59214000Y-85955000D02*
X59214000Y-85625000D01*
%TO.C,R8*%
X65754000Y-94385000D02*
X65754000Y-94715000D01*
X65754000Y-94715000D02*
X59214000Y-94715000D01*
X59214000Y-94715000D02*
X59214000Y-94385000D01*
X65754000Y-92305000D02*
X65754000Y-91975000D01*
X65754000Y-91975000D02*
X59214000Y-91975000D01*
X59214000Y-91975000D02*
X59214000Y-92305000D01*
%TO.C,R9*%
X65754000Y-120115000D02*
X65754000Y-119785000D01*
X59214000Y-120115000D02*
X65754000Y-120115000D01*
X59214000Y-119785000D02*
X59214000Y-120115000D01*
X65754000Y-117375000D02*
X65754000Y-117705000D01*
X59214000Y-117375000D02*
X65754000Y-117375000D01*
X59214000Y-117705000D02*
X59214000Y-117375000D01*
%TO.C,R10*%
X65754000Y-100735000D02*
X65754000Y-101065000D01*
X65754000Y-101065000D02*
X59214000Y-101065000D01*
X59214000Y-101065000D02*
X59214000Y-100735000D01*
X65754000Y-98655000D02*
X65754000Y-98325000D01*
X65754000Y-98325000D02*
X59214000Y-98325000D01*
X59214000Y-98325000D02*
X59214000Y-98655000D01*
%TO.C,R11*%
X65754000Y-107415000D02*
X65754000Y-107085000D01*
X59214000Y-107415000D02*
X65754000Y-107415000D01*
X59214000Y-107085000D02*
X59214000Y-107415000D01*
X65754000Y-104675000D02*
X65754000Y-105005000D01*
X59214000Y-104675000D02*
X65754000Y-104675000D01*
X59214000Y-105005000D02*
X59214000Y-104675000D01*
%TO.C,R12*%
X99409000Y-96925000D02*
X99409000Y-97255000D01*
X99409000Y-97255000D02*
X92869000Y-97255000D01*
X92869000Y-97255000D02*
X92869000Y-96925000D01*
X99409000Y-94845000D02*
X99409000Y-94515000D01*
X99409000Y-94515000D02*
X92869000Y-94515000D01*
X92869000Y-94515000D02*
X92869000Y-94845000D01*
%TO.C,R13*%
X99409000Y-90575000D02*
X99409000Y-90905000D01*
X99409000Y-90905000D02*
X92869000Y-90905000D01*
X92869000Y-90905000D02*
X92869000Y-90575000D01*
X99409000Y-88495000D02*
X99409000Y-88165000D01*
X99409000Y-88165000D02*
X92869000Y-88165000D01*
X92869000Y-88165000D02*
X92869000Y-88495000D01*
%TO.C,R14*%
X92869000Y-100865000D02*
X92869000Y-101195000D01*
X99409000Y-100865000D02*
X92869000Y-100865000D01*
X99409000Y-101195000D02*
X99409000Y-100865000D01*
X92869000Y-103605000D02*
X92869000Y-103275000D01*
X99409000Y-103605000D02*
X92869000Y-103605000D01*
X99409000Y-103275000D02*
X99409000Y-103605000D01*
%TO.C,R15*%
X92234000Y-128805000D02*
X92234000Y-129135000D01*
X98774000Y-128805000D02*
X92234000Y-128805000D01*
X98774000Y-129135000D02*
X98774000Y-128805000D01*
X92234000Y-131545000D02*
X92234000Y-131215000D01*
X98774000Y-131545000D02*
X92234000Y-131545000D01*
X98774000Y-131215000D02*
X98774000Y-131545000D01*
%TO.C,U1*%
X82974000Y-117990000D02*
X72474000Y-117990000D01*
X82974000Y-136010000D02*
X82974000Y-117990000D01*
X72474000Y-136010000D02*
X82974000Y-136010000D01*
X72474000Y-117990000D02*
X72474000Y-136010000D01*
X79974000Y-118050000D02*
X78724000Y-118050000D01*
X79974000Y-135950000D02*
X79974000Y-118050000D01*
X75474000Y-135950000D02*
X79974000Y-135950000D01*
X75474000Y-118050000D02*
X75474000Y-135950000D01*
X76724000Y-118050000D02*
X75474000Y-118050000D01*
X78724000Y-118050000D02*
G75*
G02*
X76724000Y-118050000I-1000000J0D01*
G01*
%TO.C,C1*%
X60234000Y-113845000D02*
X64734000Y-113845000D01*
X60234000Y-110945000D02*
X64734000Y-110945000D01*
X60234000Y-113845000D02*
G75*
G02*
X60234000Y-110945000I0J1450000D01*
G01*
X64734000Y-113845000D02*
G75*
G03*
X64734000Y-110945000I0J1450000D01*
G01*
%TO.C,RV4*%
D11*
X96218761Y-126727380D02*
X95885428Y-126251190D01*
X95647333Y-126727380D02*
X95647333Y-125727380D01*
X96028285Y-125727380D01*
X96123523Y-125775000D01*
X96171142Y-125822619D01*
X96218761Y-125917857D01*
X96218761Y-126060714D01*
X96171142Y-126155952D01*
X96123523Y-126203571D01*
X96028285Y-126251190D01*
X95647333Y-126251190D01*
X96504476Y-125727380D02*
X96837809Y-126727380D01*
X97171142Y-125727380D01*
X97933047Y-126060714D02*
X97933047Y-126727380D01*
X97694952Y-125679761D02*
X97456857Y-126394047D01*
X98075904Y-126394047D01*
X102306380Y-124769428D02*
X102306380Y-125340857D01*
X102306380Y-125055142D02*
X101306380Y-125055142D01*
X101449238Y-125150380D01*
X101544476Y-125245619D01*
X101592095Y-125340857D01*
X101306380Y-124150380D02*
X101306380Y-124055142D01*
X101354000Y-123959904D01*
X101401619Y-123912285D01*
X101496857Y-123864666D01*
X101687333Y-123817047D01*
X101925428Y-123817047D01*
X102115904Y-123864666D01*
X102211142Y-123912285D01*
X102258761Y-123959904D01*
X102306380Y-124055142D01*
X102306380Y-124150380D01*
X102258761Y-124245619D01*
X102211142Y-124293238D01*
X102115904Y-124340857D01*
X101925428Y-124388476D01*
X101687333Y-124388476D01*
X101496857Y-124340857D01*
X101401619Y-124293238D01*
X101354000Y-124245619D01*
X101306380Y-124150380D01*
X101306380Y-123198000D02*
X101306380Y-123102761D01*
X101354000Y-123007523D01*
X101401619Y-122959904D01*
X101496857Y-122912285D01*
X101687333Y-122864666D01*
X101925428Y-122864666D01*
X102115904Y-122912285D01*
X102211142Y-122959904D01*
X102258761Y-123007523D01*
X102306380Y-123102761D01*
X102306380Y-123198000D01*
X102258761Y-123293238D01*
X102211142Y-123340857D01*
X102115904Y-123388476D01*
X101925428Y-123436095D01*
X101687333Y-123436095D01*
X101496857Y-123388476D01*
X101401619Y-123340857D01*
X101354000Y-123293238D01*
X101306380Y-123198000D01*
X102306380Y-122436095D02*
X101306380Y-122436095D01*
X101925428Y-122340857D02*
X102306380Y-122055142D01*
X101639714Y-122055142D02*
X102020666Y-122436095D01*
X93900666Y-120737380D02*
X94519714Y-120737380D01*
X94186380Y-121118333D01*
X94329238Y-121118333D01*
X94424476Y-121165952D01*
X94472095Y-121213571D01*
X94519714Y-121308809D01*
X94519714Y-121546904D01*
X94472095Y-121642142D01*
X94424476Y-121689761D01*
X94329238Y-121737380D01*
X94043523Y-121737380D01*
X93948285Y-121689761D01*
X93900666Y-121642142D01*
X96488285Y-120832619D02*
X96535904Y-120785000D01*
X96631142Y-120737380D01*
X96869238Y-120737380D01*
X96964476Y-120785000D01*
X97012095Y-120832619D01*
X97059714Y-120927857D01*
X97059714Y-121023095D01*
X97012095Y-121165952D01*
X96440666Y-121737380D01*
X97059714Y-121737380D01*
X99599714Y-121737380D02*
X99028285Y-121737380D01*
X99314000Y-121737380D02*
X99314000Y-120737380D01*
X99218761Y-120880238D01*
X99123523Y-120975476D01*
X99028285Y-121023095D01*
%TO.C,J5*%
X96480666Y-117980380D02*
X96480666Y-118694666D01*
X96433047Y-118837523D01*
X96337809Y-118932761D01*
X96194952Y-118980380D01*
X96099714Y-118980380D01*
X97433047Y-117980380D02*
X96956857Y-117980380D01*
X96909238Y-118456571D01*
X96956857Y-118408952D01*
X97052095Y-118361333D01*
X97290190Y-118361333D01*
X97385428Y-118408952D01*
X97433047Y-118456571D01*
X97480666Y-118551809D01*
X97480666Y-118789904D01*
X97433047Y-118885142D01*
X97385428Y-118932761D01*
X97290190Y-118980380D01*
X97052095Y-118980380D01*
X96956857Y-118932761D01*
X96909238Y-118885142D01*
X101814380Y-117720809D02*
X101814380Y-117530333D01*
X101862000Y-117435095D01*
X101957238Y-117339857D01*
X102147714Y-117292238D01*
X102481047Y-117292238D01*
X102671523Y-117339857D01*
X102766761Y-117435095D01*
X102814380Y-117530333D01*
X102814380Y-117720809D01*
X102766761Y-117816047D01*
X102671523Y-117911285D01*
X102481047Y-117958904D01*
X102147714Y-117958904D01*
X101957238Y-117911285D01*
X101862000Y-117816047D01*
X101814380Y-117720809D01*
X102147714Y-116435095D02*
X102814380Y-116435095D01*
X102147714Y-116863666D02*
X102671523Y-116863666D01*
X102766761Y-116816047D01*
X102814380Y-116720809D01*
X102814380Y-116577952D01*
X102766761Y-116482714D01*
X102719142Y-116435095D01*
X102147714Y-116101761D02*
X102147714Y-115720809D01*
X101814380Y-115958904D02*
X102671523Y-115958904D01*
X102766761Y-115911285D01*
X102814380Y-115816047D01*
X102814380Y-115720809D01*
X102147714Y-115387476D02*
X103147714Y-115387476D01*
X102195333Y-115387476D02*
X102147714Y-115292238D01*
X102147714Y-115101761D01*
X102195333Y-115006523D01*
X102242952Y-114958904D01*
X102338190Y-114911285D01*
X102623904Y-114911285D01*
X102719142Y-114958904D01*
X102766761Y-115006523D01*
X102814380Y-115101761D01*
X102814380Y-115292238D01*
X102766761Y-115387476D01*
X102147714Y-114054142D02*
X102814380Y-114054142D01*
X102147714Y-114482714D02*
X102671523Y-114482714D01*
X102766761Y-114435095D01*
X102814380Y-114339857D01*
X102814380Y-114197000D01*
X102766761Y-114101761D01*
X102719142Y-114054142D01*
X102147714Y-113720809D02*
X102147714Y-113339857D01*
X101814380Y-113577952D02*
X102671523Y-113577952D01*
X102766761Y-113530333D01*
X102814380Y-113435095D01*
X102814380Y-113339857D01*
X99028285Y-113942761D02*
X99171142Y-113990380D01*
X99409238Y-113990380D01*
X99504476Y-113942761D01*
X99552095Y-113895142D01*
X99599714Y-113799904D01*
X99599714Y-113704666D01*
X99552095Y-113609428D01*
X99504476Y-113561809D01*
X99409238Y-113514190D01*
X99218761Y-113466571D01*
X99123523Y-113418952D01*
X99075904Y-113371333D01*
X99028285Y-113276095D01*
X99028285Y-113180857D01*
X99075904Y-113085619D01*
X99123523Y-113038000D01*
X99218761Y-112990380D01*
X99456857Y-112990380D01*
X99599714Y-113038000D01*
X96488285Y-112990380D02*
X97059714Y-112990380D01*
X96774000Y-113990380D02*
X96774000Y-112990380D01*
X93424476Y-112990380D02*
X93995904Y-112990380D01*
X93710190Y-113990380D02*
X93710190Y-112990380D01*
X94329238Y-113990380D02*
X94329238Y-112990380D01*
X94900666Y-113990380D01*
X94900666Y-112990380D01*
%TO.C,RV1*%
X65103761Y-152762380D02*
X64770428Y-152286190D01*
X64532333Y-152762380D02*
X64532333Y-151762380D01*
X64913285Y-151762380D01*
X65008523Y-151810000D01*
X65056142Y-151857619D01*
X65103761Y-151952857D01*
X65103761Y-152095714D01*
X65056142Y-152190952D01*
X65008523Y-152238571D01*
X64913285Y-152286190D01*
X64532333Y-152286190D01*
X65389476Y-151762380D02*
X65722809Y-152762380D01*
X66056142Y-151762380D01*
X66913285Y-152762380D02*
X66341857Y-152762380D01*
X66627571Y-152762380D02*
X66627571Y-151762380D01*
X66532333Y-151905238D01*
X66437095Y-152000476D01*
X66341857Y-152048095D01*
X61158380Y-150709238D02*
X61158380Y-151280666D01*
X61158380Y-150994952D02*
X60158380Y-150994952D01*
X60301238Y-151090190D01*
X60396476Y-151185428D01*
X60444095Y-151280666D01*
X60158380Y-150090190D02*
X60158380Y-149994952D01*
X60206000Y-149899714D01*
X60253619Y-149852095D01*
X60348857Y-149804476D01*
X60539333Y-149756857D01*
X60777428Y-149756857D01*
X60967904Y-149804476D01*
X61063142Y-149852095D01*
X61110761Y-149899714D01*
X61158380Y-149994952D01*
X61158380Y-150090190D01*
X61110761Y-150185428D01*
X61063142Y-150233047D01*
X60967904Y-150280666D01*
X60777428Y-150328285D01*
X60539333Y-150328285D01*
X60348857Y-150280666D01*
X60253619Y-150233047D01*
X60206000Y-150185428D01*
X60158380Y-150090190D01*
X61158380Y-149328285D02*
X60158380Y-149328285D01*
X60777428Y-149233047D02*
X61158380Y-148947333D01*
X60491714Y-148947333D02*
X60872666Y-149328285D01*
X62785666Y-146772380D02*
X63404714Y-146772380D01*
X63071380Y-147153333D01*
X63214238Y-147153333D01*
X63309476Y-147200952D01*
X63357095Y-147248571D01*
X63404714Y-147343809D01*
X63404714Y-147581904D01*
X63357095Y-147677142D01*
X63309476Y-147724761D01*
X63214238Y-147772380D01*
X62928523Y-147772380D01*
X62833285Y-147724761D01*
X62785666Y-147677142D01*
X65373285Y-146867619D02*
X65420904Y-146820000D01*
X65516142Y-146772380D01*
X65754238Y-146772380D01*
X65849476Y-146820000D01*
X65897095Y-146867619D01*
X65944714Y-146962857D01*
X65944714Y-147058095D01*
X65897095Y-147200952D01*
X65325666Y-147772380D01*
X65944714Y-147772380D01*
X68484714Y-147772380D02*
X67913285Y-147772380D01*
X68199000Y-147772380D02*
X68199000Y-146772380D01*
X68103761Y-146915238D01*
X68008523Y-147010476D01*
X67913285Y-147058095D01*
%TO.C,RV3*%
X88598761Y-153016380D02*
X88265428Y-152540190D01*
X88027333Y-153016380D02*
X88027333Y-152016380D01*
X88408285Y-152016380D01*
X88503523Y-152064000D01*
X88551142Y-152111619D01*
X88598761Y-152206857D01*
X88598761Y-152349714D01*
X88551142Y-152444952D01*
X88503523Y-152492571D01*
X88408285Y-152540190D01*
X88027333Y-152540190D01*
X88884476Y-152016380D02*
X89217809Y-153016380D01*
X89551142Y-152016380D01*
X89789238Y-152016380D02*
X90408285Y-152016380D01*
X90074952Y-152397333D01*
X90217809Y-152397333D01*
X90313047Y-152444952D01*
X90360666Y-152492571D01*
X90408285Y-152587809D01*
X90408285Y-152825904D01*
X90360666Y-152921142D01*
X90313047Y-152968761D01*
X90217809Y-153016380D01*
X89932095Y-153016380D01*
X89836857Y-152968761D01*
X89789238Y-152921142D01*
X84526380Y-150709238D02*
X84526380Y-151280666D01*
X84526380Y-150994952D02*
X83526380Y-150994952D01*
X83669238Y-151090190D01*
X83764476Y-151185428D01*
X83812095Y-151280666D01*
X83526380Y-150090190D02*
X83526380Y-149994952D01*
X83574000Y-149899714D01*
X83621619Y-149852095D01*
X83716857Y-149804476D01*
X83907333Y-149756857D01*
X84145428Y-149756857D01*
X84335904Y-149804476D01*
X84431142Y-149852095D01*
X84478761Y-149899714D01*
X84526380Y-149994952D01*
X84526380Y-150090190D01*
X84478761Y-150185428D01*
X84431142Y-150233047D01*
X84335904Y-150280666D01*
X84145428Y-150328285D01*
X83907333Y-150328285D01*
X83716857Y-150280666D01*
X83621619Y-150233047D01*
X83574000Y-150185428D01*
X83526380Y-150090190D01*
X84526380Y-149328285D02*
X83526380Y-149328285D01*
X84145428Y-149233047D02*
X84526380Y-148947333D01*
X83859714Y-148947333D02*
X84240666Y-149328285D01*
X86280666Y-147026380D02*
X86899714Y-147026380D01*
X86566380Y-147407333D01*
X86709238Y-147407333D01*
X86804476Y-147454952D01*
X86852095Y-147502571D01*
X86899714Y-147597809D01*
X86899714Y-147835904D01*
X86852095Y-147931142D01*
X86804476Y-147978761D01*
X86709238Y-148026380D01*
X86423523Y-148026380D01*
X86328285Y-147978761D01*
X86280666Y-147931142D01*
X88868285Y-147121619D02*
X88915904Y-147074000D01*
X89011142Y-147026380D01*
X89249238Y-147026380D01*
X89344476Y-147074000D01*
X89392095Y-147121619D01*
X89439714Y-147216857D01*
X89439714Y-147312095D01*
X89392095Y-147454952D01*
X88820666Y-148026380D01*
X89439714Y-148026380D01*
X91979714Y-148026380D02*
X91408285Y-148026380D01*
X91694000Y-148026380D02*
X91694000Y-147026380D01*
X91598761Y-147169238D01*
X91503523Y-147264476D01*
X91408285Y-147312095D01*
%TO.C,RV2*%
X77088761Y-152762380D02*
X76755428Y-152286190D01*
X76517333Y-152762380D02*
X76517333Y-151762380D01*
X76898285Y-151762380D01*
X76993523Y-151810000D01*
X77041142Y-151857619D01*
X77088761Y-151952857D01*
X77088761Y-152095714D01*
X77041142Y-152190952D01*
X76993523Y-152238571D01*
X76898285Y-152286190D01*
X76517333Y-152286190D01*
X77374476Y-151762380D02*
X77707809Y-152762380D01*
X78041142Y-151762380D01*
X78326857Y-151857619D02*
X78374476Y-151810000D01*
X78469714Y-151762380D01*
X78707809Y-151762380D01*
X78803047Y-151810000D01*
X78850666Y-151857619D01*
X78898285Y-151952857D01*
X78898285Y-152048095D01*
X78850666Y-152190952D01*
X78279238Y-152762380D01*
X78898285Y-152762380D01*
X73350380Y-150201238D02*
X73350380Y-150772666D01*
X73350380Y-150486952D02*
X72350380Y-150486952D01*
X72493238Y-150582190D01*
X72588476Y-150677428D01*
X72636095Y-150772666D01*
X72350380Y-149582190D02*
X72350380Y-149486952D01*
X72398000Y-149391714D01*
X72445619Y-149344095D01*
X72540857Y-149296476D01*
X72731333Y-149248857D01*
X72969428Y-149248857D01*
X73159904Y-149296476D01*
X73255142Y-149344095D01*
X73302761Y-149391714D01*
X73350380Y-149486952D01*
X73350380Y-149582190D01*
X73302761Y-149677428D01*
X73255142Y-149725047D01*
X73159904Y-149772666D01*
X72969428Y-149820285D01*
X72731333Y-149820285D01*
X72540857Y-149772666D01*
X72445619Y-149725047D01*
X72398000Y-149677428D01*
X72350380Y-149582190D01*
X73350380Y-148820285D02*
X72350380Y-148820285D01*
X72969428Y-148725047D02*
X73350380Y-148439333D01*
X72683714Y-148439333D02*
X73064666Y-148820285D01*
X74770666Y-146772380D02*
X75389714Y-146772380D01*
X75056380Y-147153333D01*
X75199238Y-147153333D01*
X75294476Y-147200952D01*
X75342095Y-147248571D01*
X75389714Y-147343809D01*
X75389714Y-147581904D01*
X75342095Y-147677142D01*
X75294476Y-147724761D01*
X75199238Y-147772380D01*
X74913523Y-147772380D01*
X74818285Y-147724761D01*
X74770666Y-147677142D01*
X77358285Y-146867619D02*
X77405904Y-146820000D01*
X77501142Y-146772380D01*
X77739238Y-146772380D01*
X77834476Y-146820000D01*
X77882095Y-146867619D01*
X77929714Y-146962857D01*
X77929714Y-147058095D01*
X77882095Y-147200952D01*
X77310666Y-147772380D01*
X77929714Y-147772380D01*
X80469714Y-147772380D02*
X79898285Y-147772380D01*
X80184000Y-147772380D02*
X80184000Y-146772380D01*
X80088761Y-146915238D01*
X79993523Y-147010476D01*
X79898285Y-147058095D01*
%TO.C,J1*%
X65412666Y-154228380D02*
X65412666Y-154942666D01*
X65365047Y-155085523D01*
X65269809Y-155180761D01*
X65126952Y-155228380D01*
X65031714Y-155228380D01*
X66412666Y-155228380D02*
X65841238Y-155228380D01*
X66126952Y-155228380D02*
X66126952Y-154228380D01*
X66031714Y-154371238D01*
X65936476Y-154466476D01*
X65841238Y-154514095D01*
X62960285Y-160170761D02*
X63103142Y-160218380D01*
X63341238Y-160218380D01*
X63436476Y-160170761D01*
X63484095Y-160123142D01*
X63531714Y-160027904D01*
X63531714Y-159932666D01*
X63484095Y-159837428D01*
X63436476Y-159789809D01*
X63341238Y-159742190D01*
X63150761Y-159694571D01*
X63055523Y-159646952D01*
X63007904Y-159599333D01*
X62960285Y-159504095D01*
X62960285Y-159408857D01*
X63007904Y-159313619D01*
X63055523Y-159266000D01*
X63150761Y-159218380D01*
X63388857Y-159218380D01*
X63531714Y-159266000D01*
X65500285Y-159218380D02*
X66071714Y-159218380D01*
X65786000Y-160218380D02*
X65786000Y-159218380D01*
X67516476Y-159218380D02*
X68087904Y-159218380D01*
X67802190Y-160218380D02*
X67802190Y-159218380D01*
X68421238Y-160218380D02*
X68421238Y-159218380D01*
X68992666Y-160218380D01*
X68992666Y-159218380D01*
%TO.C,J2*%
X77350666Y-154228380D02*
X77350666Y-154942666D01*
X77303047Y-155085523D01*
X77207809Y-155180761D01*
X77064952Y-155228380D01*
X76969714Y-155228380D01*
X77779238Y-154323619D02*
X77826857Y-154276000D01*
X77922095Y-154228380D01*
X78160190Y-154228380D01*
X78255428Y-154276000D01*
X78303047Y-154323619D01*
X78350666Y-154418857D01*
X78350666Y-154514095D01*
X78303047Y-154656952D01*
X77731619Y-155228380D01*
X78350666Y-155228380D01*
X74898285Y-160170761D02*
X75041142Y-160218380D01*
X75279238Y-160218380D01*
X75374476Y-160170761D01*
X75422095Y-160123142D01*
X75469714Y-160027904D01*
X75469714Y-159932666D01*
X75422095Y-159837428D01*
X75374476Y-159789809D01*
X75279238Y-159742190D01*
X75088761Y-159694571D01*
X74993523Y-159646952D01*
X74945904Y-159599333D01*
X74898285Y-159504095D01*
X74898285Y-159408857D01*
X74945904Y-159313619D01*
X74993523Y-159266000D01*
X75088761Y-159218380D01*
X75326857Y-159218380D01*
X75469714Y-159266000D01*
X77438285Y-159218380D02*
X78009714Y-159218380D01*
X77724000Y-160218380D02*
X77724000Y-159218380D01*
X79454476Y-159218380D02*
X80025904Y-159218380D01*
X79740190Y-160218380D02*
X79740190Y-159218380D01*
X80359238Y-160218380D02*
X80359238Y-159218380D01*
X80930666Y-160218380D01*
X80930666Y-159218380D01*
%TO.C,J3*%
X88780666Y-154228380D02*
X88780666Y-154942666D01*
X88733047Y-155085523D01*
X88637809Y-155180761D01*
X88494952Y-155228380D01*
X88399714Y-155228380D01*
X89161619Y-154228380D02*
X89780666Y-154228380D01*
X89447333Y-154609333D01*
X89590190Y-154609333D01*
X89685428Y-154656952D01*
X89733047Y-154704571D01*
X89780666Y-154799809D01*
X89780666Y-155037904D01*
X89733047Y-155133142D01*
X89685428Y-155180761D01*
X89590190Y-155228380D01*
X89304476Y-155228380D01*
X89209238Y-155180761D01*
X89161619Y-155133142D01*
X86328285Y-160170761D02*
X86471142Y-160218380D01*
X86709238Y-160218380D01*
X86804476Y-160170761D01*
X86852095Y-160123142D01*
X86899714Y-160027904D01*
X86899714Y-159932666D01*
X86852095Y-159837428D01*
X86804476Y-159789809D01*
X86709238Y-159742190D01*
X86518761Y-159694571D01*
X86423523Y-159646952D01*
X86375904Y-159599333D01*
X86328285Y-159504095D01*
X86328285Y-159408857D01*
X86375904Y-159313619D01*
X86423523Y-159266000D01*
X86518761Y-159218380D01*
X86756857Y-159218380D01*
X86899714Y-159266000D01*
X88868285Y-159218380D02*
X89439714Y-159218380D01*
X89154000Y-160218380D02*
X89154000Y-159218380D01*
X90884476Y-159218380D02*
X91455904Y-159218380D01*
X91170190Y-160218380D02*
X91170190Y-159218380D01*
X91789238Y-160218380D02*
X91789238Y-159218380D01*
X92360666Y-160218380D01*
X92360666Y-159218380D01*
%TO.C,IC1*%
X76747809Y-91467380D02*
X76747809Y-90467380D01*
X77795428Y-91372142D02*
X77747809Y-91419761D01*
X77604952Y-91467380D01*
X77509714Y-91467380D01*
X77366857Y-91419761D01*
X77271619Y-91324523D01*
X77224000Y-91229285D01*
X77176380Y-91038809D01*
X77176380Y-90895952D01*
X77224000Y-90705476D01*
X77271619Y-90610238D01*
X77366857Y-90515000D01*
X77509714Y-90467380D01*
X77604952Y-90467380D01*
X77747809Y-90515000D01*
X77795428Y-90562619D01*
X78747809Y-91467380D02*
X78176380Y-91467380D01*
X78462095Y-91467380D02*
X78462095Y-90467380D01*
X78366857Y-90610238D01*
X78271619Y-90705476D01*
X78176380Y-90753095D01*
X72128761Y-114117380D02*
X71652571Y-114117380D01*
X71652571Y-113117380D01*
X72462095Y-114117380D02*
X72462095Y-113117380D01*
X72795428Y-113831666D01*
X73128761Y-113117380D01*
X73128761Y-114117380D01*
X74128761Y-114117380D02*
X73557333Y-114117380D01*
X73843047Y-114117380D02*
X73843047Y-113117380D01*
X73747809Y-113260238D01*
X73652571Y-113355476D01*
X73557333Y-113403095D01*
X74462095Y-113117380D02*
X75081142Y-113117380D01*
X74747809Y-113498333D01*
X74890666Y-113498333D01*
X74985904Y-113545952D01*
X75033523Y-113593571D01*
X75081142Y-113688809D01*
X75081142Y-113926904D01*
X75033523Y-114022142D01*
X74985904Y-114069761D01*
X74890666Y-114117380D01*
X74604952Y-114117380D01*
X74509714Y-114069761D01*
X74462095Y-114022142D01*
X75414476Y-113117380D02*
X76081142Y-113117380D01*
X75652571Y-114117380D01*
X76652571Y-113117380D02*
X76747809Y-113117380D01*
X76843047Y-113165000D01*
X76890666Y-113212619D01*
X76938285Y-113307857D01*
X76985904Y-113498333D01*
X76985904Y-113736428D01*
X76938285Y-113926904D01*
X76890666Y-114022142D01*
X76843047Y-114069761D01*
X76747809Y-114117380D01*
X76652571Y-114117380D01*
X76557333Y-114069761D01*
X76509714Y-114022142D01*
X76462095Y-113926904D01*
X76414476Y-113736428D01*
X76414476Y-113498333D01*
X76462095Y-113307857D01*
X76509714Y-113212619D01*
X76557333Y-113165000D01*
X76652571Y-113117380D01*
X77604952Y-113117380D02*
X77700190Y-113117380D01*
X77795428Y-113165000D01*
X77843047Y-113212619D01*
X77890666Y-113307857D01*
X77938285Y-113498333D01*
X77938285Y-113736428D01*
X77890666Y-113926904D01*
X77843047Y-114022142D01*
X77795428Y-114069761D01*
X77700190Y-114117380D01*
X77604952Y-114117380D01*
X77509714Y-114069761D01*
X77462095Y-114022142D01*
X77414476Y-113926904D01*
X77366857Y-113736428D01*
X77366857Y-113498333D01*
X77414476Y-113307857D01*
X77462095Y-113212619D01*
X77509714Y-113165000D01*
X77604952Y-113117380D01*
X78366857Y-114117380D02*
X78366857Y-113117380D01*
X78938285Y-114117380D01*
X78938285Y-113117380D01*
X79176380Y-114212619D02*
X79938285Y-114212619D01*
X80176380Y-114117380D02*
X80176380Y-113117380D01*
X80747809Y-114117380D01*
X80747809Y-113117380D01*
X81414476Y-113117380D02*
X81604952Y-113117380D01*
X81700190Y-113165000D01*
X81795428Y-113260238D01*
X81843047Y-113450714D01*
X81843047Y-113784047D01*
X81795428Y-113974523D01*
X81700190Y-114069761D01*
X81604952Y-114117380D01*
X81414476Y-114117380D01*
X81319238Y-114069761D01*
X81224000Y-113974523D01*
X81176380Y-113784047D01*
X81176380Y-113450714D01*
X81224000Y-113260238D01*
X81319238Y-113165000D01*
X81414476Y-113117380D01*
X82271619Y-114117380D02*
X82271619Y-113117380D01*
X82652571Y-113117380D01*
X82747809Y-113165000D01*
X82795428Y-113212619D01*
X82843047Y-113307857D01*
X82843047Y-113450714D01*
X82795428Y-113545952D01*
X82747809Y-113593571D01*
X82652571Y-113641190D01*
X82271619Y-113641190D01*
X83604952Y-113593571D02*
X83747809Y-113641190D01*
X83795428Y-113688809D01*
X83843047Y-113784047D01*
X83843047Y-113926904D01*
X83795428Y-114022142D01*
X83747809Y-114069761D01*
X83652571Y-114117380D01*
X83271619Y-114117380D01*
X83271619Y-113117380D01*
X83604952Y-113117380D01*
X83700190Y-113165000D01*
X83747809Y-113212619D01*
X83795428Y-113307857D01*
X83795428Y-113403095D01*
X83747809Y-113498333D01*
X83700190Y-113545952D01*
X83604952Y-113593571D01*
X83271619Y-113593571D01*
%TO.C,C2*%
X96333333Y-106773142D02*
X96285714Y-106820761D01*
X96142857Y-106868380D01*
X96047619Y-106868380D01*
X95904761Y-106820761D01*
X95809523Y-106725523D01*
X95761904Y-106630285D01*
X95714285Y-106439809D01*
X95714285Y-106296952D01*
X95761904Y-106106476D01*
X95809523Y-106011238D01*
X95904761Y-105916000D01*
X96047619Y-105868380D01*
X96142857Y-105868380D01*
X96285714Y-105916000D01*
X96333333Y-105963619D01*
X96714285Y-105963619D02*
X96761904Y-105916000D01*
X96857142Y-105868380D01*
X97095238Y-105868380D01*
X97190476Y-105916000D01*
X97238095Y-105963619D01*
X97285714Y-106058857D01*
X97285714Y-106154095D01*
X97238095Y-106296952D01*
X96666666Y-106868380D01*
X97285714Y-106868380D01*
X95904761Y-111968380D02*
X95333333Y-111968380D01*
X95619047Y-111968380D02*
X95619047Y-110968380D01*
X95523809Y-111111238D01*
X95428571Y-111206476D01*
X95333333Y-111254095D01*
X96333333Y-111301714D02*
X96333333Y-111968380D01*
X96333333Y-111396952D02*
X96380952Y-111349333D01*
X96476190Y-111301714D01*
X96619047Y-111301714D01*
X96714285Y-111349333D01*
X96761904Y-111444571D01*
X96761904Y-111968380D01*
X97571428Y-111444571D02*
X97238095Y-111444571D01*
X97238095Y-111968380D02*
X97238095Y-110968380D01*
X97714285Y-110968380D01*
%TO.C,J4*%
X73366380Y-87328333D02*
X74080666Y-87328333D01*
X74223523Y-87375952D01*
X74318761Y-87471190D01*
X74366380Y-87614047D01*
X74366380Y-87709285D01*
X73699714Y-86423571D02*
X74366380Y-86423571D01*
X73318761Y-86661666D02*
X74033047Y-86899761D01*
X74033047Y-86280714D01*
X73993809Y-84939142D02*
X73946190Y-84986761D01*
X73803333Y-85034380D01*
X73708095Y-85034380D01*
X73565238Y-84986761D01*
X73470000Y-84891523D01*
X73422380Y-84796285D01*
X73374761Y-84605809D01*
X73374761Y-84462952D01*
X73422380Y-84272476D01*
X73470000Y-84177238D01*
X73565238Y-84082000D01*
X73708095Y-84034380D01*
X73803333Y-84034380D01*
X73946190Y-84082000D01*
X73993809Y-84129619D01*
X74279523Y-84034380D02*
X74612857Y-85034380D01*
X74946190Y-84034380D01*
X75279523Y-84653428D02*
X76041428Y-84653428D01*
X77089047Y-84939142D02*
X77041428Y-84986761D01*
X76898571Y-85034380D01*
X76803333Y-85034380D01*
X76660476Y-84986761D01*
X76565238Y-84891523D01*
X76517619Y-84796285D01*
X76470000Y-84605809D01*
X76470000Y-84462952D01*
X76517619Y-84272476D01*
X76565238Y-84177238D01*
X76660476Y-84082000D01*
X76803333Y-84034380D01*
X76898571Y-84034380D01*
X77041428Y-84082000D01*
X77089047Y-84129619D01*
X77946190Y-84367714D02*
X77946190Y-85034380D01*
X77517619Y-84367714D02*
X77517619Y-84891523D01*
X77565238Y-84986761D01*
X77660476Y-85034380D01*
X77803333Y-85034380D01*
X77898571Y-84986761D01*
X77946190Y-84939142D01*
X78422380Y-85034380D02*
X78422380Y-84367714D01*
X78422380Y-84558190D02*
X78470000Y-84462952D01*
X78517619Y-84415333D01*
X78612857Y-84367714D01*
X78708095Y-84367714D01*
X79041428Y-85034380D02*
X79041428Y-84367714D01*
X79041428Y-84558190D02*
X79089047Y-84462952D01*
X79136666Y-84415333D01*
X79231904Y-84367714D01*
X79327142Y-84367714D01*
X80041428Y-84986761D02*
X79946190Y-85034380D01*
X79755714Y-85034380D01*
X79660476Y-84986761D01*
X79612857Y-84891523D01*
X79612857Y-84510571D01*
X79660476Y-84415333D01*
X79755714Y-84367714D01*
X79946190Y-84367714D01*
X80041428Y-84415333D01*
X80089047Y-84510571D01*
X80089047Y-84605809D01*
X79612857Y-84701047D01*
X80517619Y-84367714D02*
X80517619Y-85034380D01*
X80517619Y-84462952D02*
X80565238Y-84415333D01*
X80660476Y-84367714D01*
X80803333Y-84367714D01*
X80898571Y-84415333D01*
X80946190Y-84510571D01*
X80946190Y-85034380D01*
X81279523Y-84367714D02*
X81660476Y-84367714D01*
X81422380Y-84034380D02*
X81422380Y-84891523D01*
X81470000Y-84986761D01*
X81565238Y-85034380D01*
X81660476Y-85034380D01*
%TO.C,J6*%
X101306380Y-136223333D02*
X102020666Y-136223333D01*
X102163523Y-136270952D01*
X102258761Y-136366190D01*
X102306380Y-136509047D01*
X102306380Y-136604285D01*
X101306380Y-135318571D02*
X101306380Y-135509047D01*
X101354000Y-135604285D01*
X101401619Y-135651904D01*
X101544476Y-135747142D01*
X101734952Y-135794761D01*
X102115904Y-135794761D01*
X102211142Y-135747142D01*
X102258761Y-135699523D01*
X102306380Y-135604285D01*
X102306380Y-135413809D01*
X102258761Y-135318571D01*
X102211142Y-135270952D01*
X102115904Y-135223333D01*
X101877809Y-135223333D01*
X101782571Y-135270952D01*
X101734952Y-135318571D01*
X101687333Y-135413809D01*
X101687333Y-135604285D01*
X101734952Y-135699523D01*
X101782571Y-135747142D01*
X101877809Y-135794761D01*
%TO.C,R1*%
X65492333Y-141592380D02*
X65159000Y-141116190D01*
X64920904Y-141592380D02*
X64920904Y-140592380D01*
X65301857Y-140592380D01*
X65397095Y-140640000D01*
X65444714Y-140687619D01*
X65492333Y-140782857D01*
X65492333Y-140925714D01*
X65444714Y-141020952D01*
X65397095Y-141068571D01*
X65301857Y-141116190D01*
X64920904Y-141116190D01*
X66444714Y-141592380D02*
X65873285Y-141592380D01*
X66159000Y-141592380D02*
X66159000Y-140592380D01*
X66063761Y-140735238D01*
X65968523Y-140830476D01*
X65873285Y-140878095D01*
X65063761Y-146332380D02*
X64492333Y-146332380D01*
X64778047Y-146332380D02*
X64778047Y-145332380D01*
X64682809Y-145475238D01*
X64587571Y-145570476D01*
X64492333Y-145618095D01*
X65682809Y-145332380D02*
X65778047Y-145332380D01*
X65873285Y-145380000D01*
X65920904Y-145427619D01*
X65968523Y-145522857D01*
X66016142Y-145713333D01*
X66016142Y-145951428D01*
X65968523Y-146141904D01*
X65920904Y-146237142D01*
X65873285Y-146284761D01*
X65778047Y-146332380D01*
X65682809Y-146332380D01*
X65587571Y-146284761D01*
X65539952Y-146237142D01*
X65492333Y-146141904D01*
X65444714Y-145951428D01*
X65444714Y-145713333D01*
X65492333Y-145522857D01*
X65539952Y-145427619D01*
X65587571Y-145380000D01*
X65682809Y-145332380D01*
X66444714Y-146332380D02*
X66444714Y-145332380D01*
X66539952Y-145951428D02*
X66825666Y-146332380D01*
X66825666Y-145665714D02*
X66444714Y-146046666D01*
%TO.C,R2*%
X77557333Y-141592380D02*
X77224000Y-141116190D01*
X76985904Y-141592380D02*
X76985904Y-140592380D01*
X77366857Y-140592380D01*
X77462095Y-140640000D01*
X77509714Y-140687619D01*
X77557333Y-140782857D01*
X77557333Y-140925714D01*
X77509714Y-141020952D01*
X77462095Y-141068571D01*
X77366857Y-141116190D01*
X76985904Y-141116190D01*
X77938285Y-140687619D02*
X77985904Y-140640000D01*
X78081142Y-140592380D01*
X78319238Y-140592380D01*
X78414476Y-140640000D01*
X78462095Y-140687619D01*
X78509714Y-140782857D01*
X78509714Y-140878095D01*
X78462095Y-141020952D01*
X77890666Y-141592380D01*
X78509714Y-141592380D01*
X77128761Y-146332380D02*
X76557333Y-146332380D01*
X76843047Y-146332380D02*
X76843047Y-145332380D01*
X76747809Y-145475238D01*
X76652571Y-145570476D01*
X76557333Y-145618095D01*
X77747809Y-145332380D02*
X77843047Y-145332380D01*
X77938285Y-145380000D01*
X77985904Y-145427619D01*
X78033523Y-145522857D01*
X78081142Y-145713333D01*
X78081142Y-145951428D01*
X78033523Y-146141904D01*
X77985904Y-146237142D01*
X77938285Y-146284761D01*
X77843047Y-146332380D01*
X77747809Y-146332380D01*
X77652571Y-146284761D01*
X77604952Y-146237142D01*
X77557333Y-146141904D01*
X77509714Y-145951428D01*
X77509714Y-145713333D01*
X77557333Y-145522857D01*
X77604952Y-145427619D01*
X77652571Y-145380000D01*
X77747809Y-145332380D01*
X78509714Y-146332380D02*
X78509714Y-145332380D01*
X78604952Y-145951428D02*
X78890666Y-146332380D01*
X78890666Y-145665714D02*
X78509714Y-146046666D01*
%TO.C,R3*%
X89622333Y-146332380D02*
X89289000Y-145856190D01*
X89050904Y-146332380D02*
X89050904Y-145332380D01*
X89431857Y-145332380D01*
X89527095Y-145380000D01*
X89574714Y-145427619D01*
X89622333Y-145522857D01*
X89622333Y-145665714D01*
X89574714Y-145760952D01*
X89527095Y-145808571D01*
X89431857Y-145856190D01*
X89050904Y-145856190D01*
X89955666Y-145332380D02*
X90574714Y-145332380D01*
X90241380Y-145713333D01*
X90384238Y-145713333D01*
X90479476Y-145760952D01*
X90527095Y-145808571D01*
X90574714Y-145903809D01*
X90574714Y-146141904D01*
X90527095Y-146237142D01*
X90479476Y-146284761D01*
X90384238Y-146332380D01*
X90098523Y-146332380D01*
X90003285Y-146284761D01*
X89955666Y-146237142D01*
X89193761Y-141592380D02*
X88622333Y-141592380D01*
X88908047Y-141592380D02*
X88908047Y-140592380D01*
X88812809Y-140735238D01*
X88717571Y-140830476D01*
X88622333Y-140878095D01*
X89812809Y-140592380D02*
X89908047Y-140592380D01*
X90003285Y-140640000D01*
X90050904Y-140687619D01*
X90098523Y-140782857D01*
X90146142Y-140973333D01*
X90146142Y-141211428D01*
X90098523Y-141401904D01*
X90050904Y-141497142D01*
X90003285Y-141544761D01*
X89908047Y-141592380D01*
X89812809Y-141592380D01*
X89717571Y-141544761D01*
X89669952Y-141497142D01*
X89622333Y-141401904D01*
X89574714Y-141211428D01*
X89574714Y-140973333D01*
X89622333Y-140782857D01*
X89669952Y-140687619D01*
X89717571Y-140640000D01*
X89812809Y-140592380D01*
X90574714Y-141592380D02*
X90574714Y-140592380D01*
X90669952Y-141211428D02*
X90955666Y-141592380D01*
X90955666Y-140925714D02*
X90574714Y-141306666D01*
%TO.C,R4*%
X62317333Y-140617380D02*
X61984000Y-140141190D01*
X61745904Y-140617380D02*
X61745904Y-139617380D01*
X62126857Y-139617380D01*
X62222095Y-139665000D01*
X62269714Y-139712619D01*
X62317333Y-139807857D01*
X62317333Y-139950714D01*
X62269714Y-140045952D01*
X62222095Y-140093571D01*
X62126857Y-140141190D01*
X61745904Y-140141190D01*
X63174476Y-139950714D02*
X63174476Y-140617380D01*
X62936380Y-139569761D02*
X62698285Y-140284047D01*
X63317333Y-140284047D01*
X61888761Y-135877380D02*
X61317333Y-135877380D01*
X61603047Y-135877380D02*
X61603047Y-134877380D01*
X61507809Y-135020238D01*
X61412571Y-135115476D01*
X61317333Y-135163095D01*
X62507809Y-134877380D02*
X62603047Y-134877380D01*
X62698285Y-134925000D01*
X62745904Y-134972619D01*
X62793523Y-135067857D01*
X62841142Y-135258333D01*
X62841142Y-135496428D01*
X62793523Y-135686904D01*
X62745904Y-135782142D01*
X62698285Y-135829761D01*
X62603047Y-135877380D01*
X62507809Y-135877380D01*
X62412571Y-135829761D01*
X62364952Y-135782142D01*
X62317333Y-135686904D01*
X62269714Y-135496428D01*
X62269714Y-135258333D01*
X62317333Y-135067857D01*
X62364952Y-134972619D01*
X62412571Y-134925000D01*
X62507809Y-134877380D01*
X63269714Y-135877380D02*
X63269714Y-134877380D01*
X63364952Y-135496428D02*
X63650666Y-135877380D01*
X63650666Y-135210714D02*
X63269714Y-135591666D01*
%TO.C,R5*%
X62317333Y-129527380D02*
X61984000Y-129051190D01*
X61745904Y-129527380D02*
X61745904Y-128527380D01*
X62126857Y-128527380D01*
X62222095Y-128575000D01*
X62269714Y-128622619D01*
X62317333Y-128717857D01*
X62317333Y-128860714D01*
X62269714Y-128955952D01*
X62222095Y-129003571D01*
X62126857Y-129051190D01*
X61745904Y-129051190D01*
X63222095Y-128527380D02*
X62745904Y-128527380D01*
X62698285Y-129003571D01*
X62745904Y-128955952D01*
X62841142Y-128908333D01*
X63079238Y-128908333D01*
X63174476Y-128955952D01*
X63222095Y-129003571D01*
X63269714Y-129098809D01*
X63269714Y-129336904D01*
X63222095Y-129432142D01*
X63174476Y-129479761D01*
X63079238Y-129527380D01*
X62841142Y-129527380D01*
X62745904Y-129479761D01*
X62698285Y-129432142D01*
X61888761Y-134267380D02*
X61317333Y-134267380D01*
X61603047Y-134267380D02*
X61603047Y-133267380D01*
X61507809Y-133410238D01*
X61412571Y-133505476D01*
X61317333Y-133553095D01*
X62507809Y-133267380D02*
X62603047Y-133267380D01*
X62698285Y-133315000D01*
X62745904Y-133362619D01*
X62793523Y-133457857D01*
X62841142Y-133648333D01*
X62841142Y-133886428D01*
X62793523Y-134076904D01*
X62745904Y-134172142D01*
X62698285Y-134219761D01*
X62603047Y-134267380D01*
X62507809Y-134267380D01*
X62412571Y-134219761D01*
X62364952Y-134172142D01*
X62317333Y-134076904D01*
X62269714Y-133886428D01*
X62269714Y-133648333D01*
X62317333Y-133457857D01*
X62364952Y-133362619D01*
X62412571Y-133315000D01*
X62507809Y-133267380D01*
X63269714Y-134267380D02*
X63269714Y-133267380D01*
X63364952Y-133886428D02*
X63650666Y-134267380D01*
X63650666Y-133600714D02*
X63269714Y-133981666D01*
%TO.C,R6*%
X62317333Y-123177380D02*
X61984000Y-122701190D01*
X61745904Y-123177380D02*
X61745904Y-122177380D01*
X62126857Y-122177380D01*
X62222095Y-122225000D01*
X62269714Y-122272619D01*
X62317333Y-122367857D01*
X62317333Y-122510714D01*
X62269714Y-122605952D01*
X62222095Y-122653571D01*
X62126857Y-122701190D01*
X61745904Y-122701190D01*
X63174476Y-122177380D02*
X62984000Y-122177380D01*
X62888761Y-122225000D01*
X62841142Y-122272619D01*
X62745904Y-122415476D01*
X62698285Y-122605952D01*
X62698285Y-122986904D01*
X62745904Y-123082142D01*
X62793523Y-123129761D01*
X62888761Y-123177380D01*
X63079238Y-123177380D01*
X63174476Y-123129761D01*
X63222095Y-123082142D01*
X63269714Y-122986904D01*
X63269714Y-122748809D01*
X63222095Y-122653571D01*
X63174476Y-122605952D01*
X63079238Y-122558333D01*
X62888761Y-122558333D01*
X62793523Y-122605952D01*
X62745904Y-122653571D01*
X62698285Y-122748809D01*
X61888761Y-127917380D02*
X61317333Y-127917380D01*
X61603047Y-127917380D02*
X61603047Y-126917380D01*
X61507809Y-127060238D01*
X61412571Y-127155476D01*
X61317333Y-127203095D01*
X62507809Y-126917380D02*
X62603047Y-126917380D01*
X62698285Y-126965000D01*
X62745904Y-127012619D01*
X62793523Y-127107857D01*
X62841142Y-127298333D01*
X62841142Y-127536428D01*
X62793523Y-127726904D01*
X62745904Y-127822142D01*
X62698285Y-127869761D01*
X62603047Y-127917380D01*
X62507809Y-127917380D01*
X62412571Y-127869761D01*
X62364952Y-127822142D01*
X62317333Y-127726904D01*
X62269714Y-127536428D01*
X62269714Y-127298333D01*
X62317333Y-127107857D01*
X62364952Y-127012619D01*
X62412571Y-126965000D01*
X62507809Y-126917380D01*
X63269714Y-127917380D02*
X63269714Y-126917380D01*
X63364952Y-127536428D02*
X63650666Y-127917380D01*
X63650666Y-127250714D02*
X63269714Y-127631666D01*
%TO.C,R7*%
X62317333Y-85077380D02*
X61984000Y-84601190D01*
X61745904Y-85077380D02*
X61745904Y-84077380D01*
X62126857Y-84077380D01*
X62222095Y-84125000D01*
X62269714Y-84172619D01*
X62317333Y-84267857D01*
X62317333Y-84410714D01*
X62269714Y-84505952D01*
X62222095Y-84553571D01*
X62126857Y-84601190D01*
X61745904Y-84601190D01*
X62650666Y-84077380D02*
X63317333Y-84077380D01*
X62888761Y-85077380D01*
X61841142Y-88817380D02*
X61364952Y-88817380D01*
X61317333Y-89293571D01*
X61364952Y-89245952D01*
X61460190Y-89198333D01*
X61698285Y-89198333D01*
X61793523Y-89245952D01*
X61841142Y-89293571D01*
X61888761Y-89388809D01*
X61888761Y-89626904D01*
X61841142Y-89722142D01*
X61793523Y-89769761D01*
X61698285Y-89817380D01*
X61460190Y-89817380D01*
X61364952Y-89769761D01*
X61317333Y-89722142D01*
X62507809Y-88817380D02*
X62603047Y-88817380D01*
X62698285Y-88865000D01*
X62745904Y-88912619D01*
X62793523Y-89007857D01*
X62841142Y-89198333D01*
X62841142Y-89436428D01*
X62793523Y-89626904D01*
X62745904Y-89722142D01*
X62698285Y-89769761D01*
X62603047Y-89817380D01*
X62507809Y-89817380D01*
X62412571Y-89769761D01*
X62364952Y-89722142D01*
X62317333Y-89626904D01*
X62269714Y-89436428D01*
X62269714Y-89198333D01*
X62317333Y-89007857D01*
X62364952Y-88912619D01*
X62412571Y-88865000D01*
X62507809Y-88817380D01*
X63269714Y-89817380D02*
X63269714Y-88817380D01*
X63364952Y-89436428D02*
X63650666Y-89817380D01*
X63650666Y-89150714D02*
X63269714Y-89531666D01*
%TO.C,R8*%
X62317333Y-96167380D02*
X61984000Y-95691190D01*
X61745904Y-96167380D02*
X61745904Y-95167380D01*
X62126857Y-95167380D01*
X62222095Y-95215000D01*
X62269714Y-95262619D01*
X62317333Y-95357857D01*
X62317333Y-95500714D01*
X62269714Y-95595952D01*
X62222095Y-95643571D01*
X62126857Y-95691190D01*
X61745904Y-95691190D01*
X62888761Y-95595952D02*
X62793523Y-95548333D01*
X62745904Y-95500714D01*
X62698285Y-95405476D01*
X62698285Y-95357857D01*
X62745904Y-95262619D01*
X62793523Y-95215000D01*
X62888761Y-95167380D01*
X63079238Y-95167380D01*
X63174476Y-95215000D01*
X63222095Y-95262619D01*
X63269714Y-95357857D01*
X63269714Y-95405476D01*
X63222095Y-95500714D01*
X63174476Y-95548333D01*
X63079238Y-95595952D01*
X62888761Y-95595952D01*
X62793523Y-95643571D01*
X62745904Y-95691190D01*
X62698285Y-95786428D01*
X62698285Y-95976904D01*
X62745904Y-96072142D01*
X62793523Y-96119761D01*
X62888761Y-96167380D01*
X63079238Y-96167380D01*
X63174476Y-96119761D01*
X63222095Y-96072142D01*
X63269714Y-95976904D01*
X63269714Y-95786428D01*
X63222095Y-95691190D01*
X63174476Y-95643571D01*
X63079238Y-95595952D01*
X62364952Y-91427380D02*
X61793523Y-91427380D01*
X62079238Y-91427380D02*
X62079238Y-90427380D01*
X61984000Y-90570238D01*
X61888761Y-90665476D01*
X61793523Y-90713095D01*
X62793523Y-91427380D02*
X62793523Y-90427380D01*
X62888761Y-91046428D02*
X63174476Y-91427380D01*
X63174476Y-90760714D02*
X62793523Y-91141666D01*
%TO.C,R9*%
X62317333Y-116827380D02*
X61984000Y-116351190D01*
X61745904Y-116827380D02*
X61745904Y-115827380D01*
X62126857Y-115827380D01*
X62222095Y-115875000D01*
X62269714Y-115922619D01*
X62317333Y-116017857D01*
X62317333Y-116160714D01*
X62269714Y-116255952D01*
X62222095Y-116303571D01*
X62126857Y-116351190D01*
X61745904Y-116351190D01*
X62793523Y-116827380D02*
X62984000Y-116827380D01*
X63079238Y-116779761D01*
X63126857Y-116732142D01*
X63222095Y-116589285D01*
X63269714Y-116398809D01*
X63269714Y-116017857D01*
X63222095Y-115922619D01*
X63174476Y-115875000D01*
X63079238Y-115827380D01*
X62888761Y-115827380D01*
X62793523Y-115875000D01*
X62745904Y-115922619D01*
X62698285Y-116017857D01*
X62698285Y-116255952D01*
X62745904Y-116351190D01*
X62793523Y-116398809D01*
X62888761Y-116446428D01*
X63079238Y-116446428D01*
X63174476Y-116398809D01*
X63222095Y-116351190D01*
X63269714Y-116255952D01*
X61841142Y-120567380D02*
X61364952Y-120567380D01*
X61317333Y-121043571D01*
X61364952Y-120995952D01*
X61460190Y-120948333D01*
X61698285Y-120948333D01*
X61793523Y-120995952D01*
X61841142Y-121043571D01*
X61888761Y-121138809D01*
X61888761Y-121376904D01*
X61841142Y-121472142D01*
X61793523Y-121519761D01*
X61698285Y-121567380D01*
X61460190Y-121567380D01*
X61364952Y-121519761D01*
X61317333Y-121472142D01*
X62507809Y-120567380D02*
X62603047Y-120567380D01*
X62698285Y-120615000D01*
X62745904Y-120662619D01*
X62793523Y-120757857D01*
X62841142Y-120948333D01*
X62841142Y-121186428D01*
X62793523Y-121376904D01*
X62745904Y-121472142D01*
X62698285Y-121519761D01*
X62603047Y-121567380D01*
X62507809Y-121567380D01*
X62412571Y-121519761D01*
X62364952Y-121472142D01*
X62317333Y-121376904D01*
X62269714Y-121186428D01*
X62269714Y-120948333D01*
X62317333Y-120757857D01*
X62364952Y-120662619D01*
X62412571Y-120615000D01*
X62507809Y-120567380D01*
X63269714Y-121567380D02*
X63269714Y-120567380D01*
X63364952Y-121186428D02*
X63650666Y-121567380D01*
X63650666Y-120900714D02*
X63269714Y-121281666D01*
%TO.C,R10*%
X61841142Y-102517380D02*
X61507809Y-102041190D01*
X61269714Y-102517380D02*
X61269714Y-101517380D01*
X61650666Y-101517380D01*
X61745904Y-101565000D01*
X61793523Y-101612619D01*
X61841142Y-101707857D01*
X61841142Y-101850714D01*
X61793523Y-101945952D01*
X61745904Y-101993571D01*
X61650666Y-102041190D01*
X61269714Y-102041190D01*
X62793523Y-102517380D02*
X62222095Y-102517380D01*
X62507809Y-102517380D02*
X62507809Y-101517380D01*
X62412571Y-101660238D01*
X62317333Y-101755476D01*
X62222095Y-101803095D01*
X63412571Y-101517380D02*
X63507809Y-101517380D01*
X63603047Y-101565000D01*
X63650666Y-101612619D01*
X63698285Y-101707857D01*
X63745904Y-101898333D01*
X63745904Y-102136428D01*
X63698285Y-102326904D01*
X63650666Y-102422142D01*
X63603047Y-102469761D01*
X63507809Y-102517380D01*
X63412571Y-102517380D01*
X63317333Y-102469761D01*
X63269714Y-102422142D01*
X63222095Y-102326904D01*
X63174476Y-102136428D01*
X63174476Y-101898333D01*
X63222095Y-101707857D01*
X63269714Y-101612619D01*
X63317333Y-101565000D01*
X63412571Y-101517380D01*
X62364952Y-97777380D02*
X61793523Y-97777380D01*
X62079238Y-97777380D02*
X62079238Y-96777380D01*
X61984000Y-96920238D01*
X61888761Y-97015476D01*
X61793523Y-97063095D01*
X62793523Y-97777380D02*
X62793523Y-96777380D01*
X62888761Y-97396428D02*
X63174476Y-97777380D01*
X63174476Y-97110714D02*
X62793523Y-97491666D01*
%TO.C,R11*%
X61841142Y-104127380D02*
X61507809Y-103651190D01*
X61269714Y-104127380D02*
X61269714Y-103127380D01*
X61650666Y-103127380D01*
X61745904Y-103175000D01*
X61793523Y-103222619D01*
X61841142Y-103317857D01*
X61841142Y-103460714D01*
X61793523Y-103555952D01*
X61745904Y-103603571D01*
X61650666Y-103651190D01*
X61269714Y-103651190D01*
X62793523Y-104127380D02*
X62222095Y-104127380D01*
X62507809Y-104127380D02*
X62507809Y-103127380D01*
X62412571Y-103270238D01*
X62317333Y-103365476D01*
X62222095Y-103413095D01*
X63745904Y-104127380D02*
X63174476Y-104127380D01*
X63460190Y-104127380D02*
X63460190Y-103127380D01*
X63364952Y-103270238D01*
X63269714Y-103365476D01*
X63174476Y-103413095D01*
X61841142Y-107867380D02*
X61364952Y-107867380D01*
X61317333Y-108343571D01*
X61364952Y-108295952D01*
X61460190Y-108248333D01*
X61698285Y-108248333D01*
X61793523Y-108295952D01*
X61841142Y-108343571D01*
X61888761Y-108438809D01*
X61888761Y-108676904D01*
X61841142Y-108772142D01*
X61793523Y-108819761D01*
X61698285Y-108867380D01*
X61460190Y-108867380D01*
X61364952Y-108819761D01*
X61317333Y-108772142D01*
X62507809Y-107867380D02*
X62603047Y-107867380D01*
X62698285Y-107915000D01*
X62745904Y-107962619D01*
X62793523Y-108057857D01*
X62841142Y-108248333D01*
X62841142Y-108486428D01*
X62793523Y-108676904D01*
X62745904Y-108772142D01*
X62698285Y-108819761D01*
X62603047Y-108867380D01*
X62507809Y-108867380D01*
X62412571Y-108819761D01*
X62364952Y-108772142D01*
X62317333Y-108676904D01*
X62269714Y-108486428D01*
X62269714Y-108248333D01*
X62317333Y-108057857D01*
X62364952Y-107962619D01*
X62412571Y-107915000D01*
X62507809Y-107867380D01*
X63269714Y-108867380D02*
X63269714Y-107867380D01*
X63364952Y-108486428D02*
X63650666Y-108867380D01*
X63650666Y-108200714D02*
X63269714Y-108581666D01*
%TO.C,R12*%
X95496142Y-98707380D02*
X95162809Y-98231190D01*
X94924714Y-98707380D02*
X94924714Y-97707380D01*
X95305666Y-97707380D01*
X95400904Y-97755000D01*
X95448523Y-97802619D01*
X95496142Y-97897857D01*
X95496142Y-98040714D01*
X95448523Y-98135952D01*
X95400904Y-98183571D01*
X95305666Y-98231190D01*
X94924714Y-98231190D01*
X96448523Y-98707380D02*
X95877095Y-98707380D01*
X96162809Y-98707380D02*
X96162809Y-97707380D01*
X96067571Y-97850238D01*
X95972333Y-97945476D01*
X95877095Y-97993095D01*
X96829476Y-97802619D02*
X96877095Y-97755000D01*
X96972333Y-97707380D01*
X97210428Y-97707380D01*
X97305666Y-97755000D01*
X97353285Y-97802619D01*
X97400904Y-97897857D01*
X97400904Y-97993095D01*
X97353285Y-98135952D01*
X96781857Y-98707380D01*
X97400904Y-98707380D01*
X96019952Y-93967380D02*
X95448523Y-93967380D01*
X95734238Y-93967380D02*
X95734238Y-92967380D01*
X95639000Y-93110238D01*
X95543761Y-93205476D01*
X95448523Y-93253095D01*
X96448523Y-93967380D02*
X96448523Y-92967380D01*
X96543761Y-93586428D02*
X96829476Y-93967380D01*
X96829476Y-93300714D02*
X96448523Y-93681666D01*
%TO.C,R13*%
X95496142Y-92357380D02*
X95162809Y-91881190D01*
X94924714Y-92357380D02*
X94924714Y-91357380D01*
X95305666Y-91357380D01*
X95400904Y-91405000D01*
X95448523Y-91452619D01*
X95496142Y-91547857D01*
X95496142Y-91690714D01*
X95448523Y-91785952D01*
X95400904Y-91833571D01*
X95305666Y-91881190D01*
X94924714Y-91881190D01*
X96448523Y-92357380D02*
X95877095Y-92357380D01*
X96162809Y-92357380D02*
X96162809Y-91357380D01*
X96067571Y-91500238D01*
X95972333Y-91595476D01*
X95877095Y-91643095D01*
X96781857Y-91357380D02*
X97400904Y-91357380D01*
X97067571Y-91738333D01*
X97210428Y-91738333D01*
X97305666Y-91785952D01*
X97353285Y-91833571D01*
X97400904Y-91928809D01*
X97400904Y-92166904D01*
X97353285Y-92262142D01*
X97305666Y-92309761D01*
X97210428Y-92357380D01*
X96924714Y-92357380D01*
X96829476Y-92309761D01*
X96781857Y-92262142D01*
X95496142Y-86617380D02*
X95019952Y-86617380D01*
X94972333Y-87093571D01*
X95019952Y-87045952D01*
X95115190Y-86998333D01*
X95353285Y-86998333D01*
X95448523Y-87045952D01*
X95496142Y-87093571D01*
X95543761Y-87188809D01*
X95543761Y-87426904D01*
X95496142Y-87522142D01*
X95448523Y-87569761D01*
X95353285Y-87617380D01*
X95115190Y-87617380D01*
X95019952Y-87569761D01*
X94972333Y-87522142D01*
X96162809Y-86617380D02*
X96258047Y-86617380D01*
X96353285Y-86665000D01*
X96400904Y-86712619D01*
X96448523Y-86807857D01*
X96496142Y-86998333D01*
X96496142Y-87236428D01*
X96448523Y-87426904D01*
X96400904Y-87522142D01*
X96353285Y-87569761D01*
X96258047Y-87617380D01*
X96162809Y-87617380D01*
X96067571Y-87569761D01*
X96019952Y-87522142D01*
X95972333Y-87426904D01*
X95924714Y-87236428D01*
X95924714Y-86998333D01*
X95972333Y-86807857D01*
X96019952Y-86712619D01*
X96067571Y-86665000D01*
X96162809Y-86617380D01*
X96924714Y-87617380D02*
X96924714Y-86617380D01*
X97019952Y-87236428D02*
X97305666Y-87617380D01*
X97305666Y-86950714D02*
X96924714Y-87331666D01*
%TO.C,R14*%
X95496142Y-105057380D02*
X95162809Y-104581190D01*
X94924714Y-105057380D02*
X94924714Y-104057380D01*
X95305666Y-104057380D01*
X95400904Y-104105000D01*
X95448523Y-104152619D01*
X95496142Y-104247857D01*
X95496142Y-104390714D01*
X95448523Y-104485952D01*
X95400904Y-104533571D01*
X95305666Y-104581190D01*
X94924714Y-104581190D01*
X96448523Y-105057380D02*
X95877095Y-105057380D01*
X96162809Y-105057380D02*
X96162809Y-104057380D01*
X96067571Y-104200238D01*
X95972333Y-104295476D01*
X95877095Y-104343095D01*
X97305666Y-104390714D02*
X97305666Y-105057380D01*
X97067571Y-104009761D02*
X96829476Y-104724047D01*
X97448523Y-104724047D01*
X96019952Y-100317380D02*
X95448523Y-100317380D01*
X95734238Y-100317380D02*
X95734238Y-99317380D01*
X95639000Y-99460238D01*
X95543761Y-99555476D01*
X95448523Y-99603095D01*
X96448523Y-100317380D02*
X96448523Y-99317380D01*
X96543761Y-99936428D02*
X96829476Y-100317380D01*
X96829476Y-99650714D02*
X96448523Y-100031666D01*
%TO.C,R15*%
X94861142Y-132997380D02*
X94527809Y-132521190D01*
X94289714Y-132997380D02*
X94289714Y-131997380D01*
X94670666Y-131997380D01*
X94765904Y-132045000D01*
X94813523Y-132092619D01*
X94861142Y-132187857D01*
X94861142Y-132330714D01*
X94813523Y-132425952D01*
X94765904Y-132473571D01*
X94670666Y-132521190D01*
X94289714Y-132521190D01*
X95813523Y-132997380D02*
X95242095Y-132997380D01*
X95527809Y-132997380D02*
X95527809Y-131997380D01*
X95432571Y-132140238D01*
X95337333Y-132235476D01*
X95242095Y-132283095D01*
X96718285Y-131997380D02*
X96242095Y-131997380D01*
X96194476Y-132473571D01*
X96242095Y-132425952D01*
X96337333Y-132378333D01*
X96575428Y-132378333D01*
X96670666Y-132425952D01*
X96718285Y-132473571D01*
X96765904Y-132568809D01*
X96765904Y-132806904D01*
X96718285Y-132902142D01*
X96670666Y-132949761D01*
X96575428Y-132997380D01*
X96337333Y-132997380D01*
X96242095Y-132949761D01*
X96194476Y-132902142D01*
X94432571Y-128257380D02*
X93861142Y-128257380D01*
X94146857Y-128257380D02*
X94146857Y-127257380D01*
X94051619Y-127400238D01*
X93956380Y-127495476D01*
X93861142Y-127543095D01*
X95051619Y-127257380D02*
X95146857Y-127257380D01*
X95242095Y-127305000D01*
X95289714Y-127352619D01*
X95337333Y-127447857D01*
X95384952Y-127638333D01*
X95384952Y-127876428D01*
X95337333Y-128066904D01*
X95289714Y-128162142D01*
X95242095Y-128209761D01*
X95146857Y-128257380D01*
X95051619Y-128257380D01*
X94956380Y-128209761D01*
X94908761Y-128162142D01*
X94861142Y-128066904D01*
X94813523Y-127876428D01*
X94813523Y-127638333D01*
X94861142Y-127447857D01*
X94908761Y-127352619D01*
X94956380Y-127305000D01*
X95051619Y-127257380D01*
X96004000Y-127257380D02*
X96099238Y-127257380D01*
X96194476Y-127305000D01*
X96242095Y-127352619D01*
X96289714Y-127447857D01*
X96337333Y-127638333D01*
X96337333Y-127876428D01*
X96289714Y-128066904D01*
X96242095Y-128162142D01*
X96194476Y-128209761D01*
X96099238Y-128257380D01*
X96004000Y-128257380D01*
X95908761Y-128209761D01*
X95861142Y-128162142D01*
X95813523Y-128066904D01*
X95765904Y-127876428D01*
X95765904Y-127638333D01*
X95813523Y-127447857D01*
X95861142Y-127352619D01*
X95908761Y-127305000D01*
X96004000Y-127257380D01*
X96765904Y-128257380D02*
X96765904Y-127257380D01*
X96861142Y-127876428D02*
X97146857Y-128257380D01*
X97146857Y-127590714D02*
X96765904Y-127971666D01*
%TO.C,U1*%
X76962095Y-116502380D02*
X76962095Y-117311904D01*
X77009714Y-117407142D01*
X77057333Y-117454761D01*
X77152571Y-117502380D01*
X77343047Y-117502380D01*
X77438285Y-117454761D01*
X77485904Y-117407142D01*
X77533523Y-117311904D01*
X77533523Y-116502380D01*
X78533523Y-117502380D02*
X77962095Y-117502380D01*
X78247809Y-117502380D02*
X78247809Y-116502380D01*
X78152571Y-116645238D01*
X78057333Y-116740476D01*
X77962095Y-116788095D01*
X75604952Y-137247380D02*
X76176380Y-137247380D01*
X75890666Y-138247380D02*
X75890666Y-137247380D01*
X76985904Y-138247380D02*
X76509714Y-138247380D01*
X76509714Y-137247380D01*
X77509714Y-137247380D02*
X77604952Y-137247380D01*
X77700190Y-137295000D01*
X77747809Y-137342619D01*
X77795428Y-137437857D01*
X77843047Y-137628333D01*
X77843047Y-137866428D01*
X77795428Y-138056904D01*
X77747809Y-138152142D01*
X77700190Y-138199761D01*
X77604952Y-138247380D01*
X77509714Y-138247380D01*
X77414476Y-138199761D01*
X77366857Y-138152142D01*
X77319238Y-138056904D01*
X77271619Y-137866428D01*
X77271619Y-137628333D01*
X77319238Y-137437857D01*
X77366857Y-137342619D01*
X77414476Y-137295000D01*
X77509714Y-137247380D01*
X78176380Y-137247380D02*
X78843047Y-137247380D01*
X78414476Y-138247380D01*
X79652571Y-137580714D02*
X79652571Y-138247380D01*
X79414476Y-137199761D02*
X79176380Y-137914047D01*
X79795428Y-137914047D01*
%TO.C,C1*%
X62317333Y-110302142D02*
X62269714Y-110349761D01*
X62126857Y-110397380D01*
X62031619Y-110397380D01*
X61888761Y-110349761D01*
X61793523Y-110254523D01*
X61745904Y-110159285D01*
X61698285Y-109968809D01*
X61698285Y-109825952D01*
X61745904Y-109635476D01*
X61793523Y-109540238D01*
X61888761Y-109445000D01*
X62031619Y-109397380D01*
X62126857Y-109397380D01*
X62269714Y-109445000D01*
X62317333Y-109492619D01*
X63269714Y-110397380D02*
X62698285Y-110397380D01*
X62984000Y-110397380D02*
X62984000Y-109397380D01*
X62888761Y-109540238D01*
X62793523Y-109635476D01*
X62698285Y-109683095D01*
X61888761Y-115297380D02*
X61317333Y-115297380D01*
X61603047Y-115297380D02*
X61603047Y-114297380D01*
X61507809Y-114440238D01*
X61412571Y-114535476D01*
X61317333Y-114583095D01*
X62317333Y-114630714D02*
X62317333Y-115297380D01*
X62317333Y-114725952D02*
X62364952Y-114678333D01*
X62460190Y-114630714D01*
X62603047Y-114630714D01*
X62698285Y-114678333D01*
X62745904Y-114773571D01*
X62745904Y-115297380D01*
X63555428Y-114773571D02*
X63222095Y-114773571D01*
X63222095Y-115297380D02*
X63222095Y-114297380D01*
X63698285Y-114297380D01*
%TD*%
%LPC*%
D14*
%TO.C,RV4*%
X94314000Y-123825000D03*
X96814000Y-123825000D03*
X99314000Y-123825000D03*
%TD*%
%TO.C,J5*%
X94314000Y-116078000D03*
X96814000Y-116078000D03*
X99314000Y-116078000D03*
%TD*%
%TO.C,RV1*%
X63199000Y-149860000D03*
X65699000Y-149860000D03*
X68199000Y-149860000D03*
%TD*%
%TO.C,RV3*%
X86694000Y-150114000D03*
X89194000Y-150114000D03*
X91694000Y-150114000D03*
%TD*%
%TO.C,RV2*%
X75184000Y-149860000D03*
X77684000Y-149860000D03*
X80184000Y-149860000D03*
%TD*%
%TO.C,J1*%
X68246000Y-157226000D03*
X65746000Y-157226000D03*
X63246000Y-157226000D03*
%TD*%
%TO.C,J2*%
X80184000Y-157226000D03*
X77684000Y-157226000D03*
X75184000Y-157226000D03*
%TD*%
%TO.C,J3*%
X91614000Y-157226000D03*
X89114000Y-157226000D03*
X86614000Y-157226000D03*
%TD*%
D15*
%TO.C,IC1*%
X81534000Y-93345000D03*
X73914000Y-111125000D03*
X81534000Y-95885000D03*
X73914000Y-108585000D03*
X81534000Y-98425000D03*
X73914000Y-106045000D03*
X81534000Y-100965000D03*
X73914000Y-103505000D03*
X81534000Y-103505000D03*
X73914000Y-100965000D03*
X81534000Y-106045000D03*
X73914000Y-98425000D03*
X81534000Y-108585000D03*
X73914000Y-95885000D03*
X81534000Y-111125000D03*
D16*
X73914000Y-93345000D03*
%TD*%
D17*
%TO.C,C2*%
X95250000Y-108966000D03*
X97750000Y-108966000D03*
%TD*%
D18*
%TO.C,J4*%
X76454000Y-86995000D03*
D19*
X78994000Y-86995000D03*
%TD*%
D18*
%TO.C,J6*%
X99314000Y-135890000D03*
D19*
X96774000Y-135890000D03*
X94234000Y-135890000D03*
X91694000Y-135890000D03*
%TD*%
D20*
%TO.C,R1*%
X69469000Y-143510000D03*
D17*
X61849000Y-143510000D03*
%TD*%
%TO.C,R2*%
X73914000Y-143510000D03*
D20*
X81534000Y-143510000D03*
%TD*%
%TO.C,R3*%
X85979000Y-143510000D03*
D17*
X93599000Y-143510000D03*
%TD*%
%TO.C,R4*%
X66294000Y-137795000D03*
D20*
X58674000Y-137795000D03*
%TD*%
D17*
%TO.C,R5*%
X58674000Y-131445000D03*
D20*
X66294000Y-131445000D03*
%TD*%
%TO.C,R6*%
X66294000Y-125095000D03*
D17*
X58674000Y-125095000D03*
%TD*%
%TO.C,R7*%
X58674000Y-86995000D03*
D20*
X66294000Y-86995000D03*
%TD*%
%TO.C,R8*%
X58674000Y-93345000D03*
D17*
X66294000Y-93345000D03*
%TD*%
%TO.C,R9*%
X58674000Y-118745000D03*
D20*
X66294000Y-118745000D03*
%TD*%
%TO.C,R10*%
X58674000Y-99695000D03*
D17*
X66294000Y-99695000D03*
%TD*%
%TO.C,R11*%
X58674000Y-106045000D03*
D20*
X66294000Y-106045000D03*
%TD*%
%TO.C,R12*%
X92329000Y-95885000D03*
D17*
X99949000Y-95885000D03*
%TD*%
D20*
%TO.C,R13*%
X92329000Y-89535000D03*
D17*
X99949000Y-89535000D03*
%TD*%
%TO.C,R14*%
X99949000Y-102235000D03*
D20*
X92329000Y-102235000D03*
%TD*%
D17*
%TO.C,R15*%
X99314000Y-130175000D03*
D20*
X91694000Y-130175000D03*
%TD*%
D16*
%TO.C,U1*%
X73914000Y-119380000D03*
D15*
X81534000Y-134620000D03*
X73914000Y-121920000D03*
X81534000Y-132080000D03*
X73914000Y-124460000D03*
X81534000Y-129540000D03*
X73914000Y-127000000D03*
X81534000Y-127000000D03*
X73914000Y-129540000D03*
X81534000Y-124460000D03*
X73914000Y-132080000D03*
X81534000Y-121920000D03*
X73914000Y-134620000D03*
X81534000Y-119380000D03*
%TD*%
D14*
%TO.C,C1*%
X59984000Y-112395000D03*
X62484000Y-112395000D03*
X64984000Y-112395000D03*
%TD*%
M02*
