%TF.GenerationSoftware,KiCad,Pcbnew,(5.1.12)-1*%
%TF.CreationDate,2021-11-26T16:16:20-08:00*%
%TF.ProjectId,VCF_LowPass,5643465f-4c6f-4775-9061-73732e6b6963,rev?*%
%TF.SameCoordinates,Original*%
%TF.FileFunction,Soldermask,Bot*%
%TF.FilePolarity,Negative*%
%FSLAX46Y46*%
G04 Gerber Fmt 4.6, Leading zero omitted, Abs format (unit mm)*
G04 Created by KiCad (PCBNEW (5.1.12)-1) date 2021-11-26 16:16:20*
%MOMM*%
%LPD*%
G01*
G04 APERTURE LIST*
%ADD10C,1.700000*%
%ADD11O,2.400000X1.600000*%
%ADD12R,2.400000X1.600000*%
%ADD13C,1.600000*%
%ADD14R,1.700000X1.700000*%
%ADD15O,1.700000X1.700000*%
%ADD16O,1.600000X1.600000*%
G04 APERTURE END LIST*
D10*
%TO.C,RV4*%
X94314000Y-123825000D03*
X96814000Y-123825000D03*
X99314000Y-123825000D03*
%TD*%
%TO.C,J5*%
X94314000Y-116078000D03*
X96814000Y-116078000D03*
X99314000Y-116078000D03*
%TD*%
%TO.C,RV1*%
X63199000Y-149860000D03*
X65699000Y-149860000D03*
X68199000Y-149860000D03*
%TD*%
%TO.C,RV3*%
X86694000Y-150114000D03*
X89194000Y-150114000D03*
X91694000Y-150114000D03*
%TD*%
%TO.C,RV2*%
X75184000Y-149860000D03*
X77684000Y-149860000D03*
X80184000Y-149860000D03*
%TD*%
%TO.C,J1*%
X68246000Y-157226000D03*
X65746000Y-157226000D03*
X63246000Y-157226000D03*
%TD*%
%TO.C,J2*%
X80184000Y-157226000D03*
X77684000Y-157226000D03*
X75184000Y-157226000D03*
%TD*%
%TO.C,J3*%
X91614000Y-157226000D03*
X89114000Y-157226000D03*
X86614000Y-157226000D03*
%TD*%
D11*
%TO.C,IC1*%
X81534000Y-93345000D03*
X73914000Y-111125000D03*
X81534000Y-95885000D03*
X73914000Y-108585000D03*
X81534000Y-98425000D03*
X73914000Y-106045000D03*
X81534000Y-100965000D03*
X73914000Y-103505000D03*
X81534000Y-103505000D03*
X73914000Y-100965000D03*
X81534000Y-106045000D03*
X73914000Y-98425000D03*
X81534000Y-108585000D03*
X73914000Y-95885000D03*
X81534000Y-111125000D03*
D12*
X73914000Y-93345000D03*
%TD*%
D13*
%TO.C,C2*%
X95250000Y-108966000D03*
X97750000Y-108966000D03*
%TD*%
D14*
%TO.C,J4*%
X76454000Y-86995000D03*
D15*
X78994000Y-86995000D03*
%TD*%
D14*
%TO.C,J6*%
X99314000Y-135890000D03*
D15*
X96774000Y-135890000D03*
X94234000Y-135890000D03*
X91694000Y-135890000D03*
%TD*%
D16*
%TO.C,R1*%
X69469000Y-143510000D03*
D13*
X61849000Y-143510000D03*
%TD*%
%TO.C,R2*%
X73914000Y-143510000D03*
D16*
X81534000Y-143510000D03*
%TD*%
%TO.C,R3*%
X85979000Y-143510000D03*
D13*
X93599000Y-143510000D03*
%TD*%
%TO.C,R4*%
X66294000Y-137795000D03*
D16*
X58674000Y-137795000D03*
%TD*%
D13*
%TO.C,R5*%
X58674000Y-131445000D03*
D16*
X66294000Y-131445000D03*
%TD*%
%TO.C,R6*%
X66294000Y-125095000D03*
D13*
X58674000Y-125095000D03*
%TD*%
%TO.C,R7*%
X58674000Y-86995000D03*
D16*
X66294000Y-86995000D03*
%TD*%
%TO.C,R8*%
X58674000Y-93345000D03*
D13*
X66294000Y-93345000D03*
%TD*%
%TO.C,R9*%
X58674000Y-118745000D03*
D16*
X66294000Y-118745000D03*
%TD*%
%TO.C,R10*%
X58674000Y-99695000D03*
D13*
X66294000Y-99695000D03*
%TD*%
%TO.C,R11*%
X58674000Y-106045000D03*
D16*
X66294000Y-106045000D03*
%TD*%
%TO.C,R12*%
X92329000Y-95885000D03*
D13*
X99949000Y-95885000D03*
%TD*%
D16*
%TO.C,R13*%
X92329000Y-89535000D03*
D13*
X99949000Y-89535000D03*
%TD*%
%TO.C,R14*%
X99949000Y-102235000D03*
D16*
X92329000Y-102235000D03*
%TD*%
D13*
%TO.C,R15*%
X99314000Y-130175000D03*
D16*
X91694000Y-130175000D03*
%TD*%
D12*
%TO.C,U1*%
X73914000Y-119380000D03*
D11*
X81534000Y-134620000D03*
X73914000Y-121920000D03*
X81534000Y-132080000D03*
X73914000Y-124460000D03*
X81534000Y-129540000D03*
X73914000Y-127000000D03*
X81534000Y-127000000D03*
X73914000Y-129540000D03*
X81534000Y-124460000D03*
X73914000Y-132080000D03*
X81534000Y-121920000D03*
X73914000Y-134620000D03*
X81534000Y-119380000D03*
%TD*%
D10*
%TO.C,C1*%
X59984000Y-112395000D03*
X62484000Y-112395000D03*
X64984000Y-112395000D03*
%TD*%
M02*
