%TF.GenerationSoftware,KiCad,Pcbnew,(5.1.12)-1*%
%TF.CreationDate,2021-11-26T16:51:06-08:00*%
%TF.ProjectId,VCO Front Pannel,56434f20-4672-46f6-9e74-2050616e6e65,rev?*%
%TF.SameCoordinates,Original*%
%TF.FileFunction,Profile,NP*%
%FSLAX46Y46*%
G04 Gerber Fmt 4.6, Leading zero omitted, Abs format (unit mm)*
G04 Created by KiCad (PCBNEW (5.1.12)-1) date 2021-11-26 16:51:06*
%MOMM*%
%LPD*%
G01*
G04 APERTURE LIST*
%TA.AperFunction,Profile*%
%ADD10C,0.050000*%
%TD*%
G04 APERTURE END LIST*
D10*
X110146000Y-86295000D02*
G75*
G03*
X110146000Y-86295000I-3500000J0D01*
G01*
X138306000Y-86295000D02*
G75*
G03*
X138306000Y-86295000I-3500000J0D01*
G01*
X145958000Y-43600000D02*
G75*
G03*
X145958000Y-43600000I-3000000J0D01*
G01*
X131958000Y-43600000D02*
G75*
G03*
X131958000Y-43600000I-3000000J0D01*
G01*
X117958000Y-43600000D02*
G75*
G03*
X117958000Y-43600000I-3000000J0D01*
G01*
X103958000Y-43600000D02*
G75*
G03*
X103958000Y-43600000I-3000000J0D01*
G01*
X88307000Y-43600000D02*
G75*
G03*
X88307000Y-43600000I-3000000J0D01*
G01*
X74307000Y-43600000D02*
G75*
G03*
X74307000Y-43600000I-3000000J0D01*
G01*
X60307000Y-43600000D02*
G75*
G03*
X60307000Y-43600000I-3000000J0D01*
G01*
X46307000Y-43600000D02*
G75*
G03*
X46307000Y-43600000I-3000000J0D01*
G01*
X147500000Y-27800000D02*
G75*
G03*
X147500000Y-27800000I-1600000J0D01*
G01*
X40600000Y-27800000D02*
G75*
G03*
X40600000Y-27800000I-1600000J0D01*
G01*
X40600000Y-150300000D02*
G75*
G03*
X40600000Y-150300000I-1600000J0D01*
G01*
X138080000Y-59395000D02*
G75*
G03*
X138080000Y-59395000I-3500000J0D01*
G01*
X115380000Y-59395000D02*
G75*
G03*
X115380000Y-59395000I-3500000J0D01*
G01*
X76980000Y-59395000D02*
G75*
G03*
X76980000Y-59395000I-4000000J0D01*
G01*
X53807000Y-59395000D02*
G75*
G03*
X53807000Y-59395000I-3500000J0D01*
G01*
X82426000Y-86295000D02*
G75*
G03*
X82426000Y-86295000I-3500000J0D01*
G01*
X145831000Y-137242000D02*
G75*
G03*
X145831000Y-137242000I-3000000J0D01*
G01*
X132831000Y-137242000D02*
G75*
G03*
X132831000Y-137242000I-4000000J0D01*
G01*
X118831000Y-137242000D02*
G75*
G03*
X118831000Y-137242000I-4000000J0D01*
G01*
X104831000Y-137242000D02*
G75*
G03*
X104831000Y-137242000I-4000000J0D01*
G01*
X88307000Y-137242000D02*
G75*
G03*
X88307000Y-137242000I-3000000J0D01*
G01*
X75307000Y-137242000D02*
G75*
G03*
X75307000Y-137242000I-4000000J0D01*
G01*
X61307000Y-137242000D02*
G75*
G03*
X61307000Y-137242000I-4000000J0D01*
G01*
X148364000Y-112395000D02*
G75*
G03*
X148364000Y-112395000I-3500000J0D01*
G01*
X129094000Y-112395000D02*
G75*
G03*
X129094000Y-112395000I-3500000J0D01*
G01*
X109824000Y-112395000D02*
G75*
G03*
X109824000Y-112395000I-3500000J0D01*
G01*
X82680000Y-112395000D02*
G75*
G03*
X82680000Y-112395000I-3500000J0D01*
G01*
X63410000Y-112395000D02*
G75*
G03*
X63410000Y-112395000I-3500000J0D01*
G01*
X54266000Y-86295000D02*
G75*
G03*
X54266000Y-86295000I-3500000J0D01*
G01*
X47307000Y-137242000D02*
G75*
G03*
X47307000Y-137242000I-4000000J0D01*
G01*
X147500000Y-150266400D02*
G75*
G03*
X147500000Y-150266400I-1600000J0D01*
G01*
X44140000Y-112395000D02*
G75*
G03*
X44140000Y-112395000I-3500000J0D01*
G01*
X31500000Y-24800000D02*
X31500000Y-153300000D01*
X153420000Y-24800000D02*
X153420000Y-153300000D01*
X31500000Y-153300000D02*
X153420000Y-153300000D01*
X31500000Y-24800000D02*
X153420000Y-24800000D01*
M02*
