M48
; DRILL file {KiCad (5.1.12)-1} date 11/26/21 16:18:43
; FORMAT={-:-/ absolute / metric / decimal}
; #@! TF.CreationDate,2021-11-26T16:18:43-08:00
; #@! TF.GenerationSoftware,Kicad,Pcbnew,(5.1.12)-1
; #@! TF.FileFunction,Plated,1,2,PTH
FMAT,2
METRIC
T1C0.800
T2C1.000
%
G90
G05
T1
X58.674Y-86.995
X58.674Y-93.345
X58.674Y-99.695
X58.674Y-106.045
X58.674Y-118.745
X58.674Y-125.095
X58.674Y-131.445
X58.674Y-137.795
X61.849Y-143.51
X66.294Y-86.995
X66.294Y-93.345
X66.294Y-99.695
X66.294Y-106.045
X66.294Y-118.745
X66.294Y-125.095
X66.294Y-131.445
X66.294Y-137.795
X69.469Y-143.51
X73.914Y-93.345
X73.914Y-95.885
X73.914Y-98.425
X73.914Y-100.965
X73.914Y-103.505
X73.914Y-106.045
X73.914Y-108.585
X73.914Y-111.125
X73.914Y-119.38
X73.914Y-121.92
X73.914Y-124.46
X73.914Y-127.0
X73.914Y-129.54
X73.914Y-132.08
X73.914Y-134.62
X73.914Y-143.51
X81.534Y-93.345
X81.534Y-95.885
X81.534Y-98.425
X81.534Y-100.965
X81.534Y-103.505
X81.534Y-106.045
X81.534Y-108.585
X81.534Y-111.125
X81.534Y-119.38
X81.534Y-121.92
X81.534Y-124.46
X81.534Y-127.0
X81.534Y-129.54
X81.534Y-132.08
X81.534Y-134.62
X81.534Y-143.51
X85.979Y-143.51
X91.694Y-130.175
X92.329Y-89.535
X92.329Y-95.885
X92.329Y-102.235
X93.599Y-143.51
X95.25Y-108.966
X97.75Y-108.966
X99.314Y-130.175
X99.949Y-89.535
X99.949Y-95.885
X99.949Y-102.235
T2
X59.984Y-112.395
X62.484Y-112.395
X63.199Y-149.86
X63.246Y-157.226
X64.984Y-112.395
X65.699Y-149.86
X65.746Y-157.226
X68.199Y-149.86
X68.246Y-157.226
X75.184Y-149.86
X75.184Y-157.226
X76.454Y-86.995
X77.684Y-149.86
X77.684Y-157.226
X78.994Y-86.995
X80.184Y-149.86
X80.184Y-157.226
X86.614Y-157.226
X86.694Y-150.114
X89.114Y-157.226
X89.194Y-150.114
X91.614Y-157.226
X91.694Y-135.89
X91.694Y-150.114
X94.234Y-135.89
X94.314Y-116.078
X94.314Y-123.825
X96.774Y-135.89
X96.814Y-116.078
X96.814Y-123.825
X99.314Y-116.078
X99.314Y-123.825
X99.314Y-135.89
T0
M30
