%TF.GenerationSoftware,KiCad,Pcbnew,(5.1.12)-1*%
%TF.CreationDate,2021-11-26T16:38:54-08:00*%
%TF.ProjectId,ADSR Front Pannel,41445352-2046-4726-9f6e-742050616e6e,rev?*%
%TF.SameCoordinates,Original*%
%TF.FileFunction,Profile,NP*%
%FSLAX46Y46*%
G04 Gerber Fmt 4.6, Leading zero omitted, Abs format (unit mm)*
G04 Created by KiCad (PCBNEW (5.1.12)-1) date 2021-11-26 16:38:54*
%MOMM*%
%LPD*%
G01*
G04 APERTURE LIST*
%TA.AperFunction,Profile*%
%ADD10C,0.050000*%
%TD*%
G04 APERTURE END LIST*
D10*
X105244000Y-94722400D02*
G75*
G03*
X105244000Y-94722400I-4000000J0D01*
G01*
X76244000Y-94722400D02*
G75*
G03*
X76244000Y-94722400I-4000000J0D01*
G01*
X106740000Y-48520000D02*
G75*
G03*
X106740000Y-48520000I-3600000J0D01*
G01*
X86740000Y-48520000D02*
G75*
G03*
X86740000Y-48520000I-3600000J0D01*
G01*
X66740000Y-48520000D02*
G75*
G03*
X66740000Y-48520000I-3600000J0D01*
G01*
X47294000Y-123195800D02*
G75*
G03*
X47294000Y-123195800I-4050000J0D01*
G01*
X90860000Y-72116400D02*
G75*
G03*
X90860000Y-72116400I-4500000J0D01*
G01*
X61420000Y-72116400D02*
G75*
G03*
X61420000Y-72116400I-3000000J0D01*
G01*
X46740000Y-48520000D02*
G75*
G03*
X46740000Y-48520000I-3600000J0D01*
G01*
X76294000Y-123195800D02*
G75*
G03*
X76294000Y-123195800I-4050000J0D01*
G01*
X105294000Y-123195800D02*
G75*
G03*
X105294000Y-123195800I-4050000J0D01*
G01*
X47244000Y-94722400D02*
G75*
G03*
X47244000Y-94722400I-4000000J0D01*
G01*
X46244000Y-137242000D02*
G75*
G03*
X46244000Y-137242000I-3000000J0D01*
G01*
X104244000Y-137242000D02*
G75*
G03*
X104244000Y-137242000I-3000000J0D01*
G01*
X75244000Y-137242000D02*
G75*
G03*
X75244000Y-137242000I-3000000J0D01*
G01*
X106860000Y-27880000D02*
G75*
G03*
X106860000Y-27880000I-1600000J0D01*
G01*
X40600000Y-27800000D02*
G75*
G03*
X40600000Y-27800000I-1600000J0D01*
G01*
X40600000Y-150300000D02*
G75*
G03*
X40600000Y-150300000I-1600000J0D01*
G01*
X106860000Y-150300000D02*
G75*
G03*
X106860000Y-150300000I-1600000J0D01*
G01*
X31500000Y-24800000D02*
X31500000Y-153300000D01*
X112780000Y-24800000D02*
X112780000Y-153300000D01*
X31500000Y-153300000D02*
X112780000Y-153300000D01*
X31500000Y-24800000D02*
X112780000Y-24800000D01*
M02*
