%TF.GenerationSoftware,KiCad,Pcbnew,(5.1.12)-1*%
%TF.CreationDate,2021-11-26T17:34:04-08:00*%
%TF.ProjectId,VCA Front Pannel,56434120-4672-46f6-9e74-2050616e6e65,rev?*%
%TF.SameCoordinates,Original*%
%TF.FileFunction,Soldermask,Top*%
%TF.FilePolarity,Negative*%
%FSLAX46Y46*%
G04 Gerber Fmt 4.6, Leading zero omitted, Abs format (unit mm)*
G04 Created by KiCad (PCBNEW (5.1.12)-1) date 2021-11-26 17:34:04*
%MOMM*%
%LPD*%
G01*
G04 APERTURE LIST*
%ADD10C,0.150000*%
G04 APERTURE END LIST*
D10*
X138890952Y-150582380D02*
X138890952Y-151296666D01*
X138843333Y-151439523D01*
X138748095Y-151534761D01*
X138605238Y-151582380D01*
X138510000Y-151582380D01*
X139843333Y-151582380D02*
X139367142Y-151582380D01*
X139367142Y-150582380D01*
X140748095Y-151487142D02*
X140700476Y-151534761D01*
X140557619Y-151582380D01*
X140462380Y-151582380D01*
X140319523Y-151534761D01*
X140224285Y-151439523D01*
X140176666Y-151344285D01*
X140129047Y-151153809D01*
X140129047Y-151010952D01*
X140176666Y-150820476D01*
X140224285Y-150725238D01*
X140319523Y-150630000D01*
X140462380Y-150582380D01*
X140557619Y-150582380D01*
X140700476Y-150630000D01*
X140748095Y-150677619D01*
X141462380Y-150582380D02*
X141462380Y-151296666D01*
X141414761Y-151439523D01*
X141319523Y-151534761D01*
X141176666Y-151582380D01*
X141081428Y-151582380D01*
X142414761Y-151582380D02*
X141938571Y-151582380D01*
X141938571Y-150582380D01*
X143319523Y-151487142D02*
X143271904Y-151534761D01*
X143129047Y-151582380D01*
X143033809Y-151582380D01*
X142890952Y-151534761D01*
X142795714Y-151439523D01*
X142748095Y-151344285D01*
X142700476Y-151153809D01*
X142700476Y-151010952D01*
X142748095Y-150820476D01*
X142795714Y-150725238D01*
X142890952Y-150630000D01*
X143033809Y-150582380D01*
X143129047Y-150582380D01*
X143271904Y-150630000D01*
X143319523Y-150677619D01*
X144033809Y-150582380D02*
X144033809Y-151296666D01*
X143986190Y-151439523D01*
X143890952Y-151534761D01*
X143748095Y-151582380D01*
X143652857Y-151582380D01*
X144986190Y-151582380D02*
X144510000Y-151582380D01*
X144510000Y-150582380D01*
X145890952Y-151487142D02*
X145843333Y-151534761D01*
X145700476Y-151582380D01*
X145605238Y-151582380D01*
X145462380Y-151534761D01*
X145367142Y-151439523D01*
X145319523Y-151344285D01*
X145271904Y-151153809D01*
X145271904Y-151010952D01*
X145319523Y-150820476D01*
X145367142Y-150725238D01*
X145462380Y-150630000D01*
X145605238Y-150582380D01*
X145700476Y-150582380D01*
X145843333Y-150630000D01*
X145890952Y-150677619D01*
X146605238Y-150582380D02*
X146605238Y-151296666D01*
X146557619Y-151439523D01*
X146462380Y-151534761D01*
X146319523Y-151582380D01*
X146224285Y-151582380D01*
X147557619Y-151582380D02*
X147081428Y-151582380D01*
X147081428Y-150582380D01*
X148462380Y-151487142D02*
X148414761Y-151534761D01*
X148271904Y-151582380D01*
X148176666Y-151582380D01*
X148033809Y-151534761D01*
X147938571Y-151439523D01*
X147890952Y-151344285D01*
X147843333Y-151153809D01*
X147843333Y-151010952D01*
X147890952Y-150820476D01*
X147938571Y-150725238D01*
X148033809Y-150630000D01*
X148176666Y-150582380D01*
X148271904Y-150582380D01*
X148414761Y-150630000D01*
X148462380Y-150677619D01*
M02*
