%TF.GenerationSoftware,KiCad,Pcbnew,(5.1.12)-1*%
%TF.CreationDate,2021-11-26T17:34:04-08:00*%
%TF.ProjectId,VCA Front Pannel,56434120-4672-46f6-9e74-2050616e6e65,rev?*%
%TF.SameCoordinates,Original*%
%TF.FileFunction,Profile,NP*%
%FSLAX46Y46*%
G04 Gerber Fmt 4.6, Leading zero omitted, Abs format (unit mm)*
G04 Created by KiCad (PCBNEW (5.1.12)-1) date 2021-11-26 17:34:04*
%MOMM*%
%LPD*%
G01*
G04 APERTURE LIST*
%TA.AperFunction,Profile*%
%ADD10C,0.050000*%
%TD*%
G04 APERTURE END LIST*
D10*
X149210000Y-67015000D02*
G75*
G03*
X149210000Y-67015000I-4000000J0D01*
G01*
X137780000Y-50800000D02*
G75*
G03*
X137780000Y-50800000I-4000000J0D01*
G01*
X115267000Y-50800000D02*
G75*
G03*
X115267000Y-50800000I-4000000J0D01*
G01*
X137280000Y-40640000D02*
G75*
G03*
X137280000Y-40640000I-3500000J0D01*
G01*
X114767000Y-40640000D02*
G75*
G03*
X114767000Y-40640000I-3500000J0D01*
G01*
X145740000Y-93980000D02*
G75*
G03*
X145740000Y-93980000I-3500000J0D01*
G01*
X79700000Y-93980000D02*
G75*
G03*
X79700000Y-93980000I-3500000J0D01*
G01*
X75120000Y-134702000D02*
G75*
G03*
X75120000Y-134702000I-4000000J0D01*
G01*
X141160000Y-134702000D02*
G75*
G03*
X141160000Y-134702000I-4000000J0D01*
G01*
X125920000Y-134702000D02*
G75*
G03*
X125920000Y-134702000I-4000000J0D01*
G01*
X110807000Y-134702000D02*
G75*
G03*
X110807000Y-134702000I-4000000J0D01*
G01*
X133260000Y-116205000D02*
G75*
G03*
X133260000Y-116205000I-3500000J0D01*
G01*
X153800000Y-116205000D02*
G75*
G03*
X153800000Y-116205000I-3500000J0D01*
G01*
X154347000Y-134702000D02*
G75*
G03*
X154347000Y-134702000I-3000000J0D01*
G01*
X112720000Y-116205000D02*
G75*
G03*
X112720000Y-116205000I-3500000J0D01*
G01*
X114767000Y-67015000D02*
G75*
G03*
X114767000Y-67015000I-3500000J0D01*
G01*
X120340000Y-93915000D02*
G75*
G03*
X120340000Y-93915000I-3500000J0D01*
G01*
X71240000Y-40640000D02*
G75*
G03*
X71240000Y-40640000I-3500000J0D01*
G01*
X67220000Y-116205000D02*
G75*
G03*
X67220000Y-116205000I-3500000J0D01*
G01*
X48727000Y-40640000D02*
G75*
G03*
X48727000Y-40640000I-3500000J0D01*
G01*
X71740000Y-50800000D02*
G75*
G03*
X71740000Y-50800000I-4000000J0D01*
G01*
X49227000Y-50800000D02*
G75*
G03*
X49227000Y-50800000I-4000000J0D01*
G01*
X87760000Y-116205000D02*
G75*
G03*
X87760000Y-116205000I-3500000J0D01*
G01*
X54300000Y-93915000D02*
G75*
G03*
X54300000Y-93915000I-3500000J0D01*
G01*
X157700000Y-27800000D02*
G75*
G03*
X157700000Y-27800000I-1600000J0D01*
G01*
X40600000Y-27800000D02*
G75*
G03*
X40600000Y-27800000I-1600000J0D01*
G01*
X40600000Y-150300000D02*
G75*
G03*
X40600000Y-150300000I-1600000J0D01*
G01*
X83170000Y-67015000D02*
G75*
G03*
X83170000Y-67015000I-4000000J0D01*
G01*
X48727000Y-67015000D02*
G75*
G03*
X48727000Y-67015000I-3500000J0D01*
G01*
X88307000Y-134702000D02*
G75*
G03*
X88307000Y-134702000I-3000000J0D01*
G01*
X59880000Y-134702000D02*
G75*
G03*
X59880000Y-134702000I-4000000J0D01*
G01*
X44767000Y-134702000D02*
G75*
G03*
X44767000Y-134702000I-4000000J0D01*
G01*
X157700000Y-150266400D02*
G75*
G03*
X157700000Y-150266400I-1600000J0D01*
G01*
X46680000Y-116205000D02*
G75*
G03*
X46680000Y-116205000I-3500000J0D01*
G01*
X31500000Y-24800000D02*
X31500000Y-153300000D01*
X163580000Y-24800000D02*
X163580000Y-153300000D01*
X31500000Y-153300000D02*
X163580000Y-153300000D01*
X31500000Y-24800000D02*
X163580000Y-24800000D01*
M02*
