%TF.GenerationSoftware,KiCad,Pcbnew,(5.1.12)-1*%
%TF.CreationDate,2021-11-26T17:34:04-08:00*%
%TF.ProjectId,VCA Front Pannel,56434120-4672-46f6-9e74-2050616e6e65,rev?*%
%TF.SameCoordinates,Original*%
%TF.FileFunction,Copper,L2,Bot*%
%TF.FilePolarity,Positive*%
%FSLAX46Y46*%
G04 Gerber Fmt 4.6, Leading zero omitted, Abs format (unit mm)*
G04 Created by KiCad (PCBNEW (5.1.12)-1) date 2021-11-26 17:34:04*
%MOMM*%
%LPD*%
G01*
G04 APERTURE LIST*
%TA.AperFunction,NonConductor*%
%ADD10C,0.254000*%
%TD*%
%TA.AperFunction,NonConductor*%
%ADD11C,0.100000*%
%TD*%
G04 APERTURE END LIST*
D10*
X163228001Y-152948000D02*
X31852000Y-152948000D01*
X31852000Y-150106710D01*
X37037496Y-150106710D01*
X37037496Y-150493290D01*
X37112914Y-150872441D01*
X37260851Y-151229594D01*
X37475623Y-151551024D01*
X37748976Y-151824377D01*
X38070406Y-152039149D01*
X38427559Y-152187086D01*
X38806710Y-152262504D01*
X39193290Y-152262504D01*
X39572441Y-152187086D01*
X39929594Y-152039149D01*
X40251024Y-151824377D01*
X40524377Y-151551024D01*
X40739149Y-151229594D01*
X40887086Y-150872441D01*
X40962504Y-150493290D01*
X40962504Y-150106710D01*
X40955821Y-150073110D01*
X154137496Y-150073110D01*
X154137496Y-150459690D01*
X154212914Y-150838841D01*
X154360851Y-151195994D01*
X154575623Y-151517424D01*
X154848976Y-151790777D01*
X155170406Y-152005549D01*
X155527559Y-152153486D01*
X155906710Y-152228904D01*
X156293290Y-152228904D01*
X156672441Y-152153486D01*
X157029594Y-152005549D01*
X157351024Y-151790777D01*
X157624377Y-151517424D01*
X157839149Y-151195994D01*
X157987086Y-150838841D01*
X158062504Y-150459690D01*
X158062504Y-150073110D01*
X157987086Y-149693959D01*
X157839149Y-149336806D01*
X157624377Y-149015376D01*
X157351024Y-148742023D01*
X157029594Y-148527251D01*
X156672441Y-148379314D01*
X156293290Y-148303896D01*
X155906710Y-148303896D01*
X155527559Y-148379314D01*
X155170406Y-148527251D01*
X154848976Y-148742023D01*
X154575623Y-149015376D01*
X154360851Y-149336806D01*
X154212914Y-149693959D01*
X154137496Y-150073110D01*
X40955821Y-150073110D01*
X40887086Y-149727559D01*
X40739149Y-149370406D01*
X40524377Y-149048976D01*
X40251024Y-148775623D01*
X39929594Y-148560851D01*
X39572441Y-148412914D01*
X39193290Y-148337496D01*
X38806710Y-148337496D01*
X38427559Y-148412914D01*
X38070406Y-148560851D01*
X37748976Y-148775623D01*
X37475623Y-149048976D01*
X37260851Y-149370406D01*
X37112914Y-149727559D01*
X37037496Y-150106710D01*
X31852000Y-150106710D01*
X31852000Y-134273469D01*
X36416052Y-134273469D01*
X36416052Y-135130531D01*
X36583257Y-135971125D01*
X36911240Y-136762947D01*
X37387398Y-137475567D01*
X37993433Y-138081602D01*
X38706053Y-138557760D01*
X39497875Y-138885743D01*
X40338469Y-139052948D01*
X41195531Y-139052948D01*
X42036125Y-138885743D01*
X42827947Y-138557760D01*
X43540567Y-138081602D01*
X44146602Y-137475567D01*
X44622760Y-136762947D01*
X44950743Y-135971125D01*
X45117948Y-135130531D01*
X45117948Y-134273469D01*
X51529052Y-134273469D01*
X51529052Y-135130531D01*
X51696257Y-135971125D01*
X52024240Y-136762947D01*
X52500398Y-137475567D01*
X53106433Y-138081602D01*
X53819053Y-138557760D01*
X54610875Y-138885743D01*
X55451469Y-139052948D01*
X56308531Y-139052948D01*
X57149125Y-138885743D01*
X57940947Y-138557760D01*
X58653567Y-138081602D01*
X59259602Y-137475567D01*
X59735760Y-136762947D01*
X60063743Y-135971125D01*
X60230948Y-135130531D01*
X60230948Y-134273469D01*
X66769052Y-134273469D01*
X66769052Y-135130531D01*
X66936257Y-135971125D01*
X67264240Y-136762947D01*
X67740398Y-137475567D01*
X68346433Y-138081602D01*
X69059053Y-138557760D01*
X69850875Y-138885743D01*
X70691469Y-139052948D01*
X71548531Y-139052948D01*
X72389125Y-138885743D01*
X73180947Y-138557760D01*
X73893567Y-138081602D01*
X74499602Y-137475567D01*
X74975760Y-136762947D01*
X75303743Y-135971125D01*
X75470948Y-135130531D01*
X75470948Y-134371486D01*
X81951237Y-134371486D01*
X81951237Y-135032514D01*
X82080197Y-135680840D01*
X82333161Y-136291550D01*
X82700409Y-136841174D01*
X83167826Y-137308591D01*
X83717450Y-137675839D01*
X84328160Y-137928803D01*
X84976486Y-138057763D01*
X85637514Y-138057763D01*
X86285840Y-137928803D01*
X86896550Y-137675839D01*
X87446174Y-137308591D01*
X87913591Y-136841174D01*
X88280839Y-136291550D01*
X88533803Y-135680840D01*
X88662763Y-135032514D01*
X88662763Y-134371486D01*
X88643267Y-134273469D01*
X102456052Y-134273469D01*
X102456052Y-135130531D01*
X102623257Y-135971125D01*
X102951240Y-136762947D01*
X103427398Y-137475567D01*
X104033433Y-138081602D01*
X104746053Y-138557760D01*
X105537875Y-138885743D01*
X106378469Y-139052948D01*
X107235531Y-139052948D01*
X108076125Y-138885743D01*
X108867947Y-138557760D01*
X109580567Y-138081602D01*
X110186602Y-137475567D01*
X110662760Y-136762947D01*
X110990743Y-135971125D01*
X111157948Y-135130531D01*
X111157948Y-134273469D01*
X117569052Y-134273469D01*
X117569052Y-135130531D01*
X117736257Y-135971125D01*
X118064240Y-136762947D01*
X118540398Y-137475567D01*
X119146433Y-138081602D01*
X119859053Y-138557760D01*
X120650875Y-138885743D01*
X121491469Y-139052948D01*
X122348531Y-139052948D01*
X123189125Y-138885743D01*
X123980947Y-138557760D01*
X124693567Y-138081602D01*
X125299602Y-137475567D01*
X125775760Y-136762947D01*
X126103743Y-135971125D01*
X126270948Y-135130531D01*
X126270948Y-134273469D01*
X132809052Y-134273469D01*
X132809052Y-135130531D01*
X132976257Y-135971125D01*
X133304240Y-136762947D01*
X133780398Y-137475567D01*
X134386433Y-138081602D01*
X135099053Y-138557760D01*
X135890875Y-138885743D01*
X136731469Y-139052948D01*
X137588531Y-139052948D01*
X138429125Y-138885743D01*
X139220947Y-138557760D01*
X139933567Y-138081602D01*
X140539602Y-137475567D01*
X141015760Y-136762947D01*
X141343743Y-135971125D01*
X141510948Y-135130531D01*
X141510948Y-134371486D01*
X147991237Y-134371486D01*
X147991237Y-135032514D01*
X148120197Y-135680840D01*
X148373161Y-136291550D01*
X148740409Y-136841174D01*
X149207826Y-137308591D01*
X149757450Y-137675839D01*
X150368160Y-137928803D01*
X151016486Y-138057763D01*
X151677514Y-138057763D01*
X152325840Y-137928803D01*
X152936550Y-137675839D01*
X153486174Y-137308591D01*
X153953591Y-136841174D01*
X154320839Y-136291550D01*
X154573803Y-135680840D01*
X154702763Y-135032514D01*
X154702763Y-134371486D01*
X154573803Y-133723160D01*
X154320839Y-133112450D01*
X153953591Y-132562826D01*
X153486174Y-132095409D01*
X152936550Y-131728161D01*
X152325840Y-131475197D01*
X151677514Y-131346237D01*
X151016486Y-131346237D01*
X150368160Y-131475197D01*
X149757450Y-131728161D01*
X149207826Y-132095409D01*
X148740409Y-132562826D01*
X148373161Y-133112450D01*
X148120197Y-133723160D01*
X147991237Y-134371486D01*
X141510948Y-134371486D01*
X141510948Y-134273469D01*
X141343743Y-133432875D01*
X141015760Y-132641053D01*
X140539602Y-131928433D01*
X139933567Y-131322398D01*
X139220947Y-130846240D01*
X138429125Y-130518257D01*
X137588531Y-130351052D01*
X136731469Y-130351052D01*
X135890875Y-130518257D01*
X135099053Y-130846240D01*
X134386433Y-131322398D01*
X133780398Y-131928433D01*
X133304240Y-132641053D01*
X132976257Y-133432875D01*
X132809052Y-134273469D01*
X126270948Y-134273469D01*
X126103743Y-133432875D01*
X125775760Y-132641053D01*
X125299602Y-131928433D01*
X124693567Y-131322398D01*
X123980947Y-130846240D01*
X123189125Y-130518257D01*
X122348531Y-130351052D01*
X121491469Y-130351052D01*
X120650875Y-130518257D01*
X119859053Y-130846240D01*
X119146433Y-131322398D01*
X118540398Y-131928433D01*
X118064240Y-132641053D01*
X117736257Y-133432875D01*
X117569052Y-134273469D01*
X111157948Y-134273469D01*
X110990743Y-133432875D01*
X110662760Y-132641053D01*
X110186602Y-131928433D01*
X109580567Y-131322398D01*
X108867947Y-130846240D01*
X108076125Y-130518257D01*
X107235531Y-130351052D01*
X106378469Y-130351052D01*
X105537875Y-130518257D01*
X104746053Y-130846240D01*
X104033433Y-131322398D01*
X103427398Y-131928433D01*
X102951240Y-132641053D01*
X102623257Y-133432875D01*
X102456052Y-134273469D01*
X88643267Y-134273469D01*
X88533803Y-133723160D01*
X88280839Y-133112450D01*
X87913591Y-132562826D01*
X87446174Y-132095409D01*
X86896550Y-131728161D01*
X86285840Y-131475197D01*
X85637514Y-131346237D01*
X84976486Y-131346237D01*
X84328160Y-131475197D01*
X83717450Y-131728161D01*
X83167826Y-132095409D01*
X82700409Y-132562826D01*
X82333161Y-133112450D01*
X82080197Y-133723160D01*
X81951237Y-134371486D01*
X75470948Y-134371486D01*
X75470948Y-134273469D01*
X75303743Y-133432875D01*
X74975760Y-132641053D01*
X74499602Y-131928433D01*
X73893567Y-131322398D01*
X73180947Y-130846240D01*
X72389125Y-130518257D01*
X71548531Y-130351052D01*
X70691469Y-130351052D01*
X69850875Y-130518257D01*
X69059053Y-130846240D01*
X68346433Y-131322398D01*
X67740398Y-131928433D01*
X67264240Y-132641053D01*
X66936257Y-133432875D01*
X66769052Y-134273469D01*
X60230948Y-134273469D01*
X60063743Y-133432875D01*
X59735760Y-132641053D01*
X59259602Y-131928433D01*
X58653567Y-131322398D01*
X57940947Y-130846240D01*
X57149125Y-130518257D01*
X56308531Y-130351052D01*
X55451469Y-130351052D01*
X54610875Y-130518257D01*
X53819053Y-130846240D01*
X53106433Y-131322398D01*
X52500398Y-131928433D01*
X52024240Y-132641053D01*
X51696257Y-133432875D01*
X51529052Y-134273469D01*
X45117948Y-134273469D01*
X44950743Y-133432875D01*
X44622760Y-132641053D01*
X44146602Y-131928433D01*
X43540567Y-131322398D01*
X42827947Y-130846240D01*
X42036125Y-130518257D01*
X41195531Y-130351052D01*
X40338469Y-130351052D01*
X39497875Y-130518257D01*
X38706053Y-130846240D01*
X37993433Y-131322398D01*
X37387398Y-131928433D01*
X36911240Y-132641053D01*
X36583257Y-133432875D01*
X36416052Y-134273469D01*
X31852000Y-134273469D01*
X31852000Y-115825478D01*
X39326645Y-115825478D01*
X39326645Y-116584522D01*
X39474727Y-117328982D01*
X39765201Y-118030248D01*
X40186904Y-118661371D01*
X40723629Y-119198096D01*
X41354752Y-119619799D01*
X42056018Y-119910273D01*
X42800478Y-120058355D01*
X43559522Y-120058355D01*
X44303982Y-119910273D01*
X45005248Y-119619799D01*
X45636371Y-119198096D01*
X46173096Y-118661371D01*
X46594799Y-118030248D01*
X46885273Y-117328982D01*
X47033355Y-116584522D01*
X47033355Y-115825478D01*
X59866645Y-115825478D01*
X59866645Y-116584522D01*
X60014727Y-117328982D01*
X60305201Y-118030248D01*
X60726904Y-118661371D01*
X61263629Y-119198096D01*
X61894752Y-119619799D01*
X62596018Y-119910273D01*
X63340478Y-120058355D01*
X64099522Y-120058355D01*
X64843982Y-119910273D01*
X65545248Y-119619799D01*
X66176371Y-119198096D01*
X66713096Y-118661371D01*
X67134799Y-118030248D01*
X67425273Y-117328982D01*
X67573355Y-116584522D01*
X67573355Y-115825478D01*
X80406645Y-115825478D01*
X80406645Y-116584522D01*
X80554727Y-117328982D01*
X80845201Y-118030248D01*
X81266904Y-118661371D01*
X81803629Y-119198096D01*
X82434752Y-119619799D01*
X83136018Y-119910273D01*
X83880478Y-120058355D01*
X84639522Y-120058355D01*
X85383982Y-119910273D01*
X86085248Y-119619799D01*
X86716371Y-119198096D01*
X87253096Y-118661371D01*
X87674799Y-118030248D01*
X87965273Y-117328982D01*
X88113355Y-116584522D01*
X88113355Y-115825478D01*
X105366645Y-115825478D01*
X105366645Y-116584522D01*
X105514727Y-117328982D01*
X105805201Y-118030248D01*
X106226904Y-118661371D01*
X106763629Y-119198096D01*
X107394752Y-119619799D01*
X108096018Y-119910273D01*
X108840478Y-120058355D01*
X109599522Y-120058355D01*
X110343982Y-119910273D01*
X111045248Y-119619799D01*
X111676371Y-119198096D01*
X112213096Y-118661371D01*
X112634799Y-118030248D01*
X112925273Y-117328982D01*
X113073355Y-116584522D01*
X113073355Y-115825478D01*
X125906645Y-115825478D01*
X125906645Y-116584522D01*
X126054727Y-117328982D01*
X126345201Y-118030248D01*
X126766904Y-118661371D01*
X127303629Y-119198096D01*
X127934752Y-119619799D01*
X128636018Y-119910273D01*
X129380478Y-120058355D01*
X130139522Y-120058355D01*
X130883982Y-119910273D01*
X131585248Y-119619799D01*
X132216371Y-119198096D01*
X132753096Y-118661371D01*
X133174799Y-118030248D01*
X133465273Y-117328982D01*
X133613355Y-116584522D01*
X133613355Y-115825478D01*
X146446645Y-115825478D01*
X146446645Y-116584522D01*
X146594727Y-117328982D01*
X146885201Y-118030248D01*
X147306904Y-118661371D01*
X147843629Y-119198096D01*
X148474752Y-119619799D01*
X149176018Y-119910273D01*
X149920478Y-120058355D01*
X150679522Y-120058355D01*
X151423982Y-119910273D01*
X152125248Y-119619799D01*
X152756371Y-119198096D01*
X153293096Y-118661371D01*
X153714799Y-118030248D01*
X154005273Y-117328982D01*
X154153355Y-116584522D01*
X154153355Y-115825478D01*
X154005273Y-115081018D01*
X153714799Y-114379752D01*
X153293096Y-113748629D01*
X152756371Y-113211904D01*
X152125248Y-112790201D01*
X151423982Y-112499727D01*
X150679522Y-112351645D01*
X149920478Y-112351645D01*
X149176018Y-112499727D01*
X148474752Y-112790201D01*
X147843629Y-113211904D01*
X147306904Y-113748629D01*
X146885201Y-114379752D01*
X146594727Y-115081018D01*
X146446645Y-115825478D01*
X133613355Y-115825478D01*
X133465273Y-115081018D01*
X133174799Y-114379752D01*
X132753096Y-113748629D01*
X132216371Y-113211904D01*
X131585248Y-112790201D01*
X130883982Y-112499727D01*
X130139522Y-112351645D01*
X129380478Y-112351645D01*
X128636018Y-112499727D01*
X127934752Y-112790201D01*
X127303629Y-113211904D01*
X126766904Y-113748629D01*
X126345201Y-114379752D01*
X126054727Y-115081018D01*
X125906645Y-115825478D01*
X113073355Y-115825478D01*
X112925273Y-115081018D01*
X112634799Y-114379752D01*
X112213096Y-113748629D01*
X111676371Y-113211904D01*
X111045248Y-112790201D01*
X110343982Y-112499727D01*
X109599522Y-112351645D01*
X108840478Y-112351645D01*
X108096018Y-112499727D01*
X107394752Y-112790201D01*
X106763629Y-113211904D01*
X106226904Y-113748629D01*
X105805201Y-114379752D01*
X105514727Y-115081018D01*
X105366645Y-115825478D01*
X88113355Y-115825478D01*
X87965273Y-115081018D01*
X87674799Y-114379752D01*
X87253096Y-113748629D01*
X86716371Y-113211904D01*
X86085248Y-112790201D01*
X85383982Y-112499727D01*
X84639522Y-112351645D01*
X83880478Y-112351645D01*
X83136018Y-112499727D01*
X82434752Y-112790201D01*
X81803629Y-113211904D01*
X81266904Y-113748629D01*
X80845201Y-114379752D01*
X80554727Y-115081018D01*
X80406645Y-115825478D01*
X67573355Y-115825478D01*
X67425273Y-115081018D01*
X67134799Y-114379752D01*
X66713096Y-113748629D01*
X66176371Y-113211904D01*
X65545248Y-112790201D01*
X64843982Y-112499727D01*
X64099522Y-112351645D01*
X63340478Y-112351645D01*
X62596018Y-112499727D01*
X61894752Y-112790201D01*
X61263629Y-113211904D01*
X60726904Y-113748629D01*
X60305201Y-114379752D01*
X60014727Y-115081018D01*
X59866645Y-115825478D01*
X47033355Y-115825478D01*
X46885273Y-115081018D01*
X46594799Y-114379752D01*
X46173096Y-113748629D01*
X45636371Y-113211904D01*
X45005248Y-112790201D01*
X44303982Y-112499727D01*
X43559522Y-112351645D01*
X42800478Y-112351645D01*
X42056018Y-112499727D01*
X41354752Y-112790201D01*
X40723629Y-113211904D01*
X40186904Y-113748629D01*
X39765201Y-114379752D01*
X39474727Y-115081018D01*
X39326645Y-115825478D01*
X31852000Y-115825478D01*
X31852000Y-93535478D01*
X46946645Y-93535478D01*
X46946645Y-94294522D01*
X47094727Y-95038982D01*
X47385201Y-95740248D01*
X47806904Y-96371371D01*
X48343629Y-96908096D01*
X48974752Y-97329799D01*
X49676018Y-97620273D01*
X50420478Y-97768355D01*
X51179522Y-97768355D01*
X51923982Y-97620273D01*
X52625248Y-97329799D01*
X53256371Y-96908096D01*
X53793096Y-96371371D01*
X54214799Y-95740248D01*
X54505273Y-95038982D01*
X54653355Y-94294522D01*
X54653355Y-93600478D01*
X72346645Y-93600478D01*
X72346645Y-94359522D01*
X72494727Y-95103982D01*
X72785201Y-95805248D01*
X73206904Y-96436371D01*
X73743629Y-96973096D01*
X74374752Y-97394799D01*
X75076018Y-97685273D01*
X75820478Y-97833355D01*
X76579522Y-97833355D01*
X77323982Y-97685273D01*
X78025248Y-97394799D01*
X78656371Y-96973096D01*
X79193096Y-96436371D01*
X79614799Y-95805248D01*
X79905273Y-95103982D01*
X80053355Y-94359522D01*
X80053355Y-93600478D01*
X80040426Y-93535478D01*
X112986645Y-93535478D01*
X112986645Y-94294522D01*
X113134727Y-95038982D01*
X113425201Y-95740248D01*
X113846904Y-96371371D01*
X114383629Y-96908096D01*
X115014752Y-97329799D01*
X115716018Y-97620273D01*
X116460478Y-97768355D01*
X117219522Y-97768355D01*
X117963982Y-97620273D01*
X118665248Y-97329799D01*
X119296371Y-96908096D01*
X119833096Y-96371371D01*
X120254799Y-95740248D01*
X120545273Y-95038982D01*
X120693355Y-94294522D01*
X120693355Y-93600478D01*
X138386645Y-93600478D01*
X138386645Y-94359522D01*
X138534727Y-95103982D01*
X138825201Y-95805248D01*
X139246904Y-96436371D01*
X139783629Y-96973096D01*
X140414752Y-97394799D01*
X141116018Y-97685273D01*
X141860478Y-97833355D01*
X142619522Y-97833355D01*
X143363982Y-97685273D01*
X144065248Y-97394799D01*
X144696371Y-96973096D01*
X145233096Y-96436371D01*
X145654799Y-95805248D01*
X145945273Y-95103982D01*
X146093355Y-94359522D01*
X146093355Y-93600478D01*
X145945273Y-92856018D01*
X145654799Y-92154752D01*
X145233096Y-91523629D01*
X144696371Y-90986904D01*
X144065248Y-90565201D01*
X143363982Y-90274727D01*
X142619522Y-90126645D01*
X141860478Y-90126645D01*
X141116018Y-90274727D01*
X140414752Y-90565201D01*
X139783629Y-90986904D01*
X139246904Y-91523629D01*
X138825201Y-92154752D01*
X138534727Y-92856018D01*
X138386645Y-93600478D01*
X120693355Y-93600478D01*
X120693355Y-93535478D01*
X120545273Y-92791018D01*
X120254799Y-92089752D01*
X119833096Y-91458629D01*
X119296371Y-90921904D01*
X118665248Y-90500201D01*
X117963982Y-90209727D01*
X117219522Y-90061645D01*
X116460478Y-90061645D01*
X115716018Y-90209727D01*
X115014752Y-90500201D01*
X114383629Y-90921904D01*
X113846904Y-91458629D01*
X113425201Y-92089752D01*
X113134727Y-92791018D01*
X112986645Y-93535478D01*
X80040426Y-93535478D01*
X79905273Y-92856018D01*
X79614799Y-92154752D01*
X79193096Y-91523629D01*
X78656371Y-90986904D01*
X78025248Y-90565201D01*
X77323982Y-90274727D01*
X76579522Y-90126645D01*
X75820478Y-90126645D01*
X75076018Y-90274727D01*
X74374752Y-90565201D01*
X73743629Y-90986904D01*
X73206904Y-91523629D01*
X72785201Y-92154752D01*
X72494727Y-92856018D01*
X72346645Y-93600478D01*
X54653355Y-93600478D01*
X54653355Y-93535478D01*
X54505273Y-92791018D01*
X54214799Y-92089752D01*
X53793096Y-91458629D01*
X53256371Y-90921904D01*
X52625248Y-90500201D01*
X51923982Y-90209727D01*
X51179522Y-90061645D01*
X50420478Y-90061645D01*
X49676018Y-90209727D01*
X48974752Y-90500201D01*
X48343629Y-90921904D01*
X47806904Y-91458629D01*
X47385201Y-92089752D01*
X47094727Y-92791018D01*
X46946645Y-93535478D01*
X31852000Y-93535478D01*
X31852000Y-66635478D01*
X41373645Y-66635478D01*
X41373645Y-67394522D01*
X41521727Y-68138982D01*
X41812201Y-68840248D01*
X42233904Y-69471371D01*
X42770629Y-70008096D01*
X43401752Y-70429799D01*
X44103018Y-70720273D01*
X44847478Y-70868355D01*
X45606522Y-70868355D01*
X46350982Y-70720273D01*
X47052248Y-70429799D01*
X47683371Y-70008096D01*
X48220096Y-69471371D01*
X48641799Y-68840248D01*
X48932273Y-68138982D01*
X49080355Y-67394522D01*
X49080355Y-66635478D01*
X49070607Y-66586469D01*
X74819052Y-66586469D01*
X74819052Y-67443531D01*
X74986257Y-68284125D01*
X75314240Y-69075947D01*
X75790398Y-69788567D01*
X76396433Y-70394602D01*
X77109053Y-70870760D01*
X77900875Y-71198743D01*
X78741469Y-71365948D01*
X79598531Y-71365948D01*
X80439125Y-71198743D01*
X81230947Y-70870760D01*
X81943567Y-70394602D01*
X82549602Y-69788567D01*
X83025760Y-69075947D01*
X83353743Y-68284125D01*
X83520948Y-67443531D01*
X83520948Y-66635478D01*
X107413645Y-66635478D01*
X107413645Y-67394522D01*
X107561727Y-68138982D01*
X107852201Y-68840248D01*
X108273904Y-69471371D01*
X108810629Y-70008096D01*
X109441752Y-70429799D01*
X110143018Y-70720273D01*
X110887478Y-70868355D01*
X111646522Y-70868355D01*
X112390982Y-70720273D01*
X113092248Y-70429799D01*
X113723371Y-70008096D01*
X114260096Y-69471371D01*
X114681799Y-68840248D01*
X114972273Y-68138982D01*
X115120355Y-67394522D01*
X115120355Y-66635478D01*
X115110607Y-66586469D01*
X140859052Y-66586469D01*
X140859052Y-67443531D01*
X141026257Y-68284125D01*
X141354240Y-69075947D01*
X141830398Y-69788567D01*
X142436433Y-70394602D01*
X143149053Y-70870760D01*
X143940875Y-71198743D01*
X144781469Y-71365948D01*
X145638531Y-71365948D01*
X146479125Y-71198743D01*
X147270947Y-70870760D01*
X147983567Y-70394602D01*
X148589602Y-69788567D01*
X149065760Y-69075947D01*
X149393743Y-68284125D01*
X149560948Y-67443531D01*
X149560948Y-66586469D01*
X149393743Y-65745875D01*
X149065760Y-64954053D01*
X148589602Y-64241433D01*
X147983567Y-63635398D01*
X147270947Y-63159240D01*
X146479125Y-62831257D01*
X145638531Y-62664052D01*
X144781469Y-62664052D01*
X143940875Y-62831257D01*
X143149053Y-63159240D01*
X142436433Y-63635398D01*
X141830398Y-64241433D01*
X141354240Y-64954053D01*
X141026257Y-65745875D01*
X140859052Y-66586469D01*
X115110607Y-66586469D01*
X114972273Y-65891018D01*
X114681799Y-65189752D01*
X114260096Y-64558629D01*
X113723371Y-64021904D01*
X113092248Y-63600201D01*
X112390982Y-63309727D01*
X111646522Y-63161645D01*
X110887478Y-63161645D01*
X110143018Y-63309727D01*
X109441752Y-63600201D01*
X108810629Y-64021904D01*
X108273904Y-64558629D01*
X107852201Y-65189752D01*
X107561727Y-65891018D01*
X107413645Y-66635478D01*
X83520948Y-66635478D01*
X83520948Y-66586469D01*
X83353743Y-65745875D01*
X83025760Y-64954053D01*
X82549602Y-64241433D01*
X81943567Y-63635398D01*
X81230947Y-63159240D01*
X80439125Y-62831257D01*
X79598531Y-62664052D01*
X78741469Y-62664052D01*
X77900875Y-62831257D01*
X77109053Y-63159240D01*
X76396433Y-63635398D01*
X75790398Y-64241433D01*
X75314240Y-64954053D01*
X74986257Y-65745875D01*
X74819052Y-66586469D01*
X49070607Y-66586469D01*
X48932273Y-65891018D01*
X48641799Y-65189752D01*
X48220096Y-64558629D01*
X47683371Y-64021904D01*
X47052248Y-63600201D01*
X46350982Y-63309727D01*
X45606522Y-63161645D01*
X44847478Y-63161645D01*
X44103018Y-63309727D01*
X43401752Y-63600201D01*
X42770629Y-64021904D01*
X42233904Y-64558629D01*
X41812201Y-65189752D01*
X41521727Y-65891018D01*
X41373645Y-66635478D01*
X31852000Y-66635478D01*
X31852000Y-50371469D01*
X40876052Y-50371469D01*
X40876052Y-51228531D01*
X41043257Y-52069125D01*
X41371240Y-52860947D01*
X41847398Y-53573567D01*
X42453433Y-54179602D01*
X43166053Y-54655760D01*
X43957875Y-54983743D01*
X44798469Y-55150948D01*
X45655531Y-55150948D01*
X46496125Y-54983743D01*
X47287947Y-54655760D01*
X48000567Y-54179602D01*
X48606602Y-53573567D01*
X49082760Y-52860947D01*
X49410743Y-52069125D01*
X49577948Y-51228531D01*
X49577948Y-50371469D01*
X63389052Y-50371469D01*
X63389052Y-51228531D01*
X63556257Y-52069125D01*
X63884240Y-52860947D01*
X64360398Y-53573567D01*
X64966433Y-54179602D01*
X65679053Y-54655760D01*
X66470875Y-54983743D01*
X67311469Y-55150948D01*
X68168531Y-55150948D01*
X69009125Y-54983743D01*
X69800947Y-54655760D01*
X70513567Y-54179602D01*
X71119602Y-53573567D01*
X71595760Y-52860947D01*
X71923743Y-52069125D01*
X72090948Y-51228531D01*
X72090948Y-50371469D01*
X106916052Y-50371469D01*
X106916052Y-51228531D01*
X107083257Y-52069125D01*
X107411240Y-52860947D01*
X107887398Y-53573567D01*
X108493433Y-54179602D01*
X109206053Y-54655760D01*
X109997875Y-54983743D01*
X110838469Y-55150948D01*
X111695531Y-55150948D01*
X112536125Y-54983743D01*
X113327947Y-54655760D01*
X114040567Y-54179602D01*
X114646602Y-53573567D01*
X115122760Y-52860947D01*
X115450743Y-52069125D01*
X115617948Y-51228531D01*
X115617948Y-50371469D01*
X129429052Y-50371469D01*
X129429052Y-51228531D01*
X129596257Y-52069125D01*
X129924240Y-52860947D01*
X130400398Y-53573567D01*
X131006433Y-54179602D01*
X131719053Y-54655760D01*
X132510875Y-54983743D01*
X133351469Y-55150948D01*
X134208531Y-55150948D01*
X135049125Y-54983743D01*
X135840947Y-54655760D01*
X136553567Y-54179602D01*
X137159602Y-53573567D01*
X137635760Y-52860947D01*
X137963743Y-52069125D01*
X138130948Y-51228531D01*
X138130948Y-50371469D01*
X137963743Y-49530875D01*
X137635760Y-48739053D01*
X137159602Y-48026433D01*
X136553567Y-47420398D01*
X135840947Y-46944240D01*
X135049125Y-46616257D01*
X134208531Y-46449052D01*
X133351469Y-46449052D01*
X132510875Y-46616257D01*
X131719053Y-46944240D01*
X131006433Y-47420398D01*
X130400398Y-48026433D01*
X129924240Y-48739053D01*
X129596257Y-49530875D01*
X129429052Y-50371469D01*
X115617948Y-50371469D01*
X115450743Y-49530875D01*
X115122760Y-48739053D01*
X114646602Y-48026433D01*
X114040567Y-47420398D01*
X113327947Y-46944240D01*
X112536125Y-46616257D01*
X111695531Y-46449052D01*
X110838469Y-46449052D01*
X109997875Y-46616257D01*
X109206053Y-46944240D01*
X108493433Y-47420398D01*
X107887398Y-48026433D01*
X107411240Y-48739053D01*
X107083257Y-49530875D01*
X106916052Y-50371469D01*
X72090948Y-50371469D01*
X71923743Y-49530875D01*
X71595760Y-48739053D01*
X71119602Y-48026433D01*
X70513567Y-47420398D01*
X69800947Y-46944240D01*
X69009125Y-46616257D01*
X68168531Y-46449052D01*
X67311469Y-46449052D01*
X66470875Y-46616257D01*
X65679053Y-46944240D01*
X64966433Y-47420398D01*
X64360398Y-48026433D01*
X63884240Y-48739053D01*
X63556257Y-49530875D01*
X63389052Y-50371469D01*
X49577948Y-50371469D01*
X49410743Y-49530875D01*
X49082760Y-48739053D01*
X48606602Y-48026433D01*
X48000567Y-47420398D01*
X47287947Y-46944240D01*
X46496125Y-46616257D01*
X45655531Y-46449052D01*
X44798469Y-46449052D01*
X43957875Y-46616257D01*
X43166053Y-46944240D01*
X42453433Y-47420398D01*
X41847398Y-48026433D01*
X41371240Y-48739053D01*
X41043257Y-49530875D01*
X40876052Y-50371469D01*
X31852000Y-50371469D01*
X31852000Y-40260478D01*
X41373645Y-40260478D01*
X41373645Y-41019522D01*
X41521727Y-41763982D01*
X41812201Y-42465248D01*
X42233904Y-43096371D01*
X42770629Y-43633096D01*
X43401752Y-44054799D01*
X44103018Y-44345273D01*
X44847478Y-44493355D01*
X45606522Y-44493355D01*
X46350982Y-44345273D01*
X47052248Y-44054799D01*
X47683371Y-43633096D01*
X48220096Y-43096371D01*
X48641799Y-42465248D01*
X48932273Y-41763982D01*
X49080355Y-41019522D01*
X49080355Y-40260478D01*
X63886645Y-40260478D01*
X63886645Y-41019522D01*
X64034727Y-41763982D01*
X64325201Y-42465248D01*
X64746904Y-43096371D01*
X65283629Y-43633096D01*
X65914752Y-44054799D01*
X66616018Y-44345273D01*
X67360478Y-44493355D01*
X68119522Y-44493355D01*
X68863982Y-44345273D01*
X69565248Y-44054799D01*
X70196371Y-43633096D01*
X70733096Y-43096371D01*
X71154799Y-42465248D01*
X71445273Y-41763982D01*
X71593355Y-41019522D01*
X71593355Y-40260478D01*
X107413645Y-40260478D01*
X107413645Y-41019522D01*
X107561727Y-41763982D01*
X107852201Y-42465248D01*
X108273904Y-43096371D01*
X108810629Y-43633096D01*
X109441752Y-44054799D01*
X110143018Y-44345273D01*
X110887478Y-44493355D01*
X111646522Y-44493355D01*
X112390982Y-44345273D01*
X113092248Y-44054799D01*
X113723371Y-43633096D01*
X114260096Y-43096371D01*
X114681799Y-42465248D01*
X114972273Y-41763982D01*
X115120355Y-41019522D01*
X115120355Y-40260478D01*
X129926645Y-40260478D01*
X129926645Y-41019522D01*
X130074727Y-41763982D01*
X130365201Y-42465248D01*
X130786904Y-43096371D01*
X131323629Y-43633096D01*
X131954752Y-44054799D01*
X132656018Y-44345273D01*
X133400478Y-44493355D01*
X134159522Y-44493355D01*
X134903982Y-44345273D01*
X135605248Y-44054799D01*
X136236371Y-43633096D01*
X136773096Y-43096371D01*
X137194799Y-42465248D01*
X137485273Y-41763982D01*
X137633355Y-41019522D01*
X137633355Y-40260478D01*
X137485273Y-39516018D01*
X137194799Y-38814752D01*
X136773096Y-38183629D01*
X136236371Y-37646904D01*
X135605248Y-37225201D01*
X134903982Y-36934727D01*
X134159522Y-36786645D01*
X133400478Y-36786645D01*
X132656018Y-36934727D01*
X131954752Y-37225201D01*
X131323629Y-37646904D01*
X130786904Y-38183629D01*
X130365201Y-38814752D01*
X130074727Y-39516018D01*
X129926645Y-40260478D01*
X115120355Y-40260478D01*
X114972273Y-39516018D01*
X114681799Y-38814752D01*
X114260096Y-38183629D01*
X113723371Y-37646904D01*
X113092248Y-37225201D01*
X112390982Y-36934727D01*
X111646522Y-36786645D01*
X110887478Y-36786645D01*
X110143018Y-36934727D01*
X109441752Y-37225201D01*
X108810629Y-37646904D01*
X108273904Y-38183629D01*
X107852201Y-38814752D01*
X107561727Y-39516018D01*
X107413645Y-40260478D01*
X71593355Y-40260478D01*
X71445273Y-39516018D01*
X71154799Y-38814752D01*
X70733096Y-38183629D01*
X70196371Y-37646904D01*
X69565248Y-37225201D01*
X68863982Y-36934727D01*
X68119522Y-36786645D01*
X67360478Y-36786645D01*
X66616018Y-36934727D01*
X65914752Y-37225201D01*
X65283629Y-37646904D01*
X64746904Y-38183629D01*
X64325201Y-38814752D01*
X64034727Y-39516018D01*
X63886645Y-40260478D01*
X49080355Y-40260478D01*
X48932273Y-39516018D01*
X48641799Y-38814752D01*
X48220096Y-38183629D01*
X47683371Y-37646904D01*
X47052248Y-37225201D01*
X46350982Y-36934727D01*
X45606522Y-36786645D01*
X44847478Y-36786645D01*
X44103018Y-36934727D01*
X43401752Y-37225201D01*
X42770629Y-37646904D01*
X42233904Y-38183629D01*
X41812201Y-38814752D01*
X41521727Y-39516018D01*
X41373645Y-40260478D01*
X31852000Y-40260478D01*
X31852000Y-27606710D01*
X37037496Y-27606710D01*
X37037496Y-27993290D01*
X37112914Y-28372441D01*
X37260851Y-28729594D01*
X37475623Y-29051024D01*
X37748976Y-29324377D01*
X38070406Y-29539149D01*
X38427559Y-29687086D01*
X38806710Y-29762504D01*
X39193290Y-29762504D01*
X39572441Y-29687086D01*
X39929594Y-29539149D01*
X40251024Y-29324377D01*
X40524377Y-29051024D01*
X40739149Y-28729594D01*
X40887086Y-28372441D01*
X40962504Y-27993290D01*
X40962504Y-27606710D01*
X154137496Y-27606710D01*
X154137496Y-27993290D01*
X154212914Y-28372441D01*
X154360851Y-28729594D01*
X154575623Y-29051024D01*
X154848976Y-29324377D01*
X155170406Y-29539149D01*
X155527559Y-29687086D01*
X155906710Y-29762504D01*
X156293290Y-29762504D01*
X156672441Y-29687086D01*
X157029594Y-29539149D01*
X157351024Y-29324377D01*
X157624377Y-29051024D01*
X157839149Y-28729594D01*
X157987086Y-28372441D01*
X158062504Y-27993290D01*
X158062504Y-27606710D01*
X157987086Y-27227559D01*
X157839149Y-26870406D01*
X157624377Y-26548976D01*
X157351024Y-26275623D01*
X157029594Y-26060851D01*
X156672441Y-25912914D01*
X156293290Y-25837496D01*
X155906710Y-25837496D01*
X155527559Y-25912914D01*
X155170406Y-26060851D01*
X154848976Y-26275623D01*
X154575623Y-26548976D01*
X154360851Y-26870406D01*
X154212914Y-27227559D01*
X154137496Y-27606710D01*
X40962504Y-27606710D01*
X40887086Y-27227559D01*
X40739149Y-26870406D01*
X40524377Y-26548976D01*
X40251024Y-26275623D01*
X39929594Y-26060851D01*
X39572441Y-25912914D01*
X39193290Y-25837496D01*
X38806710Y-25837496D01*
X38427559Y-25912914D01*
X38070406Y-26060851D01*
X37748976Y-26275623D01*
X37475623Y-26548976D01*
X37260851Y-26870406D01*
X37112914Y-27227559D01*
X37037496Y-27606710D01*
X31852000Y-27606710D01*
X31852000Y-25152000D01*
X163228000Y-25152000D01*
X163228001Y-152948000D01*
%TA.AperFunction,NonConductor*%
D11*
G36*
X163228001Y-152948000D02*
G01*
X31852000Y-152948000D01*
X31852000Y-150106710D01*
X37037496Y-150106710D01*
X37037496Y-150493290D01*
X37112914Y-150872441D01*
X37260851Y-151229594D01*
X37475623Y-151551024D01*
X37748976Y-151824377D01*
X38070406Y-152039149D01*
X38427559Y-152187086D01*
X38806710Y-152262504D01*
X39193290Y-152262504D01*
X39572441Y-152187086D01*
X39929594Y-152039149D01*
X40251024Y-151824377D01*
X40524377Y-151551024D01*
X40739149Y-151229594D01*
X40887086Y-150872441D01*
X40962504Y-150493290D01*
X40962504Y-150106710D01*
X40955821Y-150073110D01*
X154137496Y-150073110D01*
X154137496Y-150459690D01*
X154212914Y-150838841D01*
X154360851Y-151195994D01*
X154575623Y-151517424D01*
X154848976Y-151790777D01*
X155170406Y-152005549D01*
X155527559Y-152153486D01*
X155906710Y-152228904D01*
X156293290Y-152228904D01*
X156672441Y-152153486D01*
X157029594Y-152005549D01*
X157351024Y-151790777D01*
X157624377Y-151517424D01*
X157839149Y-151195994D01*
X157987086Y-150838841D01*
X158062504Y-150459690D01*
X158062504Y-150073110D01*
X157987086Y-149693959D01*
X157839149Y-149336806D01*
X157624377Y-149015376D01*
X157351024Y-148742023D01*
X157029594Y-148527251D01*
X156672441Y-148379314D01*
X156293290Y-148303896D01*
X155906710Y-148303896D01*
X155527559Y-148379314D01*
X155170406Y-148527251D01*
X154848976Y-148742023D01*
X154575623Y-149015376D01*
X154360851Y-149336806D01*
X154212914Y-149693959D01*
X154137496Y-150073110D01*
X40955821Y-150073110D01*
X40887086Y-149727559D01*
X40739149Y-149370406D01*
X40524377Y-149048976D01*
X40251024Y-148775623D01*
X39929594Y-148560851D01*
X39572441Y-148412914D01*
X39193290Y-148337496D01*
X38806710Y-148337496D01*
X38427559Y-148412914D01*
X38070406Y-148560851D01*
X37748976Y-148775623D01*
X37475623Y-149048976D01*
X37260851Y-149370406D01*
X37112914Y-149727559D01*
X37037496Y-150106710D01*
X31852000Y-150106710D01*
X31852000Y-134273469D01*
X36416052Y-134273469D01*
X36416052Y-135130531D01*
X36583257Y-135971125D01*
X36911240Y-136762947D01*
X37387398Y-137475567D01*
X37993433Y-138081602D01*
X38706053Y-138557760D01*
X39497875Y-138885743D01*
X40338469Y-139052948D01*
X41195531Y-139052948D01*
X42036125Y-138885743D01*
X42827947Y-138557760D01*
X43540567Y-138081602D01*
X44146602Y-137475567D01*
X44622760Y-136762947D01*
X44950743Y-135971125D01*
X45117948Y-135130531D01*
X45117948Y-134273469D01*
X51529052Y-134273469D01*
X51529052Y-135130531D01*
X51696257Y-135971125D01*
X52024240Y-136762947D01*
X52500398Y-137475567D01*
X53106433Y-138081602D01*
X53819053Y-138557760D01*
X54610875Y-138885743D01*
X55451469Y-139052948D01*
X56308531Y-139052948D01*
X57149125Y-138885743D01*
X57940947Y-138557760D01*
X58653567Y-138081602D01*
X59259602Y-137475567D01*
X59735760Y-136762947D01*
X60063743Y-135971125D01*
X60230948Y-135130531D01*
X60230948Y-134273469D01*
X66769052Y-134273469D01*
X66769052Y-135130531D01*
X66936257Y-135971125D01*
X67264240Y-136762947D01*
X67740398Y-137475567D01*
X68346433Y-138081602D01*
X69059053Y-138557760D01*
X69850875Y-138885743D01*
X70691469Y-139052948D01*
X71548531Y-139052948D01*
X72389125Y-138885743D01*
X73180947Y-138557760D01*
X73893567Y-138081602D01*
X74499602Y-137475567D01*
X74975760Y-136762947D01*
X75303743Y-135971125D01*
X75470948Y-135130531D01*
X75470948Y-134371486D01*
X81951237Y-134371486D01*
X81951237Y-135032514D01*
X82080197Y-135680840D01*
X82333161Y-136291550D01*
X82700409Y-136841174D01*
X83167826Y-137308591D01*
X83717450Y-137675839D01*
X84328160Y-137928803D01*
X84976486Y-138057763D01*
X85637514Y-138057763D01*
X86285840Y-137928803D01*
X86896550Y-137675839D01*
X87446174Y-137308591D01*
X87913591Y-136841174D01*
X88280839Y-136291550D01*
X88533803Y-135680840D01*
X88662763Y-135032514D01*
X88662763Y-134371486D01*
X88643267Y-134273469D01*
X102456052Y-134273469D01*
X102456052Y-135130531D01*
X102623257Y-135971125D01*
X102951240Y-136762947D01*
X103427398Y-137475567D01*
X104033433Y-138081602D01*
X104746053Y-138557760D01*
X105537875Y-138885743D01*
X106378469Y-139052948D01*
X107235531Y-139052948D01*
X108076125Y-138885743D01*
X108867947Y-138557760D01*
X109580567Y-138081602D01*
X110186602Y-137475567D01*
X110662760Y-136762947D01*
X110990743Y-135971125D01*
X111157948Y-135130531D01*
X111157948Y-134273469D01*
X117569052Y-134273469D01*
X117569052Y-135130531D01*
X117736257Y-135971125D01*
X118064240Y-136762947D01*
X118540398Y-137475567D01*
X119146433Y-138081602D01*
X119859053Y-138557760D01*
X120650875Y-138885743D01*
X121491469Y-139052948D01*
X122348531Y-139052948D01*
X123189125Y-138885743D01*
X123980947Y-138557760D01*
X124693567Y-138081602D01*
X125299602Y-137475567D01*
X125775760Y-136762947D01*
X126103743Y-135971125D01*
X126270948Y-135130531D01*
X126270948Y-134273469D01*
X132809052Y-134273469D01*
X132809052Y-135130531D01*
X132976257Y-135971125D01*
X133304240Y-136762947D01*
X133780398Y-137475567D01*
X134386433Y-138081602D01*
X135099053Y-138557760D01*
X135890875Y-138885743D01*
X136731469Y-139052948D01*
X137588531Y-139052948D01*
X138429125Y-138885743D01*
X139220947Y-138557760D01*
X139933567Y-138081602D01*
X140539602Y-137475567D01*
X141015760Y-136762947D01*
X141343743Y-135971125D01*
X141510948Y-135130531D01*
X141510948Y-134371486D01*
X147991237Y-134371486D01*
X147991237Y-135032514D01*
X148120197Y-135680840D01*
X148373161Y-136291550D01*
X148740409Y-136841174D01*
X149207826Y-137308591D01*
X149757450Y-137675839D01*
X150368160Y-137928803D01*
X151016486Y-138057763D01*
X151677514Y-138057763D01*
X152325840Y-137928803D01*
X152936550Y-137675839D01*
X153486174Y-137308591D01*
X153953591Y-136841174D01*
X154320839Y-136291550D01*
X154573803Y-135680840D01*
X154702763Y-135032514D01*
X154702763Y-134371486D01*
X154573803Y-133723160D01*
X154320839Y-133112450D01*
X153953591Y-132562826D01*
X153486174Y-132095409D01*
X152936550Y-131728161D01*
X152325840Y-131475197D01*
X151677514Y-131346237D01*
X151016486Y-131346237D01*
X150368160Y-131475197D01*
X149757450Y-131728161D01*
X149207826Y-132095409D01*
X148740409Y-132562826D01*
X148373161Y-133112450D01*
X148120197Y-133723160D01*
X147991237Y-134371486D01*
X141510948Y-134371486D01*
X141510948Y-134273469D01*
X141343743Y-133432875D01*
X141015760Y-132641053D01*
X140539602Y-131928433D01*
X139933567Y-131322398D01*
X139220947Y-130846240D01*
X138429125Y-130518257D01*
X137588531Y-130351052D01*
X136731469Y-130351052D01*
X135890875Y-130518257D01*
X135099053Y-130846240D01*
X134386433Y-131322398D01*
X133780398Y-131928433D01*
X133304240Y-132641053D01*
X132976257Y-133432875D01*
X132809052Y-134273469D01*
X126270948Y-134273469D01*
X126103743Y-133432875D01*
X125775760Y-132641053D01*
X125299602Y-131928433D01*
X124693567Y-131322398D01*
X123980947Y-130846240D01*
X123189125Y-130518257D01*
X122348531Y-130351052D01*
X121491469Y-130351052D01*
X120650875Y-130518257D01*
X119859053Y-130846240D01*
X119146433Y-131322398D01*
X118540398Y-131928433D01*
X118064240Y-132641053D01*
X117736257Y-133432875D01*
X117569052Y-134273469D01*
X111157948Y-134273469D01*
X110990743Y-133432875D01*
X110662760Y-132641053D01*
X110186602Y-131928433D01*
X109580567Y-131322398D01*
X108867947Y-130846240D01*
X108076125Y-130518257D01*
X107235531Y-130351052D01*
X106378469Y-130351052D01*
X105537875Y-130518257D01*
X104746053Y-130846240D01*
X104033433Y-131322398D01*
X103427398Y-131928433D01*
X102951240Y-132641053D01*
X102623257Y-133432875D01*
X102456052Y-134273469D01*
X88643267Y-134273469D01*
X88533803Y-133723160D01*
X88280839Y-133112450D01*
X87913591Y-132562826D01*
X87446174Y-132095409D01*
X86896550Y-131728161D01*
X86285840Y-131475197D01*
X85637514Y-131346237D01*
X84976486Y-131346237D01*
X84328160Y-131475197D01*
X83717450Y-131728161D01*
X83167826Y-132095409D01*
X82700409Y-132562826D01*
X82333161Y-133112450D01*
X82080197Y-133723160D01*
X81951237Y-134371486D01*
X75470948Y-134371486D01*
X75470948Y-134273469D01*
X75303743Y-133432875D01*
X74975760Y-132641053D01*
X74499602Y-131928433D01*
X73893567Y-131322398D01*
X73180947Y-130846240D01*
X72389125Y-130518257D01*
X71548531Y-130351052D01*
X70691469Y-130351052D01*
X69850875Y-130518257D01*
X69059053Y-130846240D01*
X68346433Y-131322398D01*
X67740398Y-131928433D01*
X67264240Y-132641053D01*
X66936257Y-133432875D01*
X66769052Y-134273469D01*
X60230948Y-134273469D01*
X60063743Y-133432875D01*
X59735760Y-132641053D01*
X59259602Y-131928433D01*
X58653567Y-131322398D01*
X57940947Y-130846240D01*
X57149125Y-130518257D01*
X56308531Y-130351052D01*
X55451469Y-130351052D01*
X54610875Y-130518257D01*
X53819053Y-130846240D01*
X53106433Y-131322398D01*
X52500398Y-131928433D01*
X52024240Y-132641053D01*
X51696257Y-133432875D01*
X51529052Y-134273469D01*
X45117948Y-134273469D01*
X44950743Y-133432875D01*
X44622760Y-132641053D01*
X44146602Y-131928433D01*
X43540567Y-131322398D01*
X42827947Y-130846240D01*
X42036125Y-130518257D01*
X41195531Y-130351052D01*
X40338469Y-130351052D01*
X39497875Y-130518257D01*
X38706053Y-130846240D01*
X37993433Y-131322398D01*
X37387398Y-131928433D01*
X36911240Y-132641053D01*
X36583257Y-133432875D01*
X36416052Y-134273469D01*
X31852000Y-134273469D01*
X31852000Y-115825478D01*
X39326645Y-115825478D01*
X39326645Y-116584522D01*
X39474727Y-117328982D01*
X39765201Y-118030248D01*
X40186904Y-118661371D01*
X40723629Y-119198096D01*
X41354752Y-119619799D01*
X42056018Y-119910273D01*
X42800478Y-120058355D01*
X43559522Y-120058355D01*
X44303982Y-119910273D01*
X45005248Y-119619799D01*
X45636371Y-119198096D01*
X46173096Y-118661371D01*
X46594799Y-118030248D01*
X46885273Y-117328982D01*
X47033355Y-116584522D01*
X47033355Y-115825478D01*
X59866645Y-115825478D01*
X59866645Y-116584522D01*
X60014727Y-117328982D01*
X60305201Y-118030248D01*
X60726904Y-118661371D01*
X61263629Y-119198096D01*
X61894752Y-119619799D01*
X62596018Y-119910273D01*
X63340478Y-120058355D01*
X64099522Y-120058355D01*
X64843982Y-119910273D01*
X65545248Y-119619799D01*
X66176371Y-119198096D01*
X66713096Y-118661371D01*
X67134799Y-118030248D01*
X67425273Y-117328982D01*
X67573355Y-116584522D01*
X67573355Y-115825478D01*
X80406645Y-115825478D01*
X80406645Y-116584522D01*
X80554727Y-117328982D01*
X80845201Y-118030248D01*
X81266904Y-118661371D01*
X81803629Y-119198096D01*
X82434752Y-119619799D01*
X83136018Y-119910273D01*
X83880478Y-120058355D01*
X84639522Y-120058355D01*
X85383982Y-119910273D01*
X86085248Y-119619799D01*
X86716371Y-119198096D01*
X87253096Y-118661371D01*
X87674799Y-118030248D01*
X87965273Y-117328982D01*
X88113355Y-116584522D01*
X88113355Y-115825478D01*
X105366645Y-115825478D01*
X105366645Y-116584522D01*
X105514727Y-117328982D01*
X105805201Y-118030248D01*
X106226904Y-118661371D01*
X106763629Y-119198096D01*
X107394752Y-119619799D01*
X108096018Y-119910273D01*
X108840478Y-120058355D01*
X109599522Y-120058355D01*
X110343982Y-119910273D01*
X111045248Y-119619799D01*
X111676371Y-119198096D01*
X112213096Y-118661371D01*
X112634799Y-118030248D01*
X112925273Y-117328982D01*
X113073355Y-116584522D01*
X113073355Y-115825478D01*
X125906645Y-115825478D01*
X125906645Y-116584522D01*
X126054727Y-117328982D01*
X126345201Y-118030248D01*
X126766904Y-118661371D01*
X127303629Y-119198096D01*
X127934752Y-119619799D01*
X128636018Y-119910273D01*
X129380478Y-120058355D01*
X130139522Y-120058355D01*
X130883982Y-119910273D01*
X131585248Y-119619799D01*
X132216371Y-119198096D01*
X132753096Y-118661371D01*
X133174799Y-118030248D01*
X133465273Y-117328982D01*
X133613355Y-116584522D01*
X133613355Y-115825478D01*
X146446645Y-115825478D01*
X146446645Y-116584522D01*
X146594727Y-117328982D01*
X146885201Y-118030248D01*
X147306904Y-118661371D01*
X147843629Y-119198096D01*
X148474752Y-119619799D01*
X149176018Y-119910273D01*
X149920478Y-120058355D01*
X150679522Y-120058355D01*
X151423982Y-119910273D01*
X152125248Y-119619799D01*
X152756371Y-119198096D01*
X153293096Y-118661371D01*
X153714799Y-118030248D01*
X154005273Y-117328982D01*
X154153355Y-116584522D01*
X154153355Y-115825478D01*
X154005273Y-115081018D01*
X153714799Y-114379752D01*
X153293096Y-113748629D01*
X152756371Y-113211904D01*
X152125248Y-112790201D01*
X151423982Y-112499727D01*
X150679522Y-112351645D01*
X149920478Y-112351645D01*
X149176018Y-112499727D01*
X148474752Y-112790201D01*
X147843629Y-113211904D01*
X147306904Y-113748629D01*
X146885201Y-114379752D01*
X146594727Y-115081018D01*
X146446645Y-115825478D01*
X133613355Y-115825478D01*
X133465273Y-115081018D01*
X133174799Y-114379752D01*
X132753096Y-113748629D01*
X132216371Y-113211904D01*
X131585248Y-112790201D01*
X130883982Y-112499727D01*
X130139522Y-112351645D01*
X129380478Y-112351645D01*
X128636018Y-112499727D01*
X127934752Y-112790201D01*
X127303629Y-113211904D01*
X126766904Y-113748629D01*
X126345201Y-114379752D01*
X126054727Y-115081018D01*
X125906645Y-115825478D01*
X113073355Y-115825478D01*
X112925273Y-115081018D01*
X112634799Y-114379752D01*
X112213096Y-113748629D01*
X111676371Y-113211904D01*
X111045248Y-112790201D01*
X110343982Y-112499727D01*
X109599522Y-112351645D01*
X108840478Y-112351645D01*
X108096018Y-112499727D01*
X107394752Y-112790201D01*
X106763629Y-113211904D01*
X106226904Y-113748629D01*
X105805201Y-114379752D01*
X105514727Y-115081018D01*
X105366645Y-115825478D01*
X88113355Y-115825478D01*
X87965273Y-115081018D01*
X87674799Y-114379752D01*
X87253096Y-113748629D01*
X86716371Y-113211904D01*
X86085248Y-112790201D01*
X85383982Y-112499727D01*
X84639522Y-112351645D01*
X83880478Y-112351645D01*
X83136018Y-112499727D01*
X82434752Y-112790201D01*
X81803629Y-113211904D01*
X81266904Y-113748629D01*
X80845201Y-114379752D01*
X80554727Y-115081018D01*
X80406645Y-115825478D01*
X67573355Y-115825478D01*
X67425273Y-115081018D01*
X67134799Y-114379752D01*
X66713096Y-113748629D01*
X66176371Y-113211904D01*
X65545248Y-112790201D01*
X64843982Y-112499727D01*
X64099522Y-112351645D01*
X63340478Y-112351645D01*
X62596018Y-112499727D01*
X61894752Y-112790201D01*
X61263629Y-113211904D01*
X60726904Y-113748629D01*
X60305201Y-114379752D01*
X60014727Y-115081018D01*
X59866645Y-115825478D01*
X47033355Y-115825478D01*
X46885273Y-115081018D01*
X46594799Y-114379752D01*
X46173096Y-113748629D01*
X45636371Y-113211904D01*
X45005248Y-112790201D01*
X44303982Y-112499727D01*
X43559522Y-112351645D01*
X42800478Y-112351645D01*
X42056018Y-112499727D01*
X41354752Y-112790201D01*
X40723629Y-113211904D01*
X40186904Y-113748629D01*
X39765201Y-114379752D01*
X39474727Y-115081018D01*
X39326645Y-115825478D01*
X31852000Y-115825478D01*
X31852000Y-93535478D01*
X46946645Y-93535478D01*
X46946645Y-94294522D01*
X47094727Y-95038982D01*
X47385201Y-95740248D01*
X47806904Y-96371371D01*
X48343629Y-96908096D01*
X48974752Y-97329799D01*
X49676018Y-97620273D01*
X50420478Y-97768355D01*
X51179522Y-97768355D01*
X51923982Y-97620273D01*
X52625248Y-97329799D01*
X53256371Y-96908096D01*
X53793096Y-96371371D01*
X54214799Y-95740248D01*
X54505273Y-95038982D01*
X54653355Y-94294522D01*
X54653355Y-93600478D01*
X72346645Y-93600478D01*
X72346645Y-94359522D01*
X72494727Y-95103982D01*
X72785201Y-95805248D01*
X73206904Y-96436371D01*
X73743629Y-96973096D01*
X74374752Y-97394799D01*
X75076018Y-97685273D01*
X75820478Y-97833355D01*
X76579522Y-97833355D01*
X77323982Y-97685273D01*
X78025248Y-97394799D01*
X78656371Y-96973096D01*
X79193096Y-96436371D01*
X79614799Y-95805248D01*
X79905273Y-95103982D01*
X80053355Y-94359522D01*
X80053355Y-93600478D01*
X80040426Y-93535478D01*
X112986645Y-93535478D01*
X112986645Y-94294522D01*
X113134727Y-95038982D01*
X113425201Y-95740248D01*
X113846904Y-96371371D01*
X114383629Y-96908096D01*
X115014752Y-97329799D01*
X115716018Y-97620273D01*
X116460478Y-97768355D01*
X117219522Y-97768355D01*
X117963982Y-97620273D01*
X118665248Y-97329799D01*
X119296371Y-96908096D01*
X119833096Y-96371371D01*
X120254799Y-95740248D01*
X120545273Y-95038982D01*
X120693355Y-94294522D01*
X120693355Y-93600478D01*
X138386645Y-93600478D01*
X138386645Y-94359522D01*
X138534727Y-95103982D01*
X138825201Y-95805248D01*
X139246904Y-96436371D01*
X139783629Y-96973096D01*
X140414752Y-97394799D01*
X141116018Y-97685273D01*
X141860478Y-97833355D01*
X142619522Y-97833355D01*
X143363982Y-97685273D01*
X144065248Y-97394799D01*
X144696371Y-96973096D01*
X145233096Y-96436371D01*
X145654799Y-95805248D01*
X145945273Y-95103982D01*
X146093355Y-94359522D01*
X146093355Y-93600478D01*
X145945273Y-92856018D01*
X145654799Y-92154752D01*
X145233096Y-91523629D01*
X144696371Y-90986904D01*
X144065248Y-90565201D01*
X143363982Y-90274727D01*
X142619522Y-90126645D01*
X141860478Y-90126645D01*
X141116018Y-90274727D01*
X140414752Y-90565201D01*
X139783629Y-90986904D01*
X139246904Y-91523629D01*
X138825201Y-92154752D01*
X138534727Y-92856018D01*
X138386645Y-93600478D01*
X120693355Y-93600478D01*
X120693355Y-93535478D01*
X120545273Y-92791018D01*
X120254799Y-92089752D01*
X119833096Y-91458629D01*
X119296371Y-90921904D01*
X118665248Y-90500201D01*
X117963982Y-90209727D01*
X117219522Y-90061645D01*
X116460478Y-90061645D01*
X115716018Y-90209727D01*
X115014752Y-90500201D01*
X114383629Y-90921904D01*
X113846904Y-91458629D01*
X113425201Y-92089752D01*
X113134727Y-92791018D01*
X112986645Y-93535478D01*
X80040426Y-93535478D01*
X79905273Y-92856018D01*
X79614799Y-92154752D01*
X79193096Y-91523629D01*
X78656371Y-90986904D01*
X78025248Y-90565201D01*
X77323982Y-90274727D01*
X76579522Y-90126645D01*
X75820478Y-90126645D01*
X75076018Y-90274727D01*
X74374752Y-90565201D01*
X73743629Y-90986904D01*
X73206904Y-91523629D01*
X72785201Y-92154752D01*
X72494727Y-92856018D01*
X72346645Y-93600478D01*
X54653355Y-93600478D01*
X54653355Y-93535478D01*
X54505273Y-92791018D01*
X54214799Y-92089752D01*
X53793096Y-91458629D01*
X53256371Y-90921904D01*
X52625248Y-90500201D01*
X51923982Y-90209727D01*
X51179522Y-90061645D01*
X50420478Y-90061645D01*
X49676018Y-90209727D01*
X48974752Y-90500201D01*
X48343629Y-90921904D01*
X47806904Y-91458629D01*
X47385201Y-92089752D01*
X47094727Y-92791018D01*
X46946645Y-93535478D01*
X31852000Y-93535478D01*
X31852000Y-66635478D01*
X41373645Y-66635478D01*
X41373645Y-67394522D01*
X41521727Y-68138982D01*
X41812201Y-68840248D01*
X42233904Y-69471371D01*
X42770629Y-70008096D01*
X43401752Y-70429799D01*
X44103018Y-70720273D01*
X44847478Y-70868355D01*
X45606522Y-70868355D01*
X46350982Y-70720273D01*
X47052248Y-70429799D01*
X47683371Y-70008096D01*
X48220096Y-69471371D01*
X48641799Y-68840248D01*
X48932273Y-68138982D01*
X49080355Y-67394522D01*
X49080355Y-66635478D01*
X49070607Y-66586469D01*
X74819052Y-66586469D01*
X74819052Y-67443531D01*
X74986257Y-68284125D01*
X75314240Y-69075947D01*
X75790398Y-69788567D01*
X76396433Y-70394602D01*
X77109053Y-70870760D01*
X77900875Y-71198743D01*
X78741469Y-71365948D01*
X79598531Y-71365948D01*
X80439125Y-71198743D01*
X81230947Y-70870760D01*
X81943567Y-70394602D01*
X82549602Y-69788567D01*
X83025760Y-69075947D01*
X83353743Y-68284125D01*
X83520948Y-67443531D01*
X83520948Y-66635478D01*
X107413645Y-66635478D01*
X107413645Y-67394522D01*
X107561727Y-68138982D01*
X107852201Y-68840248D01*
X108273904Y-69471371D01*
X108810629Y-70008096D01*
X109441752Y-70429799D01*
X110143018Y-70720273D01*
X110887478Y-70868355D01*
X111646522Y-70868355D01*
X112390982Y-70720273D01*
X113092248Y-70429799D01*
X113723371Y-70008096D01*
X114260096Y-69471371D01*
X114681799Y-68840248D01*
X114972273Y-68138982D01*
X115120355Y-67394522D01*
X115120355Y-66635478D01*
X115110607Y-66586469D01*
X140859052Y-66586469D01*
X140859052Y-67443531D01*
X141026257Y-68284125D01*
X141354240Y-69075947D01*
X141830398Y-69788567D01*
X142436433Y-70394602D01*
X143149053Y-70870760D01*
X143940875Y-71198743D01*
X144781469Y-71365948D01*
X145638531Y-71365948D01*
X146479125Y-71198743D01*
X147270947Y-70870760D01*
X147983567Y-70394602D01*
X148589602Y-69788567D01*
X149065760Y-69075947D01*
X149393743Y-68284125D01*
X149560948Y-67443531D01*
X149560948Y-66586469D01*
X149393743Y-65745875D01*
X149065760Y-64954053D01*
X148589602Y-64241433D01*
X147983567Y-63635398D01*
X147270947Y-63159240D01*
X146479125Y-62831257D01*
X145638531Y-62664052D01*
X144781469Y-62664052D01*
X143940875Y-62831257D01*
X143149053Y-63159240D01*
X142436433Y-63635398D01*
X141830398Y-64241433D01*
X141354240Y-64954053D01*
X141026257Y-65745875D01*
X140859052Y-66586469D01*
X115110607Y-66586469D01*
X114972273Y-65891018D01*
X114681799Y-65189752D01*
X114260096Y-64558629D01*
X113723371Y-64021904D01*
X113092248Y-63600201D01*
X112390982Y-63309727D01*
X111646522Y-63161645D01*
X110887478Y-63161645D01*
X110143018Y-63309727D01*
X109441752Y-63600201D01*
X108810629Y-64021904D01*
X108273904Y-64558629D01*
X107852201Y-65189752D01*
X107561727Y-65891018D01*
X107413645Y-66635478D01*
X83520948Y-66635478D01*
X83520948Y-66586469D01*
X83353743Y-65745875D01*
X83025760Y-64954053D01*
X82549602Y-64241433D01*
X81943567Y-63635398D01*
X81230947Y-63159240D01*
X80439125Y-62831257D01*
X79598531Y-62664052D01*
X78741469Y-62664052D01*
X77900875Y-62831257D01*
X77109053Y-63159240D01*
X76396433Y-63635398D01*
X75790398Y-64241433D01*
X75314240Y-64954053D01*
X74986257Y-65745875D01*
X74819052Y-66586469D01*
X49070607Y-66586469D01*
X48932273Y-65891018D01*
X48641799Y-65189752D01*
X48220096Y-64558629D01*
X47683371Y-64021904D01*
X47052248Y-63600201D01*
X46350982Y-63309727D01*
X45606522Y-63161645D01*
X44847478Y-63161645D01*
X44103018Y-63309727D01*
X43401752Y-63600201D01*
X42770629Y-64021904D01*
X42233904Y-64558629D01*
X41812201Y-65189752D01*
X41521727Y-65891018D01*
X41373645Y-66635478D01*
X31852000Y-66635478D01*
X31852000Y-50371469D01*
X40876052Y-50371469D01*
X40876052Y-51228531D01*
X41043257Y-52069125D01*
X41371240Y-52860947D01*
X41847398Y-53573567D01*
X42453433Y-54179602D01*
X43166053Y-54655760D01*
X43957875Y-54983743D01*
X44798469Y-55150948D01*
X45655531Y-55150948D01*
X46496125Y-54983743D01*
X47287947Y-54655760D01*
X48000567Y-54179602D01*
X48606602Y-53573567D01*
X49082760Y-52860947D01*
X49410743Y-52069125D01*
X49577948Y-51228531D01*
X49577948Y-50371469D01*
X63389052Y-50371469D01*
X63389052Y-51228531D01*
X63556257Y-52069125D01*
X63884240Y-52860947D01*
X64360398Y-53573567D01*
X64966433Y-54179602D01*
X65679053Y-54655760D01*
X66470875Y-54983743D01*
X67311469Y-55150948D01*
X68168531Y-55150948D01*
X69009125Y-54983743D01*
X69800947Y-54655760D01*
X70513567Y-54179602D01*
X71119602Y-53573567D01*
X71595760Y-52860947D01*
X71923743Y-52069125D01*
X72090948Y-51228531D01*
X72090948Y-50371469D01*
X106916052Y-50371469D01*
X106916052Y-51228531D01*
X107083257Y-52069125D01*
X107411240Y-52860947D01*
X107887398Y-53573567D01*
X108493433Y-54179602D01*
X109206053Y-54655760D01*
X109997875Y-54983743D01*
X110838469Y-55150948D01*
X111695531Y-55150948D01*
X112536125Y-54983743D01*
X113327947Y-54655760D01*
X114040567Y-54179602D01*
X114646602Y-53573567D01*
X115122760Y-52860947D01*
X115450743Y-52069125D01*
X115617948Y-51228531D01*
X115617948Y-50371469D01*
X129429052Y-50371469D01*
X129429052Y-51228531D01*
X129596257Y-52069125D01*
X129924240Y-52860947D01*
X130400398Y-53573567D01*
X131006433Y-54179602D01*
X131719053Y-54655760D01*
X132510875Y-54983743D01*
X133351469Y-55150948D01*
X134208531Y-55150948D01*
X135049125Y-54983743D01*
X135840947Y-54655760D01*
X136553567Y-54179602D01*
X137159602Y-53573567D01*
X137635760Y-52860947D01*
X137963743Y-52069125D01*
X138130948Y-51228531D01*
X138130948Y-50371469D01*
X137963743Y-49530875D01*
X137635760Y-48739053D01*
X137159602Y-48026433D01*
X136553567Y-47420398D01*
X135840947Y-46944240D01*
X135049125Y-46616257D01*
X134208531Y-46449052D01*
X133351469Y-46449052D01*
X132510875Y-46616257D01*
X131719053Y-46944240D01*
X131006433Y-47420398D01*
X130400398Y-48026433D01*
X129924240Y-48739053D01*
X129596257Y-49530875D01*
X129429052Y-50371469D01*
X115617948Y-50371469D01*
X115450743Y-49530875D01*
X115122760Y-48739053D01*
X114646602Y-48026433D01*
X114040567Y-47420398D01*
X113327947Y-46944240D01*
X112536125Y-46616257D01*
X111695531Y-46449052D01*
X110838469Y-46449052D01*
X109997875Y-46616257D01*
X109206053Y-46944240D01*
X108493433Y-47420398D01*
X107887398Y-48026433D01*
X107411240Y-48739053D01*
X107083257Y-49530875D01*
X106916052Y-50371469D01*
X72090948Y-50371469D01*
X71923743Y-49530875D01*
X71595760Y-48739053D01*
X71119602Y-48026433D01*
X70513567Y-47420398D01*
X69800947Y-46944240D01*
X69009125Y-46616257D01*
X68168531Y-46449052D01*
X67311469Y-46449052D01*
X66470875Y-46616257D01*
X65679053Y-46944240D01*
X64966433Y-47420398D01*
X64360398Y-48026433D01*
X63884240Y-48739053D01*
X63556257Y-49530875D01*
X63389052Y-50371469D01*
X49577948Y-50371469D01*
X49410743Y-49530875D01*
X49082760Y-48739053D01*
X48606602Y-48026433D01*
X48000567Y-47420398D01*
X47287947Y-46944240D01*
X46496125Y-46616257D01*
X45655531Y-46449052D01*
X44798469Y-46449052D01*
X43957875Y-46616257D01*
X43166053Y-46944240D01*
X42453433Y-47420398D01*
X41847398Y-48026433D01*
X41371240Y-48739053D01*
X41043257Y-49530875D01*
X40876052Y-50371469D01*
X31852000Y-50371469D01*
X31852000Y-40260478D01*
X41373645Y-40260478D01*
X41373645Y-41019522D01*
X41521727Y-41763982D01*
X41812201Y-42465248D01*
X42233904Y-43096371D01*
X42770629Y-43633096D01*
X43401752Y-44054799D01*
X44103018Y-44345273D01*
X44847478Y-44493355D01*
X45606522Y-44493355D01*
X46350982Y-44345273D01*
X47052248Y-44054799D01*
X47683371Y-43633096D01*
X48220096Y-43096371D01*
X48641799Y-42465248D01*
X48932273Y-41763982D01*
X49080355Y-41019522D01*
X49080355Y-40260478D01*
X63886645Y-40260478D01*
X63886645Y-41019522D01*
X64034727Y-41763982D01*
X64325201Y-42465248D01*
X64746904Y-43096371D01*
X65283629Y-43633096D01*
X65914752Y-44054799D01*
X66616018Y-44345273D01*
X67360478Y-44493355D01*
X68119522Y-44493355D01*
X68863982Y-44345273D01*
X69565248Y-44054799D01*
X70196371Y-43633096D01*
X70733096Y-43096371D01*
X71154799Y-42465248D01*
X71445273Y-41763982D01*
X71593355Y-41019522D01*
X71593355Y-40260478D01*
X107413645Y-40260478D01*
X107413645Y-41019522D01*
X107561727Y-41763982D01*
X107852201Y-42465248D01*
X108273904Y-43096371D01*
X108810629Y-43633096D01*
X109441752Y-44054799D01*
X110143018Y-44345273D01*
X110887478Y-44493355D01*
X111646522Y-44493355D01*
X112390982Y-44345273D01*
X113092248Y-44054799D01*
X113723371Y-43633096D01*
X114260096Y-43096371D01*
X114681799Y-42465248D01*
X114972273Y-41763982D01*
X115120355Y-41019522D01*
X115120355Y-40260478D01*
X129926645Y-40260478D01*
X129926645Y-41019522D01*
X130074727Y-41763982D01*
X130365201Y-42465248D01*
X130786904Y-43096371D01*
X131323629Y-43633096D01*
X131954752Y-44054799D01*
X132656018Y-44345273D01*
X133400478Y-44493355D01*
X134159522Y-44493355D01*
X134903982Y-44345273D01*
X135605248Y-44054799D01*
X136236371Y-43633096D01*
X136773096Y-43096371D01*
X137194799Y-42465248D01*
X137485273Y-41763982D01*
X137633355Y-41019522D01*
X137633355Y-40260478D01*
X137485273Y-39516018D01*
X137194799Y-38814752D01*
X136773096Y-38183629D01*
X136236371Y-37646904D01*
X135605248Y-37225201D01*
X134903982Y-36934727D01*
X134159522Y-36786645D01*
X133400478Y-36786645D01*
X132656018Y-36934727D01*
X131954752Y-37225201D01*
X131323629Y-37646904D01*
X130786904Y-38183629D01*
X130365201Y-38814752D01*
X130074727Y-39516018D01*
X129926645Y-40260478D01*
X115120355Y-40260478D01*
X114972273Y-39516018D01*
X114681799Y-38814752D01*
X114260096Y-38183629D01*
X113723371Y-37646904D01*
X113092248Y-37225201D01*
X112390982Y-36934727D01*
X111646522Y-36786645D01*
X110887478Y-36786645D01*
X110143018Y-36934727D01*
X109441752Y-37225201D01*
X108810629Y-37646904D01*
X108273904Y-38183629D01*
X107852201Y-38814752D01*
X107561727Y-39516018D01*
X107413645Y-40260478D01*
X71593355Y-40260478D01*
X71445273Y-39516018D01*
X71154799Y-38814752D01*
X70733096Y-38183629D01*
X70196371Y-37646904D01*
X69565248Y-37225201D01*
X68863982Y-36934727D01*
X68119522Y-36786645D01*
X67360478Y-36786645D01*
X66616018Y-36934727D01*
X65914752Y-37225201D01*
X65283629Y-37646904D01*
X64746904Y-38183629D01*
X64325201Y-38814752D01*
X64034727Y-39516018D01*
X63886645Y-40260478D01*
X49080355Y-40260478D01*
X48932273Y-39516018D01*
X48641799Y-38814752D01*
X48220096Y-38183629D01*
X47683371Y-37646904D01*
X47052248Y-37225201D01*
X46350982Y-36934727D01*
X45606522Y-36786645D01*
X44847478Y-36786645D01*
X44103018Y-36934727D01*
X43401752Y-37225201D01*
X42770629Y-37646904D01*
X42233904Y-38183629D01*
X41812201Y-38814752D01*
X41521727Y-39516018D01*
X41373645Y-40260478D01*
X31852000Y-40260478D01*
X31852000Y-27606710D01*
X37037496Y-27606710D01*
X37037496Y-27993290D01*
X37112914Y-28372441D01*
X37260851Y-28729594D01*
X37475623Y-29051024D01*
X37748976Y-29324377D01*
X38070406Y-29539149D01*
X38427559Y-29687086D01*
X38806710Y-29762504D01*
X39193290Y-29762504D01*
X39572441Y-29687086D01*
X39929594Y-29539149D01*
X40251024Y-29324377D01*
X40524377Y-29051024D01*
X40739149Y-28729594D01*
X40887086Y-28372441D01*
X40962504Y-27993290D01*
X40962504Y-27606710D01*
X154137496Y-27606710D01*
X154137496Y-27993290D01*
X154212914Y-28372441D01*
X154360851Y-28729594D01*
X154575623Y-29051024D01*
X154848976Y-29324377D01*
X155170406Y-29539149D01*
X155527559Y-29687086D01*
X155906710Y-29762504D01*
X156293290Y-29762504D01*
X156672441Y-29687086D01*
X157029594Y-29539149D01*
X157351024Y-29324377D01*
X157624377Y-29051024D01*
X157839149Y-28729594D01*
X157987086Y-28372441D01*
X158062504Y-27993290D01*
X158062504Y-27606710D01*
X157987086Y-27227559D01*
X157839149Y-26870406D01*
X157624377Y-26548976D01*
X157351024Y-26275623D01*
X157029594Y-26060851D01*
X156672441Y-25912914D01*
X156293290Y-25837496D01*
X155906710Y-25837496D01*
X155527559Y-25912914D01*
X155170406Y-26060851D01*
X154848976Y-26275623D01*
X154575623Y-26548976D01*
X154360851Y-26870406D01*
X154212914Y-27227559D01*
X154137496Y-27606710D01*
X40962504Y-27606710D01*
X40887086Y-27227559D01*
X40739149Y-26870406D01*
X40524377Y-26548976D01*
X40251024Y-26275623D01*
X39929594Y-26060851D01*
X39572441Y-25912914D01*
X39193290Y-25837496D01*
X38806710Y-25837496D01*
X38427559Y-25912914D01*
X38070406Y-26060851D01*
X37748976Y-26275623D01*
X37475623Y-26548976D01*
X37260851Y-26870406D01*
X37112914Y-27227559D01*
X37037496Y-27606710D01*
X31852000Y-27606710D01*
X31852000Y-25152000D01*
X163228000Y-25152000D01*
X163228001Y-152948000D01*
G37*
%TD.AperFunction*%
M02*
