G04 #@! TF.GenerationSoftware,KiCad,Pcbnew,(5.1.4)-1*
G04 #@! TF.CreationDate,2020-09-19T19:50:50+08:00*
G04 #@! TF.ProjectId,Rev2_Panel1,52657632-5f50-4616-9e65-6c312e6b6963,rev?*
G04 #@! TF.SameCoordinates,Original*
G04 #@! TF.FileFunction,Copper,L2,Bot*
G04 #@! TF.FilePolarity,Positive*
%FSLAX46Y46*%
G04 Gerber Fmt 4.6, Leading zero omitted, Abs format (unit mm)*
G04 Created by KiCad (PCBNEW (5.1.4)-1) date 2020-09-19 19:50:50*
%MOMM*%
%LPD*%
G04 APERTURE LIST*
%ADD10C,2.130000*%
%ADD11R,1.830000X1.930000*%
%ADD12O,1.700000X1.700000*%
%ADD13R,1.700000X1.700000*%
%ADD14R,1.800000X2.800000*%
%ADD15C,1.800000*%
%ADD16R,1.800000X1.800000*%
%ADD17C,0.800000*%
%ADD18C,0.254000*%
G04 APERTURE END LIST*
D10*
X171000000Y-89500000D03*
D11*
X159600000Y-89500000D03*
D10*
X162700000Y-89500000D03*
X185900000Y-76500000D03*
D11*
X174500000Y-76500000D03*
D10*
X177600000Y-76500000D03*
X156000000Y-89500000D03*
D11*
X144600000Y-89500000D03*
D10*
X147700000Y-89500000D03*
D12*
X181880000Y-70500000D03*
X184420000Y-70500000D03*
X186960000Y-70500000D03*
D13*
X189500000Y-70500000D03*
D14*
X131500000Y-76500000D03*
X136000000Y-76500000D03*
X140500000Y-76500000D03*
D10*
X170900000Y-76500000D03*
D11*
X159500000Y-76500000D03*
D10*
X162600000Y-76500000D03*
X155900000Y-76500000D03*
D11*
X144500000Y-76500000D03*
D10*
X147600000Y-76500000D03*
D12*
X124380000Y-95500000D03*
X126920000Y-95500000D03*
X129460000Y-95500000D03*
D13*
X132000000Y-95500000D03*
D12*
X181880000Y-95500000D03*
X184420000Y-95500000D03*
X186960000Y-95500000D03*
D13*
X189500000Y-95500000D03*
D10*
X140900000Y-89500000D03*
D11*
X129500000Y-89500000D03*
D10*
X132600000Y-89500000D03*
D15*
X124500000Y-84000000D03*
D16*
X124500000Y-81460000D03*
D10*
X186000000Y-89500000D03*
D11*
X174600000Y-89500000D03*
D10*
X177700000Y-89500000D03*
D17*
X144500000Y-95500000D03*
X144500000Y-83000000D03*
X174500000Y-83000000D03*
D18*
G36*
X181375901Y-69103175D02*
G01*
X181113080Y-69228359D01*
X180879731Y-69402412D01*
X180684822Y-69618645D01*
X180535843Y-69868748D01*
X180438519Y-70143109D01*
X180559186Y-70373000D01*
X181753000Y-70373000D01*
X181753000Y-70353000D01*
X182007000Y-70353000D01*
X182007000Y-70373000D01*
X182027000Y-70373000D01*
X182027000Y-70627000D01*
X182007000Y-70627000D01*
X182007000Y-71820155D01*
X182236890Y-71941476D01*
X182384099Y-71896825D01*
X182646920Y-71771641D01*
X182880269Y-71597588D01*
X183075178Y-71381355D01*
X183209342Y-71156123D01*
X183269527Y-71268721D01*
X183441603Y-71478397D01*
X183651279Y-71650473D01*
X183890495Y-71778337D01*
X184150061Y-71857075D01*
X184352360Y-71877000D01*
X184487640Y-71877000D01*
X184689939Y-71857075D01*
X184949505Y-71778337D01*
X185188721Y-71650473D01*
X185398397Y-71478397D01*
X185570473Y-71268721D01*
X185690000Y-71045102D01*
X185809527Y-71268721D01*
X185981603Y-71478397D01*
X186191279Y-71650473D01*
X186430495Y-71778337D01*
X186690061Y-71857075D01*
X186892360Y-71877000D01*
X187027640Y-71877000D01*
X187229939Y-71857075D01*
X187489505Y-71778337D01*
X187728721Y-71650473D01*
X187938397Y-71478397D01*
X188110473Y-71268721D01*
X188120451Y-71250054D01*
X188120451Y-71350000D01*
X188130626Y-71453310D01*
X188160761Y-71552650D01*
X188209696Y-71644202D01*
X188275552Y-71724448D01*
X188355798Y-71790304D01*
X188447350Y-71839239D01*
X188546690Y-71869374D01*
X188650000Y-71879549D01*
X190350000Y-71879549D01*
X190453310Y-71869374D01*
X190552650Y-71839239D01*
X190644202Y-71790304D01*
X190724448Y-71724448D01*
X190790304Y-71644202D01*
X190839239Y-71552650D01*
X190869374Y-71453310D01*
X190879549Y-71350000D01*
X190879549Y-69650000D01*
X190869374Y-69546690D01*
X190839239Y-69447350D01*
X190790304Y-69355798D01*
X190724448Y-69275552D01*
X190644202Y-69209696D01*
X190552650Y-69160761D01*
X190453310Y-69130626D01*
X190350000Y-69120451D01*
X188650000Y-69120451D01*
X188546690Y-69130626D01*
X188447350Y-69160761D01*
X188355798Y-69209696D01*
X188275552Y-69275552D01*
X188209696Y-69355798D01*
X188160761Y-69447350D01*
X188130626Y-69546690D01*
X188120451Y-69650000D01*
X188120451Y-69749946D01*
X188110473Y-69731279D01*
X187938397Y-69521603D01*
X187728721Y-69349527D01*
X187489505Y-69221663D01*
X187229939Y-69142925D01*
X187027640Y-69123000D01*
X186892360Y-69123000D01*
X186690061Y-69142925D01*
X186430495Y-69221663D01*
X186191279Y-69349527D01*
X185981603Y-69521603D01*
X185809527Y-69731279D01*
X185690000Y-69954898D01*
X185570473Y-69731279D01*
X185398397Y-69521603D01*
X185188721Y-69349527D01*
X184949505Y-69221663D01*
X184689939Y-69142925D01*
X184487640Y-69123000D01*
X184352360Y-69123000D01*
X184150061Y-69142925D01*
X183890495Y-69221663D01*
X183651279Y-69349527D01*
X183441603Y-69521603D01*
X183269527Y-69731279D01*
X183209342Y-69843877D01*
X183075178Y-69618645D01*
X182880269Y-69402412D01*
X182646920Y-69228359D01*
X182384099Y-69103175D01*
X182297803Y-69077000D01*
X192923001Y-69077000D01*
X192923000Y-96923000D01*
X122077000Y-96923000D01*
X122077000Y-95500000D01*
X122996338Y-95500000D01*
X123022925Y-95769939D01*
X123101663Y-96029505D01*
X123229527Y-96268721D01*
X123401603Y-96478397D01*
X123611279Y-96650473D01*
X123850495Y-96778337D01*
X124110061Y-96857075D01*
X124312360Y-96877000D01*
X124447640Y-96877000D01*
X124649939Y-96857075D01*
X124909505Y-96778337D01*
X125148721Y-96650473D01*
X125358397Y-96478397D01*
X125530473Y-96268721D01*
X125650000Y-96045102D01*
X125769527Y-96268721D01*
X125941603Y-96478397D01*
X126151279Y-96650473D01*
X126390495Y-96778337D01*
X126650061Y-96857075D01*
X126852360Y-96877000D01*
X126987640Y-96877000D01*
X127189939Y-96857075D01*
X127449505Y-96778337D01*
X127688721Y-96650473D01*
X127898397Y-96478397D01*
X128070473Y-96268721D01*
X128190000Y-96045102D01*
X128309527Y-96268721D01*
X128481603Y-96478397D01*
X128691279Y-96650473D01*
X128930495Y-96778337D01*
X129190061Y-96857075D01*
X129392360Y-96877000D01*
X129527640Y-96877000D01*
X129729939Y-96857075D01*
X129989505Y-96778337D01*
X130228721Y-96650473D01*
X130438397Y-96478397D01*
X130610473Y-96268721D01*
X130620451Y-96250054D01*
X130620451Y-96350000D01*
X130630626Y-96453310D01*
X130660761Y-96552650D01*
X130709696Y-96644202D01*
X130775552Y-96724448D01*
X130855798Y-96790304D01*
X130947350Y-96839239D01*
X131046690Y-96869374D01*
X131150000Y-96879549D01*
X132850000Y-96879549D01*
X132953310Y-96869374D01*
X133052650Y-96839239D01*
X133144202Y-96790304D01*
X133224448Y-96724448D01*
X133290304Y-96644202D01*
X133339239Y-96552650D01*
X133369374Y-96453310D01*
X133379549Y-96350000D01*
X133379549Y-95500000D01*
X180496338Y-95500000D01*
X180522925Y-95769939D01*
X180601663Y-96029505D01*
X180729527Y-96268721D01*
X180901603Y-96478397D01*
X181111279Y-96650473D01*
X181350495Y-96778337D01*
X181610061Y-96857075D01*
X181812360Y-96877000D01*
X181947640Y-96877000D01*
X182149939Y-96857075D01*
X182409505Y-96778337D01*
X182648721Y-96650473D01*
X182858397Y-96478397D01*
X183030473Y-96268721D01*
X183150000Y-96045102D01*
X183269527Y-96268721D01*
X183441603Y-96478397D01*
X183651279Y-96650473D01*
X183890495Y-96778337D01*
X184150061Y-96857075D01*
X184352360Y-96877000D01*
X184487640Y-96877000D01*
X184689939Y-96857075D01*
X184949505Y-96778337D01*
X185188721Y-96650473D01*
X185398397Y-96478397D01*
X185570473Y-96268721D01*
X185690000Y-96045102D01*
X185809527Y-96268721D01*
X185981603Y-96478397D01*
X186191279Y-96650473D01*
X186430495Y-96778337D01*
X186690061Y-96857075D01*
X186892360Y-96877000D01*
X187027640Y-96877000D01*
X187229939Y-96857075D01*
X187489505Y-96778337D01*
X187728721Y-96650473D01*
X187938397Y-96478397D01*
X188110473Y-96268721D01*
X188120451Y-96250054D01*
X188120451Y-96350000D01*
X188130626Y-96453310D01*
X188160761Y-96552650D01*
X188209696Y-96644202D01*
X188275552Y-96724448D01*
X188355798Y-96790304D01*
X188447350Y-96839239D01*
X188546690Y-96869374D01*
X188650000Y-96879549D01*
X190350000Y-96879549D01*
X190453310Y-96869374D01*
X190552650Y-96839239D01*
X190644202Y-96790304D01*
X190724448Y-96724448D01*
X190790304Y-96644202D01*
X190839239Y-96552650D01*
X190869374Y-96453310D01*
X190879549Y-96350000D01*
X190879549Y-94650000D01*
X190869374Y-94546690D01*
X190839239Y-94447350D01*
X190790304Y-94355798D01*
X190724448Y-94275552D01*
X190644202Y-94209696D01*
X190552650Y-94160761D01*
X190453310Y-94130626D01*
X190350000Y-94120451D01*
X188650000Y-94120451D01*
X188546690Y-94130626D01*
X188447350Y-94160761D01*
X188355798Y-94209696D01*
X188275552Y-94275552D01*
X188209696Y-94355798D01*
X188160761Y-94447350D01*
X188130626Y-94546690D01*
X188120451Y-94650000D01*
X188120451Y-94749946D01*
X188110473Y-94731279D01*
X187938397Y-94521603D01*
X187728721Y-94349527D01*
X187489505Y-94221663D01*
X187229939Y-94142925D01*
X187027640Y-94123000D01*
X186892360Y-94123000D01*
X186690061Y-94142925D01*
X186430495Y-94221663D01*
X186191279Y-94349527D01*
X185981603Y-94521603D01*
X185809527Y-94731279D01*
X185690000Y-94954898D01*
X185570473Y-94731279D01*
X185398397Y-94521603D01*
X185188721Y-94349527D01*
X184949505Y-94221663D01*
X184689939Y-94142925D01*
X184487640Y-94123000D01*
X184352360Y-94123000D01*
X184150061Y-94142925D01*
X183890495Y-94221663D01*
X183651279Y-94349527D01*
X183441603Y-94521603D01*
X183269527Y-94731279D01*
X183150000Y-94954898D01*
X183030473Y-94731279D01*
X182858397Y-94521603D01*
X182648721Y-94349527D01*
X182409505Y-94221663D01*
X182149939Y-94142925D01*
X181947640Y-94123000D01*
X181812360Y-94123000D01*
X181610061Y-94142925D01*
X181350495Y-94221663D01*
X181111279Y-94349527D01*
X180901603Y-94521603D01*
X180729527Y-94731279D01*
X180601663Y-94970495D01*
X180522925Y-95230061D01*
X180496338Y-95500000D01*
X133379549Y-95500000D01*
X133379549Y-94650000D01*
X133369374Y-94546690D01*
X133339239Y-94447350D01*
X133290304Y-94355798D01*
X133224448Y-94275552D01*
X133144202Y-94209696D01*
X133052650Y-94160761D01*
X132953310Y-94130626D01*
X132850000Y-94120451D01*
X131150000Y-94120451D01*
X131046690Y-94130626D01*
X130947350Y-94160761D01*
X130855798Y-94209696D01*
X130775552Y-94275552D01*
X130709696Y-94355798D01*
X130660761Y-94447350D01*
X130630626Y-94546690D01*
X130620451Y-94650000D01*
X130620451Y-94749946D01*
X130610473Y-94731279D01*
X130438397Y-94521603D01*
X130228721Y-94349527D01*
X129989505Y-94221663D01*
X129729939Y-94142925D01*
X129527640Y-94123000D01*
X129392360Y-94123000D01*
X129190061Y-94142925D01*
X128930495Y-94221663D01*
X128691279Y-94349527D01*
X128481603Y-94521603D01*
X128309527Y-94731279D01*
X128190000Y-94954898D01*
X128070473Y-94731279D01*
X127898397Y-94521603D01*
X127688721Y-94349527D01*
X127449505Y-94221663D01*
X127189939Y-94142925D01*
X126987640Y-94123000D01*
X126852360Y-94123000D01*
X126650061Y-94142925D01*
X126390495Y-94221663D01*
X126151279Y-94349527D01*
X125941603Y-94521603D01*
X125769527Y-94731279D01*
X125650000Y-94954898D01*
X125530473Y-94731279D01*
X125358397Y-94521603D01*
X125148721Y-94349527D01*
X124909505Y-94221663D01*
X124649939Y-94142925D01*
X124447640Y-94123000D01*
X124312360Y-94123000D01*
X124110061Y-94142925D01*
X123850495Y-94221663D01*
X123611279Y-94349527D01*
X123401603Y-94521603D01*
X123229527Y-94731279D01*
X123101663Y-94970495D01*
X123022925Y-95230061D01*
X122996338Y-95500000D01*
X122077000Y-95500000D01*
X122077000Y-90465000D01*
X127946928Y-90465000D01*
X127959188Y-90589482D01*
X127995498Y-90709180D01*
X128054463Y-90819494D01*
X128133815Y-90916185D01*
X128230506Y-90995537D01*
X128340820Y-91054502D01*
X128460518Y-91090812D01*
X128585000Y-91103072D01*
X129214250Y-91100000D01*
X129373000Y-90941250D01*
X129373000Y-89627000D01*
X128108750Y-89627000D01*
X127950000Y-89785750D01*
X127946928Y-90465000D01*
X122077000Y-90465000D01*
X122077000Y-88535000D01*
X127946928Y-88535000D01*
X127950000Y-89214250D01*
X128108750Y-89373000D01*
X129373000Y-89373000D01*
X129373000Y-88058750D01*
X129627000Y-88058750D01*
X129627000Y-89373000D01*
X129647000Y-89373000D01*
X129647000Y-89627000D01*
X129627000Y-89627000D01*
X129627000Y-90941250D01*
X129785750Y-91100000D01*
X130415000Y-91103072D01*
X130539482Y-91090812D01*
X130659180Y-91054502D01*
X130769494Y-90995537D01*
X130866185Y-90916185D01*
X130945537Y-90819494D01*
X131004502Y-90709180D01*
X131040812Y-90589482D01*
X131053072Y-90465000D01*
X131050380Y-89869857D01*
X131069180Y-89964369D01*
X131189188Y-90254095D01*
X131363413Y-90514841D01*
X131585159Y-90736587D01*
X131845905Y-90910812D01*
X132135631Y-91030820D01*
X132443202Y-91092000D01*
X132756798Y-91092000D01*
X133064369Y-91030820D01*
X133354095Y-90910812D01*
X133614841Y-90736587D01*
X133836587Y-90514841D01*
X134010812Y-90254095D01*
X134130820Y-89964369D01*
X134192000Y-89656798D01*
X134192000Y-89343202D01*
X139308000Y-89343202D01*
X139308000Y-89656798D01*
X139369180Y-89964369D01*
X139489188Y-90254095D01*
X139663413Y-90514841D01*
X139885159Y-90736587D01*
X140145905Y-90910812D01*
X140435631Y-91030820D01*
X140743202Y-91092000D01*
X141056798Y-91092000D01*
X141364369Y-91030820D01*
X141654095Y-90910812D01*
X141914841Y-90736587D01*
X142136587Y-90514841D01*
X142169889Y-90465000D01*
X143046928Y-90465000D01*
X143059188Y-90589482D01*
X143095498Y-90709180D01*
X143154463Y-90819494D01*
X143233815Y-90916185D01*
X143330506Y-90995537D01*
X143440820Y-91054502D01*
X143560518Y-91090812D01*
X143685000Y-91103072D01*
X144314250Y-91100000D01*
X144473000Y-90941250D01*
X144473000Y-89627000D01*
X143208750Y-89627000D01*
X143050000Y-89785750D01*
X143046928Y-90465000D01*
X142169889Y-90465000D01*
X142310812Y-90254095D01*
X142430820Y-89964369D01*
X142492000Y-89656798D01*
X142492000Y-89343202D01*
X142430820Y-89035631D01*
X142310812Y-88745905D01*
X142169890Y-88535000D01*
X143046928Y-88535000D01*
X143050000Y-89214250D01*
X143208750Y-89373000D01*
X144473000Y-89373000D01*
X144473000Y-88058750D01*
X144727000Y-88058750D01*
X144727000Y-89373000D01*
X144747000Y-89373000D01*
X144747000Y-89627000D01*
X144727000Y-89627000D01*
X144727000Y-90941250D01*
X144885750Y-91100000D01*
X145515000Y-91103072D01*
X145639482Y-91090812D01*
X145759180Y-91054502D01*
X145869494Y-90995537D01*
X145966185Y-90916185D01*
X146045537Y-90819494D01*
X146104502Y-90709180D01*
X146140812Y-90589482D01*
X146153072Y-90465000D01*
X146150380Y-89869857D01*
X146169180Y-89964369D01*
X146289188Y-90254095D01*
X146463413Y-90514841D01*
X146685159Y-90736587D01*
X146945905Y-90910812D01*
X147235631Y-91030820D01*
X147543202Y-91092000D01*
X147856798Y-91092000D01*
X148164369Y-91030820D01*
X148454095Y-90910812D01*
X148714841Y-90736587D01*
X148936587Y-90514841D01*
X149110812Y-90254095D01*
X149230820Y-89964369D01*
X149292000Y-89656798D01*
X149292000Y-89343202D01*
X154408000Y-89343202D01*
X154408000Y-89656798D01*
X154469180Y-89964369D01*
X154589188Y-90254095D01*
X154763413Y-90514841D01*
X154985159Y-90736587D01*
X155245905Y-90910812D01*
X155535631Y-91030820D01*
X155843202Y-91092000D01*
X156156798Y-91092000D01*
X156464369Y-91030820D01*
X156754095Y-90910812D01*
X157014841Y-90736587D01*
X157236587Y-90514841D01*
X157269889Y-90465000D01*
X158046928Y-90465000D01*
X158059188Y-90589482D01*
X158095498Y-90709180D01*
X158154463Y-90819494D01*
X158233815Y-90916185D01*
X158330506Y-90995537D01*
X158440820Y-91054502D01*
X158560518Y-91090812D01*
X158685000Y-91103072D01*
X159314250Y-91100000D01*
X159473000Y-90941250D01*
X159473000Y-89627000D01*
X158208750Y-89627000D01*
X158050000Y-89785750D01*
X158046928Y-90465000D01*
X157269889Y-90465000D01*
X157410812Y-90254095D01*
X157530820Y-89964369D01*
X157592000Y-89656798D01*
X157592000Y-89343202D01*
X157530820Y-89035631D01*
X157410812Y-88745905D01*
X157269890Y-88535000D01*
X158046928Y-88535000D01*
X158050000Y-89214250D01*
X158208750Y-89373000D01*
X159473000Y-89373000D01*
X159473000Y-88058750D01*
X159727000Y-88058750D01*
X159727000Y-89373000D01*
X159747000Y-89373000D01*
X159747000Y-89627000D01*
X159727000Y-89627000D01*
X159727000Y-90941250D01*
X159885750Y-91100000D01*
X160515000Y-91103072D01*
X160639482Y-91090812D01*
X160759180Y-91054502D01*
X160869494Y-90995537D01*
X160966185Y-90916185D01*
X161045537Y-90819494D01*
X161104502Y-90709180D01*
X161140812Y-90589482D01*
X161153072Y-90465000D01*
X161150380Y-89869857D01*
X161169180Y-89964369D01*
X161289188Y-90254095D01*
X161463413Y-90514841D01*
X161685159Y-90736587D01*
X161945905Y-90910812D01*
X162235631Y-91030820D01*
X162543202Y-91092000D01*
X162856798Y-91092000D01*
X163164369Y-91030820D01*
X163454095Y-90910812D01*
X163714841Y-90736587D01*
X163936587Y-90514841D01*
X164110812Y-90254095D01*
X164230820Y-89964369D01*
X164292000Y-89656798D01*
X164292000Y-89343202D01*
X169408000Y-89343202D01*
X169408000Y-89656798D01*
X169469180Y-89964369D01*
X169589188Y-90254095D01*
X169763413Y-90514841D01*
X169985159Y-90736587D01*
X170245905Y-90910812D01*
X170535631Y-91030820D01*
X170843202Y-91092000D01*
X171156798Y-91092000D01*
X171464369Y-91030820D01*
X171754095Y-90910812D01*
X172014841Y-90736587D01*
X172236587Y-90514841D01*
X172269889Y-90465000D01*
X173046928Y-90465000D01*
X173059188Y-90589482D01*
X173095498Y-90709180D01*
X173154463Y-90819494D01*
X173233815Y-90916185D01*
X173330506Y-90995537D01*
X173440820Y-91054502D01*
X173560518Y-91090812D01*
X173685000Y-91103072D01*
X174314250Y-91100000D01*
X174473000Y-90941250D01*
X174473000Y-89627000D01*
X173208750Y-89627000D01*
X173050000Y-89785750D01*
X173046928Y-90465000D01*
X172269889Y-90465000D01*
X172410812Y-90254095D01*
X172530820Y-89964369D01*
X172592000Y-89656798D01*
X172592000Y-89343202D01*
X172530820Y-89035631D01*
X172410812Y-88745905D01*
X172269890Y-88535000D01*
X173046928Y-88535000D01*
X173050000Y-89214250D01*
X173208750Y-89373000D01*
X174473000Y-89373000D01*
X174473000Y-88058750D01*
X174727000Y-88058750D01*
X174727000Y-89373000D01*
X174747000Y-89373000D01*
X174747000Y-89627000D01*
X174727000Y-89627000D01*
X174727000Y-90941250D01*
X174885750Y-91100000D01*
X175515000Y-91103072D01*
X175639482Y-91090812D01*
X175759180Y-91054502D01*
X175869494Y-90995537D01*
X175966185Y-90916185D01*
X176045537Y-90819494D01*
X176104502Y-90709180D01*
X176140812Y-90589482D01*
X176153072Y-90465000D01*
X176150380Y-89869857D01*
X176169180Y-89964369D01*
X176289188Y-90254095D01*
X176463413Y-90514841D01*
X176685159Y-90736587D01*
X176945905Y-90910812D01*
X177235631Y-91030820D01*
X177543202Y-91092000D01*
X177856798Y-91092000D01*
X178164369Y-91030820D01*
X178454095Y-90910812D01*
X178714841Y-90736587D01*
X178936587Y-90514841D01*
X179110812Y-90254095D01*
X179230820Y-89964369D01*
X179292000Y-89656798D01*
X179292000Y-89343202D01*
X184408000Y-89343202D01*
X184408000Y-89656798D01*
X184469180Y-89964369D01*
X184589188Y-90254095D01*
X184763413Y-90514841D01*
X184985159Y-90736587D01*
X185245905Y-90910812D01*
X185535631Y-91030820D01*
X185843202Y-91092000D01*
X186156798Y-91092000D01*
X186464369Y-91030820D01*
X186754095Y-90910812D01*
X187014841Y-90736587D01*
X187236587Y-90514841D01*
X187410812Y-90254095D01*
X187530820Y-89964369D01*
X187592000Y-89656798D01*
X187592000Y-89343202D01*
X187530820Y-89035631D01*
X187410812Y-88745905D01*
X187236587Y-88485159D01*
X187014841Y-88263413D01*
X186754095Y-88089188D01*
X186464369Y-87969180D01*
X186156798Y-87908000D01*
X185843202Y-87908000D01*
X185535631Y-87969180D01*
X185245905Y-88089188D01*
X184985159Y-88263413D01*
X184763413Y-88485159D01*
X184589188Y-88745905D01*
X184469180Y-89035631D01*
X184408000Y-89343202D01*
X179292000Y-89343202D01*
X179230820Y-89035631D01*
X179110812Y-88745905D01*
X178936587Y-88485159D01*
X178714841Y-88263413D01*
X178454095Y-88089188D01*
X178164369Y-87969180D01*
X177856798Y-87908000D01*
X177543202Y-87908000D01*
X177235631Y-87969180D01*
X176945905Y-88089188D01*
X176685159Y-88263413D01*
X176463413Y-88485159D01*
X176289188Y-88745905D01*
X176169180Y-89035631D01*
X176150380Y-89130143D01*
X176153072Y-88535000D01*
X176140812Y-88410518D01*
X176104502Y-88290820D01*
X176045537Y-88180506D01*
X175966185Y-88083815D01*
X175869494Y-88004463D01*
X175759180Y-87945498D01*
X175639482Y-87909188D01*
X175515000Y-87896928D01*
X174885750Y-87900000D01*
X174727000Y-88058750D01*
X174473000Y-88058750D01*
X174314250Y-87900000D01*
X173685000Y-87896928D01*
X173560518Y-87909188D01*
X173440820Y-87945498D01*
X173330506Y-88004463D01*
X173233815Y-88083815D01*
X173154463Y-88180506D01*
X173095498Y-88290820D01*
X173059188Y-88410518D01*
X173046928Y-88535000D01*
X172269890Y-88535000D01*
X172236587Y-88485159D01*
X172014841Y-88263413D01*
X171754095Y-88089188D01*
X171464369Y-87969180D01*
X171156798Y-87908000D01*
X170843202Y-87908000D01*
X170535631Y-87969180D01*
X170245905Y-88089188D01*
X169985159Y-88263413D01*
X169763413Y-88485159D01*
X169589188Y-88745905D01*
X169469180Y-89035631D01*
X169408000Y-89343202D01*
X164292000Y-89343202D01*
X164230820Y-89035631D01*
X164110812Y-88745905D01*
X163936587Y-88485159D01*
X163714841Y-88263413D01*
X163454095Y-88089188D01*
X163164369Y-87969180D01*
X162856798Y-87908000D01*
X162543202Y-87908000D01*
X162235631Y-87969180D01*
X161945905Y-88089188D01*
X161685159Y-88263413D01*
X161463413Y-88485159D01*
X161289188Y-88745905D01*
X161169180Y-89035631D01*
X161150380Y-89130143D01*
X161153072Y-88535000D01*
X161140812Y-88410518D01*
X161104502Y-88290820D01*
X161045537Y-88180506D01*
X160966185Y-88083815D01*
X160869494Y-88004463D01*
X160759180Y-87945498D01*
X160639482Y-87909188D01*
X160515000Y-87896928D01*
X159885750Y-87900000D01*
X159727000Y-88058750D01*
X159473000Y-88058750D01*
X159314250Y-87900000D01*
X158685000Y-87896928D01*
X158560518Y-87909188D01*
X158440820Y-87945498D01*
X158330506Y-88004463D01*
X158233815Y-88083815D01*
X158154463Y-88180506D01*
X158095498Y-88290820D01*
X158059188Y-88410518D01*
X158046928Y-88535000D01*
X157269890Y-88535000D01*
X157236587Y-88485159D01*
X157014841Y-88263413D01*
X156754095Y-88089188D01*
X156464369Y-87969180D01*
X156156798Y-87908000D01*
X155843202Y-87908000D01*
X155535631Y-87969180D01*
X155245905Y-88089188D01*
X154985159Y-88263413D01*
X154763413Y-88485159D01*
X154589188Y-88745905D01*
X154469180Y-89035631D01*
X154408000Y-89343202D01*
X149292000Y-89343202D01*
X149230820Y-89035631D01*
X149110812Y-88745905D01*
X148936587Y-88485159D01*
X148714841Y-88263413D01*
X148454095Y-88089188D01*
X148164369Y-87969180D01*
X147856798Y-87908000D01*
X147543202Y-87908000D01*
X147235631Y-87969180D01*
X146945905Y-88089188D01*
X146685159Y-88263413D01*
X146463413Y-88485159D01*
X146289188Y-88745905D01*
X146169180Y-89035631D01*
X146150380Y-89130143D01*
X146153072Y-88535000D01*
X146140812Y-88410518D01*
X146104502Y-88290820D01*
X146045537Y-88180506D01*
X145966185Y-88083815D01*
X145869494Y-88004463D01*
X145759180Y-87945498D01*
X145639482Y-87909188D01*
X145515000Y-87896928D01*
X144885750Y-87900000D01*
X144727000Y-88058750D01*
X144473000Y-88058750D01*
X144314250Y-87900000D01*
X143685000Y-87896928D01*
X143560518Y-87909188D01*
X143440820Y-87945498D01*
X143330506Y-88004463D01*
X143233815Y-88083815D01*
X143154463Y-88180506D01*
X143095498Y-88290820D01*
X143059188Y-88410518D01*
X143046928Y-88535000D01*
X142169890Y-88535000D01*
X142136587Y-88485159D01*
X141914841Y-88263413D01*
X141654095Y-88089188D01*
X141364369Y-87969180D01*
X141056798Y-87908000D01*
X140743202Y-87908000D01*
X140435631Y-87969180D01*
X140145905Y-88089188D01*
X139885159Y-88263413D01*
X139663413Y-88485159D01*
X139489188Y-88745905D01*
X139369180Y-89035631D01*
X139308000Y-89343202D01*
X134192000Y-89343202D01*
X134130820Y-89035631D01*
X134010812Y-88745905D01*
X133836587Y-88485159D01*
X133614841Y-88263413D01*
X133354095Y-88089188D01*
X133064369Y-87969180D01*
X132756798Y-87908000D01*
X132443202Y-87908000D01*
X132135631Y-87969180D01*
X131845905Y-88089188D01*
X131585159Y-88263413D01*
X131363413Y-88485159D01*
X131189188Y-88745905D01*
X131069180Y-89035631D01*
X131050380Y-89130143D01*
X131053072Y-88535000D01*
X131040812Y-88410518D01*
X131004502Y-88290820D01*
X130945537Y-88180506D01*
X130866185Y-88083815D01*
X130769494Y-88004463D01*
X130659180Y-87945498D01*
X130539482Y-87909188D01*
X130415000Y-87896928D01*
X129785750Y-87900000D01*
X129627000Y-88058750D01*
X129373000Y-88058750D01*
X129214250Y-87900000D01*
X128585000Y-87896928D01*
X128460518Y-87909188D01*
X128340820Y-87945498D01*
X128230506Y-88004463D01*
X128133815Y-88083815D01*
X128054463Y-88180506D01*
X127995498Y-88290820D01*
X127959188Y-88410518D01*
X127946928Y-88535000D01*
X122077000Y-88535000D01*
X122077000Y-80560000D01*
X123070451Y-80560000D01*
X123070451Y-82360000D01*
X123080626Y-82463310D01*
X123110761Y-82562650D01*
X123159696Y-82654202D01*
X123225552Y-82734448D01*
X123305798Y-82800304D01*
X123397350Y-82849239D01*
X123496690Y-82879374D01*
X123594225Y-82888980D01*
X123590340Y-82891576D01*
X123391576Y-83090340D01*
X123235409Y-83324062D01*
X123127838Y-83583759D01*
X123073000Y-83859453D01*
X123073000Y-84140547D01*
X123127838Y-84416241D01*
X123235409Y-84675938D01*
X123391576Y-84909660D01*
X123590340Y-85108424D01*
X123824062Y-85264591D01*
X124083759Y-85372162D01*
X124359453Y-85427000D01*
X124640547Y-85427000D01*
X124916241Y-85372162D01*
X125175938Y-85264591D01*
X125409660Y-85108424D01*
X125608424Y-84909660D01*
X125764591Y-84675938D01*
X125872162Y-84416241D01*
X125927000Y-84140547D01*
X125927000Y-83859453D01*
X125872162Y-83583759D01*
X125764591Y-83324062D01*
X125608424Y-83090340D01*
X125409660Y-82891576D01*
X125405775Y-82888980D01*
X125503310Y-82879374D01*
X125602650Y-82849239D01*
X125694202Y-82800304D01*
X125774448Y-82734448D01*
X125840304Y-82654202D01*
X125889239Y-82562650D01*
X125919374Y-82463310D01*
X125929549Y-82360000D01*
X125929549Y-80560000D01*
X125919374Y-80456690D01*
X125889239Y-80357350D01*
X125840304Y-80265798D01*
X125774448Y-80185552D01*
X125694202Y-80119696D01*
X125602650Y-80070761D01*
X125503310Y-80040626D01*
X125400000Y-80030451D01*
X123600000Y-80030451D01*
X123496690Y-80040626D01*
X123397350Y-80070761D01*
X123305798Y-80119696D01*
X123225552Y-80185552D01*
X123159696Y-80265798D01*
X123110761Y-80357350D01*
X123080626Y-80456690D01*
X123070451Y-80560000D01*
X122077000Y-80560000D01*
X122077000Y-75100000D01*
X130070451Y-75100000D01*
X130070451Y-77900000D01*
X130080626Y-78003310D01*
X130110761Y-78102650D01*
X130159696Y-78194202D01*
X130225552Y-78274448D01*
X130305798Y-78340304D01*
X130397350Y-78389239D01*
X130496690Y-78419374D01*
X130600000Y-78429549D01*
X132400000Y-78429549D01*
X132503310Y-78419374D01*
X132602650Y-78389239D01*
X132694202Y-78340304D01*
X132774448Y-78274448D01*
X132840304Y-78194202D01*
X132889239Y-78102650D01*
X132919374Y-78003310D01*
X132929549Y-77900000D01*
X134461928Y-77900000D01*
X134474188Y-78024482D01*
X134510498Y-78144180D01*
X134569463Y-78254494D01*
X134648815Y-78351185D01*
X134745506Y-78430537D01*
X134855820Y-78489502D01*
X134975518Y-78525812D01*
X135100000Y-78538072D01*
X135714250Y-78535000D01*
X135873000Y-78376250D01*
X135873000Y-76627000D01*
X136127000Y-76627000D01*
X136127000Y-78376250D01*
X136285750Y-78535000D01*
X136900000Y-78538072D01*
X137024482Y-78525812D01*
X137144180Y-78489502D01*
X137254494Y-78430537D01*
X137351185Y-78351185D01*
X137430537Y-78254494D01*
X137489502Y-78144180D01*
X137525812Y-78024482D01*
X137538072Y-77900000D01*
X137535000Y-76785750D01*
X137376250Y-76627000D01*
X136127000Y-76627000D01*
X135873000Y-76627000D01*
X134623750Y-76627000D01*
X134465000Y-76785750D01*
X134461928Y-77900000D01*
X132929549Y-77900000D01*
X132929549Y-75100000D01*
X134461928Y-75100000D01*
X134465000Y-76214250D01*
X134623750Y-76373000D01*
X135873000Y-76373000D01*
X135873000Y-74623750D01*
X136127000Y-74623750D01*
X136127000Y-76373000D01*
X137376250Y-76373000D01*
X137535000Y-76214250D01*
X137538072Y-75100000D01*
X139070451Y-75100000D01*
X139070451Y-77900000D01*
X139080626Y-78003310D01*
X139110761Y-78102650D01*
X139159696Y-78194202D01*
X139225552Y-78274448D01*
X139305798Y-78340304D01*
X139397350Y-78389239D01*
X139496690Y-78419374D01*
X139600000Y-78429549D01*
X141400000Y-78429549D01*
X141503310Y-78419374D01*
X141602650Y-78389239D01*
X141694202Y-78340304D01*
X141774448Y-78274448D01*
X141840304Y-78194202D01*
X141889239Y-78102650D01*
X141919374Y-78003310D01*
X141929549Y-77900000D01*
X141929549Y-77465000D01*
X142946928Y-77465000D01*
X142959188Y-77589482D01*
X142995498Y-77709180D01*
X143054463Y-77819494D01*
X143133815Y-77916185D01*
X143230506Y-77995537D01*
X143340820Y-78054502D01*
X143460518Y-78090812D01*
X143585000Y-78103072D01*
X144214250Y-78100000D01*
X144373000Y-77941250D01*
X144373000Y-76627000D01*
X143108750Y-76627000D01*
X142950000Y-76785750D01*
X142946928Y-77465000D01*
X141929549Y-77465000D01*
X141929549Y-75535000D01*
X142946928Y-75535000D01*
X142950000Y-76214250D01*
X143108750Y-76373000D01*
X144373000Y-76373000D01*
X144373000Y-75058750D01*
X144627000Y-75058750D01*
X144627000Y-76373000D01*
X144647000Y-76373000D01*
X144647000Y-76627000D01*
X144627000Y-76627000D01*
X144627000Y-77941250D01*
X144785750Y-78100000D01*
X145415000Y-78103072D01*
X145539482Y-78090812D01*
X145659180Y-78054502D01*
X145769494Y-77995537D01*
X145866185Y-77916185D01*
X145945537Y-77819494D01*
X146004502Y-77709180D01*
X146040812Y-77589482D01*
X146053072Y-77465000D01*
X146050380Y-76869857D01*
X146069180Y-76964369D01*
X146189188Y-77254095D01*
X146363413Y-77514841D01*
X146585159Y-77736587D01*
X146845905Y-77910812D01*
X147135631Y-78030820D01*
X147443202Y-78092000D01*
X147756798Y-78092000D01*
X148064369Y-78030820D01*
X148354095Y-77910812D01*
X148614841Y-77736587D01*
X148836587Y-77514841D01*
X149010812Y-77254095D01*
X149130820Y-76964369D01*
X149192000Y-76656798D01*
X149192000Y-76343202D01*
X154308000Y-76343202D01*
X154308000Y-76656798D01*
X154369180Y-76964369D01*
X154489188Y-77254095D01*
X154663413Y-77514841D01*
X154885159Y-77736587D01*
X155145905Y-77910812D01*
X155435631Y-78030820D01*
X155743202Y-78092000D01*
X156056798Y-78092000D01*
X156364369Y-78030820D01*
X156654095Y-77910812D01*
X156914841Y-77736587D01*
X157136587Y-77514841D01*
X157169889Y-77465000D01*
X157946928Y-77465000D01*
X157959188Y-77589482D01*
X157995498Y-77709180D01*
X158054463Y-77819494D01*
X158133815Y-77916185D01*
X158230506Y-77995537D01*
X158340820Y-78054502D01*
X158460518Y-78090812D01*
X158585000Y-78103072D01*
X159214250Y-78100000D01*
X159373000Y-77941250D01*
X159373000Y-76627000D01*
X158108750Y-76627000D01*
X157950000Y-76785750D01*
X157946928Y-77465000D01*
X157169889Y-77465000D01*
X157310812Y-77254095D01*
X157430820Y-76964369D01*
X157492000Y-76656798D01*
X157492000Y-76343202D01*
X157430820Y-76035631D01*
X157310812Y-75745905D01*
X157169890Y-75535000D01*
X157946928Y-75535000D01*
X157950000Y-76214250D01*
X158108750Y-76373000D01*
X159373000Y-76373000D01*
X159373000Y-75058750D01*
X159627000Y-75058750D01*
X159627000Y-76373000D01*
X159647000Y-76373000D01*
X159647000Y-76627000D01*
X159627000Y-76627000D01*
X159627000Y-77941250D01*
X159785750Y-78100000D01*
X160415000Y-78103072D01*
X160539482Y-78090812D01*
X160659180Y-78054502D01*
X160769494Y-77995537D01*
X160866185Y-77916185D01*
X160945537Y-77819494D01*
X161004502Y-77709180D01*
X161040812Y-77589482D01*
X161053072Y-77465000D01*
X161050380Y-76869857D01*
X161069180Y-76964369D01*
X161189188Y-77254095D01*
X161363413Y-77514841D01*
X161585159Y-77736587D01*
X161845905Y-77910812D01*
X162135631Y-78030820D01*
X162443202Y-78092000D01*
X162756798Y-78092000D01*
X163064369Y-78030820D01*
X163354095Y-77910812D01*
X163614841Y-77736587D01*
X163836587Y-77514841D01*
X164010812Y-77254095D01*
X164130820Y-76964369D01*
X164192000Y-76656798D01*
X164192000Y-76343202D01*
X169308000Y-76343202D01*
X169308000Y-76656798D01*
X169369180Y-76964369D01*
X169489188Y-77254095D01*
X169663413Y-77514841D01*
X169885159Y-77736587D01*
X170145905Y-77910812D01*
X170435631Y-78030820D01*
X170743202Y-78092000D01*
X171056798Y-78092000D01*
X171364369Y-78030820D01*
X171654095Y-77910812D01*
X171914841Y-77736587D01*
X172136587Y-77514841D01*
X172169889Y-77465000D01*
X172946928Y-77465000D01*
X172959188Y-77589482D01*
X172995498Y-77709180D01*
X173054463Y-77819494D01*
X173133815Y-77916185D01*
X173230506Y-77995537D01*
X173340820Y-78054502D01*
X173460518Y-78090812D01*
X173585000Y-78103072D01*
X174214250Y-78100000D01*
X174373000Y-77941250D01*
X174373000Y-76627000D01*
X173108750Y-76627000D01*
X172950000Y-76785750D01*
X172946928Y-77465000D01*
X172169889Y-77465000D01*
X172310812Y-77254095D01*
X172430820Y-76964369D01*
X172492000Y-76656798D01*
X172492000Y-76343202D01*
X172430820Y-76035631D01*
X172310812Y-75745905D01*
X172169890Y-75535000D01*
X172946928Y-75535000D01*
X172950000Y-76214250D01*
X173108750Y-76373000D01*
X174373000Y-76373000D01*
X174373000Y-75058750D01*
X174627000Y-75058750D01*
X174627000Y-76373000D01*
X174647000Y-76373000D01*
X174647000Y-76627000D01*
X174627000Y-76627000D01*
X174627000Y-77941250D01*
X174785750Y-78100000D01*
X175415000Y-78103072D01*
X175539482Y-78090812D01*
X175659180Y-78054502D01*
X175769494Y-77995537D01*
X175866185Y-77916185D01*
X175945537Y-77819494D01*
X176004502Y-77709180D01*
X176040812Y-77589482D01*
X176053072Y-77465000D01*
X176050380Y-76869857D01*
X176069180Y-76964369D01*
X176189188Y-77254095D01*
X176363413Y-77514841D01*
X176585159Y-77736587D01*
X176845905Y-77910812D01*
X177135631Y-78030820D01*
X177443202Y-78092000D01*
X177756798Y-78092000D01*
X178064369Y-78030820D01*
X178354095Y-77910812D01*
X178614841Y-77736587D01*
X178836587Y-77514841D01*
X179010812Y-77254095D01*
X179130820Y-76964369D01*
X179192000Y-76656798D01*
X179192000Y-76343202D01*
X184308000Y-76343202D01*
X184308000Y-76656798D01*
X184369180Y-76964369D01*
X184489188Y-77254095D01*
X184663413Y-77514841D01*
X184885159Y-77736587D01*
X185145905Y-77910812D01*
X185435631Y-78030820D01*
X185743202Y-78092000D01*
X186056798Y-78092000D01*
X186364369Y-78030820D01*
X186654095Y-77910812D01*
X186914841Y-77736587D01*
X187136587Y-77514841D01*
X187310812Y-77254095D01*
X187430820Y-76964369D01*
X187492000Y-76656798D01*
X187492000Y-76343202D01*
X187430820Y-76035631D01*
X187310812Y-75745905D01*
X187136587Y-75485159D01*
X186914841Y-75263413D01*
X186654095Y-75089188D01*
X186364369Y-74969180D01*
X186056798Y-74908000D01*
X185743202Y-74908000D01*
X185435631Y-74969180D01*
X185145905Y-75089188D01*
X184885159Y-75263413D01*
X184663413Y-75485159D01*
X184489188Y-75745905D01*
X184369180Y-76035631D01*
X184308000Y-76343202D01*
X179192000Y-76343202D01*
X179130820Y-76035631D01*
X179010812Y-75745905D01*
X178836587Y-75485159D01*
X178614841Y-75263413D01*
X178354095Y-75089188D01*
X178064369Y-74969180D01*
X177756798Y-74908000D01*
X177443202Y-74908000D01*
X177135631Y-74969180D01*
X176845905Y-75089188D01*
X176585159Y-75263413D01*
X176363413Y-75485159D01*
X176189188Y-75745905D01*
X176069180Y-76035631D01*
X176050380Y-76130143D01*
X176053072Y-75535000D01*
X176040812Y-75410518D01*
X176004502Y-75290820D01*
X175945537Y-75180506D01*
X175866185Y-75083815D01*
X175769494Y-75004463D01*
X175659180Y-74945498D01*
X175539482Y-74909188D01*
X175415000Y-74896928D01*
X174785750Y-74900000D01*
X174627000Y-75058750D01*
X174373000Y-75058750D01*
X174214250Y-74900000D01*
X173585000Y-74896928D01*
X173460518Y-74909188D01*
X173340820Y-74945498D01*
X173230506Y-75004463D01*
X173133815Y-75083815D01*
X173054463Y-75180506D01*
X172995498Y-75290820D01*
X172959188Y-75410518D01*
X172946928Y-75535000D01*
X172169890Y-75535000D01*
X172136587Y-75485159D01*
X171914841Y-75263413D01*
X171654095Y-75089188D01*
X171364369Y-74969180D01*
X171056798Y-74908000D01*
X170743202Y-74908000D01*
X170435631Y-74969180D01*
X170145905Y-75089188D01*
X169885159Y-75263413D01*
X169663413Y-75485159D01*
X169489188Y-75745905D01*
X169369180Y-76035631D01*
X169308000Y-76343202D01*
X164192000Y-76343202D01*
X164130820Y-76035631D01*
X164010812Y-75745905D01*
X163836587Y-75485159D01*
X163614841Y-75263413D01*
X163354095Y-75089188D01*
X163064369Y-74969180D01*
X162756798Y-74908000D01*
X162443202Y-74908000D01*
X162135631Y-74969180D01*
X161845905Y-75089188D01*
X161585159Y-75263413D01*
X161363413Y-75485159D01*
X161189188Y-75745905D01*
X161069180Y-76035631D01*
X161050380Y-76130143D01*
X161053072Y-75535000D01*
X161040812Y-75410518D01*
X161004502Y-75290820D01*
X160945537Y-75180506D01*
X160866185Y-75083815D01*
X160769494Y-75004463D01*
X160659180Y-74945498D01*
X160539482Y-74909188D01*
X160415000Y-74896928D01*
X159785750Y-74900000D01*
X159627000Y-75058750D01*
X159373000Y-75058750D01*
X159214250Y-74900000D01*
X158585000Y-74896928D01*
X158460518Y-74909188D01*
X158340820Y-74945498D01*
X158230506Y-75004463D01*
X158133815Y-75083815D01*
X158054463Y-75180506D01*
X157995498Y-75290820D01*
X157959188Y-75410518D01*
X157946928Y-75535000D01*
X157169890Y-75535000D01*
X157136587Y-75485159D01*
X156914841Y-75263413D01*
X156654095Y-75089188D01*
X156364369Y-74969180D01*
X156056798Y-74908000D01*
X155743202Y-74908000D01*
X155435631Y-74969180D01*
X155145905Y-75089188D01*
X154885159Y-75263413D01*
X154663413Y-75485159D01*
X154489188Y-75745905D01*
X154369180Y-76035631D01*
X154308000Y-76343202D01*
X149192000Y-76343202D01*
X149130820Y-76035631D01*
X149010812Y-75745905D01*
X148836587Y-75485159D01*
X148614841Y-75263413D01*
X148354095Y-75089188D01*
X148064369Y-74969180D01*
X147756798Y-74908000D01*
X147443202Y-74908000D01*
X147135631Y-74969180D01*
X146845905Y-75089188D01*
X146585159Y-75263413D01*
X146363413Y-75485159D01*
X146189188Y-75745905D01*
X146069180Y-76035631D01*
X146050380Y-76130143D01*
X146053072Y-75535000D01*
X146040812Y-75410518D01*
X146004502Y-75290820D01*
X145945537Y-75180506D01*
X145866185Y-75083815D01*
X145769494Y-75004463D01*
X145659180Y-74945498D01*
X145539482Y-74909188D01*
X145415000Y-74896928D01*
X144785750Y-74900000D01*
X144627000Y-75058750D01*
X144373000Y-75058750D01*
X144214250Y-74900000D01*
X143585000Y-74896928D01*
X143460518Y-74909188D01*
X143340820Y-74945498D01*
X143230506Y-75004463D01*
X143133815Y-75083815D01*
X143054463Y-75180506D01*
X142995498Y-75290820D01*
X142959188Y-75410518D01*
X142946928Y-75535000D01*
X141929549Y-75535000D01*
X141929549Y-75100000D01*
X141919374Y-74996690D01*
X141889239Y-74897350D01*
X141840304Y-74805798D01*
X141774448Y-74725552D01*
X141694202Y-74659696D01*
X141602650Y-74610761D01*
X141503310Y-74580626D01*
X141400000Y-74570451D01*
X139600000Y-74570451D01*
X139496690Y-74580626D01*
X139397350Y-74610761D01*
X139305798Y-74659696D01*
X139225552Y-74725552D01*
X139159696Y-74805798D01*
X139110761Y-74897350D01*
X139080626Y-74996690D01*
X139070451Y-75100000D01*
X137538072Y-75100000D01*
X137525812Y-74975518D01*
X137489502Y-74855820D01*
X137430537Y-74745506D01*
X137351185Y-74648815D01*
X137254494Y-74569463D01*
X137144180Y-74510498D01*
X137024482Y-74474188D01*
X136900000Y-74461928D01*
X136285750Y-74465000D01*
X136127000Y-74623750D01*
X135873000Y-74623750D01*
X135714250Y-74465000D01*
X135100000Y-74461928D01*
X134975518Y-74474188D01*
X134855820Y-74510498D01*
X134745506Y-74569463D01*
X134648815Y-74648815D01*
X134569463Y-74745506D01*
X134510498Y-74855820D01*
X134474188Y-74975518D01*
X134461928Y-75100000D01*
X132929549Y-75100000D01*
X132919374Y-74996690D01*
X132889239Y-74897350D01*
X132840304Y-74805798D01*
X132774448Y-74725552D01*
X132694202Y-74659696D01*
X132602650Y-74610761D01*
X132503310Y-74580626D01*
X132400000Y-74570451D01*
X130600000Y-74570451D01*
X130496690Y-74580626D01*
X130397350Y-74610761D01*
X130305798Y-74659696D01*
X130225552Y-74725552D01*
X130159696Y-74805798D01*
X130110761Y-74897350D01*
X130080626Y-74996690D01*
X130070451Y-75100000D01*
X122077000Y-75100000D01*
X122077000Y-70856891D01*
X180438519Y-70856891D01*
X180535843Y-71131252D01*
X180684822Y-71381355D01*
X180879731Y-71597588D01*
X181113080Y-71771641D01*
X181375901Y-71896825D01*
X181523110Y-71941476D01*
X181753000Y-71820155D01*
X181753000Y-70627000D01*
X180559186Y-70627000D01*
X180438519Y-70856891D01*
X122077000Y-70856891D01*
X122077000Y-69077000D01*
X181462197Y-69077000D01*
X181375901Y-69103175D01*
X181375901Y-69103175D01*
G37*
X181375901Y-69103175D02*
X181113080Y-69228359D01*
X180879731Y-69402412D01*
X180684822Y-69618645D01*
X180535843Y-69868748D01*
X180438519Y-70143109D01*
X180559186Y-70373000D01*
X181753000Y-70373000D01*
X181753000Y-70353000D01*
X182007000Y-70353000D01*
X182007000Y-70373000D01*
X182027000Y-70373000D01*
X182027000Y-70627000D01*
X182007000Y-70627000D01*
X182007000Y-71820155D01*
X182236890Y-71941476D01*
X182384099Y-71896825D01*
X182646920Y-71771641D01*
X182880269Y-71597588D01*
X183075178Y-71381355D01*
X183209342Y-71156123D01*
X183269527Y-71268721D01*
X183441603Y-71478397D01*
X183651279Y-71650473D01*
X183890495Y-71778337D01*
X184150061Y-71857075D01*
X184352360Y-71877000D01*
X184487640Y-71877000D01*
X184689939Y-71857075D01*
X184949505Y-71778337D01*
X185188721Y-71650473D01*
X185398397Y-71478397D01*
X185570473Y-71268721D01*
X185690000Y-71045102D01*
X185809527Y-71268721D01*
X185981603Y-71478397D01*
X186191279Y-71650473D01*
X186430495Y-71778337D01*
X186690061Y-71857075D01*
X186892360Y-71877000D01*
X187027640Y-71877000D01*
X187229939Y-71857075D01*
X187489505Y-71778337D01*
X187728721Y-71650473D01*
X187938397Y-71478397D01*
X188110473Y-71268721D01*
X188120451Y-71250054D01*
X188120451Y-71350000D01*
X188130626Y-71453310D01*
X188160761Y-71552650D01*
X188209696Y-71644202D01*
X188275552Y-71724448D01*
X188355798Y-71790304D01*
X188447350Y-71839239D01*
X188546690Y-71869374D01*
X188650000Y-71879549D01*
X190350000Y-71879549D01*
X190453310Y-71869374D01*
X190552650Y-71839239D01*
X190644202Y-71790304D01*
X190724448Y-71724448D01*
X190790304Y-71644202D01*
X190839239Y-71552650D01*
X190869374Y-71453310D01*
X190879549Y-71350000D01*
X190879549Y-69650000D01*
X190869374Y-69546690D01*
X190839239Y-69447350D01*
X190790304Y-69355798D01*
X190724448Y-69275552D01*
X190644202Y-69209696D01*
X190552650Y-69160761D01*
X190453310Y-69130626D01*
X190350000Y-69120451D01*
X188650000Y-69120451D01*
X188546690Y-69130626D01*
X188447350Y-69160761D01*
X188355798Y-69209696D01*
X188275552Y-69275552D01*
X188209696Y-69355798D01*
X188160761Y-69447350D01*
X188130626Y-69546690D01*
X188120451Y-69650000D01*
X188120451Y-69749946D01*
X188110473Y-69731279D01*
X187938397Y-69521603D01*
X187728721Y-69349527D01*
X187489505Y-69221663D01*
X187229939Y-69142925D01*
X187027640Y-69123000D01*
X186892360Y-69123000D01*
X186690061Y-69142925D01*
X186430495Y-69221663D01*
X186191279Y-69349527D01*
X185981603Y-69521603D01*
X185809527Y-69731279D01*
X185690000Y-69954898D01*
X185570473Y-69731279D01*
X185398397Y-69521603D01*
X185188721Y-69349527D01*
X184949505Y-69221663D01*
X184689939Y-69142925D01*
X184487640Y-69123000D01*
X184352360Y-69123000D01*
X184150061Y-69142925D01*
X183890495Y-69221663D01*
X183651279Y-69349527D01*
X183441603Y-69521603D01*
X183269527Y-69731279D01*
X183209342Y-69843877D01*
X183075178Y-69618645D01*
X182880269Y-69402412D01*
X182646920Y-69228359D01*
X182384099Y-69103175D01*
X182297803Y-69077000D01*
X192923001Y-69077000D01*
X192923000Y-96923000D01*
X122077000Y-96923000D01*
X122077000Y-95500000D01*
X122996338Y-95500000D01*
X123022925Y-95769939D01*
X123101663Y-96029505D01*
X123229527Y-96268721D01*
X123401603Y-96478397D01*
X123611279Y-96650473D01*
X123850495Y-96778337D01*
X124110061Y-96857075D01*
X124312360Y-96877000D01*
X124447640Y-96877000D01*
X124649939Y-96857075D01*
X124909505Y-96778337D01*
X125148721Y-96650473D01*
X125358397Y-96478397D01*
X125530473Y-96268721D01*
X125650000Y-96045102D01*
X125769527Y-96268721D01*
X125941603Y-96478397D01*
X126151279Y-96650473D01*
X126390495Y-96778337D01*
X126650061Y-96857075D01*
X126852360Y-96877000D01*
X126987640Y-96877000D01*
X127189939Y-96857075D01*
X127449505Y-96778337D01*
X127688721Y-96650473D01*
X127898397Y-96478397D01*
X128070473Y-96268721D01*
X128190000Y-96045102D01*
X128309527Y-96268721D01*
X128481603Y-96478397D01*
X128691279Y-96650473D01*
X128930495Y-96778337D01*
X129190061Y-96857075D01*
X129392360Y-96877000D01*
X129527640Y-96877000D01*
X129729939Y-96857075D01*
X129989505Y-96778337D01*
X130228721Y-96650473D01*
X130438397Y-96478397D01*
X130610473Y-96268721D01*
X130620451Y-96250054D01*
X130620451Y-96350000D01*
X130630626Y-96453310D01*
X130660761Y-96552650D01*
X130709696Y-96644202D01*
X130775552Y-96724448D01*
X130855798Y-96790304D01*
X130947350Y-96839239D01*
X131046690Y-96869374D01*
X131150000Y-96879549D01*
X132850000Y-96879549D01*
X132953310Y-96869374D01*
X133052650Y-96839239D01*
X133144202Y-96790304D01*
X133224448Y-96724448D01*
X133290304Y-96644202D01*
X133339239Y-96552650D01*
X133369374Y-96453310D01*
X133379549Y-96350000D01*
X133379549Y-95500000D01*
X180496338Y-95500000D01*
X180522925Y-95769939D01*
X180601663Y-96029505D01*
X180729527Y-96268721D01*
X180901603Y-96478397D01*
X181111279Y-96650473D01*
X181350495Y-96778337D01*
X181610061Y-96857075D01*
X181812360Y-96877000D01*
X181947640Y-96877000D01*
X182149939Y-96857075D01*
X182409505Y-96778337D01*
X182648721Y-96650473D01*
X182858397Y-96478397D01*
X183030473Y-96268721D01*
X183150000Y-96045102D01*
X183269527Y-96268721D01*
X183441603Y-96478397D01*
X183651279Y-96650473D01*
X183890495Y-96778337D01*
X184150061Y-96857075D01*
X184352360Y-96877000D01*
X184487640Y-96877000D01*
X184689939Y-96857075D01*
X184949505Y-96778337D01*
X185188721Y-96650473D01*
X185398397Y-96478397D01*
X185570473Y-96268721D01*
X185690000Y-96045102D01*
X185809527Y-96268721D01*
X185981603Y-96478397D01*
X186191279Y-96650473D01*
X186430495Y-96778337D01*
X186690061Y-96857075D01*
X186892360Y-96877000D01*
X187027640Y-96877000D01*
X187229939Y-96857075D01*
X187489505Y-96778337D01*
X187728721Y-96650473D01*
X187938397Y-96478397D01*
X188110473Y-96268721D01*
X188120451Y-96250054D01*
X188120451Y-96350000D01*
X188130626Y-96453310D01*
X188160761Y-96552650D01*
X188209696Y-96644202D01*
X188275552Y-96724448D01*
X188355798Y-96790304D01*
X188447350Y-96839239D01*
X188546690Y-96869374D01*
X188650000Y-96879549D01*
X190350000Y-96879549D01*
X190453310Y-96869374D01*
X190552650Y-96839239D01*
X190644202Y-96790304D01*
X190724448Y-96724448D01*
X190790304Y-96644202D01*
X190839239Y-96552650D01*
X190869374Y-96453310D01*
X190879549Y-96350000D01*
X190879549Y-94650000D01*
X190869374Y-94546690D01*
X190839239Y-94447350D01*
X190790304Y-94355798D01*
X190724448Y-94275552D01*
X190644202Y-94209696D01*
X190552650Y-94160761D01*
X190453310Y-94130626D01*
X190350000Y-94120451D01*
X188650000Y-94120451D01*
X188546690Y-94130626D01*
X188447350Y-94160761D01*
X188355798Y-94209696D01*
X188275552Y-94275552D01*
X188209696Y-94355798D01*
X188160761Y-94447350D01*
X188130626Y-94546690D01*
X188120451Y-94650000D01*
X188120451Y-94749946D01*
X188110473Y-94731279D01*
X187938397Y-94521603D01*
X187728721Y-94349527D01*
X187489505Y-94221663D01*
X187229939Y-94142925D01*
X187027640Y-94123000D01*
X186892360Y-94123000D01*
X186690061Y-94142925D01*
X186430495Y-94221663D01*
X186191279Y-94349527D01*
X185981603Y-94521603D01*
X185809527Y-94731279D01*
X185690000Y-94954898D01*
X185570473Y-94731279D01*
X185398397Y-94521603D01*
X185188721Y-94349527D01*
X184949505Y-94221663D01*
X184689939Y-94142925D01*
X184487640Y-94123000D01*
X184352360Y-94123000D01*
X184150061Y-94142925D01*
X183890495Y-94221663D01*
X183651279Y-94349527D01*
X183441603Y-94521603D01*
X183269527Y-94731279D01*
X183150000Y-94954898D01*
X183030473Y-94731279D01*
X182858397Y-94521603D01*
X182648721Y-94349527D01*
X182409505Y-94221663D01*
X182149939Y-94142925D01*
X181947640Y-94123000D01*
X181812360Y-94123000D01*
X181610061Y-94142925D01*
X181350495Y-94221663D01*
X181111279Y-94349527D01*
X180901603Y-94521603D01*
X180729527Y-94731279D01*
X180601663Y-94970495D01*
X180522925Y-95230061D01*
X180496338Y-95500000D01*
X133379549Y-95500000D01*
X133379549Y-94650000D01*
X133369374Y-94546690D01*
X133339239Y-94447350D01*
X133290304Y-94355798D01*
X133224448Y-94275552D01*
X133144202Y-94209696D01*
X133052650Y-94160761D01*
X132953310Y-94130626D01*
X132850000Y-94120451D01*
X131150000Y-94120451D01*
X131046690Y-94130626D01*
X130947350Y-94160761D01*
X130855798Y-94209696D01*
X130775552Y-94275552D01*
X130709696Y-94355798D01*
X130660761Y-94447350D01*
X130630626Y-94546690D01*
X130620451Y-94650000D01*
X130620451Y-94749946D01*
X130610473Y-94731279D01*
X130438397Y-94521603D01*
X130228721Y-94349527D01*
X129989505Y-94221663D01*
X129729939Y-94142925D01*
X129527640Y-94123000D01*
X129392360Y-94123000D01*
X129190061Y-94142925D01*
X128930495Y-94221663D01*
X128691279Y-94349527D01*
X128481603Y-94521603D01*
X128309527Y-94731279D01*
X128190000Y-94954898D01*
X128070473Y-94731279D01*
X127898397Y-94521603D01*
X127688721Y-94349527D01*
X127449505Y-94221663D01*
X127189939Y-94142925D01*
X126987640Y-94123000D01*
X126852360Y-94123000D01*
X126650061Y-94142925D01*
X126390495Y-94221663D01*
X126151279Y-94349527D01*
X125941603Y-94521603D01*
X125769527Y-94731279D01*
X125650000Y-94954898D01*
X125530473Y-94731279D01*
X125358397Y-94521603D01*
X125148721Y-94349527D01*
X124909505Y-94221663D01*
X124649939Y-94142925D01*
X124447640Y-94123000D01*
X124312360Y-94123000D01*
X124110061Y-94142925D01*
X123850495Y-94221663D01*
X123611279Y-94349527D01*
X123401603Y-94521603D01*
X123229527Y-94731279D01*
X123101663Y-94970495D01*
X123022925Y-95230061D01*
X122996338Y-95500000D01*
X122077000Y-95500000D01*
X122077000Y-90465000D01*
X127946928Y-90465000D01*
X127959188Y-90589482D01*
X127995498Y-90709180D01*
X128054463Y-90819494D01*
X128133815Y-90916185D01*
X128230506Y-90995537D01*
X128340820Y-91054502D01*
X128460518Y-91090812D01*
X128585000Y-91103072D01*
X129214250Y-91100000D01*
X129373000Y-90941250D01*
X129373000Y-89627000D01*
X128108750Y-89627000D01*
X127950000Y-89785750D01*
X127946928Y-90465000D01*
X122077000Y-90465000D01*
X122077000Y-88535000D01*
X127946928Y-88535000D01*
X127950000Y-89214250D01*
X128108750Y-89373000D01*
X129373000Y-89373000D01*
X129373000Y-88058750D01*
X129627000Y-88058750D01*
X129627000Y-89373000D01*
X129647000Y-89373000D01*
X129647000Y-89627000D01*
X129627000Y-89627000D01*
X129627000Y-90941250D01*
X129785750Y-91100000D01*
X130415000Y-91103072D01*
X130539482Y-91090812D01*
X130659180Y-91054502D01*
X130769494Y-90995537D01*
X130866185Y-90916185D01*
X130945537Y-90819494D01*
X131004502Y-90709180D01*
X131040812Y-90589482D01*
X131053072Y-90465000D01*
X131050380Y-89869857D01*
X131069180Y-89964369D01*
X131189188Y-90254095D01*
X131363413Y-90514841D01*
X131585159Y-90736587D01*
X131845905Y-90910812D01*
X132135631Y-91030820D01*
X132443202Y-91092000D01*
X132756798Y-91092000D01*
X133064369Y-91030820D01*
X133354095Y-90910812D01*
X133614841Y-90736587D01*
X133836587Y-90514841D01*
X134010812Y-90254095D01*
X134130820Y-89964369D01*
X134192000Y-89656798D01*
X134192000Y-89343202D01*
X139308000Y-89343202D01*
X139308000Y-89656798D01*
X139369180Y-89964369D01*
X139489188Y-90254095D01*
X139663413Y-90514841D01*
X139885159Y-90736587D01*
X140145905Y-90910812D01*
X140435631Y-91030820D01*
X140743202Y-91092000D01*
X141056798Y-91092000D01*
X141364369Y-91030820D01*
X141654095Y-90910812D01*
X141914841Y-90736587D01*
X142136587Y-90514841D01*
X142169889Y-90465000D01*
X143046928Y-90465000D01*
X143059188Y-90589482D01*
X143095498Y-90709180D01*
X143154463Y-90819494D01*
X143233815Y-90916185D01*
X143330506Y-90995537D01*
X143440820Y-91054502D01*
X143560518Y-91090812D01*
X143685000Y-91103072D01*
X144314250Y-91100000D01*
X144473000Y-90941250D01*
X144473000Y-89627000D01*
X143208750Y-89627000D01*
X143050000Y-89785750D01*
X143046928Y-90465000D01*
X142169889Y-90465000D01*
X142310812Y-90254095D01*
X142430820Y-89964369D01*
X142492000Y-89656798D01*
X142492000Y-89343202D01*
X142430820Y-89035631D01*
X142310812Y-88745905D01*
X142169890Y-88535000D01*
X143046928Y-88535000D01*
X143050000Y-89214250D01*
X143208750Y-89373000D01*
X144473000Y-89373000D01*
X144473000Y-88058750D01*
X144727000Y-88058750D01*
X144727000Y-89373000D01*
X144747000Y-89373000D01*
X144747000Y-89627000D01*
X144727000Y-89627000D01*
X144727000Y-90941250D01*
X144885750Y-91100000D01*
X145515000Y-91103072D01*
X145639482Y-91090812D01*
X145759180Y-91054502D01*
X145869494Y-90995537D01*
X145966185Y-90916185D01*
X146045537Y-90819494D01*
X146104502Y-90709180D01*
X146140812Y-90589482D01*
X146153072Y-90465000D01*
X146150380Y-89869857D01*
X146169180Y-89964369D01*
X146289188Y-90254095D01*
X146463413Y-90514841D01*
X146685159Y-90736587D01*
X146945905Y-90910812D01*
X147235631Y-91030820D01*
X147543202Y-91092000D01*
X147856798Y-91092000D01*
X148164369Y-91030820D01*
X148454095Y-90910812D01*
X148714841Y-90736587D01*
X148936587Y-90514841D01*
X149110812Y-90254095D01*
X149230820Y-89964369D01*
X149292000Y-89656798D01*
X149292000Y-89343202D01*
X154408000Y-89343202D01*
X154408000Y-89656798D01*
X154469180Y-89964369D01*
X154589188Y-90254095D01*
X154763413Y-90514841D01*
X154985159Y-90736587D01*
X155245905Y-90910812D01*
X155535631Y-91030820D01*
X155843202Y-91092000D01*
X156156798Y-91092000D01*
X156464369Y-91030820D01*
X156754095Y-90910812D01*
X157014841Y-90736587D01*
X157236587Y-90514841D01*
X157269889Y-90465000D01*
X158046928Y-90465000D01*
X158059188Y-90589482D01*
X158095498Y-90709180D01*
X158154463Y-90819494D01*
X158233815Y-90916185D01*
X158330506Y-90995537D01*
X158440820Y-91054502D01*
X158560518Y-91090812D01*
X158685000Y-91103072D01*
X159314250Y-91100000D01*
X159473000Y-90941250D01*
X159473000Y-89627000D01*
X158208750Y-89627000D01*
X158050000Y-89785750D01*
X158046928Y-90465000D01*
X157269889Y-90465000D01*
X157410812Y-90254095D01*
X157530820Y-89964369D01*
X157592000Y-89656798D01*
X157592000Y-89343202D01*
X157530820Y-89035631D01*
X157410812Y-88745905D01*
X157269890Y-88535000D01*
X158046928Y-88535000D01*
X158050000Y-89214250D01*
X158208750Y-89373000D01*
X159473000Y-89373000D01*
X159473000Y-88058750D01*
X159727000Y-88058750D01*
X159727000Y-89373000D01*
X159747000Y-89373000D01*
X159747000Y-89627000D01*
X159727000Y-89627000D01*
X159727000Y-90941250D01*
X159885750Y-91100000D01*
X160515000Y-91103072D01*
X160639482Y-91090812D01*
X160759180Y-91054502D01*
X160869494Y-90995537D01*
X160966185Y-90916185D01*
X161045537Y-90819494D01*
X161104502Y-90709180D01*
X161140812Y-90589482D01*
X161153072Y-90465000D01*
X161150380Y-89869857D01*
X161169180Y-89964369D01*
X161289188Y-90254095D01*
X161463413Y-90514841D01*
X161685159Y-90736587D01*
X161945905Y-90910812D01*
X162235631Y-91030820D01*
X162543202Y-91092000D01*
X162856798Y-91092000D01*
X163164369Y-91030820D01*
X163454095Y-90910812D01*
X163714841Y-90736587D01*
X163936587Y-90514841D01*
X164110812Y-90254095D01*
X164230820Y-89964369D01*
X164292000Y-89656798D01*
X164292000Y-89343202D01*
X169408000Y-89343202D01*
X169408000Y-89656798D01*
X169469180Y-89964369D01*
X169589188Y-90254095D01*
X169763413Y-90514841D01*
X169985159Y-90736587D01*
X170245905Y-90910812D01*
X170535631Y-91030820D01*
X170843202Y-91092000D01*
X171156798Y-91092000D01*
X171464369Y-91030820D01*
X171754095Y-90910812D01*
X172014841Y-90736587D01*
X172236587Y-90514841D01*
X172269889Y-90465000D01*
X173046928Y-90465000D01*
X173059188Y-90589482D01*
X173095498Y-90709180D01*
X173154463Y-90819494D01*
X173233815Y-90916185D01*
X173330506Y-90995537D01*
X173440820Y-91054502D01*
X173560518Y-91090812D01*
X173685000Y-91103072D01*
X174314250Y-91100000D01*
X174473000Y-90941250D01*
X174473000Y-89627000D01*
X173208750Y-89627000D01*
X173050000Y-89785750D01*
X173046928Y-90465000D01*
X172269889Y-90465000D01*
X172410812Y-90254095D01*
X172530820Y-89964369D01*
X172592000Y-89656798D01*
X172592000Y-89343202D01*
X172530820Y-89035631D01*
X172410812Y-88745905D01*
X172269890Y-88535000D01*
X173046928Y-88535000D01*
X173050000Y-89214250D01*
X173208750Y-89373000D01*
X174473000Y-89373000D01*
X174473000Y-88058750D01*
X174727000Y-88058750D01*
X174727000Y-89373000D01*
X174747000Y-89373000D01*
X174747000Y-89627000D01*
X174727000Y-89627000D01*
X174727000Y-90941250D01*
X174885750Y-91100000D01*
X175515000Y-91103072D01*
X175639482Y-91090812D01*
X175759180Y-91054502D01*
X175869494Y-90995537D01*
X175966185Y-90916185D01*
X176045537Y-90819494D01*
X176104502Y-90709180D01*
X176140812Y-90589482D01*
X176153072Y-90465000D01*
X176150380Y-89869857D01*
X176169180Y-89964369D01*
X176289188Y-90254095D01*
X176463413Y-90514841D01*
X176685159Y-90736587D01*
X176945905Y-90910812D01*
X177235631Y-91030820D01*
X177543202Y-91092000D01*
X177856798Y-91092000D01*
X178164369Y-91030820D01*
X178454095Y-90910812D01*
X178714841Y-90736587D01*
X178936587Y-90514841D01*
X179110812Y-90254095D01*
X179230820Y-89964369D01*
X179292000Y-89656798D01*
X179292000Y-89343202D01*
X184408000Y-89343202D01*
X184408000Y-89656798D01*
X184469180Y-89964369D01*
X184589188Y-90254095D01*
X184763413Y-90514841D01*
X184985159Y-90736587D01*
X185245905Y-90910812D01*
X185535631Y-91030820D01*
X185843202Y-91092000D01*
X186156798Y-91092000D01*
X186464369Y-91030820D01*
X186754095Y-90910812D01*
X187014841Y-90736587D01*
X187236587Y-90514841D01*
X187410812Y-90254095D01*
X187530820Y-89964369D01*
X187592000Y-89656798D01*
X187592000Y-89343202D01*
X187530820Y-89035631D01*
X187410812Y-88745905D01*
X187236587Y-88485159D01*
X187014841Y-88263413D01*
X186754095Y-88089188D01*
X186464369Y-87969180D01*
X186156798Y-87908000D01*
X185843202Y-87908000D01*
X185535631Y-87969180D01*
X185245905Y-88089188D01*
X184985159Y-88263413D01*
X184763413Y-88485159D01*
X184589188Y-88745905D01*
X184469180Y-89035631D01*
X184408000Y-89343202D01*
X179292000Y-89343202D01*
X179230820Y-89035631D01*
X179110812Y-88745905D01*
X178936587Y-88485159D01*
X178714841Y-88263413D01*
X178454095Y-88089188D01*
X178164369Y-87969180D01*
X177856798Y-87908000D01*
X177543202Y-87908000D01*
X177235631Y-87969180D01*
X176945905Y-88089188D01*
X176685159Y-88263413D01*
X176463413Y-88485159D01*
X176289188Y-88745905D01*
X176169180Y-89035631D01*
X176150380Y-89130143D01*
X176153072Y-88535000D01*
X176140812Y-88410518D01*
X176104502Y-88290820D01*
X176045537Y-88180506D01*
X175966185Y-88083815D01*
X175869494Y-88004463D01*
X175759180Y-87945498D01*
X175639482Y-87909188D01*
X175515000Y-87896928D01*
X174885750Y-87900000D01*
X174727000Y-88058750D01*
X174473000Y-88058750D01*
X174314250Y-87900000D01*
X173685000Y-87896928D01*
X173560518Y-87909188D01*
X173440820Y-87945498D01*
X173330506Y-88004463D01*
X173233815Y-88083815D01*
X173154463Y-88180506D01*
X173095498Y-88290820D01*
X173059188Y-88410518D01*
X173046928Y-88535000D01*
X172269890Y-88535000D01*
X172236587Y-88485159D01*
X172014841Y-88263413D01*
X171754095Y-88089188D01*
X171464369Y-87969180D01*
X171156798Y-87908000D01*
X170843202Y-87908000D01*
X170535631Y-87969180D01*
X170245905Y-88089188D01*
X169985159Y-88263413D01*
X169763413Y-88485159D01*
X169589188Y-88745905D01*
X169469180Y-89035631D01*
X169408000Y-89343202D01*
X164292000Y-89343202D01*
X164230820Y-89035631D01*
X164110812Y-88745905D01*
X163936587Y-88485159D01*
X163714841Y-88263413D01*
X163454095Y-88089188D01*
X163164369Y-87969180D01*
X162856798Y-87908000D01*
X162543202Y-87908000D01*
X162235631Y-87969180D01*
X161945905Y-88089188D01*
X161685159Y-88263413D01*
X161463413Y-88485159D01*
X161289188Y-88745905D01*
X161169180Y-89035631D01*
X161150380Y-89130143D01*
X161153072Y-88535000D01*
X161140812Y-88410518D01*
X161104502Y-88290820D01*
X161045537Y-88180506D01*
X160966185Y-88083815D01*
X160869494Y-88004463D01*
X160759180Y-87945498D01*
X160639482Y-87909188D01*
X160515000Y-87896928D01*
X159885750Y-87900000D01*
X159727000Y-88058750D01*
X159473000Y-88058750D01*
X159314250Y-87900000D01*
X158685000Y-87896928D01*
X158560518Y-87909188D01*
X158440820Y-87945498D01*
X158330506Y-88004463D01*
X158233815Y-88083815D01*
X158154463Y-88180506D01*
X158095498Y-88290820D01*
X158059188Y-88410518D01*
X158046928Y-88535000D01*
X157269890Y-88535000D01*
X157236587Y-88485159D01*
X157014841Y-88263413D01*
X156754095Y-88089188D01*
X156464369Y-87969180D01*
X156156798Y-87908000D01*
X155843202Y-87908000D01*
X155535631Y-87969180D01*
X155245905Y-88089188D01*
X154985159Y-88263413D01*
X154763413Y-88485159D01*
X154589188Y-88745905D01*
X154469180Y-89035631D01*
X154408000Y-89343202D01*
X149292000Y-89343202D01*
X149230820Y-89035631D01*
X149110812Y-88745905D01*
X148936587Y-88485159D01*
X148714841Y-88263413D01*
X148454095Y-88089188D01*
X148164369Y-87969180D01*
X147856798Y-87908000D01*
X147543202Y-87908000D01*
X147235631Y-87969180D01*
X146945905Y-88089188D01*
X146685159Y-88263413D01*
X146463413Y-88485159D01*
X146289188Y-88745905D01*
X146169180Y-89035631D01*
X146150380Y-89130143D01*
X146153072Y-88535000D01*
X146140812Y-88410518D01*
X146104502Y-88290820D01*
X146045537Y-88180506D01*
X145966185Y-88083815D01*
X145869494Y-88004463D01*
X145759180Y-87945498D01*
X145639482Y-87909188D01*
X145515000Y-87896928D01*
X144885750Y-87900000D01*
X144727000Y-88058750D01*
X144473000Y-88058750D01*
X144314250Y-87900000D01*
X143685000Y-87896928D01*
X143560518Y-87909188D01*
X143440820Y-87945498D01*
X143330506Y-88004463D01*
X143233815Y-88083815D01*
X143154463Y-88180506D01*
X143095498Y-88290820D01*
X143059188Y-88410518D01*
X143046928Y-88535000D01*
X142169890Y-88535000D01*
X142136587Y-88485159D01*
X141914841Y-88263413D01*
X141654095Y-88089188D01*
X141364369Y-87969180D01*
X141056798Y-87908000D01*
X140743202Y-87908000D01*
X140435631Y-87969180D01*
X140145905Y-88089188D01*
X139885159Y-88263413D01*
X139663413Y-88485159D01*
X139489188Y-88745905D01*
X139369180Y-89035631D01*
X139308000Y-89343202D01*
X134192000Y-89343202D01*
X134130820Y-89035631D01*
X134010812Y-88745905D01*
X133836587Y-88485159D01*
X133614841Y-88263413D01*
X133354095Y-88089188D01*
X133064369Y-87969180D01*
X132756798Y-87908000D01*
X132443202Y-87908000D01*
X132135631Y-87969180D01*
X131845905Y-88089188D01*
X131585159Y-88263413D01*
X131363413Y-88485159D01*
X131189188Y-88745905D01*
X131069180Y-89035631D01*
X131050380Y-89130143D01*
X131053072Y-88535000D01*
X131040812Y-88410518D01*
X131004502Y-88290820D01*
X130945537Y-88180506D01*
X130866185Y-88083815D01*
X130769494Y-88004463D01*
X130659180Y-87945498D01*
X130539482Y-87909188D01*
X130415000Y-87896928D01*
X129785750Y-87900000D01*
X129627000Y-88058750D01*
X129373000Y-88058750D01*
X129214250Y-87900000D01*
X128585000Y-87896928D01*
X128460518Y-87909188D01*
X128340820Y-87945498D01*
X128230506Y-88004463D01*
X128133815Y-88083815D01*
X128054463Y-88180506D01*
X127995498Y-88290820D01*
X127959188Y-88410518D01*
X127946928Y-88535000D01*
X122077000Y-88535000D01*
X122077000Y-80560000D01*
X123070451Y-80560000D01*
X123070451Y-82360000D01*
X123080626Y-82463310D01*
X123110761Y-82562650D01*
X123159696Y-82654202D01*
X123225552Y-82734448D01*
X123305798Y-82800304D01*
X123397350Y-82849239D01*
X123496690Y-82879374D01*
X123594225Y-82888980D01*
X123590340Y-82891576D01*
X123391576Y-83090340D01*
X123235409Y-83324062D01*
X123127838Y-83583759D01*
X123073000Y-83859453D01*
X123073000Y-84140547D01*
X123127838Y-84416241D01*
X123235409Y-84675938D01*
X123391576Y-84909660D01*
X123590340Y-85108424D01*
X123824062Y-85264591D01*
X124083759Y-85372162D01*
X124359453Y-85427000D01*
X124640547Y-85427000D01*
X124916241Y-85372162D01*
X125175938Y-85264591D01*
X125409660Y-85108424D01*
X125608424Y-84909660D01*
X125764591Y-84675938D01*
X125872162Y-84416241D01*
X125927000Y-84140547D01*
X125927000Y-83859453D01*
X125872162Y-83583759D01*
X125764591Y-83324062D01*
X125608424Y-83090340D01*
X125409660Y-82891576D01*
X125405775Y-82888980D01*
X125503310Y-82879374D01*
X125602650Y-82849239D01*
X125694202Y-82800304D01*
X125774448Y-82734448D01*
X125840304Y-82654202D01*
X125889239Y-82562650D01*
X125919374Y-82463310D01*
X125929549Y-82360000D01*
X125929549Y-80560000D01*
X125919374Y-80456690D01*
X125889239Y-80357350D01*
X125840304Y-80265798D01*
X125774448Y-80185552D01*
X125694202Y-80119696D01*
X125602650Y-80070761D01*
X125503310Y-80040626D01*
X125400000Y-80030451D01*
X123600000Y-80030451D01*
X123496690Y-80040626D01*
X123397350Y-80070761D01*
X123305798Y-80119696D01*
X123225552Y-80185552D01*
X123159696Y-80265798D01*
X123110761Y-80357350D01*
X123080626Y-80456690D01*
X123070451Y-80560000D01*
X122077000Y-80560000D01*
X122077000Y-75100000D01*
X130070451Y-75100000D01*
X130070451Y-77900000D01*
X130080626Y-78003310D01*
X130110761Y-78102650D01*
X130159696Y-78194202D01*
X130225552Y-78274448D01*
X130305798Y-78340304D01*
X130397350Y-78389239D01*
X130496690Y-78419374D01*
X130600000Y-78429549D01*
X132400000Y-78429549D01*
X132503310Y-78419374D01*
X132602650Y-78389239D01*
X132694202Y-78340304D01*
X132774448Y-78274448D01*
X132840304Y-78194202D01*
X132889239Y-78102650D01*
X132919374Y-78003310D01*
X132929549Y-77900000D01*
X134461928Y-77900000D01*
X134474188Y-78024482D01*
X134510498Y-78144180D01*
X134569463Y-78254494D01*
X134648815Y-78351185D01*
X134745506Y-78430537D01*
X134855820Y-78489502D01*
X134975518Y-78525812D01*
X135100000Y-78538072D01*
X135714250Y-78535000D01*
X135873000Y-78376250D01*
X135873000Y-76627000D01*
X136127000Y-76627000D01*
X136127000Y-78376250D01*
X136285750Y-78535000D01*
X136900000Y-78538072D01*
X137024482Y-78525812D01*
X137144180Y-78489502D01*
X137254494Y-78430537D01*
X137351185Y-78351185D01*
X137430537Y-78254494D01*
X137489502Y-78144180D01*
X137525812Y-78024482D01*
X137538072Y-77900000D01*
X137535000Y-76785750D01*
X137376250Y-76627000D01*
X136127000Y-76627000D01*
X135873000Y-76627000D01*
X134623750Y-76627000D01*
X134465000Y-76785750D01*
X134461928Y-77900000D01*
X132929549Y-77900000D01*
X132929549Y-75100000D01*
X134461928Y-75100000D01*
X134465000Y-76214250D01*
X134623750Y-76373000D01*
X135873000Y-76373000D01*
X135873000Y-74623750D01*
X136127000Y-74623750D01*
X136127000Y-76373000D01*
X137376250Y-76373000D01*
X137535000Y-76214250D01*
X137538072Y-75100000D01*
X139070451Y-75100000D01*
X139070451Y-77900000D01*
X139080626Y-78003310D01*
X139110761Y-78102650D01*
X139159696Y-78194202D01*
X139225552Y-78274448D01*
X139305798Y-78340304D01*
X139397350Y-78389239D01*
X139496690Y-78419374D01*
X139600000Y-78429549D01*
X141400000Y-78429549D01*
X141503310Y-78419374D01*
X141602650Y-78389239D01*
X141694202Y-78340304D01*
X141774448Y-78274448D01*
X141840304Y-78194202D01*
X141889239Y-78102650D01*
X141919374Y-78003310D01*
X141929549Y-77900000D01*
X141929549Y-77465000D01*
X142946928Y-77465000D01*
X142959188Y-77589482D01*
X142995498Y-77709180D01*
X143054463Y-77819494D01*
X143133815Y-77916185D01*
X143230506Y-77995537D01*
X143340820Y-78054502D01*
X143460518Y-78090812D01*
X143585000Y-78103072D01*
X144214250Y-78100000D01*
X144373000Y-77941250D01*
X144373000Y-76627000D01*
X143108750Y-76627000D01*
X142950000Y-76785750D01*
X142946928Y-77465000D01*
X141929549Y-77465000D01*
X141929549Y-75535000D01*
X142946928Y-75535000D01*
X142950000Y-76214250D01*
X143108750Y-76373000D01*
X144373000Y-76373000D01*
X144373000Y-75058750D01*
X144627000Y-75058750D01*
X144627000Y-76373000D01*
X144647000Y-76373000D01*
X144647000Y-76627000D01*
X144627000Y-76627000D01*
X144627000Y-77941250D01*
X144785750Y-78100000D01*
X145415000Y-78103072D01*
X145539482Y-78090812D01*
X145659180Y-78054502D01*
X145769494Y-77995537D01*
X145866185Y-77916185D01*
X145945537Y-77819494D01*
X146004502Y-77709180D01*
X146040812Y-77589482D01*
X146053072Y-77465000D01*
X146050380Y-76869857D01*
X146069180Y-76964369D01*
X146189188Y-77254095D01*
X146363413Y-77514841D01*
X146585159Y-77736587D01*
X146845905Y-77910812D01*
X147135631Y-78030820D01*
X147443202Y-78092000D01*
X147756798Y-78092000D01*
X148064369Y-78030820D01*
X148354095Y-77910812D01*
X148614841Y-77736587D01*
X148836587Y-77514841D01*
X149010812Y-77254095D01*
X149130820Y-76964369D01*
X149192000Y-76656798D01*
X149192000Y-76343202D01*
X154308000Y-76343202D01*
X154308000Y-76656798D01*
X154369180Y-76964369D01*
X154489188Y-77254095D01*
X154663413Y-77514841D01*
X154885159Y-77736587D01*
X155145905Y-77910812D01*
X155435631Y-78030820D01*
X155743202Y-78092000D01*
X156056798Y-78092000D01*
X156364369Y-78030820D01*
X156654095Y-77910812D01*
X156914841Y-77736587D01*
X157136587Y-77514841D01*
X157169889Y-77465000D01*
X157946928Y-77465000D01*
X157959188Y-77589482D01*
X157995498Y-77709180D01*
X158054463Y-77819494D01*
X158133815Y-77916185D01*
X158230506Y-77995537D01*
X158340820Y-78054502D01*
X158460518Y-78090812D01*
X158585000Y-78103072D01*
X159214250Y-78100000D01*
X159373000Y-77941250D01*
X159373000Y-76627000D01*
X158108750Y-76627000D01*
X157950000Y-76785750D01*
X157946928Y-77465000D01*
X157169889Y-77465000D01*
X157310812Y-77254095D01*
X157430820Y-76964369D01*
X157492000Y-76656798D01*
X157492000Y-76343202D01*
X157430820Y-76035631D01*
X157310812Y-75745905D01*
X157169890Y-75535000D01*
X157946928Y-75535000D01*
X157950000Y-76214250D01*
X158108750Y-76373000D01*
X159373000Y-76373000D01*
X159373000Y-75058750D01*
X159627000Y-75058750D01*
X159627000Y-76373000D01*
X159647000Y-76373000D01*
X159647000Y-76627000D01*
X159627000Y-76627000D01*
X159627000Y-77941250D01*
X159785750Y-78100000D01*
X160415000Y-78103072D01*
X160539482Y-78090812D01*
X160659180Y-78054502D01*
X160769494Y-77995537D01*
X160866185Y-77916185D01*
X160945537Y-77819494D01*
X161004502Y-77709180D01*
X161040812Y-77589482D01*
X161053072Y-77465000D01*
X161050380Y-76869857D01*
X161069180Y-76964369D01*
X161189188Y-77254095D01*
X161363413Y-77514841D01*
X161585159Y-77736587D01*
X161845905Y-77910812D01*
X162135631Y-78030820D01*
X162443202Y-78092000D01*
X162756798Y-78092000D01*
X163064369Y-78030820D01*
X163354095Y-77910812D01*
X163614841Y-77736587D01*
X163836587Y-77514841D01*
X164010812Y-77254095D01*
X164130820Y-76964369D01*
X164192000Y-76656798D01*
X164192000Y-76343202D01*
X169308000Y-76343202D01*
X169308000Y-76656798D01*
X169369180Y-76964369D01*
X169489188Y-77254095D01*
X169663413Y-77514841D01*
X169885159Y-77736587D01*
X170145905Y-77910812D01*
X170435631Y-78030820D01*
X170743202Y-78092000D01*
X171056798Y-78092000D01*
X171364369Y-78030820D01*
X171654095Y-77910812D01*
X171914841Y-77736587D01*
X172136587Y-77514841D01*
X172169889Y-77465000D01*
X172946928Y-77465000D01*
X172959188Y-77589482D01*
X172995498Y-77709180D01*
X173054463Y-77819494D01*
X173133815Y-77916185D01*
X173230506Y-77995537D01*
X173340820Y-78054502D01*
X173460518Y-78090812D01*
X173585000Y-78103072D01*
X174214250Y-78100000D01*
X174373000Y-77941250D01*
X174373000Y-76627000D01*
X173108750Y-76627000D01*
X172950000Y-76785750D01*
X172946928Y-77465000D01*
X172169889Y-77465000D01*
X172310812Y-77254095D01*
X172430820Y-76964369D01*
X172492000Y-76656798D01*
X172492000Y-76343202D01*
X172430820Y-76035631D01*
X172310812Y-75745905D01*
X172169890Y-75535000D01*
X172946928Y-75535000D01*
X172950000Y-76214250D01*
X173108750Y-76373000D01*
X174373000Y-76373000D01*
X174373000Y-75058750D01*
X174627000Y-75058750D01*
X174627000Y-76373000D01*
X174647000Y-76373000D01*
X174647000Y-76627000D01*
X174627000Y-76627000D01*
X174627000Y-77941250D01*
X174785750Y-78100000D01*
X175415000Y-78103072D01*
X175539482Y-78090812D01*
X175659180Y-78054502D01*
X175769494Y-77995537D01*
X175866185Y-77916185D01*
X175945537Y-77819494D01*
X176004502Y-77709180D01*
X176040812Y-77589482D01*
X176053072Y-77465000D01*
X176050380Y-76869857D01*
X176069180Y-76964369D01*
X176189188Y-77254095D01*
X176363413Y-77514841D01*
X176585159Y-77736587D01*
X176845905Y-77910812D01*
X177135631Y-78030820D01*
X177443202Y-78092000D01*
X177756798Y-78092000D01*
X178064369Y-78030820D01*
X178354095Y-77910812D01*
X178614841Y-77736587D01*
X178836587Y-77514841D01*
X179010812Y-77254095D01*
X179130820Y-76964369D01*
X179192000Y-76656798D01*
X179192000Y-76343202D01*
X184308000Y-76343202D01*
X184308000Y-76656798D01*
X184369180Y-76964369D01*
X184489188Y-77254095D01*
X184663413Y-77514841D01*
X184885159Y-77736587D01*
X185145905Y-77910812D01*
X185435631Y-78030820D01*
X185743202Y-78092000D01*
X186056798Y-78092000D01*
X186364369Y-78030820D01*
X186654095Y-77910812D01*
X186914841Y-77736587D01*
X187136587Y-77514841D01*
X187310812Y-77254095D01*
X187430820Y-76964369D01*
X187492000Y-76656798D01*
X187492000Y-76343202D01*
X187430820Y-76035631D01*
X187310812Y-75745905D01*
X187136587Y-75485159D01*
X186914841Y-75263413D01*
X186654095Y-75089188D01*
X186364369Y-74969180D01*
X186056798Y-74908000D01*
X185743202Y-74908000D01*
X185435631Y-74969180D01*
X185145905Y-75089188D01*
X184885159Y-75263413D01*
X184663413Y-75485159D01*
X184489188Y-75745905D01*
X184369180Y-76035631D01*
X184308000Y-76343202D01*
X179192000Y-76343202D01*
X179130820Y-76035631D01*
X179010812Y-75745905D01*
X178836587Y-75485159D01*
X178614841Y-75263413D01*
X178354095Y-75089188D01*
X178064369Y-74969180D01*
X177756798Y-74908000D01*
X177443202Y-74908000D01*
X177135631Y-74969180D01*
X176845905Y-75089188D01*
X176585159Y-75263413D01*
X176363413Y-75485159D01*
X176189188Y-75745905D01*
X176069180Y-76035631D01*
X176050380Y-76130143D01*
X176053072Y-75535000D01*
X176040812Y-75410518D01*
X176004502Y-75290820D01*
X175945537Y-75180506D01*
X175866185Y-75083815D01*
X175769494Y-75004463D01*
X175659180Y-74945498D01*
X175539482Y-74909188D01*
X175415000Y-74896928D01*
X174785750Y-74900000D01*
X174627000Y-75058750D01*
X174373000Y-75058750D01*
X174214250Y-74900000D01*
X173585000Y-74896928D01*
X173460518Y-74909188D01*
X173340820Y-74945498D01*
X173230506Y-75004463D01*
X173133815Y-75083815D01*
X173054463Y-75180506D01*
X172995498Y-75290820D01*
X172959188Y-75410518D01*
X172946928Y-75535000D01*
X172169890Y-75535000D01*
X172136587Y-75485159D01*
X171914841Y-75263413D01*
X171654095Y-75089188D01*
X171364369Y-74969180D01*
X171056798Y-74908000D01*
X170743202Y-74908000D01*
X170435631Y-74969180D01*
X170145905Y-75089188D01*
X169885159Y-75263413D01*
X169663413Y-75485159D01*
X169489188Y-75745905D01*
X169369180Y-76035631D01*
X169308000Y-76343202D01*
X164192000Y-76343202D01*
X164130820Y-76035631D01*
X164010812Y-75745905D01*
X163836587Y-75485159D01*
X163614841Y-75263413D01*
X163354095Y-75089188D01*
X163064369Y-74969180D01*
X162756798Y-74908000D01*
X162443202Y-74908000D01*
X162135631Y-74969180D01*
X161845905Y-75089188D01*
X161585159Y-75263413D01*
X161363413Y-75485159D01*
X161189188Y-75745905D01*
X161069180Y-76035631D01*
X161050380Y-76130143D01*
X161053072Y-75535000D01*
X161040812Y-75410518D01*
X161004502Y-75290820D01*
X160945537Y-75180506D01*
X160866185Y-75083815D01*
X160769494Y-75004463D01*
X160659180Y-74945498D01*
X160539482Y-74909188D01*
X160415000Y-74896928D01*
X159785750Y-74900000D01*
X159627000Y-75058750D01*
X159373000Y-75058750D01*
X159214250Y-74900000D01*
X158585000Y-74896928D01*
X158460518Y-74909188D01*
X158340820Y-74945498D01*
X158230506Y-75004463D01*
X158133815Y-75083815D01*
X158054463Y-75180506D01*
X157995498Y-75290820D01*
X157959188Y-75410518D01*
X157946928Y-75535000D01*
X157169890Y-75535000D01*
X157136587Y-75485159D01*
X156914841Y-75263413D01*
X156654095Y-75089188D01*
X156364369Y-74969180D01*
X156056798Y-74908000D01*
X155743202Y-74908000D01*
X155435631Y-74969180D01*
X155145905Y-75089188D01*
X154885159Y-75263413D01*
X154663413Y-75485159D01*
X154489188Y-75745905D01*
X154369180Y-76035631D01*
X154308000Y-76343202D01*
X149192000Y-76343202D01*
X149130820Y-76035631D01*
X149010812Y-75745905D01*
X148836587Y-75485159D01*
X148614841Y-75263413D01*
X148354095Y-75089188D01*
X148064369Y-74969180D01*
X147756798Y-74908000D01*
X147443202Y-74908000D01*
X147135631Y-74969180D01*
X146845905Y-75089188D01*
X146585159Y-75263413D01*
X146363413Y-75485159D01*
X146189188Y-75745905D01*
X146069180Y-76035631D01*
X146050380Y-76130143D01*
X146053072Y-75535000D01*
X146040812Y-75410518D01*
X146004502Y-75290820D01*
X145945537Y-75180506D01*
X145866185Y-75083815D01*
X145769494Y-75004463D01*
X145659180Y-74945498D01*
X145539482Y-74909188D01*
X145415000Y-74896928D01*
X144785750Y-74900000D01*
X144627000Y-75058750D01*
X144373000Y-75058750D01*
X144214250Y-74900000D01*
X143585000Y-74896928D01*
X143460518Y-74909188D01*
X143340820Y-74945498D01*
X143230506Y-75004463D01*
X143133815Y-75083815D01*
X143054463Y-75180506D01*
X142995498Y-75290820D01*
X142959188Y-75410518D01*
X142946928Y-75535000D01*
X141929549Y-75535000D01*
X141929549Y-75100000D01*
X141919374Y-74996690D01*
X141889239Y-74897350D01*
X141840304Y-74805798D01*
X141774448Y-74725552D01*
X141694202Y-74659696D01*
X141602650Y-74610761D01*
X141503310Y-74580626D01*
X141400000Y-74570451D01*
X139600000Y-74570451D01*
X139496690Y-74580626D01*
X139397350Y-74610761D01*
X139305798Y-74659696D01*
X139225552Y-74725552D01*
X139159696Y-74805798D01*
X139110761Y-74897350D01*
X139080626Y-74996690D01*
X139070451Y-75100000D01*
X137538072Y-75100000D01*
X137525812Y-74975518D01*
X137489502Y-74855820D01*
X137430537Y-74745506D01*
X137351185Y-74648815D01*
X137254494Y-74569463D01*
X137144180Y-74510498D01*
X137024482Y-74474188D01*
X136900000Y-74461928D01*
X136285750Y-74465000D01*
X136127000Y-74623750D01*
X135873000Y-74623750D01*
X135714250Y-74465000D01*
X135100000Y-74461928D01*
X134975518Y-74474188D01*
X134855820Y-74510498D01*
X134745506Y-74569463D01*
X134648815Y-74648815D01*
X134569463Y-74745506D01*
X134510498Y-74855820D01*
X134474188Y-74975518D01*
X134461928Y-75100000D01*
X132929549Y-75100000D01*
X132919374Y-74996690D01*
X132889239Y-74897350D01*
X132840304Y-74805798D01*
X132774448Y-74725552D01*
X132694202Y-74659696D01*
X132602650Y-74610761D01*
X132503310Y-74580626D01*
X132400000Y-74570451D01*
X130600000Y-74570451D01*
X130496690Y-74580626D01*
X130397350Y-74610761D01*
X130305798Y-74659696D01*
X130225552Y-74725552D01*
X130159696Y-74805798D01*
X130110761Y-74897350D01*
X130080626Y-74996690D01*
X130070451Y-75100000D01*
X122077000Y-75100000D01*
X122077000Y-70856891D01*
X180438519Y-70856891D01*
X180535843Y-71131252D01*
X180684822Y-71381355D01*
X180879731Y-71597588D01*
X181113080Y-71771641D01*
X181375901Y-71896825D01*
X181523110Y-71941476D01*
X181753000Y-71820155D01*
X181753000Y-70627000D01*
X180559186Y-70627000D01*
X180438519Y-70856891D01*
X122077000Y-70856891D01*
X122077000Y-69077000D01*
X181462197Y-69077000D01*
X181375901Y-69103175D01*
M02*
