%TF.GenerationSoftware,KiCad,Pcbnew,(5.1.12)-1*%
%TF.CreationDate,2021-11-26T16:48:14-08:00*%
%TF.ProjectId,VCF Front Pannel,56434620-4672-46f6-9e74-2050616e6e65,rev?*%
%TF.SameCoordinates,Original*%
%TF.FileFunction,Legend,Bot*%
%TF.FilePolarity,Positive*%
%FSLAX46Y46*%
G04 Gerber Fmt 4.6, Leading zero omitted, Abs format (unit mm)*
G04 Created by KiCad (PCBNEW (5.1.12)-1) date 2021-11-26 16:48:14*
%MOMM*%
%LPD*%
G01*
G04 APERTURE LIST*
%ADD10C,0.300000*%
G04 APERTURE END LIST*
D10*
X130231428Y-150308571D02*
X130231428Y-151380000D01*
X130160000Y-151594285D01*
X130017142Y-151737142D01*
X129802857Y-151808571D01*
X129660000Y-151808571D01*
X131660000Y-151808571D02*
X130945714Y-151808571D01*
X130945714Y-150308571D01*
X133017142Y-151665714D02*
X132945714Y-151737142D01*
X132731428Y-151808571D01*
X132588571Y-151808571D01*
X132374285Y-151737142D01*
X132231428Y-151594285D01*
X132160000Y-151451428D01*
X132088571Y-151165714D01*
X132088571Y-150951428D01*
X132160000Y-150665714D01*
X132231428Y-150522857D01*
X132374285Y-150380000D01*
X132588571Y-150308571D01*
X132731428Y-150308571D01*
X132945714Y-150380000D01*
X133017142Y-150451428D01*
X134088571Y-150308571D02*
X134088571Y-151380000D01*
X134017142Y-151594285D01*
X133874285Y-151737142D01*
X133660000Y-151808571D01*
X133517142Y-151808571D01*
X135517142Y-151808571D02*
X134802857Y-151808571D01*
X134802857Y-150308571D01*
X136874285Y-151665714D02*
X136802857Y-151737142D01*
X136588571Y-151808571D01*
X136445714Y-151808571D01*
X136231428Y-151737142D01*
X136088571Y-151594285D01*
X136017142Y-151451428D01*
X135945714Y-151165714D01*
X135945714Y-150951428D01*
X136017142Y-150665714D01*
X136088571Y-150522857D01*
X136231428Y-150380000D01*
X136445714Y-150308571D01*
X136588571Y-150308571D01*
X136802857Y-150380000D01*
X136874285Y-150451428D01*
X137945714Y-150308571D02*
X137945714Y-151380000D01*
X137874285Y-151594285D01*
X137731428Y-151737142D01*
X137517142Y-151808571D01*
X137374285Y-151808571D01*
X139374285Y-151808571D02*
X138660000Y-151808571D01*
X138660000Y-150308571D01*
X140731428Y-151665714D02*
X140660000Y-151737142D01*
X140445714Y-151808571D01*
X140302857Y-151808571D01*
X140088571Y-151737142D01*
X139945714Y-151594285D01*
X139874285Y-151451428D01*
X139802857Y-151165714D01*
X139802857Y-150951428D01*
X139874285Y-150665714D01*
X139945714Y-150522857D01*
X140088571Y-150380000D01*
X140302857Y-150308571D01*
X140445714Y-150308571D01*
X140660000Y-150380000D01*
X140731428Y-150451428D01*
X141802857Y-150308571D02*
X141802857Y-151380000D01*
X141731428Y-151594285D01*
X141588571Y-151737142D01*
X141374285Y-151808571D01*
X141231428Y-151808571D01*
X143231428Y-151808571D02*
X142517142Y-151808571D01*
X142517142Y-150308571D01*
X144588571Y-151665714D02*
X144517142Y-151737142D01*
X144302857Y-151808571D01*
X144160000Y-151808571D01*
X143945714Y-151737142D01*
X143802857Y-151594285D01*
X143731428Y-151451428D01*
X143660000Y-151165714D01*
X143660000Y-150951428D01*
X143731428Y-150665714D01*
X143802857Y-150522857D01*
X143945714Y-150380000D01*
X144160000Y-150308571D01*
X144302857Y-150308571D01*
X144517142Y-150380000D01*
X144588571Y-150451428D01*
%LPC*%
M02*
