%TF.GenerationSoftware,KiCad,Pcbnew,(5.1.12)-1*%
%TF.CreationDate,2021-11-26T16:49:32-08:00*%
%TF.ProjectId,VCO,56434f2e-6b69-4636-9164-5f7063625858,rev?*%
%TF.SameCoordinates,Original*%
%TF.FileFunction,Copper,L2,Bot*%
%TF.FilePolarity,Positive*%
%FSLAX46Y46*%
G04 Gerber Fmt 4.6, Leading zero omitted, Abs format (unit mm)*
G04 Created by KiCad (PCBNEW (5.1.12)-1) date 2021-11-26 16:49:32*
%MOMM*%
%LPD*%
G01*
G04 APERTURE LIST*
%TA.AperFunction,ComponentPad*%
%ADD10O,1.600000X1.600000*%
%TD*%
%TA.AperFunction,ComponentPad*%
%ADD11C,1.600000*%
%TD*%
%TA.AperFunction,ComponentPad*%
%ADD12R,1.700000X1.700000*%
%TD*%
%TA.AperFunction,ComponentPad*%
%ADD13R,1.600000X1.600000*%
%TD*%
%TA.AperFunction,ComponentPad*%
%ADD14R,1.100000X1.800000*%
%TD*%
%TA.AperFunction,ComponentPad*%
%ADD15O,1.700000X1.700000*%
%TD*%
%TA.AperFunction,ComponentPad*%
%ADD16C,1.700000*%
%TD*%
%TA.AperFunction,ComponentPad*%
%ADD17O,2.400000X1.600000*%
%TD*%
%TA.AperFunction,ComponentPad*%
%ADD18R,2.400000X1.600000*%
%TD*%
%TA.AperFunction,ComponentPad*%
%ADD19O,2.000000X1.905000*%
%TD*%
%TA.AperFunction,ComponentPad*%
%ADD20R,2.000000X1.905000*%
%TD*%
%TA.AperFunction,Conductor*%
%ADD21C,0.304800*%
%TD*%
G04 APERTURE END LIST*
D10*
%TO.P,R1,2*%
%TO.N,Net-(R1-Pad2)*%
X21380000Y-95250000D03*
D11*
%TO.P,R1,1*%
%TO.N,Net-(C6-Pad1)*%
X29000000Y-95250000D03*
%TD*%
D12*
%TO.P,J3,1*%
%TO.N,Net-(C5-Pad2)*%
X24130000Y-67310000D03*
%TD*%
D11*
%TO.P,C6,2*%
%TO.N,GND*%
X29561800Y-87630000D03*
%TO.P,C6,1*%
%TO.N,Net-(C6-Pad1)*%
X24561800Y-87630000D03*
%TD*%
D10*
%TO.P,R3,2*%
%TO.N,Net-(C5-Pad1)*%
X49530000Y-102870000D03*
D11*
%TO.P,R3,1*%
%TO.N,Net-(C8-Pad2)*%
X41910000Y-102870000D03*
%TD*%
%TO.P,C7,2*%
%TO.N,Net-(C7-Pad2)*%
X71080000Y-104140000D03*
D13*
%TO.P,C7,1*%
%TO.N,Net-(C5-Pad1)*%
X68580000Y-104140000D03*
%TD*%
D10*
%TO.P,R9,2*%
%TO.N,Net-(C3-Pad1)*%
X55880000Y-81280000D03*
D11*
%TO.P,R9,1*%
%TO.N,Net-(R8-Pad1)*%
X63500000Y-81280000D03*
%TD*%
%TO.P,C4,2*%
%TO.N,GND*%
X20500000Y-50000000D03*
D13*
%TO.P,C4,1*%
%TO.N,Net-(C4-Pad1)*%
X18000000Y-50000000D03*
%TD*%
D10*
%TO.P,R12,2*%
%TO.N,+12V*%
X75133200Y-82397600D03*
D11*
%TO.P,R12,1*%
%TO.N,Net-(C9-Pad1)*%
X75133200Y-90017600D03*
%TD*%
%TO.P,C8,2*%
%TO.N,Net-(C8-Pad2)*%
X34330000Y-102870000D03*
%TO.P,C8,1*%
%TO.N,Net-(C8-Pad1)*%
X36830000Y-102870000D03*
%TD*%
%TO.P,C5,2*%
%TO.N,Net-(C5-Pad2)*%
X30400000Y-102870000D03*
%TO.P,C5,1*%
%TO.N,Net-(C5-Pad1)*%
X25400000Y-102870000D03*
%TD*%
%TO.P,C1,2*%
%TO.N,GND*%
X81240000Y-43180000D03*
D13*
%TO.P,C1,1*%
%TO.N,+12V*%
X78740000Y-43180000D03*
%TD*%
D11*
%TO.P,C2,2*%
%TO.N,GND*%
X74890000Y-43180000D03*
D13*
%TO.P,C2,1*%
%TO.N,-12V*%
X72390000Y-43180000D03*
%TD*%
D10*
%TO.P,R13,2*%
%TO.N,Net-(R11-Pad1)*%
X45720000Y-33020000D03*
D11*
%TO.P,R13,1*%
%TO.N,Net-(J5-PadTN)*%
X45720000Y-25400000D03*
%TD*%
D14*
%TO.P,Q1,1*%
%TO.N,Net-(C5-Pad2)*%
X21590000Y-79140000D03*
%TO.P,Q1,3*%
%TO.N,Net-(C5-Pad1)*%
%TA.AperFunction,ComponentPad*%
G36*
G01*
X23580000Y-79765000D02*
X23580000Y-78515000D01*
G75*
G02*
X23855000Y-78240000I275000J0D01*
G01*
X24405000Y-78240000D01*
G75*
G02*
X24680000Y-78515000I0J-275000D01*
G01*
X24680000Y-79765000D01*
G75*
G02*
X24405000Y-80040000I-275000J0D01*
G01*
X23855000Y-80040000D01*
G75*
G02*
X23580000Y-79765000I0J275000D01*
G01*
G37*
%TD.AperFunction*%
%TO.P,Q1,2*%
%TO.N,Net-(Q1-Pad2)*%
%TA.AperFunction,ComponentPad*%
G36*
G01*
X22310000Y-77695000D02*
X22310000Y-76445000D01*
G75*
G02*
X22585000Y-76170000I275000J0D01*
G01*
X23135000Y-76170000D01*
G75*
G02*
X23410000Y-76445000I0J-275000D01*
G01*
X23410000Y-77695000D01*
G75*
G02*
X23135000Y-77970000I-275000J0D01*
G01*
X22585000Y-77970000D01*
G75*
G02*
X22310000Y-77695000I0J275000D01*
G01*
G37*
%TD.AperFunction*%
%TD*%
D15*
%TO.P,J1,4*%
%TO.N,+5V*%
X38100000Y-57150000D03*
%TO.P,J1,3*%
%TO.N,+12V*%
X35560000Y-57150000D03*
%TO.P,J1,2*%
%TO.N,GND*%
X33020000Y-57150000D03*
D12*
%TO.P,J1,1*%
%TO.N,-12V*%
X30480000Y-57150000D03*
%TD*%
D10*
%TO.P,R10,2*%
%TO.N,Net-(R10-Pad2)*%
X45720000Y-55880000D03*
D11*
%TO.P,R10,1*%
%TO.N,Net-(R10-Pad1)*%
X45720000Y-48260000D03*
%TD*%
D10*
%TO.P,R2,2*%
%TO.N,Net-(R2-Pad2)*%
X40640000Y-95250000D03*
D11*
%TO.P,R2,1*%
%TO.N,Net-(C6-Pad1)*%
X33020000Y-95250000D03*
%TD*%
D10*
%TO.P,R11,2*%
%TO.N,Net-(R10-Pad1)*%
X45720000Y-44450000D03*
D11*
%TO.P,R11,1*%
%TO.N,Net-(R11-Pad1)*%
X45720000Y-36830000D03*
%TD*%
D10*
%TO.P,R5,2*%
%TO.N,Net-(C8-Pad1)*%
X33020000Y-87630000D03*
D11*
%TO.P,R5,1*%
%TO.N,Net-(Q1-Pad2)*%
X40640000Y-87630000D03*
%TD*%
%TO.P,C9,2*%
%TO.N,Net-(C9-Pad2)*%
X68620000Y-92710000D03*
D13*
%TO.P,C9,1*%
%TO.N,Net-(C9-Pad1)*%
X71120000Y-92710000D03*
%TD*%
D10*
%TO.P,R14,2*%
%TO.N,Net-(C9-Pad2)*%
X53340000Y-102870000D03*
D11*
%TO.P,R14,1*%
%TO.N,Net-(R14-Pad1)*%
X60960000Y-102870000D03*
%TD*%
D10*
%TO.P,R8,2*%
%TO.N,Net-(R4-Pad1)*%
X63500000Y-74930000D03*
D11*
%TO.P,R8,1*%
%TO.N,Net-(R8-Pad1)*%
X55880000Y-74930000D03*
%TD*%
D10*
%TO.P,R7,2*%
%TO.N,Net-(C7-Pad2)*%
X52070000Y-95250000D03*
D11*
%TO.P,R7,1*%
%TO.N,Net-(R10-Pad2)*%
X44450000Y-95250000D03*
%TD*%
D10*
%TO.P,R6,2*%
%TO.N,+12V*%
X52070000Y-87630000D03*
D11*
%TO.P,R6,1*%
%TO.N,Net-(C8-Pad1)*%
X44450000Y-87630000D03*
%TD*%
D10*
%TO.P,R4,2*%
%TO.N,Net-(C6-Pad1)*%
X55880000Y-87630000D03*
D11*
%TO.P,R4,1*%
%TO.N,Net-(R4-Pad1)*%
X63500000Y-87630000D03*
%TD*%
%TO.P,C3,2*%
%TO.N,GND*%
X81240000Y-33020000D03*
D13*
%TO.P,C3,1*%
%TO.N,Net-(C3-Pad1)*%
X78740000Y-33020000D03*
%TD*%
D16*
%TO.P,RV2,3*%
%TO.N,Net-(C4-Pad1)*%
X24050000Y-57150000D03*
%TO.P,RV2,2*%
%TO.N,Net-(R1-Pad2)*%
X21550000Y-57150000D03*
%TO.P,RV2,1*%
%TO.N,GND*%
X19050000Y-57150000D03*
%TD*%
%TO.P,RV1,3*%
%TO.N,GND*%
X39290000Y-48260000D03*
%TO.P,RV1,2*%
%TO.N,Net-(R2-Pad2)*%
X36790000Y-48260000D03*
%TO.P,RV1,1*%
%TO.N,Net-(J2-PadTN)*%
X34290000Y-48260000D03*
%TD*%
%TO.P,J7,TN*%
%TO.N,Net-(J7-PadTN)*%
X38020000Y-39370000D03*
%TO.P,J7,T*%
%TO.N,GND*%
X35520000Y-39370000D03*
%TO.P,J7,S*%
X33020000Y-39370000D03*
%TD*%
%TO.P,J4,TN*%
%TO.N,Net-(J4-PadTN)*%
X24050000Y-30480000D03*
%TO.P,J4,T*%
%TO.N,GND*%
X21550000Y-30480000D03*
%TO.P,J4,S*%
X19050000Y-30480000D03*
%TD*%
%TO.P,J2,TN*%
%TO.N,Net-(J2-PadTN)*%
X29130000Y-48260000D03*
%TO.P,J2,T*%
%TO.N,GND*%
X26630000Y-48260000D03*
%TO.P,J2,S*%
X24130000Y-48260000D03*
%TD*%
D17*
%TO.P,U6,8*%
%TO.N,-12V*%
X58420000Y-33020000D03*
%TO.P,U6,4*%
%TO.N,+12V*%
X50800000Y-40640000D03*
%TO.P,U6,7*%
%TO.N,Net-(J7-PadTN)*%
X58420000Y-35560000D03*
%TO.P,U6,3*%
%TO.N,GND*%
X50800000Y-38100000D03*
%TO.P,U6,6*%
%TO.N,Net-(R16-Pad1)*%
X58420000Y-38100000D03*
%TO.P,U6,2*%
%TO.N,Net-(R11-Pad1)*%
X50800000Y-35560000D03*
%TO.P,U6,5*%
%TO.N,GND*%
X58420000Y-40640000D03*
D18*
%TO.P,U6,1*%
%TO.N,Net-(J5-PadTN)*%
X50800000Y-33020000D03*
%TD*%
D16*
%TO.P,J5,TN*%
%TO.N,Net-(J5-PadTN)*%
X38020000Y-30480000D03*
%TO.P,J5,T*%
%TO.N,GND*%
X35520000Y-30480000D03*
%TO.P,J5,S*%
X33020000Y-30480000D03*
%TD*%
D17*
%TO.P,U5,14*%
%TO.N,Net-(J6-PadTN)*%
X58420000Y-46990000D03*
%TO.P,U5,7*%
%TO.N,Net-(J4-PadTN)*%
X50800000Y-62230000D03*
%TO.P,U5,13*%
%TO.N,Net-(J6-PadTN)*%
X58420000Y-49530000D03*
%TO.P,U5,6*%
%TO.N,Net-(J4-PadTN)*%
X50800000Y-59690000D03*
%TO.P,U5,12*%
%TO.N,Net-(R15-Pad1)*%
X58420000Y-52070000D03*
%TO.P,U5,5*%
%TO.N,Net-(R10-Pad1)*%
X50800000Y-57150000D03*
%TO.P,U5,11*%
%TO.N,-12V*%
X58420000Y-54610000D03*
%TO.P,U5,4*%
%TO.N,+12V*%
X50800000Y-54610000D03*
%TO.P,U5,10*%
%TO.N,GND*%
X58420000Y-57150000D03*
%TO.P,U5,3*%
X50800000Y-52070000D03*
%TO.P,U5,9*%
%TO.N,Net-(R14-Pad1)*%
X58420000Y-59690000D03*
%TO.P,U5,2*%
%TO.N,Net-(R10-Pad2)*%
X50800000Y-49530000D03*
%TO.P,U5,8*%
%TO.N,Net-(R15-Pad1)*%
X58420000Y-62230000D03*
D18*
%TO.P,U5,1*%
%TO.N,Net-(R10-Pad1)*%
X50800000Y-46990000D03*
%TD*%
D17*
%TO.P,U3,8*%
%TO.N,+12V*%
X51620000Y-68580000D03*
%TO.P,U3,4*%
%TO.N,-12V*%
X44000000Y-76200000D03*
%TO.P,U3,7*%
%TO.N,Net-(C9-Pad1)*%
X51620000Y-71120000D03*
%TO.P,U3,3*%
%TO.N,Net-(C8-Pad2)*%
X44000000Y-73660000D03*
%TO.P,U3,6*%
%TO.N,Net-(R8-Pad1)*%
X51620000Y-73660000D03*
%TO.P,U3,2*%
%TO.N,Net-(C3-Pad1)*%
X44000000Y-71120000D03*
%TO.P,U3,5*%
%TO.N,Net-(C5-Pad1)*%
X51620000Y-76200000D03*
D18*
%TO.P,U3,1*%
%TO.N,Net-(C8-Pad1)*%
X44000000Y-68580000D03*
%TD*%
D10*
%TO.P,R17,2*%
%TO.N,Net-(R16-Pad1)*%
X66040000Y-36620000D03*
D11*
%TO.P,R17,1*%
%TO.N,Net-(J7-PadTN)*%
X66040000Y-29000000D03*
%TD*%
D10*
%TO.P,R16,2*%
%TO.N,Net-(R15-Pad1)*%
X66040000Y-47620000D03*
D11*
%TO.P,R16,1*%
%TO.N,Net-(R16-Pad1)*%
X66040000Y-40000000D03*
%TD*%
D10*
%TO.P,R15,2*%
%TO.N,Net-(R14-Pad1)*%
X73660000Y-36830000D03*
D11*
%TO.P,R15,1*%
%TO.N,Net-(R15-Pad1)*%
X73660000Y-29210000D03*
%TD*%
D16*
%TO.P,J6,TN*%
%TO.N,Net-(J6-PadTN)*%
X24050000Y-39370000D03*
%TO.P,J6,T*%
%TO.N,GND*%
X21550000Y-39370000D03*
%TO.P,J6,S*%
X19050000Y-39370000D03*
%TD*%
D17*
%TO.P,U4,8*%
%TO.N,-12V*%
X38100000Y-68580000D03*
%TO.P,U4,4*%
%TO.N,+12V*%
X30480000Y-76200000D03*
%TO.P,U4,7*%
%TO.N,Net-(R4-Pad1)*%
X38100000Y-71120000D03*
%TO.P,U4,3*%
%TO.N,GND*%
X30480000Y-73660000D03*
%TO.P,U4,6*%
%TO.N,Net-(C6-Pad1)*%
X38100000Y-73660000D03*
%TO.P,U4,2*%
%TO.N,Net-(C5-Pad2)*%
X30480000Y-71120000D03*
%TO.P,U4,5*%
%TO.N,GND*%
X38100000Y-76200000D03*
D18*
%TO.P,U4,1*%
%TO.N,Net-(C5-Pad1)*%
X30480000Y-68580000D03*
%TD*%
D19*
%TO.P,U2,3*%
%TO.N,Net-(C4-Pad1)*%
X78740000Y-54610000D03*
%TO.P,U2,2*%
%TO.N,-12V*%
X78740000Y-57150000D03*
D20*
%TO.P,U2,1*%
%TO.N,GND*%
X78740000Y-59690000D03*
%TD*%
D19*
%TO.P,U1,3*%
%TO.N,Net-(C3-Pad1)*%
X78740000Y-71120000D03*
%TO.P,U1,2*%
%TO.N,GND*%
X78740000Y-73660000D03*
D20*
%TO.P,U1,1*%
%TO.N,+12V*%
X78740000Y-76200000D03*
%TD*%
D21*
%TO.N,GND*%
X38100000Y-76200000D02*
X36442500Y-76200000D01*
X30480000Y-73660000D02*
X33902500Y-73660000D01*
X33902500Y-73660000D02*
X36442500Y-76200000D01*
X78740000Y-59457500D02*
X62385000Y-59457500D01*
X62385000Y-59457500D02*
X60077500Y-57150000D01*
X79982400Y-44437600D02*
X80818500Y-45273700D01*
X80818500Y-45273700D02*
X80818500Y-57379000D01*
X80818500Y-57379000D02*
X78740000Y-59457500D01*
X78740000Y-59690000D02*
X78740000Y-59457500D01*
X58420000Y-57150000D02*
X60077500Y-57150000D01*
X58420000Y-40640000D02*
X56762500Y-40640000D01*
X56762500Y-40640000D02*
X54222500Y-38100000D01*
X54222500Y-38100000D02*
X50800000Y-38100000D01*
X79982400Y-44437600D02*
X81240000Y-43180000D01*
X74890000Y-43180000D02*
X76147600Y-44437600D01*
X76147600Y-44437600D02*
X79982400Y-44437600D01*
X50800000Y-52070000D02*
X49142500Y-52070000D01*
X39290000Y-48260000D02*
X43100000Y-52070000D01*
X43100000Y-52070000D02*
X49142500Y-52070000D01*
X24130000Y-48260000D02*
X26630000Y-48260000D01*
X21550000Y-39370000D02*
X21550000Y-45680000D01*
X21550000Y-45680000D02*
X24130000Y-48260000D01*
X19050000Y-39370000D02*
X21550000Y-39370000D01*
X35520000Y-39370000D02*
X33020000Y-39370000D01*
X49142500Y-38100000D02*
X46502400Y-40740100D01*
X46502400Y-40740100D02*
X36890100Y-40740100D01*
X36890100Y-40740100D02*
X35520000Y-39370000D01*
X33020000Y-30480000D02*
X31708800Y-29168800D01*
X31708800Y-29168800D02*
X22861200Y-29168800D01*
X22861200Y-29168800D02*
X21550000Y-30480000D01*
X35520000Y-30480000D02*
X33020000Y-30480000D01*
X19050000Y-30480000D02*
X21550000Y-30480000D01*
X24130000Y-48260000D02*
X22390000Y-50000000D01*
X22390000Y-50000000D02*
X20500000Y-50000000D01*
X50800000Y-38100000D02*
X49142500Y-38100000D01*
%TO.N,+12V*%
X75133200Y-82397600D02*
X73875700Y-82397600D01*
X73875700Y-82397600D02*
X60058100Y-68580000D01*
X60058100Y-68580000D02*
X51620000Y-68580000D01*
X78740000Y-43180000D02*
X77482500Y-43180000D01*
X50800000Y-40640000D02*
X52457500Y-40640000D01*
X52457500Y-40640000D02*
X53740000Y-41922500D01*
X53740000Y-41922500D02*
X76225000Y-41922500D01*
X76225000Y-41922500D02*
X77482500Y-43180000D01*
X49142500Y-54610000D02*
X38100000Y-54610000D01*
X38100000Y-54610000D02*
X35560000Y-57150000D01*
X50800000Y-54610000D02*
X49142500Y-54610000D01*
%TO.N,-12V*%
X72390000Y-43180000D02*
X72390000Y-44437500D01*
X78740000Y-57150000D02*
X80197600Y-55692400D01*
X80197600Y-55692400D02*
X80197600Y-52245100D01*
X80197600Y-52245100D02*
X72390000Y-44437500D01*
X60077500Y-54610000D02*
X62617500Y-57150000D01*
X62617500Y-57150000D02*
X78740000Y-57150000D01*
X56762500Y-54610000D02*
X55480100Y-55892400D01*
X55480100Y-55892400D02*
X49012900Y-55892400D01*
X49012900Y-55892400D02*
X40485300Y-64420000D01*
X40485300Y-64420000D02*
X36442500Y-64420000D01*
X36442500Y-64420000D02*
X30480000Y-58457500D01*
X36442500Y-68580000D02*
X36442500Y-64420000D01*
X58420000Y-54610000D02*
X56762500Y-54610000D01*
X30480000Y-57150000D02*
X30480000Y-58457500D01*
X38100000Y-68580000D02*
X36442500Y-68580000D01*
X58420000Y-54610000D02*
X60077500Y-54610000D01*
%TO.N,Net-(C3-Pad1)*%
X44000000Y-71120000D02*
X45657500Y-71120000D01*
X55880000Y-81280000D02*
X54515100Y-81280000D01*
X54515100Y-81280000D02*
X45657500Y-72422400D01*
X45657500Y-72422400D02*
X45657500Y-71120000D01*
%TO.N,Net-(C5-Pad2)*%
X30480000Y-71120000D02*
X28822500Y-71120000D01*
X24130000Y-67310000D02*
X25437500Y-67310000D01*
X28822500Y-71120000D02*
X28822500Y-70695000D01*
X28822500Y-70695000D02*
X25437500Y-67310000D01*
%TO.N,Net-(C5-Pad1)*%
X25400000Y-101530400D02*
X25400000Y-102870000D01*
X24130000Y-78740000D02*
X23290500Y-79579500D01*
X23290500Y-79579500D02*
X23290500Y-99420900D01*
X23290500Y-99420900D02*
X25400000Y-101530400D01*
X25400000Y-101530400D02*
X46932900Y-101530400D01*
X46932900Y-101530400D02*
X48272500Y-102870000D01*
X49530000Y-102870000D02*
X48272500Y-102870000D01*
X49530000Y-102870000D02*
X50787500Y-102870000D01*
X68580000Y-104140000D02*
X52057500Y-104140000D01*
X52057500Y-104140000D02*
X50787500Y-102870000D01*
%TO.N,Net-(C6-Pad1)*%
X49691100Y-84171800D02*
X39757500Y-74238200D01*
X39757500Y-74238200D02*
X39757500Y-73660000D01*
X54622500Y-87630000D02*
X51164300Y-84171800D01*
X51164300Y-84171800D02*
X49691100Y-84171800D01*
X33020000Y-95250000D02*
X38612900Y-95250000D01*
X38612900Y-95250000D02*
X49691100Y-84171800D01*
X29000000Y-95250000D02*
X33020000Y-95250000D01*
X55880000Y-87630000D02*
X54622500Y-87630000D01*
X38100000Y-73660000D02*
X39757500Y-73660000D01*
X29000000Y-95250000D02*
X24561800Y-90811800D01*
X24561800Y-90811800D02*
X24561800Y-87630000D01*
%TO.N,Net-(C7-Pad2)*%
X71080000Y-104140000D02*
X62190000Y-95250000D01*
X62190000Y-95250000D02*
X52070000Y-95250000D01*
%TO.N,Net-(C8-Pad2)*%
X34330000Y-102870000D02*
X35627500Y-104167500D01*
X35627500Y-104167500D02*
X40612500Y-104167500D01*
X40612500Y-104167500D02*
X41910000Y-102870000D01*
%TO.N,Net-(C8-Pad1)*%
X33020000Y-87630000D02*
X34277500Y-87630000D01*
X44450000Y-87630000D02*
X43190700Y-88889300D01*
X43190700Y-88889300D02*
X35536800Y-88889300D01*
X35536800Y-88889300D02*
X34277500Y-87630000D01*
%TO.N,Net-(C9-Pad1)*%
X71120000Y-92710000D02*
X72377500Y-92710000D01*
X73914400Y-89915600D02*
X75031200Y-89915600D01*
X75031200Y-89915600D02*
X75133200Y-90017600D01*
X72377500Y-92710000D02*
X72377500Y-91452500D01*
X72377500Y-91452500D02*
X73914400Y-89915600D01*
X51620000Y-71120000D02*
X55118800Y-71120000D01*
X55118800Y-71120000D02*
X73914400Y-89915600D01*
%TO.N,Net-(J2-PadTN)*%
X29130000Y-48260000D02*
X34290000Y-48260000D01*
%TO.N,Net-(J5-PadTN)*%
X50800000Y-33020000D02*
X49142500Y-33020000D01*
X45720000Y-28111500D02*
X40388500Y-28111500D01*
X40388500Y-28111500D02*
X38020000Y-30480000D01*
X49142500Y-33020000D02*
X49142500Y-31534000D01*
X49142500Y-31534000D02*
X45720000Y-28111500D01*
X45720000Y-28111500D02*
X45720000Y-25400000D01*
%TO.N,Net-(J6-PadTN)*%
X58420000Y-46990000D02*
X56762500Y-46990000D01*
X56762500Y-46990000D02*
X52479200Y-42706700D01*
X52479200Y-42706700D02*
X27386700Y-42706700D01*
X27386700Y-42706700D02*
X24050000Y-39370000D01*
%TO.N,Net-(J7-PadTN)*%
X58420000Y-35560000D02*
X56762500Y-35560000D01*
X38020000Y-39370000D02*
X46468200Y-39370000D01*
X46468200Y-39370000D02*
X49008200Y-36830000D01*
X49008200Y-36830000D02*
X55492500Y-36830000D01*
X55492500Y-36830000D02*
X56762500Y-35560000D01*
X58420000Y-35560000D02*
X60077500Y-35560000D01*
X60077500Y-35560000D02*
X60077500Y-34962500D01*
X60077500Y-34962500D02*
X66040000Y-29000000D01*
%TO.N,Net-(Q1-Pad2)*%
X22860000Y-77470000D02*
X30480000Y-77470000D01*
X30480000Y-77470000D02*
X40640000Y-87630000D01*
%TO.N,Net-(R4-Pad1)*%
X63500000Y-74930000D02*
X62242500Y-74930000D01*
X38100000Y-71120000D02*
X39757500Y-71120000D01*
X39757500Y-71120000D02*
X41027500Y-69850000D01*
X41027500Y-69850000D02*
X57162500Y-69850000D01*
X57162500Y-69850000D02*
X62242500Y-74930000D01*
%TO.N,Net-(R8-Pad1)*%
X63500000Y-81280000D02*
X62230000Y-81280000D01*
X62230000Y-81280000D02*
X55880000Y-74930000D01*
X53277500Y-73660000D02*
X54547500Y-74930000D01*
X54547500Y-74930000D02*
X55880000Y-74930000D01*
X51620000Y-73660000D02*
X53277500Y-73660000D01*
%TO.N,Net-(R10-Pad1)*%
X46990000Y-46990000D02*
X45720000Y-48260000D01*
X50800000Y-46990000D02*
X46990000Y-46990000D01*
X46990000Y-46990000D02*
X46990000Y-46977500D01*
X46990000Y-46977500D02*
X45720000Y-45707500D01*
X45720000Y-44450000D02*
X45720000Y-45707500D01*
%TO.N,Net-(R11-Pad1)*%
X50800000Y-35560000D02*
X49142500Y-35560000D01*
X49142500Y-35560000D02*
X47872500Y-36830000D01*
X47872500Y-36830000D02*
X45720000Y-36830000D01*
%TO.N,Net-(R15-Pad1)*%
X58420000Y-52070000D02*
X60077500Y-52070000D01*
X60077500Y-52070000D02*
X64527500Y-47620000D01*
X64527500Y-47620000D02*
X66040000Y-47620000D01*
%TO.N,Net-(R16-Pad1)*%
X66040000Y-40000000D02*
X66040000Y-36620000D01*
X58420000Y-38100000D02*
X60077500Y-38100000D01*
X60077500Y-38100000D02*
X61557500Y-36620000D01*
X61557500Y-36620000D02*
X66040000Y-36620000D01*
%TO.N,Net-(C4-Pad1)*%
X24050000Y-54743800D02*
X22743800Y-54743800D01*
X22743800Y-54743800D02*
X18000000Y-50000000D01*
X78740000Y-53200000D02*
X78108500Y-53200000D01*
X78108500Y-53200000D02*
X77968400Y-53340100D01*
X77968400Y-53340100D02*
X25453700Y-53340100D01*
X25453700Y-53340100D02*
X24050000Y-54743800D01*
X24050000Y-54743800D02*
X24050000Y-57150000D01*
X78740000Y-54610000D02*
X78740000Y-53200000D01*
%TD*%
M02*
