M48
METRIC
T1C0.750
T2C0.800
T3C1.000
T4C1.100
%
G90
G05
T1
X21.59Y-78.74
X22.86Y-77.47
X24.13Y-78.74
T2
X18.0Y-50.0
X20.5Y-50.0
X21.38Y-95.25
X24.562Y-87.63
X25.4Y-102.87
X29.0Y-95.25
X29.562Y-87.63
X30.4Y-102.87
X30.48Y-68.58
X30.48Y-71.12
X30.48Y-73.66
X30.48Y-76.2
X33.02Y-87.63
X33.02Y-95.25
X34.33Y-102.87
X36.83Y-102.87
X38.1Y-68.58
X38.1Y-71.12
X38.1Y-73.66
X38.1Y-76.2
X40.64Y-87.63
X40.64Y-95.25
X41.91Y-102.87
X44.0Y-68.58
X44.0Y-71.12
X44.0Y-73.66
X44.0Y-76.2
X44.45Y-87.63
X44.45Y-95.25
X45.72Y-25.4
X45.72Y-33.02
X45.72Y-36.83
X45.72Y-44.45
X45.72Y-48.26
X45.72Y-55.88
X49.53Y-102.87
X50.8Y-33.02
X50.8Y-35.56
X50.8Y-38.1
X50.8Y-40.64
X50.8Y-46.99
X50.8Y-49.53
X50.8Y-52.07
X50.8Y-54.61
X50.8Y-57.15
X50.8Y-59.69
X50.8Y-62.23
X51.62Y-68.58
X51.62Y-71.12
X51.62Y-73.66
X51.62Y-76.2
X52.07Y-87.63
X52.07Y-95.25
X53.34Y-102.87
X55.88Y-74.93
X55.88Y-81.28
X55.88Y-87.63
X58.42Y-33.02
X58.42Y-35.56
X58.42Y-38.1
X58.42Y-40.64
X58.42Y-46.99
X58.42Y-49.53
X58.42Y-52.07
X58.42Y-54.61
X58.42Y-57.15
X58.42Y-59.69
X58.42Y-62.23
X60.96Y-102.87
X63.5Y-74.93
X63.5Y-81.28
X63.5Y-87.63
X66.04Y-29.0
X66.04Y-36.62
X66.04Y-40.0
X66.04Y-47.62
X68.58Y-104.14
X68.62Y-92.71
X71.08Y-104.14
X71.12Y-92.71
X72.39Y-43.18
X73.66Y-29.21
X73.66Y-36.83
X74.89Y-43.18
X75.133Y-82.398
X75.133Y-90.018
X78.74Y-33.02
X78.74Y-43.18
X81.24Y-33.02
X81.24Y-43.18
T3
X19.05Y-30.48
X19.05Y-39.37
X19.05Y-57.15
X21.55Y-30.48
X21.55Y-39.37
X21.55Y-57.15
X24.05Y-30.48
X24.05Y-39.37
X24.05Y-57.15
X24.13Y-48.26
X24.13Y-67.31
X26.63Y-48.26
X29.13Y-48.26
X30.48Y-57.15
X33.02Y-30.48
X33.02Y-39.37
X33.02Y-57.15
X34.29Y-48.26
X35.52Y-30.48
X35.52Y-39.37
X35.56Y-57.15
X36.79Y-48.26
X38.02Y-30.48
X38.02Y-39.37
X38.1Y-57.15
X39.29Y-48.26
T4
X78.74Y-54.61
X78.74Y-57.15
X78.74Y-59.69
X78.74Y-71.12
X78.74Y-73.66
X78.74Y-76.2
T0
M30
